<?xml version="1.0" standalone="no"?>
<!DOCTYPE svg PUBLIC "-//W3C//DTD SVG 1.1//EN" "http://www.w3.org/Graphics/SVG/1.1/DTD/svg11.dtd" >
<svg xmlns="http://www.w3.org/2000/svg" xmlns:xlink="http://www.w3.org/1999/xlink" version="1.1">
<metadata>
Created by FontForge 20141024 at Thu Jan 15 17:36:13 2015
 By System Administrator

</metadata>
<defs>
<font id="DaxPro-Bold" horiz-adv-x="280" >
  <font-face 
    font-family="DaxPro-Bold"
    font-weight="700"
    font-stretch="normal"
    units-per-em="1000"
    panose-1="2 11 8 4 3 1 1 2 1 2"
    ascent="785"
    descent="-215"
    x-height="539"
    cap-height="688"
    bbox="-128 -315 1175 994"
    underline-thickness="52"
    underline-position="-49"
    stemh="67"
    stemv="156"
    unicode-range="U+000D-FB02"
  />
<missing-glyph horiz-adv-x="576" 
d="M59 0v688h458v-688h-458zM154 95h268v498h-268v-498z" />
    <glyph glyph-name=".notdef" horiz-adv-x="576" 
d="M59 0v688h458v-688h-458zM154 95h268v498h-268v-498z" />
    <glyph glyph-name=".null" horiz-adv-x="0" 
 />
    <glyph glyph-name=".null" horiz-adv-x="0" 
 />
    <glyph glyph-name="CR" unicode="&#xd;" horiz-adv-x="268" 
 />
    <glyph glyph-name="space" unicode=" " horiz-adv-x="268" 
 />
    <glyph glyph-name="exclam" unicode="!" horiz-adv-x="326" 
d="M262 688l-33 -435h-119l-34 435h186zM258 80c0 -49 -40 -89 -89 -89s-89 40 -89 89s40 89 89 89s89 -40 89 -89z" />
    <glyph glyph-name="quotedbl" unicode="&#x22;" horiz-adv-x="450" 
d="M392 662l-27 -276h-81l-27 276c14 24 39 36 67 36s54 -12 68 -36zM193 662l-27 -276h-81l-27 276c14 24 40 36 68 36s53 -12 67 -36z" />
    <glyph glyph-name="numbersign" unicode="#" horiz-adv-x="676" 
d="M622 413h-110l-17 -126h99v-80h-110l-28 -207h-99l28 207h-133l-28 -207h-98l28 207h-100v80h111l17 126h-100v80h110l27 195h98l-26 -195h133l26 195h99l-27 -195h100v-80zM413 413h-133l-17 -126h133z" />
    <glyph glyph-name="dollar" unicode="$" horiz-adv-x="527" 
d="M476 200c0 -102 -65 -181 -172 -204v-129h-85v122c-68 2 -129 16 -173 40l40 111c32 -19 83 -32 129 -32c59 0 96 31 96 80c0 125 -258 92 -258 310c0 101 68 177 176 196v120h86v-116c54 -3 103 -18 140 -39l-37 -99c-26 15 -70 28 -110 28c-56 0 -95 -26 -95 -77
c0 -125 263 -86 263 -311z" />
    <glyph glyph-name="percent" unicode="%" horiz-adv-x="910" 
d="M863 203c0 -113 -49 -214 -160 -214s-160 101 -160 214s49 214 160 214s160 -101 160 -214zM613 674l-236 -688l-81 29l236 688zM367 485c0 -113 -49 -214 -160 -214s-160 101 -160 214s49 214 160 214s160 -101 160 -214zM758 205c0 85 -15 147 -55 147
s-55 -62 -55 -147s15 -147 55 -147s55 62 55 147zM262 487c0 85 -15 147 -55 147s-55 -62 -55 -147s15 -147 55 -147s55 62 55 147z" />
    <glyph glyph-name="ampersand" unicode="&#x26;" horiz-adv-x="650" 
d="M642 375l-108 -19v-326c-50 -26 -135 -41 -220 -41c-173 0 -276 66 -276 198c0 95 67 156 152 189v2c-73 27 -112 79 -112 148c0 108 94 173 217 173c68 0 125 -15 170 -40l-46 -91c-24 13 -59 23 -94 23c-54 0 -91 -30 -91 -78c0 -46 39 -84 102 -84c50 0 97 8 148 19
l137 29zM381 98v245c-125 -19 -178 -67 -178 -150c0 -64 38 -106 118 -106c23 0 44 4 60 11z" />
    <glyph glyph-name="quotesingle" unicode="'" horiz-adv-x="251" 
d="M193 662l-27 -276h-81l-27 276c14 24 40 36 68 36s53 -12 67 -36z" />
    <glyph glyph-name="parenleft" unicode="(" horiz-adv-x="377" 
d="M357 -189l-74 -50c-153 141 -235 321 -235 525s82 384 235 525l74 -50c-96 -131 -148 -301 -148 -475s52 -344 148 -475z" />
    <glyph glyph-name="parenright" unicode=")" horiz-adv-x="377" 
d="M329 286c0 -204 -82 -384 -235 -525l-74 50c96 131 148 301 148 475s-52 344 -148 475l74 50c153 -141 235 -321 235 -525z" />
    <glyph glyph-name="asterisk" unicode="*" horiz-adv-x="463" 
d="M418 712c0 -32 -25 -58 -57 -58s-58 26 -58 58s26 57 58 57s57 -25 57 -57zM289 806c0 -32 -25 -57 -57 -57s-58 25 -58 57s26 58 58 58s57 -26 57 -58zM277 672c0 -25 -20 -46 -45 -46s-46 21 -46 46s21 45 46 45s45 -20 45 -45zM369 562c0 -32 -25 -57 -57 -57
s-58 25 -58 57s26 58 58 58s57 -26 57 -58zM160 712c0 -32 -25 -58 -57 -58s-58 26 -58 58s26 57 58 57s57 -25 57 -57zM209 562c0 -32 -26 -57 -58 -57s-57 25 -57 57s25 58 57 58s58 -26 58 -58z" />
    <glyph glyph-name="plus" unicode="+" horiz-adv-x="532" 
d="M478 272h-155v-155h-114v155h-155v106h155v156h114v-156h155v-106z" />
    <glyph glyph-name="comma" unicode="," horiz-adv-x="294" 
d="M246 121l-150 -266h-92l84 266c18 28 49 47 90 47c42 0 63 -20 68 -47z" />
    <glyph glyph-name="hyphen" unicode="-" horiz-adv-x="356" 
d="M308 268h-260v114h260v-114z" />
    <glyph glyph-name="period" unicode="." horiz-adv-x="282" 
d="M230 80c0 -49 -40 -89 -89 -89s-89 40 -89 89s40 89 89 89s89 -40 89 -89z" />
    <glyph glyph-name="slash" unicode="/" horiz-adv-x="469" 
d="M450 763l-338 -978l-126 46l339 978z" />
    <glyph glyph-name="zero" unicode="0" horiz-adv-x="578" 
d="M531 344c0 -186 -71 -355 -242 -355s-242 169 -242 355s71 355 242 355s242 -169 242 -355zM376 347c0 141 -18 253 -87 253s-88 -112 -88 -253s19 -253 88 -253s87 112 87 253z" />
    <glyph glyph-name="one" unicode="1" horiz-adv-x="434" 
d="M353 0h-158v524c-30 -14 -93 -28 -162 -32l-20 93c118 15 200 58 227 103h113v-688z" />
    <glyph glyph-name="two" unicode="2" horiz-adv-x="517" 
d="M472 0h-461l246 359c34 50 47 91 47 129c0 58 -33 98 -112 98c-43 0 -92 -13 -123 -27l-37 99c50 25 120 41 193 41c170 0 242 -85 242 -195c0 -56 -28 -114 -91 -195l-139 -180h235v-129z" />
    <glyph glyph-name="three" unicode="3" horiz-adv-x="519" 
d="M476 208c0 -131 -106 -219 -259 -219c-76 0 -153 14 -203 39l42 106c34 -18 88 -30 135 -30c73 0 121 39 121 104c0 77 -64 111 -154 111h-15v83c98 9 153 51 153 110c0 51 -39 77 -96 77c-46 0 -91 -11 -128 -28l-38 99c54 25 124 39 192 39c137 0 223 -61 223 -168
c0 -72 -53 -120 -108 -143v-2c74 -25 135 -81 135 -178z" />
    <glyph glyph-name="four" unicode="4" horiz-adv-x="545" 
d="M506 136h-51v-136h-147v136h-274v92l268 460h153v-466h51v-86zM312 544h-2c-6 -16 -20 -52 -47 -99l-130 -223h175v218c0 43 2 73 4 104z" />
    <glyph glyph-name="five" unicode="5" horiz-adv-x="519" 
d="M476 208c0 -122 -103 -219 -260 -219c-75 0 -152 14 -202 39l42 106c33 -18 87 -30 135 -30c78 0 121 47 121 105c0 64 -40 116 -160 116c-30 0 -63 -2 -101 -8l42 371h353v-128h-244l-15 -147c20 2 24 2 30 2c179 0 259 -87 259 -207z" />
    <glyph glyph-name="six" unicode="6" horiz-adv-x="563" 
d="M520 214c0 -124 -79 -225 -235 -225c-158 0 -239 111 -239 268c0 236 159 397 392 442l30 -104c-107 -28 -197 -80 -245 -183c20 6 44 10 67 10c144 0 230 -82 230 -208zM373 216c0 85 -39 127 -116 127c-20 0 -39 -4 -57 -10c-6 -26 -8 -50 -8 -82
c0 -99 30 -161 94 -161c59 0 87 56 87 126z" />
    <glyph glyph-name="seven" unicode="7" horiz-adv-x="509" 
d="M497 688l-87 -211c-79 -192 -134 -375 -156 -477h-189l247 560h-287v128h472z" />
    <glyph glyph-name="eight" unicode="8" horiz-adv-x="559" 
d="M516 172c0 -111 -97 -183 -237 -183c-132 0 -236 64 -236 182c0 94 61 141 138 186c-68 43 -119 89 -119 169c0 104 93 173 217 173c125 0 218 -68 218 -172c0 -79 -50 -122 -119 -164c76 -46 138 -100 138 -191zM371 529c0 49 -37 83 -88 83c-52 0 -88 -34 -88 -83
c0 -51 30 -77 89 -115c57 37 87 66 87 115zM373 174c0 59 -32 90 -96 130c-65 -38 -98 -71 -98 -129c0 -50 44 -90 98 -90c57 0 96 38 96 89z" />
    <glyph glyph-name="nine" unicode="9" horiz-adv-x="563" 
d="M517 431c0 -236 -160 -397 -393 -442l-29 104c107 28 196 80 244 183c-20 -6 -43 -10 -66 -10c-144 0 -230 82 -230 208c0 124 79 225 235 225c158 0 239 -111 239 -268zM371 439c0 99 -31 161 -95 161c-59 0 -86 -56 -86 -126c0 -85 39 -127 116 -127c20 0 39 5 57 11
c6 26 8 49 8 81z" />
    <glyph glyph-name="colon" unicode=":" horiz-adv-x="292" 
d="M240 394c0 -49 -40 -89 -89 -89s-89 40 -89 89s40 89 89 89s89 -40 89 -89zM240 80c0 -49 -40 -89 -89 -89s-89 40 -89 89s40 89 89 89s89 -40 89 -89z" />
    <glyph glyph-name="semicolon" unicode=";" horiz-adv-x="298" 
d="M246 393c0 -49 -40 -88 -89 -88s-89 39 -89 88s40 89 89 89s89 -40 89 -89zM249 121l-149 -266h-93l84 266c18 28 49 47 90 47c42 0 63 -20 68 -47z" />
    <glyph glyph-name="less" unicode="&#x3c;" horiz-adv-x="532" 
d="M478 105l-424 173v94l424 174v-118l-289 -102v-2l289 -102v-117z" />
    <glyph glyph-name="equal" unicode="=" horiz-adv-x="532" 
d="M478 379h-424v106h424v-106zM478 166h-424v106h424v-106z" />
    <glyph glyph-name="greater" unicode="&#x3e;" horiz-adv-x="532" 
d="M478 278l-424 -173v117l289 102v2l-289 102v118l424 -174v-94z" />
    <glyph glyph-name="question" unicode="?" horiz-adv-x="456" 
d="M442 530c0 -87 -82 -144 -150 -165l-8 -112h-119l-12 157c62 13 124 47 124 104c0 44 -26 78 -96 78c-32 0 -75 -12 -101 -25l-40 92c41 23 111 40 172 40c143 0 230 -65 230 -169zM314 80c0 -49 -40 -89 -89 -89s-89 40 -89 89s40 89 89 89s89 -40 89 -89z" />
    <glyph glyph-name="at" unicode="@" horiz-adv-x="908" 
d="M866 377c0 -213 -169 -389 -381 -389c-150 0 -231 103 -231 238c0 152 93 293 250 293c67 0 116 -22 148 -49l-57 -376c95 38 172 143 172 281s-82 244 -242 244c-251 0 -384 -200 -384 -397c0 -200 126 -333 322 -333c132 0 254 47 349 129l52 -65
c-106 -94 -255 -147 -406 -147c-237 0 -416 155 -416 408c0 251 185 485 486 485c211 0 338 -139 338 -322zM545 427c-13 7 -28 12 -53 12c-85 0 -136 -103 -136 -208c0 -95 43 -156 131 -156h6z" />
    <glyph glyph-name="A" unicode="A" horiz-adv-x="624" 
d="M620 0h-170l-41 153h-208l-42 -153h-155l224 688h169zM385 246l-59 224c-9 35 -14 66 -18 89h-2c-3 -23 -8 -57 -17 -89l-62 -224h158z" />
    <glyph glyph-name="B" unicode="B" horiz-adv-x="601" 
d="M563 189c0 -136 -107 -200 -279 -200c-87 0 -164 14 -219 39v632c56 25 130 39 213 39c180 0 265 -81 265 -185c0 -79 -54 -132 -122 -151v-2c76 -21 142 -88 142 -172zM389 504c0 65 -34 104 -111 104c-22 0 -43 -4 -59 -9v-203h38c94 0 132 36 132 108zM401 196
c0 83 -45 123 -144 123h-38v-225c15 -6 38 -9 62 -9c74 0 120 35 120 111z" />
    <glyph glyph-name="C" unicode="C" horiz-adv-x="492" 
d="M466 30c-39 -26 -88 -41 -150 -41c-191 0 -272 175 -272 355s81 355 272 355c62 0 111 -14 150 -40l-35 -99c-22 13 -48 22 -83 22c-102 0 -137 -119 -137 -236c0 -114 39 -233 136 -233c33 0 60 9 81 22z" />
    <glyph glyph-name="D" unicode="D" horiz-adv-x="622" 
d="M578 344c0 -224 -112 -355 -308 -355c-75 0 -148 13 -205 39v632c57 26 130 39 205 39c196 0 308 -131 308 -355zM415 347c0 168 -45 245 -137 245c-20 0 -41 -3 -53 -8v-475c12 -5 33 -8 53 -8c92 0 137 78 137 246z" />
    <glyph glyph-name="E" unicode="E" horiz-adv-x="459" 
d="M416 0h-351v688h351v-109h-189v-175h165v-106h-165v-189h189v-109z" />
    <glyph glyph-name="F" unicode="F" horiz-adv-x="452" 
d="M415 579h-188v-175h165v-106h-165v-298h-162v688h350v-109z" />
    <glyph glyph-name="G" unicode="G" horiz-adv-x="616" 
d="M556 28c-46 -25 -122 -39 -197 -39c-207 0 -315 143 -315 354c0 201 118 356 330 356c72 0 127 -14 176 -41l-44 -100c-29 15 -71 26 -117 26c-122 0 -182 -100 -182 -251c0 -150 63 -231 144 -231c20 0 40 2 54 8v197h-88v97h239v-376z" />
    <glyph glyph-name="H" unicode="H" horiz-adv-x="628" 
d="M563 0h-162v298h-174v-298h-162v688h162v-284h174v284h162v-688z" />
    <glyph glyph-name="I" unicode="I" horiz-adv-x="296" 
d="M229 0h-162v688h162v-688z" />
    <glyph glyph-name="J" unicode="J" horiz-adv-x="296" 
d="M229 688v-601c0 -172 -88 -293 -266 -308v113c70 21 104 86 104 181v615h162z" />
    <glyph glyph-name="K" unicode="K" horiz-adv-x="600" 
d="M591 0h-184l-178 341h-2v-341h-160v688h160v-310h2l181 310h168l-205 -317z" />
    <glyph glyph-name="L" unicode="L" horiz-adv-x="434" 
d="M404 0h-337v688h162v-579h175v-109z" />
    <glyph glyph-name="M" unicode="M" horiz-adv-x="799" 
d="M760 0h-152l-32 396c-2 27 -4 70 -4 83h-2c-3 -14 -9 -45 -20 -83l-117 -396h-82l-114 396c-12 41 -18 70 -21 83h-2v-12c0 -9 0 -44 -3 -71l-36 -396h-136l73 688h159l109 -384c9 -33 14 -57 19 -88h2c5 32 9 56 18 88l109 384h159z" />
    <glyph glyph-name="N" unicode="N" horiz-adv-x="654" 
d="M589 0h-124l-230 388c-12 21 -27 51 -36 72h-2c3 -41 4 -59 4 -81v-379h-136v688h142l211 -357c18 -31 20 -35 36 -69h2c-2 23 -4 49 -4 78v348h137v-688z" />
    <glyph glyph-name="O" unicode="O" horiz-adv-x="626" 
d="M582 344c0 -204 -85 -355 -269 -355s-269 151 -269 355s85 355 269 355s269 -151 269 -355zM419 347c0 139 -24 243 -106 243s-106 -104 -106 -243s24 -242 106 -242s106 103 106 242z" />
    <glyph glyph-name="P" unicode="P" horiz-adv-x="576" 
d="M542 479c0 -125 -85 -223 -275 -223c-12 0 -31 2 -43 4v-260h-159v660c54 24 128 39 209 39c191 0 268 -97 268 -220zM387 480c0 80 -31 127 -112 127c-19 0 -37 -3 -51 -8v-246c13 -2 28 -3 43 -3c87 0 120 52 120 130z" />
    <glyph glyph-name="Q" unicode="Q" horiz-adv-x="626" 
d="M582 344c0 -138 -38 -252 -120 -310l115 -135l-119 -93l-96 188c-15 -3 -32 -5 -49 -5c-184 0 -269 151 -269 355s85 355 269 355s269 -151 269 -355zM419 347c0 139 -24 243 -106 243s-106 -104 -106 -243s24 -242 106 -242s106 103 106 242z" />
    <glyph glyph-name="R" unicode="R" horiz-adv-x="595" 
d="M575 0h-179l-93 206c-18 39 -44 72 -79 88v-294h-158v660c55 25 128 39 206 39c175 0 276 -69 276 -209c0 -92 -61 -154 -156 -181v-2c27 -25 50 -60 67 -92zM389 484c0 82 -37 123 -113 123c-20 0 -39 -3 -52 -8v-239c11 -3 27 -4 43 -4c78 0 122 57 122 128z" />
    <glyph glyph-name="S" unicode="S" horiz-adv-x="505" 
d="M464 200c0 -121 -94 -211 -240 -211c-76 0 -143 14 -191 40l41 111c40 -22 86 -32 127 -32c61 0 97 31 97 77c0 124 -257 93 -257 313c0 117 92 201 232 201c66 0 125 -15 169 -40l-36 -99c-30 17 -74 28 -111 28c-57 0 -95 -27 -95 -76c0 -124 264 -87 264 -312z" />
    <glyph glyph-name="T" unicode="T" horiz-adv-x="472" 
d="M441 579h-124v-579h-162v579h-124v109h410v-109z" />
    <glyph glyph-name="U" unicode="U" horiz-adv-x="614" 
d="M549 688v-485c0 -132 -100 -215 -242 -215s-242 83 -242 215v485h162v-487c0 -56 39 -89 86 -89s85 33 85 89v487h151z" />
    <glyph glyph-name="V" unicode="V" horiz-adv-x="568" 
d="M562 688l-207 -688h-141l-207 688h171l97 -399c8 -34 12 -66 15 -90h2c3 25 8 60 16 90l100 399h154z" />
    <glyph glyph-name="W" unicode="W" horiz-adv-x="841" 
d="M820 688l-155 -688h-143l-88 362c-8 31 -11 65 -12 74h-2c-1 -9 -4 -43 -12 -74l-88 -362h-144l-155 688h160l73 -402c6 -34 9 -68 10 -80h2c1 13 6 49 13 80l91 402h115l88 -402c8 -37 10 -54 13 -80h2c2 27 6 56 10 80l75 402h147z" />
    <glyph glyph-name="X" unicode="X" horiz-adv-x="561" 
d="M554 0h-180l-97 235h-2l-102 -235h-166l185 350l-169 338h172l89 -217h2l95 217h157l-168 -325z" />
    <glyph glyph-name="Y" unicode="Y" horiz-adv-x="532" 
d="M531 688l-184 -399v-289h-162v289l-183 399h170l99 -260h2l104 260h154z" />
    <glyph glyph-name="Z" unicode="Z" horiz-adv-x="477" 
d="M443 0h-426l220 579h-197v109h399l-212 -579h216v-109z" />
    <glyph glyph-name="bracketleft" unicode="[" horiz-adv-x="352" 
d="M319 -215h-255v1000h255v-87h-118v-825h118v-88z" />
    <glyph glyph-name="backslash" unicode="\" horiz-adv-x="469" 
d="M483 -169l-126 -46l-338 978l125 46z" />
    <glyph glyph-name="bracketright" unicode="]" horiz-adv-x="352" 
d="M288 -215h-255v88h118v825h-118v87h255v-1000z" />
    <glyph glyph-name="asciicircum" unicode="^" horiz-adv-x="506" 
d="M458 500l-62 -64l-143 135l-143 -135l-62 64l147 175c15 18 36 28 58 28s43 -10 58 -28z" />
    <glyph glyph-name="underscore" unicode="_" horiz-adv-x="520" 
d="M530 -151h-540v76h540v-76z" />
    <glyph glyph-name="grave" unicode="`" 
d="M219 596h-86l-128 137c13 18 39 27 68 27c28 0 56 -8 76 -21z" />
    <glyph glyph-name="a" unicode="a" horiz-adv-x="542" 
d="M483 29c-46 -24 -120 -40 -211 -40c-154 0 -237 58 -237 171c0 133 136 176 302 192v24c0 52 -33 75 -93 75c-50 0 -105 -15 -144 -34l-34 92c54 24 130 41 201 41c132 0 216 -56 216 -197v-324zM337 86v193c-104 -11 -156 -43 -156 -113c0 -60 35 -90 99 -90
c23 0 43 3 57 10z" />
    <glyph glyph-name="b" unicode="b" horiz-adv-x="570" 
d="M530 289c0 -189 -98 -300 -276 -300c-81 0 -150 16 -195 40v756h156v-257c26 12 59 19 94 19c135 0 221 -100 221 -258zM376 273c0 120 -35 184 -106 184c-21 0 -39 -5 -55 -12v-354c12 -5 30 -8 48 -8c79 0 113 72 113 190z" />
    <glyph glyph-name="c" unicode="c" horiz-adv-x="432" 
d="M405 28c-34 -25 -79 -39 -136 -39c-133 0 -229 105 -229 281s98 280 229 280c57 0 102 -14 136 -39l-33 -86c-17 13 -42 21 -67 21c-63 0 -106 -65 -106 -173c0 -107 43 -173 106 -173c25 0 49 8 66 21z" />
    <glyph glyph-name="d" unicode="d" horiz-adv-x="570" 
d="M511 29c-49 -25 -124 -40 -210 -40c-164 0 -261 97 -261 273c0 164 90 284 243 284c26 0 49 -3 73 -9v248h155v-756zM356 96v356c-14 4 -28 6 -44 6c-84 0 -118 -74 -118 -185c0 -117 35 -186 114 -186c22 0 36 4 48 9z" />
    <glyph glyph-name="e" unicode="e" horiz-adv-x="558" 
d="M518 285c0 -8 0 -12 -1 -23l-324 -46c10 -76 59 -120 135 -120c49 0 103 14 136 31l36 -98c-50 -25 -123 -40 -197 -40c-173 0 -263 118 -263 282c0 169 91 279 247 279c151 0 231 -98 231 -265zM370 321c-1 88 -28 138 -89 138c-64 0 -99 -62 -99 -153v-14z" />
    <glyph glyph-name="f" unicode="f" horiz-adv-x="353" 
d="M330 439h-84v-439h-156v439h-58v100h58v55c0 122 75 193 198 193c21 0 34 -2 42 -3v-100c-10 1 -12 1 -15 1c-47 0 -69 -32 -69 -87v-59h84v-100z" />
    <glyph glyph-name="g" unicode="g" horiz-adv-x="570" 
d="M511 7c0 -153 -92 -232 -239 -232c-79 0 -157 17 -201 41l40 101c34 -18 84 -32 133 -32c82 0 112 44 112 107v24c-19 -9 -48 -17 -94 -17c-133 0 -222 101 -222 262c0 183 101 289 282 289c69 0 141 -14 189 -39v-504zM356 102v348c-13 6 -30 9 -49 9
c-77 0 -113 -67 -113 -189c0 -119 34 -180 110 -180c21 0 39 5 52 12z" />
    <glyph glyph-name="h" unicode="h" horiz-adv-x="579" 
d="M520 0h-156v369c0 46 -21 82 -81 82c-25 0 -48 -6 -68 -17v-434h-156v785h156v-265c32 15 69 26 116 26c135 0 189 -79 189 -172v-374z" />
    <glyph glyph-name="i" unicode="i" 
d="M223 694c0 -41 -37 -74 -83 -74s-83 33 -83 74s37 73 83 73s83 -32 83 -73zM218 0h-156v539h156v-539z" />
    <glyph glyph-name="j" unicode="j" horiz-adv-x="282" 
d="M225 694c0 -41 -37 -74 -83 -74c-47 0 -83 33 -83 74s37 73 83 73c47 0 83 -33 83 -73zM220 539v-458c0 -176 -87 -281 -245 -301v104c64 28 89 82 89 178v477h156z" />
    <glyph glyph-name="k" unicode="k" horiz-adv-x="558" 
d="M554 0h-177l-159 263h-2v-263h-155v785h155v-493h2l155 247h165l-182 -253z" />
    <glyph glyph-name="l" unicode="l" 
d="M218 0h-156v785h156v-785z" />
    <glyph glyph-name="m" unicode="m" horiz-adv-x="873" 
d="M814 0h-153v367c0 54 -23 86 -81 86c-28 0 -50 -10 -67 -28v-425h-153v374c0 49 -25 79 -83 79c-26 0 -46 -3 -66 -11v-442h-152v509c62 26 127 40 209 40c81 0 130 -19 169 -53c43 33 100 53 168 53c146 0 209 -77 209 -183v-366z" />
    <glyph glyph-name="n" unicode="n" horiz-adv-x="579" 
d="M520 0h-156v365c0 59 -25 88 -87 88c-24 0 -43 -4 -62 -11v-442h-156v510c61 26 135 39 218 39c170 0 243 -69 243 -185v-364z" />
    <glyph glyph-name="o" unicode="o" horiz-adv-x="566" 
d="M526 270c0 -163 -82 -281 -243 -281s-243 118 -243 281s82 280 243 280s243 -117 243 -280zM370 273c0 105 -22 181 -87 181s-87 -76 -87 -181s22 -183 87 -183s87 78 87 183z" />
    <glyph glyph-name="p" unicode="p" horiz-adv-x="570" 
d="M530 274c0 -173 -96 -281 -237 -281c-32 0 -62 3 -78 9v-217h-156v726c59 27 129 39 204 39c168 0 267 -95 267 -276zM376 272c0 120 -30 186 -114 186c-18 0 -34 -3 -47 -8v-358c10 -3 24 -6 41 -6c83 0 120 65 120 186z" />
    <glyph glyph-name="q" unicode="q" horiz-adv-x="570" 
d="M511 -215h-155v224c-22 -11 -56 -16 -92 -16c-136 0 -224 106 -224 266c0 182 100 291 282 291c69 0 141 -14 189 -39v-726zM356 99v352c-13 5 -30 8 -49 8c-77 0 -113 -68 -113 -190c0 -117 33 -182 108 -182c21 0 41 5 54 12z" />
    <glyph glyph-name="r" unicode="r" horiz-adv-x="359" 
d="M347 546l-28 -108c-17 9 -38 13 -57 13s-37 -3 -47 -8v-443h-156v510c50 24 123 40 219 40c24 0 53 -2 69 -4z" />
    <glyph glyph-name="s" unicode="s" horiz-adv-x="446" 
d="M409 164c0 -100 -81 -175 -213 -175c-62 0 -127 15 -166 39l41 96c36 -21 73 -31 105 -31c45 0 74 26 74 60c0 93 -208 62 -208 232c0 102 84 165 188 165c67 0 119 -12 165 -39l-37 -86c-31 18 -65 28 -94 28c-44 0 -67 -25 -67 -57c0 -90 212 -61 212 -232z" />
    <glyph glyph-name="t" unicode="t" horiz-adv-x="364" 
d="M330 7c-17 -9 -45 -15 -79 -15c-103 0 -161 58 -161 160v287h-58v100h58v115l156 41v-156h84v-100h-84v-287c0 -36 19 -55 51 -55c12 0 23 2 33 6v-96z" />
    <glyph glyph-name="u" unicode="u" horiz-adv-x="572" 
d="M513 30c-51 -24 -137 -41 -220 -41c-155 0 -234 57 -234 190v360h156v-367c0 -52 28 -79 80 -79c22 0 46 5 62 12v434h156v-509z" />
    <glyph glyph-name="v" unicode="v" horiz-adv-x="533" 
d="M520 539l-178 -539h-150l-178 539h168l76 -313c8 -32 12 -71 13 -84h2c1 13 5 51 14 84l82 313h151z" />
    <glyph glyph-name="w" unicode="w" horiz-adv-x="808" 
d="M787 539l-150 -539h-144l-76 298c-7 27 -11 58 -12 68h-2c-1 -12 -4 -40 -11 -68l-77 -298h-143l-150 539h159l62 -313c6 -29 8 -58 9 -80h2c2 21 7 52 14 80l82 313h127l76 -313c7 -30 9 -50 12 -80h2c3 31 5 50 11 80l67 313h142z" />
    <glyph glyph-name="x" unicode="x" horiz-adv-x="524" 
d="M516 0h-172l-87 173h-2l-87 -173h-160l171 274l-154 265h163l80 -161h2l82 161h147l-153 -255z" />
    <glyph glyph-name="y" unicode="y" horiz-adv-x="533" 
d="M520 539l-251 -754h-163l89 215l-181 539h168l75 -322c8 -34 11 -65 12 -83h2c2 17 6 49 15 83l83 322h151z" />
    <glyph glyph-name="z" unicode="z" horiz-adv-x="440" 
d="M407 0h-382l184 439h-167v100h361l-180 -439h184v-100z" />
    <glyph glyph-name="braceleft" unicode="{" horiz-adv-x="395" 
d="M354 -215h-32c-133 0 -212 70 -212 200v166c0 54 -20 87 -68 91v87c48 4 68 38 68 92v164c0 130 79 200 212 200h32v-84c-72 0 -107 -39 -107 -114v-160c0 -73 -20 -119 -75 -140v-2c55 -21 75 -67 75 -140v-161c0 -75 35 -113 107 -113v-86z" />
    <glyph glyph-name="bar" unicode="|" horiz-adv-x="249" 
d="M185 -215h-121v1000h121v-1000z" />
    <glyph glyph-name="braceright" unicode="}" horiz-adv-x="395" 
d="M353 242c-48 -4 -68 -37 -68 -91v-166c0 -130 -79 -200 -212 -200h-32v86c72 0 107 38 107 113v161c0 73 20 119 75 140v2c-55 21 -75 67 -75 140v160c0 75 -35 114 -107 114v84h32c133 0 212 -70 212 -200v-164c0 -54 20 -88 68 -92v-87z" />
    <glyph glyph-name="asciitilde" unicode="~" horiz-adv-x="506" 
d="M458 400c-10 -84 -48 -150 -129 -150c-69 0 -86 62 -144 62c-32 0 -49 -26 -56 -63l-81 31c10 84 48 151 129 151c69 0 86 -62 144 -62c32 0 49 25 56 62z" />
    <glyph glyph-name="uni00A0" unicode="&#xa0;" horiz-adv-x="268" 
 />
    <glyph glyph-name="exclamdown" unicode="&#xa1;" horiz-adv-x="326" 
d="M258 393c0 -49 -40 -88 -89 -88s-89 39 -89 88s40 89 89 89s89 -40 89 -89zM262 -215h-186l34 435h119z" />
    <glyph glyph-name="cent" unicode="&#xa2;" horiz-adv-x="445" 
d="M408 138c-22 -16 -63 -30 -106 -32v-106h-81v110c-102 21 -171 101 -171 238c0 133 73 213 171 234v106h81v-102c41 -2 78 -14 104 -31l-32 -81c-16 10 -36 17 -64 17c-69 0 -104 -55 -104 -141c0 -91 38 -143 104 -143c28 0 48 8 64 18z" />
    <glyph glyph-name="sterling" unicode="&#xa3;" horiz-adv-x="564" 
d="M512 0h-458c62 71 110 164 110 250c0 21 -2 39 -6 57h-98v100h69c-8 26 -14 53 -14 85c0 133 91 207 225 207c65 0 126 -14 171 -39l-34 -101c-28 15 -67 26 -105 26c-69 0 -108 -44 -108 -112c0 -25 3 -46 6 -66h163v-100h-145c2 -16 3 -33 3 -53
c0 -39 -16 -92 -36 -125h257v-129z" />
    <glyph glyph-name="currency" unicode="&#xa4;" horiz-adv-x="580" 
d="M538 132l-58 -59l-70 70c-33 -27 -74 -42 -120 -42s-87 15 -120 42l-70 -70l-58 59l72 72c-20 35 -32 76 -32 121s11 86 31 120l-71 72l58 58l69 -69c33 27 75 43 121 43s88 -16 121 -43l69 69l58 -58l-71 -72c20 -34 31 -75 31 -120s-12 -86 -32 -121zM369 326
c0 73 -33 126 -79 126s-79 -53 -79 -126s33 -125 79 -125s79 52 79 125z" />
    <glyph glyph-name="yen" unicode="&#xa5;" horiz-adv-x="634" 
d="M589 688l-122 -245h95v-65h-128l-43 -87h171v-65h-171v-226h-148v226h-171v65h171l-43 87h-128v65h95l-122 245h160l117 -280h2l122 280h143z" />
    <glyph glyph-name="brokenbar" unicode="&#xa6;" horiz-adv-x="249" 
d="M185 385h-121v400h121v-400zM185 -215h-121v399h121v-399z" />
    <glyph glyph-name="section" unicode="&#xa7;" horiz-adv-x="564" 
d="M516 229c0 -69 -45 -125 -106 -162c31 -31 53 -68 53 -117c0 -112 -96 -175 -208 -175c-59 0 -121 16 -165 43l38 101c27 -19 69 -33 105 -33c44 0 74 25 74 64c0 109 -259 122 -259 321c0 70 45 126 106 163c-24 27 -40 60 -40 102c0 105 89 163 194 163
c56 0 111 -14 153 -41l-35 -93c-31 20 -67 31 -98 31c-45 0 -68 -26 -68 -60c0 -104 256 -114 256 -307zM387 216c0 74 -85 111 -160 159c-32 -22 -54 -51 -54 -88c0 -71 80 -111 156 -159c34 21 58 50 58 88z" />
    <glyph glyph-name="dieresis" unicode="&#xa8;" 
d="M297 663c0 -35 -29 -64 -64 -64s-64 29 -64 64s29 64 64 64s64 -29 64 -64zM111 663c0 -35 -29 -64 -64 -64s-64 29 -64 64s29 64 64 64s64 -29 64 -64z" />
    <glyph glyph-name="copyright" unicode="&#xa9;" horiz-adv-x="806" 
d="M761 344c0 -196 -161 -356 -358 -356s-358 160 -358 356s161 356 358 356s358 -160 358 -356zM676 345c0 157 -121 285 -273 285s-273 -128 -273 -285s121 -285 273 -285s273 128 273 285zM496 173c-21 -14 -53 -22 -89 -22c-110 0 -168 94 -168 196
c0 101 58 196 168 196c39 0 67 -8 89 -22l-18 -50c-12 7 -32 12 -55 12c-71 0 -99 -66 -99 -135c0 -70 33 -134 99 -134c23 0 40 5 53 12z" />
    <glyph glyph-name="ordfeminine" unicode="&#xaa;" horiz-adv-x="390" 
d="M336 346c-31 -16 -84 -28 -140 -28c-101 0 -162 37 -162 114c0 91 91 121 200 131v15c0 33 -19 50 -60 50c-33 0 -69 -10 -95 -22l-23 64c29 13 73 28 134 28c88 0 146 -40 146 -136v-216zM234 386v124c-64 -7 -101 -27 -101 -74c0 -36 23 -57 64 -57c14 0 28 3 37 7z
" />
    <glyph glyph-name="guillemotleft" unicode="&#xab;" horiz-adv-x="526" 
d="M480 143l-87 -50l-139 241l139 241l87 -49l-110 -192zM262 143l-87 -50l-139 241l139 241l87 -49l-110 -192z" />
    <glyph glyph-name="logicalnot" unicode="&#xac;" horiz-adv-x="532" 
d="M478 117h-114v155h-310v106h424v-261z" />
    <glyph glyph-name="uni00AD" unicode="&#xad;" horiz-adv-x="356" 
d="M308 268h-260v114h260v-114z" />
    <glyph glyph-name="registered" unicode="&#xae;" horiz-adv-x="806" 
d="M761 344c0 -196 -161 -356 -358 -356s-358 160 -358 356s161 356 358 356s358 -160 358 -356zM676 345c0 157 -121 285 -273 285s-273 -128 -273 -285s121 -285 273 -285s273 128 273 285zM553 162h-90l-55 116c-11 22 -26 41 -47 49v-165h-79v364c29 14 69 21 110 21
c94 0 147 -37 147 -113c0 -51 -36 -87 -90 -101v-2c15 -13 27 -32 37 -49zM459 431c0 47 -21 70 -65 70c-12 0 -24 -2 -33 -5v-136c7 -2 17 -2 26 -2c46 0 72 32 72 73z" />
    <glyph glyph-name="macron" unicode="&#xaf;" 
d="M282 609h-284v81h284v-81z" />
    <glyph glyph-name="degree" unicode="&#xb0;" horiz-adv-x="418" 
d="M366 542c0 -87 -70 -157 -157 -157s-157 70 -157 157s70 157 157 157s157 -70 157 -157zM287 542c0 44 -35 80 -78 80s-78 -36 -78 -80s35 -80 78 -80s78 36 78 80z" />
    <glyph glyph-name="plusminus" unicode="&#xb1;" horiz-adv-x="532" 
d="M478 317h-155v-146h-114v146h-155v97h155v148h114v-148h155v-97zM478 0h-424v97h424v-97z" />
    <glyph glyph-name="twosuperior" unicode="&#xb2;" horiz-adv-x="372" 
d="M320 476h-301l156 217c20 28 29 51 29 73c0 39 -26 56 -68 56c-27 0 -58 -9 -77 -17l-25 66c33 15 78 25 126 25c111 0 157 -51 157 -117c0 -34 -18 -69 -58 -118l-84 -103h145v-82z" />
    <glyph glyph-name="threesuperior" unicode="&#xb3;" horiz-adv-x="372" 
d="M328 601c0 -79 -69 -133 -170 -133c-49 0 -98 9 -131 24l27 70c21 -11 56 -18 86 -18c46 0 75 22 75 58c0 43 -41 62 -98 62h-8v53c62 6 96 29 96 63c0 29 -21 43 -59 43c-30 0 -58 -6 -82 -16l-24 65c35 15 80 24 124 24c91 0 147 -37 147 -102c0 -42 -33 -71 -67 -85
v-2c47 -16 84 -49 84 -106z" />
    <glyph glyph-name="acute" unicode="&#xb4;" 
d="M275 733l-128 -137h-86l70 143c20 13 48 21 76 21c29 0 55 -9 68 -27z" />
    <glyph glyph-name="mu" unicode="&#xb5;" horiz-adv-x="574" 
d="M515 41c-51 -32 -121 -51 -193 -51c-37 0 -76 7 -105 20v-225h-156v754h156v-427c19 -13 45 -20 71 -20c27 0 53 8 71 19v428h156v-498z" />
    <glyph glyph-name="paragraph" unicode="&#xb6;" horiz-adv-x="652" 
d="M586 -215h-132v804c-27 8 -62 12 -93 12c-12 0 -25 -1 -37 -3v-813h-132v475c-103 31 -156 115 -156 209c0 172 163 230 325 230c83 0 165 -15 225 -39v-875z" />
    <glyph glyph-name="periodcentered" unicode="&#xb7;" horiz-adv-x="282" 
d="M230 326c0 -49 -40 -89 -89 -89s-89 40 -89 89s40 89 89 89s89 -40 89 -89z" />
    <glyph glyph-name="cedilla" unicode="&#xb8;" 
d="M275 -123c0 -59 -68 -90 -186 -90c-40 0 -73 4 -83 5l25 52c11 -1 28 -3 52 -3c57 0 87 13 87 34c0 18 -16 28 -59 28c-25 0 -42 -2 -54 -3l22 47c11 1 37 3 69 3c91 0 127 -28 127 -73z" />
    <glyph glyph-name="onesuperior" unicode="&#xb9;" horiz-adv-x="372" 
d="M279 476h-113v307c-22 -9 -64 -16 -100 -18l-14 61c68 7 122 31 145 62h82v-412z" />
    <glyph glyph-name="ordmasculine" unicode="&#xba;" horiz-adv-x="402" 
d="M364 508c0 -106 -57 -190 -163 -190s-163 84 -163 190c0 105 58 190 163 190s163 -85 163 -190zM258 510c0 67 -14 117 -57 117s-57 -50 -57 -117s14 -117 57 -117s57 50 57 117z" />
    <glyph glyph-name="guillemotright" unicode="&#xbb;" horiz-adv-x="526" 
d="M490 334l-139 -241l-87 50l110 191l-110 192l87 49zM272 334l-139 -241l-87 50l110 191l-110 192l87 49z" />
    <glyph glyph-name="onequarter" unicode="&#xbc;" horiz-adv-x="878" 
d="M819 80h-36v-80h-101v80h-175v58l171 274h105v-275h36v-57zM637 671l-303 -690l-79 37l303 689zM279 276h-113v307c-22 -9 -64 -16 -100 -18l-14 61c68 7 122 31 145 62h82v-412zM685 321h-2c-11 -24 -16 -35 -30 -59l-74 -125h103v122c0 27 2 47 3 62z" />
    <glyph glyph-name="onehalf" unicode="&#xbd;" horiz-adv-x="878" 
d="M826 0h-300l156 217c20 28 28 51 28 73c0 39 -26 56 -68 56c-26 0 -56 -9 -75 -17l-25 66c33 15 78 25 124 25c111 0 158 -51 158 -117c0 -34 -19 -69 -59 -118l-84 -103h145v-82zM607 671l-304 -690l-79 37l304 689zM279 276h-113v307c-22 -9 -64 -16 -100 -18l-14 61
c68 7 122 31 145 62h82v-412z" />
    <glyph glyph-name="threequarters" unicode="&#xbe;" horiz-adv-x="878" 
d="M819 80h-36v-80h-101v80h-175v58l171 274h105v-275h36v-57zM645 671l-304 -690l-79 37l304 689zM327 401c0 -79 -69 -133 -170 -133c-49 0 -98 9 -131 24l27 70c21 -11 56 -18 86 -18c46 0 75 22 75 58c0 43 -41 62 -98 62h-8v53c62 6 96 29 96 63c0 29 -21 43 -59 43
c-30 0 -58 -6 -82 -16l-24 65c35 15 80 24 124 24c91 0 147 -37 147 -102c0 -42 -33 -71 -67 -85v-2c47 -16 84 -49 84 -106zM685 321h-2c-11 -25 -19 -40 -30 -59l-74 -125h103v122c0 23 1 37 3 62z" />
    <glyph glyph-name="questiondown" unicode="&#xbf;" horiz-adv-x="456" 
d="M345 393c0 -49 -40 -88 -89 -88s-88 39 -88 88s39 89 88 89s89 -40 89 -89zM442 -186c-41 -23 -112 -40 -173 -40c-143 0 -229 65 -229 169c0 87 81 144 149 165l8 112h119l12 -157c-62 -13 -124 -47 -124 -104c0 -44 26 -78 96 -78c32 0 75 12 101 25z" />
    <glyph glyph-name="Agrave" unicode="&#xc0;" horiz-adv-x="624" 
d="M620 0h-170l-41 153h-208l-42 -153h-155l224 688h169zM385 246l-59 224c-9 35 -14 66 -18 89h-2c-3 -23 -8 -57 -17 -89l-62 -224h158zM363 744h-86l-128 137c13 18 39 27 68 27c28 0 56 -8 76 -21z" />
    <glyph glyph-name="Aacute" unicode="&#xc1;" horiz-adv-x="624" 
d="M620 0h-170l-41 153h-208l-42 -153h-155l224 688h169zM385 246l-59 224c-9 35 -14 66 -18 89h-2c-3 -23 -8 -57 -17 -89l-62 -224h158zM472 881l-128 -137h-86l70 143c20 13 48 21 76 21c29 0 55 -9 68 -27z" />
    <glyph glyph-name="Acircumflex" unicode="&#xc2;" horiz-adv-x="624" 
d="M620 0h-170l-41 153h-208l-42 -153h-155l224 688h169zM385 246l-59 224c-9 35 -14 66 -18 89h-2c-3 -23 -8 -57 -17 -89l-62 -224h158zM457 775l-44 -41l-101 78l-101 -78l-44 41l101 105c12 13 28 19 44 19s32 -6 44 -19z" />
    <glyph glyph-name="Atilde" unicode="&#xc3;" horiz-adv-x="624" 
d="M620 0h-170l-41 153h-208l-42 -153h-155l224 688h169zM385 246l-59 224c-9 35 -14 66 -18 89h-2c-3 -23 -8 -57 -17 -89l-62 -224h158zM458 848c-7 -57 -34 -103 -93 -103c-51 0 -63 41 -104 41c-22 0 -34 -17 -38 -41l-61 21c7 57 33 102 92 102c51 0 64 -41 105 -41
c22 0 34 18 38 42z" />
    <glyph glyph-name="Adieresis" unicode="&#xc4;" horiz-adv-x="624" 
d="M620 0h-170l-41 153h-208l-42 -153h-155l224 688h169zM385 246l-59 224c-9 35 -14 66 -18 89h-2c-3 -23 -8 -57 -17 -89l-62 -224h158zM285 811c0 -35 -29 -64 -64 -64s-64 29 -64 64s29 64 64 64s64 -29 64 -64zM469 811c0 -35 -29 -64 -64 -64s-64 29 -64 64
s29 64 64 64s64 -29 64 -64z" />
    <glyph glyph-name="Aring" unicode="&#xc5;" horiz-adv-x="624" 
d="M620 0h-170l-41 153h-208l-42 -153h-155l224 688h169zM385 246l-59 224c-9 35 -14 66 -18 89h-2c-3 -23 -8 -57 -17 -89l-62 -224h158zM402 824c0 -49 -41 -89 -90 -89s-90 40 -90 89s41 90 90 90s90 -41 90 -90zM351 824c0 22 -17 41 -39 41s-39 -19 -39 -41
s17 -40 39 -40s39 18 39 40z" />
    <glyph glyph-name="AE" unicode="&#xc6;" horiz-adv-x="771" 
d="M742 0h-305l-27 153h-210l-57 -153h-154l290 688h408v-109h-217l41 -175h176v-106h-155l44 -189h166v-109zM394 246l-38 225c-6 38 -9 71 -10 88h-2c-4 -17 -11 -47 -26 -88l-83 -225h159z" />
    <glyph glyph-name="Ccedilla" unicode="&#xc7;" horiz-adv-x="492" 
d="M466 30c-39 -26 -88 -41 -150 -41c-191 0 -272 175 -272 355s81 355 272 355c62 0 111 -14 150 -40l-35 -99c-22 13 -48 22 -83 22c-102 0 -137 -119 -137 -236c0 -114 39 -233 136 -233c33 0 60 9 81 22zM385 -123c0 -59 -68 -90 -186 -90c-40 0 -73 4 -83 5l25 52
c11 -1 28 -3 52 -3c57 0 87 13 87 34c0 18 -16 28 -59 28c-25 0 -42 -2 -54 -3l22 47c11 1 37 3 69 3c91 0 127 -28 127 -73z" />
    <glyph glyph-name="Egrave" unicode="&#xc8;" horiz-adv-x="459" 
d="M416 0h-351v688h351v-109h-189v-175h165v-106h-165v-189h189v-109zM308 744h-86l-128 137c13 18 39 27 68 27c28 0 56 -8 76 -21z" />
    <glyph glyph-name="Eacute" unicode="&#xc9;" horiz-adv-x="459" 
d="M416 0h-351v688h351v-109h-189v-175h165v-106h-165v-189h189v-109zM388 881l-128 -137h-86l70 143c20 13 48 21 76 21c29 0 55 -9 68 -27z" />
    <glyph glyph-name="Ecircumflex" unicode="&#xca;" horiz-adv-x="459" 
d="M416 0h-351v688h351v-109h-189v-175h165v-106h-165v-189h189v-109zM379 778l-44 -41l-101 78l-101 -78l-44 41l101 105c12 13 28 19 44 19s32 -6 44 -19z" />
    <glyph glyph-name="Edieresis" unicode="&#xcb;" horiz-adv-x="459" 
d="M416 0h-351v688h351v-109h-189v-175h165v-106h-165v-189h189v-109zM211 811c0 -35 -29 -64 -64 -64s-64 29 -64 64s29 64 64 64s64 -29 64 -64zM396 811c0 -35 -29 -64 -64 -64s-64 29 -64 64s29 64 64 64s64 -29 64 -64z" />
    <glyph glyph-name="Igrave" unicode="&#xcc;" horiz-adv-x="296" 
d="M229 0h-162v688h162v-688zM212 744h-86l-128 137c13 18 39 27 68 27c28 0 56 -8 76 -21z" />
    <glyph glyph-name="Iacute" unicode="&#xcd;" horiz-adv-x="296" 
d="M229 0h-162v688h162v-688zM298 881l-128 -137h-86l70 143c20 13 48 21 76 21c29 0 55 -9 68 -27z" />
    <glyph glyph-name="Icircumflex" unicode="&#xce;" horiz-adv-x="296" 
d="M229 0h-162v688h162v-688zM293 777l-44 -41l-101 78l-101 -78l-44 41l101 105c12 13 28 19 44 19s32 -6 44 -19z" />
    <glyph glyph-name="Idieresis" unicode="&#xcf;" horiz-adv-x="296" 
d="M229 0h-162v688h162v-688zM120 811c0 -35 -29 -64 -64 -64s-64 29 -64 64s29 64 64 64s64 -29 64 -64zM304 811c0 -35 -29 -64 -64 -64s-64 29 -64 64s29 64 64 64s64 -29 64 -64z" />
    <glyph glyph-name="Eth" unicode="&#xd0;" horiz-adv-x="631" 
d="M587 348c0 -224 -108 -359 -306 -359c-79 0 -153 14 -207 39v280h-56v97h56v254c54 25 128 40 206 40c195 0 307 -128 307 -351zM426 351c0 170 -46 243 -142 243c-20 0 -39 -2 -53 -7v-182h84v-97h-84v-200c12 -5 32 -8 54 -8c100 0 141 81 141 251z" />
    <glyph glyph-name="Ntilde" unicode="&#xd1;" horiz-adv-x="654" 
d="M589 0h-124l-230 388c-12 21 -27 51 -36 72h-2c3 -41 4 -59 4 -81v-379h-136v688h142l211 -357c18 -31 20 -35 36 -69h2c-2 23 -4 49 -4 78v348h137v-688zM471 848c-7 -57 -34 -103 -93 -103c-51 0 -63 41 -104 41c-22 0 -34 -17 -38 -41l-61 21c7 57 33 102 92 102
c51 0 64 -41 105 -41c22 0 34 18 38 42z" />
    <glyph glyph-name="Ograve" unicode="&#xd2;" horiz-adv-x="626" 
d="M582 344c0 -204 -85 -355 -269 -355s-269 151 -269 355s85 355 269 355s269 -151 269 -355zM419 347c0 139 -24 243 -106 243s-106 -104 -106 -243s24 -242 106 -242s106 103 106 242zM379 745h-86l-128 137c13 18 39 27 68 27c28 0 56 -8 76 -21z" />
    <glyph glyph-name="Oacute" unicode="&#xd3;" horiz-adv-x="626" 
d="M582 344c0 -204 -85 -355 -269 -355s-269 151 -269 355s85 355 269 355s269 -151 269 -355zM419 347c0 139 -24 243 -106 243s-106 -104 -106 -243s24 -242 106 -242s106 103 106 242zM461 882l-128 -137h-86l70 143c20 13 48 21 76 21c29 0 55 -9 68 -27z" />
    <glyph glyph-name="Ocircumflex" unicode="&#xd4;" horiz-adv-x="626" 
d="M582 344c0 -204 -85 -355 -269 -355s-269 151 -269 355s85 355 269 355s269 -151 269 -355zM419 347c0 139 -24 243 -106 243s-106 -104 -106 -243s24 -242 106 -242s106 103 106 242zM458 775l-44 -41l-101 78l-101 -78l-44 41l101 105c12 13 28 19 44 19s32 -6 44 -19z
" />
    <glyph glyph-name="Otilde" unicode="&#xd5;" horiz-adv-x="626" 
d="M582 344c0 -204 -85 -355 -269 -355s-269 151 -269 355s85 355 269 355s269 -151 269 -355zM419 347c0 139 -24 243 -106 243s-106 -104 -106 -243s24 -242 106 -242s106 103 106 242zM461 849c-7 -57 -34 -103 -93 -103c-51 0 -63 41 -104 41c-22 0 -34 -17 -38 -41
l-61 21c7 57 33 102 92 102c51 0 64 -41 105 -41c22 0 34 18 38 42z" />
    <glyph glyph-name="Odieresis" unicode="&#xd6;" horiz-adv-x="626" 
d="M582 344c0 -204 -85 -355 -269 -355s-269 151 -269 355s85 355 269 355s269 -151 269 -355zM419 347c0 139 -24 243 -106 243s-106 -104 -106 -243s24 -242 106 -242s106 103 106 242zM285 812c0 -35 -29 -64 -64 -64s-64 29 -64 64s29 64 64 64s64 -29 64 -64zM470 812
c0 -35 -29 -64 -64 -64s-64 29 -64 64s29 64 64 64s64 -29 64 -64z" />
    <glyph glyph-name="multiply" unicode="&#xd7;" horiz-adv-x="532" 
d="M478 196l-74 -75l-138 137l-138 -137l-74 75l137 137l-137 138l74 75l138 -138l138 138l74 -75l-137 -138z" />
    <glyph glyph-name="Oslash" unicode="&#xd8;" horiz-adv-x="626" 
d="M582 344c0 -204 -85 -355 -269 -355c-66 0 -119 19 -160 54l-58 -91l-42 28l63 101c-49 64 -72 156 -72 263c0 204 85 355 269 355c66 0 120 -19 161 -54l57 91l43 -28l-64 -101c49 -64 72 -156 72 -263zM401 531c-18 42 -46 65 -88 65c-85 0 -114 -96 -114 -248
c0 -47 3 -88 9 -123zM428 348c0 44 -2 83 -8 117l-193 -305c18 -39 46 -60 86 -60c85 0 115 96 115 248z" />
    <glyph glyph-name="Ugrave" unicode="&#xd9;" horiz-adv-x="614" 
d="M549 688v-485c0 -132 -100 -215 -242 -215s-242 83 -242 215v485h162v-487c0 -56 39 -89 86 -89s85 33 85 89v487h151zM384 744h-86l-128 137c13 18 39 27 68 27c28 0 56 -8 76 -21z" />
    <glyph glyph-name="Uacute" unicode="&#xda;" horiz-adv-x="614" 
d="M549 688v-485c0 -132 -100 -215 -242 -215s-242 83 -242 215v485h162v-487c0 -56 39 -89 86 -89s85 33 85 89v487h151zM455 881l-128 -137h-86l70 143c20 13 48 21 76 21c29 0 55 -9 68 -27z" />
    <glyph glyph-name="Ucircumflex" unicode="&#xdb;" horiz-adv-x="614" 
d="M549 688v-485c0 -132 -100 -215 -242 -215s-242 83 -242 215v485h162v-487c0 -56 39 -89 86 -89s85 33 85 89v487h151zM457 778l-44 -41l-101 78l-101 -78l-44 41l101 105c12 13 28 19 44 19s32 -6 44 -19z" />
    <glyph glyph-name="Udieresis" unicode="&#xdc;" horiz-adv-x="614" 
d="M549 688v-485c0 -132 -100 -215 -242 -215s-242 83 -242 215v485h162v-487c0 -56 39 -89 86 -89s85 33 85 89v487h151zM285 811c0 -35 -29 -64 -64 -64s-64 29 -64 64s29 64 64 64s64 -29 64 -64zM469 811c0 -35 -29 -64 -64 -64s-64 29 -64 64s29 64 64 64
s64 -29 64 -64z" />
    <glyph glyph-name="Yacute" unicode="&#xdd;" horiz-adv-x="532" 
d="M531 688l-184 -399v-289h-162v289l-183 399h170l99 -260h2l104 260h154zM429 882l-128 -137h-86l70 143c20 13 48 21 76 21c29 0 55 -9 68 -27z" />
    <glyph glyph-name="Thorn" unicode="&#xde;" horiz-adv-x="578" 
d="M539 365c0 -125 -82 -221 -272 -221c-17 0 -33 1 -43 2v-146h-159v688h159v-109c12 4 32 6 52 6c177 0 263 -80 263 -220zM384 367c0 82 -27 127 -109 127c-22 0 -41 -3 -51 -7v-247c10 -1 26 -2 43 -2c88 0 117 51 117 129z" />
    <glyph glyph-name="germandbls" unicode="&#xdf;" horiz-adv-x="613" 
d="M577 160c0 -103 -81 -169 -191 -169c-41 0 -90 12 -119 31l25 96c20 -11 46 -18 65 -18c42 0 65 24 65 60c0 84 -134 102 -134 233c0 61 40 107 94 126c0 1 2 24 2 49c0 66 -23 123 -79 123c-66 0 -90 -73 -90 -172v-519h-155v506c0 172 84 290 244 290
c149 0 233 -105 233 -227c0 -26 -4 -66 -11 -88c-57 -6 -91 -33 -91 -80c0 -80 142 -105 142 -241z" />
    <glyph glyph-name="agrave" unicode="&#xe0;" horiz-adv-x="542" 
d="M483 29c-46 -24 -120 -40 -211 -40c-154 0 -237 58 -237 171c0 133 136 176 302 192v24c0 52 -33 75 -93 75c-50 0 -105 -15 -144 -34l-34 92c54 24 130 41 201 41c132 0 216 -56 216 -197v-324zM337 86v193c-104 -11 -156 -43 -156 -113c0 -60 35 -90 99 -90
c23 0 43 3 57 10zM346 596h-86l-128 137c13 18 39 27 68 27c28 0 56 -8 76 -21z" />
    <glyph glyph-name="aacute" unicode="&#xe1;" horiz-adv-x="542" 
d="M483 29c-46 -24 -120 -40 -211 -40c-154 0 -237 58 -237 171c0 133 136 176 302 192v24c0 52 -33 75 -93 75c-50 0 -105 -15 -144 -34l-34 92c54 24 130 41 201 41c132 0 216 -56 216 -197v-324zM337 86v193c-104 -11 -156 -43 -156 -113c0 -60 35 -90 99 -90
c23 0 43 3 57 10zM438 733l-128 -137h-86l70 143c20 13 48 21 76 21c29 0 55 -9 68 -27z" />
    <glyph glyph-name="acircumflex" unicode="&#xe2;" horiz-adv-x="542" 
d="M483 29c-46 -24 -120 -40 -211 -40c-154 0 -237 58 -237 171c0 133 136 176 302 192v24c0 52 -33 75 -93 75c-50 0 -105 -15 -144 -34l-34 92c54 24 130 41 201 41c132 0 216 -56 216 -197v-324zM337 86v193c-104 -11 -156 -43 -156 -113c0 -60 35 -90 99 -90
c23 0 43 3 57 10zM420 628l-44 -41l-101 78l-101 -78l-44 41l101 105c12 13 28 19 44 19s32 -6 44 -19z" />
    <glyph glyph-name="atilde" unicode="&#xe3;" horiz-adv-x="542" 
d="M483 29c-46 -24 -120 -40 -211 -40c-154 0 -237 58 -237 171c0 133 136 176 302 192v24c0 52 -33 75 -93 75c-50 0 -105 -15 -144 -34l-34 92c54 24 130 41 201 41c132 0 216 -56 216 -197v-324zM337 86v193c-104 -11 -156 -43 -156 -113c0 -60 35 -90 99 -90
c23 0 43 3 57 10zM421 700c-7 -57 -34 -103 -93 -103c-51 0 -63 41 -104 41c-22 0 -34 -17 -38 -41l-61 21c7 57 33 102 92 102c51 0 64 -41 105 -41c22 0 34 18 38 42z" />
    <glyph glyph-name="adieresis" unicode="&#xe4;" horiz-adv-x="542" 
d="M483 29c-46 -24 -120 -40 -211 -40c-154 0 -237 58 -237 171c0 133 136 176 302 192v24c0 52 -33 75 -93 75c-50 0 -105 -15 -144 -34l-34 92c54 24 130 41 201 41c132 0 216 -56 216 -197v-324zM337 86v193c-104 -11 -156 -43 -156 -113c0 -60 35 -90 99 -90
c23 0 43 3 57 10zM251 663c0 -35 -29 -64 -64 -64s-64 29 -64 64s29 64 64 64s64 -29 64 -64zM436 663c0 -35 -29 -64 -64 -64s-64 29 -64 64s29 64 64 64s64 -29 64 -64z" />
    <glyph glyph-name="aring" unicode="&#xe5;" horiz-adv-x="542" 
d="M483 29c-46 -24 -120 -40 -211 -40c-154 0 -237 58 -237 171c0 133 136 176 302 192v24c0 52 -33 75 -93 75c-50 0 -105 -15 -144 -34l-34 92c54 24 130 41 201 41c132 0 216 -56 216 -197v-324zM337 86v193c-104 -11 -156 -43 -156 -113c0 -60 35 -90 99 -90
c23 0 43 3 57 10zM368 682c0 -49 -41 -89 -90 -89s-90 40 -90 89s41 90 90 90s90 -41 90 -90zM317 682c0 22 -17 41 -39 41s-39 -19 -39 -41s17 -40 39 -40s39 18 39 40z" />
    <glyph glyph-name="ae" unicode="&#xe6;" horiz-adv-x="835" 
d="M795 285c0 -7 0 -15 -1 -23l-320 -46c9 -71 50 -120 134 -120c52 0 104 15 134 31l35 -98c-45 -23 -111 -40 -187 -40c-79 0 -141 32 -175 79c-27 -47 -83 -79 -166 -79c-127 0 -214 56 -214 170c0 132 133 176 298 192v26c0 55 -34 74 -91 74c-53 0 -108 -18 -143 -34
l-33 92c38 17 107 41 197 41c65 0 123 -23 150 -73c35 48 99 73 157 73c145 0 225 -93 225 -265zM650 321c-1 88 -28 138 -89 138c-58 0 -99 -53 -99 -154v-13zM333 158v121c-97 -10 -155 -40 -155 -114c0 -52 27 -89 79 -89c45 0 76 36 76 82z" />
    <glyph glyph-name="ccedilla" unicode="&#xe7;" horiz-adv-x="432" 
d="M405 28c-34 -25 -79 -39 -136 -39c-133 0 -229 105 -229 281s98 280 229 280c57 0 102 -14 136 -39l-33 -86c-17 13 -42 21 -67 21c-63 0 -106 -65 -106 -173c0 -107 43 -173 106 -173c25 0 49 8 66 21zM344 -123c0 -59 -68 -90 -186 -90c-40 0 -73 4 -83 5l25 52
c11 -1 28 -3 52 -3c57 0 87 13 87 34c0 18 -16 28 -59 28c-25 0 -42 -2 -54 -3l22 47c11 1 37 3 69 3c91 0 127 -28 127 -73z" />
    <glyph glyph-name="egrave" unicode="&#xe8;" horiz-adv-x="558" 
d="M518 285c0 -8 0 -12 -1 -23l-324 -46c10 -76 59 -120 135 -120c49 0 103 14 136 31l36 -98c-50 -25 -123 -40 -197 -40c-173 0 -263 118 -263 282c0 169 91 279 247 279c151 0 231 -98 231 -265zM370 321c-1 88 -28 138 -89 138c-64 0 -99 -62 -99 -153v-14zM347 596h-86
l-128 137c13 18 39 27 68 27c28 0 56 -8 76 -21z" />
    <glyph glyph-name="eacute" unicode="&#xe9;" horiz-adv-x="558" 
d="M518 285c0 -8 0 -12 -1 -23l-324 -46c10 -76 59 -120 135 -120c49 0 103 14 136 31l36 -98c-50 -25 -123 -40 -197 -40c-173 0 -263 118 -263 282c0 169 91 279 247 279c151 0 231 -98 231 -265zM370 321c-1 88 -28 138 -89 138c-64 0 -99 -62 -99 -153v-14zM444 733
l-128 -137h-86l70 143c20 13 48 21 76 21c29 0 55 -9 68 -27z" />
    <glyph glyph-name="ecircumflex" unicode="&#xea;" horiz-adv-x="558" 
d="M518 285c0 -8 0 -12 -1 -23l-324 -46c10 -76 59 -120 135 -120c49 0 103 14 136 31l36 -98c-50 -25 -123 -40 -197 -40c-173 0 -263 118 -263 282c0 169 91 279 247 279c151 0 231 -98 231 -265zM370 321c-1 88 -28 138 -89 138c-64 0 -99 -62 -99 -153v-14zM431 628
l-44 -41l-101 78l-101 -78l-44 41l101 105c12 13 28 19 44 19s32 -6 44 -19z" />
    <glyph glyph-name="edieresis" unicode="&#xeb;" horiz-adv-x="558" 
d="M518 285c0 -8 0 -12 -1 -23l-324 -46c10 -76 59 -120 135 -120c49 0 103 14 136 31l36 -98c-50 -25 -123 -40 -197 -40c-173 0 -263 118 -263 282c0 169 91 279 247 279c151 0 231 -98 231 -265zM370 321c-1 88 -28 138 -89 138c-64 0 -99 -62 -99 -153v-14zM255 663
c0 -35 -29 -64 -64 -64s-64 29 -64 64s29 64 64 64s64 -29 64 -64zM440 663c0 -35 -29 -64 -64 -64s-64 29 -64 64s29 64 64 64s64 -29 64 -64z" />
    <glyph glyph-name="igrave" unicode="&#xec;" 
d="M218 0h-156v539h156v-539zM210 595h-86l-128 137c13 18 39 27 68 27c28 0 56 -8 76 -21z" />
    <glyph glyph-name="iacute" unicode="&#xed;" 
d="M218 0h-156v539h156v-539zM284 732l-128 -137h-86l70 143c20 13 48 21 76 21c29 0 55 -9 68 -27z" />
    <glyph glyph-name="icircumflex" unicode="&#xee;" 
d="M218 0h-156v539h156v-539zM285 629l-44 -41l-101 78l-101 -78l-44 41l101 105c12 13 28 19 44 19s32 -6 44 -19z" />
    <glyph glyph-name="idieresis" unicode="&#xef;" 
d="M218 0h-156v539h156v-539zM112 662c0 -35 -29 -64 -64 -64s-64 29 -64 64s29 64 64 64s64 -29 64 -64zM296 662c0 -35 -29 -64 -64 -64s-64 29 -64 64s29 64 64 64s64 -29 64 -64z" />
    <glyph glyph-name="eth" unicode="&#xf0;" horiz-adv-x="566" 
d="M525 280c0 -162 -71 -291 -244 -291c-157 0 -241 102 -241 271c0 148 88 268 232 268c17 0 32 -3 39 -5c-16 31 -37 60 -61 88l-102 -55l-45 60l88 52l-68 62l103 71l77 -71l93 54l53 -72l-80 -44c98 -108 156 -236 156 -388zM370 275c0 59 -8 112 -24 162
c-8 3 -24 7 -44 7c-74 0 -107 -82 -107 -183c0 -98 25 -171 88 -171c68 0 87 83 87 185z" />
    <glyph glyph-name="ntilde" unicode="&#xf1;" horiz-adv-x="579" 
d="M520 0h-156v365c0 59 -25 88 -87 88c-24 0 -43 -4 -62 -11v-442h-156v510c61 26 135 39 218 39c170 0 243 -69 243 -185v-364zM432 700c-7 -57 -34 -103 -93 -103c-51 0 -63 41 -104 41c-22 0 -34 -17 -38 -41l-61 21c7 57 33 102 92 102c51 0 64 -41 105 -41
c22 0 34 18 38 42z" />
    <glyph glyph-name="ograve" unicode="&#xf2;" horiz-adv-x="566" 
d="M526 270c0 -163 -82 -281 -243 -281s-243 118 -243 281s82 280 243 280s243 -117 243 -280zM370 273c0 105 -22 181 -87 181s-87 -76 -87 -181s22 -183 87 -183s87 78 87 183zM345 596h-86l-128 137c13 18 39 27 68 27c28 0 56 -8 76 -21z" />
    <glyph glyph-name="oacute" unicode="&#xf3;" horiz-adv-x="566" 
d="M526 270c0 -163 -82 -281 -243 -281s-243 118 -243 281s82 280 243 280s243 -117 243 -280zM370 273c0 105 -22 181 -87 181s-87 -76 -87 -181s22 -183 87 -183s87 78 87 183zM440 733l-128 -137h-86l70 143c20 13 48 21 76 21c29 0 55 -9 68 -27z" />
    <glyph glyph-name="ocircumflex" unicode="&#xf4;" horiz-adv-x="566" 
d="M526 270c0 -163 -82 -281 -243 -281s-243 118 -243 281s82 280 243 280s243 -117 243 -280zM370 273c0 105 -22 181 -87 181s-87 -76 -87 -181s22 -183 87 -183s87 78 87 183zM428 628l-44 -41l-101 78l-101 -78l-44 41l101 105c12 13 28 19 44 19s32 -6 44 -19z" />
    <glyph glyph-name="otilde" unicode="&#xf5;" horiz-adv-x="566" 
d="M526 270c0 -163 -82 -281 -243 -281s-243 118 -243 281s82 280 243 280s243 -117 243 -280zM370 273c0 105 -22 181 -87 181s-87 -76 -87 -181s22 -183 87 -183s87 78 87 183zM429 700c-7 -57 -34 -103 -93 -103c-51 0 -63 41 -104 41c-22 0 -34 -17 -38 -41l-61 21
c7 57 33 102 92 102c51 0 64 -41 105 -41c22 0 34 18 38 42z" />
    <glyph glyph-name="odieresis" unicode="&#xf6;" horiz-adv-x="566" 
d="M526 270c0 -163 -82 -281 -243 -281s-243 118 -243 281s82 280 243 280s243 -117 243 -280zM370 273c0 105 -22 181 -87 181s-87 -76 -87 -181s22 -183 87 -183s87 78 87 183zM254 663c0 -35 -29 -64 -64 -64s-64 29 -64 64s29 64 64 64s64 -29 64 -64zM440 663
c0 -35 -29 -64 -64 -64s-64 29 -64 64s29 64 64 64s64 -29 64 -64z" />
    <glyph glyph-name="divide" unicode="&#xf7;" horiz-adv-x="532" 
d="M336 496c0 -39 -31 -70 -70 -70s-70 31 -70 70s31 71 70 71s70 -32 70 -71zM478 284h-424v82h424v-82zM336 154c0 -39 -31 -70 -70 -70s-70 31 -70 70s31 71 70 71s70 -32 70 -71z" />
    <glyph glyph-name="oslash" unicode="&#xf8;" horiz-adv-x="566" 
d="M526 270c0 -163 -82 -281 -243 -281c-55 0 -101 13 -137 38l-51 -74l-39 27l54 78c-46 50 -70 125 -70 212c0 163 82 280 243 280c55 0 101 -13 137 -38l51 74l39 -27l-54 -78c46 -50 70 -124 70 -211zM354 414c-15 30 -38 47 -71 47c-71 0 -95 -79 -95 -188
c0 -33 2 -64 7 -90zM378 273c0 31 -3 59 -7 84l-157 -230c15 -28 37 -44 69 -44c71 0 95 81 95 190z" />
    <glyph glyph-name="ugrave" unicode="&#xf9;" horiz-adv-x="572" 
d="M513 30c-51 -24 -137 -41 -220 -41c-155 0 -234 57 -234 190v360h156v-367c0 -52 28 -79 80 -79c22 0 46 5 62 12v434h156v-509zM356 595h-86l-128 137c13 18 39 27 68 27c28 0 56 -8 76 -21z" />
    <glyph glyph-name="uacute" unicode="&#xfa;" horiz-adv-x="572" 
d="M513 30c-51 -24 -137 -41 -220 -41c-155 0 -234 57 -234 190v360h156v-367c0 -52 28 -79 80 -79c22 0 46 5 62 12v434h156v-509zM443 732l-128 -137h-86l70 143c20 13 48 21 76 21c29 0 55 -9 68 -27z" />
    <glyph glyph-name="ucircumflex" unicode="&#xfb;" horiz-adv-x="572" 
d="M513 30c-51 -24 -137 -41 -220 -41c-155 0 -234 57 -234 190v360h156v-367c0 -52 28 -79 80 -79c22 0 46 5 62 12v434h156v-509zM431 629l-44 -41l-101 78l-101 -78l-44 41l101 105c12 13 28 19 44 19s32 -6 44 -19z" />
    <glyph glyph-name="udieresis" unicode="&#xfc;" horiz-adv-x="572" 
d="M513 30c-51 -24 -137 -41 -220 -41c-155 0 -234 57 -234 190v360h156v-367c0 -52 28 -79 80 -79c22 0 46 5 62 12v434h156v-509zM257 662c0 -35 -29 -64 -64 -64s-64 29 -64 64s29 64 64 64s64 -29 64 -64zM442 662c0 -35 -29 -64 -64 -64s-64 29 -64 64s29 64 64 64
s64 -29 64 -64z" />
    <glyph glyph-name="yacute" unicode="&#xfd;" horiz-adv-x="533" 
d="M520 539l-251 -754h-163l89 215l-181 539h168l75 -322c8 -34 11 -65 12 -83h2c2 17 6 49 15 83l83 322h151zM427 733l-128 -137h-86l70 143c20 13 48 21 76 21c29 0 55 -9 68 -27z" />
    <glyph glyph-name="thorn" unicode="&#xfe;" horiz-adv-x="570" 
d="M531 288c0 -184 -100 -295 -242 -295c-28 0 -56 5 -74 10v-218h-156v1000h156v-258c24 11 57 20 95 20c135 0 221 -101 221 -259zM377 274c0 120 -34 183 -107 183c-19 0 -39 -5 -55 -12v-350c13 -6 30 -8 46 -8c81 0 116 70 116 187z" />
    <glyph glyph-name="ydieresis" unicode="&#xff;" horiz-adv-x="533" 
d="M520 539l-251 -754h-163l89 215l-181 539h168l75 -322c8 -34 11 -65 12 -83h2c2 17 6 49 15 83l83 322h151zM246 663c0 -35 -29 -64 -64 -64s-64 29 -64 64s29 64 64 64s64 -29 64 -64zM441 663c0 -35 -29 -64 -64 -64s-64 29 -64 64s29 64 64 64s64 -29 64 -64z" />
    <glyph glyph-name="Amacron" unicode="&#x100;" horiz-adv-x="624" 
d="M620 0h-170l-41 153h-208l-42 -153h-155l224 688h169zM385 246l-59 224c-9 35 -14 66 -18 89h-2c-3 -23 -8 -57 -17 -89l-62 -224h158zM454 756h-284v81h284v-81z" />
    <glyph glyph-name="amacron" unicode="&#x101;" horiz-adv-x="542" 
d="M483 29c-46 -24 -120 -40 -211 -40c-154 0 -237 58 -237 171c0 133 136 176 302 192v24c0 52 -33 75 -93 75c-50 0 -105 -15 -144 -34l-34 92c54 24 130 41 201 41c132 0 216 -56 216 -197v-324zM337 86v193c-104 -11 -156 -43 -156 -113c0 -60 35 -90 99 -90
c23 0 43 3 57 10zM419 609h-284v81h284v-81z" />
    <glyph glyph-name="Abreve" unicode="&#x102;" horiz-adv-x="624" 
d="M620 0h-170l-41 153h-208l-42 -153h-155l224 688h169zM385 246l-59 224c-9 35 -14 66 -18 89h-2c-3 -23 -8 -57 -17 -89l-62 -224h158zM452 890c0 -90 -55 -147 -140 -147s-140 57 -140 147l63 10c5 -48 35 -75 77 -75s71 27 76 75z" />
    <glyph glyph-name="abreve" unicode="&#x103;" horiz-adv-x="542" 
d="M483 29c-46 -24 -120 -40 -211 -40c-154 0 -237 58 -237 171c0 133 136 176 302 192v24c0 52 -33 75 -93 75c-50 0 -105 -15 -144 -34l-34 92c54 24 130 41 201 41c132 0 216 -56 216 -197v-324zM337 86v193c-104 -11 -156 -43 -156 -113c0 -60 35 -90 99 -90
c23 0 43 3 57 10zM414 741c0 -90 -55 -147 -140 -147s-140 57 -140 147l63 10c5 -48 35 -75 77 -75s71 27 76 75z" />
    <glyph glyph-name="Aogonek" unicode="&#x104;" horiz-adv-x="624" 
d="M620 0h-82c-37 -28 -52 -57 -52 -82c0 -26 22 -44 55 -44c16 0 36 3 51 9l13 -60c-22 -10 -56 -16 -90 -16c-83 0 -133 35 -133 90c0 38 27 74 68 103l-41 153h-208l-42 -153h-155l224 688h169zM385 246l-59 224c-8 30 -13 59 -18 89h-2c-5 -38 -9 -60 -17 -89l-62 -224
h158z" />
    <glyph glyph-name="aogonek" unicode="&#x105;" horiz-adv-x="542" 
d="M505 -177c-22 -10 -57 -16 -91 -16c-83 0 -133 35 -133 90c0 34 22 68 57 95c-21 -2 -43 -3 -66 -3c-154 0 -237 58 -237 171c0 133 136 176 302 192v24c0 57 -38 75 -95 75c-53 0 -107 -17 -142 -34l-34 92c49 21 126 41 201 41c124 0 216 -50 216 -197v-324
c-45 -24 -97 -64 -97 -111c0 -26 22 -44 55 -44c16 0 36 3 51 9zM337 86v193c-104 -11 -156 -43 -156 -113c0 -60 35 -90 99 -90c23 0 43 3 57 10z" />
    <glyph glyph-name="Cacute" unicode="&#x106;" horiz-adv-x="492" 
d="M466 30c-39 -26 -88 -41 -150 -41c-191 0 -272 175 -272 355s81 355 272 355c62 0 111 -14 150 -40l-35 -99c-22 13 -48 22 -83 22c-102 0 -137 -119 -137 -236c0 -114 39 -233 136 -233c33 0 60 9 81 22zM454 882l-128 -137h-86l70 143c20 13 48 21 76 21
c29 0 55 -9 68 -27z" />
    <glyph glyph-name="cacute" unicode="&#x107;" horiz-adv-x="432" 
d="M405 28c-34 -25 -79 -39 -136 -39c-133 0 -229 105 -229 281s98 280 229 280c57 0 102 -14 136 -39l-33 -86c-17 13 -42 21 -67 21c-63 0 -106 -65 -106 -173c0 -107 43 -173 106 -173c25 0 49 8 66 21zM401 733l-128 -137h-86l70 143c20 13 48 21 76 21
c29 0 55 -9 68 -27z" />
    <glyph glyph-name="Ccircumflex" unicode="&#x108;" horiz-adv-x="492" 
d="M466 30c-39 -26 -88 -41 -150 -41c-191 0 -272 175 -272 355s81 355 272 355c62 0 111 -14 150 -40l-35 -99c-22 13 -48 22 -83 22c-102 0 -137 -119 -137 -236c0 -114 39 -233 136 -233c33 0 60 9 81 22zM453 777l-44 -41l-101 78l-101 -78l-44 41l101 105
c12 13 28 19 44 19s32 -6 44 -19z" />
    <glyph glyph-name="ccircumflex" unicode="&#x109;" horiz-adv-x="432" 
d="M405 28c-34 -25 -79 -39 -136 -39c-133 0 -229 105 -229 281s98 280 229 280c57 0 102 -14 136 -39l-33 -86c-17 13 -42 21 -67 21c-63 0 -106 -65 -106 -173c0 -107 43 -173 106 -173c25 0 49 8 66 21zM398 628l-44 -41l-101 78l-101 -78l-44 41l101 105
c12 13 28 19 44 19s32 -6 44 -19z" />
    <glyph glyph-name="Cdotaccent" unicode="&#x10a;" horiz-adv-x="492" 
d="M466 30c-39 -26 -88 -41 -150 -41c-191 0 -272 175 -272 355s81 355 272 355c62 0 111 -14 150 -40l-35 -99c-22 13 -48 22 -83 22c-102 0 -137 -119 -137 -236c0 -114 39 -233 136 -233c33 0 60 9 81 22zM368 819c0 -39 -31 -71 -70 -71s-71 32 -71 71s32 70 71 70
s70 -31 70 -70z" />
    <glyph glyph-name="cdotaccent" unicode="&#x10b;" horiz-adv-x="432" 
d="M405 28c-34 -25 -79 -39 -136 -39c-133 0 -229 105 -229 281s98 280 229 280c57 0 102 -14 136 -39l-33 -86c-17 13 -42 21 -67 21c-63 0 -106 -65 -106 -173c0 -107 43 -173 106 -173c25 0 49 8 66 21zM323 670c0 -39 -31 -71 -70 -71s-71 32 -71 71s32 70 71 70
s70 -31 70 -70z" />
    <glyph glyph-name="Ccaron" unicode="&#x10c;" horiz-adv-x="492" 
d="M466 30c-39 -26 -88 -41 -150 -41c-191 0 -272 175 -272 355s81 355 272 355c62 0 111 -14 150 -40l-35 -99c-22 13 -48 22 -83 22c-102 0 -137 -119 -137 -236c0 -114 39 -233 136 -233c33 0 60 9 81 22zM443 867l-101 -105c-12 -13 -28 -19 -44 -19s-32 6 -44 19
l-101 105l44 41l101 -78l101 78z" />
    <glyph glyph-name="ccaron" unicode="&#x10d;" horiz-adv-x="432" 
d="M405 28c-34 -25 -79 -39 -136 -39c-133 0 -229 105 -229 281s98 280 229 280c57 0 102 -14 136 -39l-33 -86c-17 13 -42 21 -67 21c-63 0 -106 -65 -106 -173c0 -107 43 -173 106 -173c25 0 49 8 66 21zM397 719l-101 -105c-12 -13 -28 -19 -44 -19s-32 6 -44 19
l-101 105l44 41l101 -78l101 78z" />
    <glyph glyph-name="Dcaron" unicode="&#x10e;" horiz-adv-x="622" 
d="M578 344c0 -224 -112 -355 -308 -355c-75 0 -148 13 -205 39v632c57 26 130 39 205 39c196 0 308 -131 308 -355zM415 347c0 168 -45 245 -137 245c-20 0 -41 -3 -53 -8v-475c12 -5 33 -8 53 -8c92 0 137 78 137 246zM438 867l-101 -105c-12 -13 -28 -19 -44 -19
s-32 6 -44 19l-101 105l44 41l101 -78l101 78z" />
    <glyph glyph-name="dcaron" unicode="&#x10f;" horiz-adv-x="570" 
d="M511 29c-49 -25 -124 -40 -210 -40c-164 0 -261 97 -261 273c0 164 90 284 243 284c26 0 49 -3 73 -9v248h155v-756zM356 96v356c-14 4 -28 6 -44 6c-84 0 -118 -74 -118 -185c0 -117 35 -186 114 -186c22 0 36 4 48 9zM694 772l-37 -173h-78v173c15 14 38 21 60 21
c21 0 42 -7 55 -21z" />
    <glyph glyph-name="Dcroat" unicode="&#x110;" horiz-adv-x="631" 
d="M587 348c0 -224 -108 -359 -306 -359c-79 0 -153 14 -207 39v280h-56v97h56v254c54 25 128 40 206 40c195 0 307 -128 307 -351zM426 351c0 170 -46 243 -142 243c-20 0 -39 -2 -53 -7v-182h84v-97h-84v-200c12 -5 32 -8 54 -8c100 0 141 81 141 251z" />
    <glyph glyph-name="dcroat" unicode="&#x111;" horiz-adv-x="570" 
d="M574 617h-63v-588c-49 -25 -124 -40 -210 -40c-164 0 -261 97 -261 273c0 164 90 284 243 284c26 0 49 -3 73 -9v80h-113v79h113v89h155v-89h63v-79zM356 96v356c-14 4 -28 6 -44 6c-84 0 -118 -74 -118 -185c0 -117 35 -186 114 -186c22 0 36 4 48 9z" />
    <glyph glyph-name="Emacron" unicode="&#x112;" horiz-adv-x="459" 
d="M416 0h-351v688h351v-109h-189v-175h165v-106h-165v-189h189v-109zM381 756h-284v81h284v-81z" />
    <glyph glyph-name="emacron" unicode="&#x113;" horiz-adv-x="558" 
d="M518 285c0 -8 0 -12 -1 -23l-324 -46c10 -76 59 -120 135 -120c49 0 103 14 136 31l36 -98c-50 -25 -123 -40 -197 -40c-173 0 -263 118 -263 282c0 169 91 279 247 279c151 0 231 -98 231 -265zM370 321c-1 88 -28 138 -89 138c-64 0 -99 -62 -99 -153v-14zM430 609
h-284v81h284v-81z" />
    <glyph glyph-name="Ebreve" unicode="&#x114;" horiz-adv-x="459" 
d="M416 0h-351v688h351v-109h-189v-175h165v-106h-165v-189h189v-109zM382 890c0 -90 -55 -147 -140 -147s-140 57 -140 147l63 10c5 -48 35 -75 77 -75s71 27 76 75z" />
    <glyph glyph-name="ebreve" unicode="&#x115;" horiz-adv-x="558" 
d="M518 285c0 -8 0 -12 -1 -23l-324 -46c10 -76 59 -120 135 -120c49 0 103 14 136 31l36 -98c-50 -25 -123 -40 -197 -40c-173 0 -263 118 -263 282c0 169 91 279 247 279c151 0 231 -98 231 -265zM370 321c-1 88 -28 138 -89 138c-64 0 -99 -62 -99 -153v-14zM423 741
c0 -90 -55 -147 -140 -147s-140 57 -140 147l63 10c5 -48 35 -75 77 -75s71 27 76 75z" />
    <glyph glyph-name="Edotaccent" unicode="&#x116;" horiz-adv-x="459" 
d="M416 0h-351v688h351v-109h-189v-175h165v-106h-165v-189h189v-109zM312 818c0 -39 -31 -71 -70 -71s-71 32 -71 71s32 70 71 70s70 -31 70 -70z" />
    <glyph glyph-name="edotaccent" unicode="&#x117;" horiz-adv-x="558" 
d="M518 285c0 -8 0 -12 -1 -23l-324 -46c10 -76 59 -120 135 -120c49 0 103 14 136 31l36 -98c-50 -25 -123 -40 -197 -40c-173 0 -263 118 -263 282c0 169 91 279 247 279c151 0 231 -98 231 -265zM370 321c-1 88 -28 138 -89 138c-64 0 -99 -62 -99 -153v-14zM355 670
c0 -39 -31 -71 -70 -71s-71 32 -71 71s32 70 71 70s70 -31 70 -70z" />
    <glyph glyph-name="Eogonek" unicode="&#x118;" horiz-adv-x="459" 
d="M483 -177c-22 -10 -57 -16 -91 -16c-83 0 -132 35 -132 90c0 37 27 74 68 103h-263v688h351v-109h-189v-175h165v-106h-165v-189h189v-109c-37 -28 -52 -57 -52 -82c0 -26 22 -44 55 -44c16 0 36 3 51 9z" />
    <glyph glyph-name="eogonek" unicode="&#x119;" horiz-adv-x="558" 
d="M521 -177c-22 -10 -56 -16 -90 -16c-83 0 -133 35 -133 90c0 34 22 67 56 94c-16 -2 -34 -2 -51 -2c-173 0 -263 118 -263 282c0 169 91 279 247 279c151 0 231 -99 231 -266c0 -7 0 -13 -1 -22l-324 -46c10 -76 59 -120 135 -120c49 0 103 14 136 31l36 -98
c-47 -25 -98 -65 -98 -111c0 -26 22 -44 55 -44c16 0 36 3 51 9zM370 321c-1 88 -28 138 -89 138c-65 0 -99 -62 -99 -154v-13z" />
    <glyph glyph-name="Ecaron" unicode="&#x11a;" horiz-adv-x="459" 
d="M416 0h-351v688h351v-109h-189v-175h165v-106h-165v-189h189v-109zM383 865l-101 -105c-12 -13 -28 -19 -44 -19s-32 6 -44 19l-101 105l44 41l101 -78l101 78z" />
    <glyph glyph-name="ecaron" unicode="&#x11b;" horiz-adv-x="558" 
d="M518 285c0 -8 0 -12 -1 -23l-324 -46c10 -76 59 -120 135 -120c49 0 103 14 136 31l36 -98c-50 -25 -123 -40 -197 -40c-173 0 -263 118 -263 282c0 169 91 279 247 279c151 0 231 -98 231 -265zM370 321c-1 88 -28 138 -89 138c-64 0 -99 -62 -99 -153v-14zM429 719
l-101 -105c-12 -13 -28 -19 -44 -19s-32 6 -44 19l-101 105l44 41l101 -78l101 78z" />
    <glyph glyph-name="Gcircumflex" unicode="&#x11c;" horiz-adv-x="616" 
d="M556 28c-46 -25 -122 -39 -197 -39c-207 0 -315 143 -315 354c0 201 118 356 330 356c72 0 127 -14 176 -41l-44 -100c-29 15 -71 26 -117 26c-122 0 -182 -100 -182 -251c0 -150 63 -231 144 -231c20 0 40 2 54 8v197h-88v97h239v-376zM495 777l-44 -41l-101 78
l-101 -78l-44 41l101 105c12 13 28 19 44 19s32 -6 44 -19z" />
    <glyph glyph-name="gcircumflex" unicode="&#x11d;" horiz-adv-x="570" 
d="M511 7c0 -153 -92 -232 -239 -232c-79 0 -157 17 -201 41l40 101c34 -18 84 -32 133 -32c82 0 112 44 112 107v24c-19 -9 -48 -17 -94 -17c-133 0 -222 101 -222 262c0 183 101 289 282 289c69 0 141 -14 189 -39v-504zM356 102v348c-13 6 -30 9 -49 9
c-77 0 -113 -67 -113 -189c0 -119 34 -180 110 -180c21 0 39 5 52 12zM452 629l-44 -41l-101 78l-101 -78l-44 41l101 105c12 13 28 19 44 19s32 -6 44 -19z" />
    <glyph glyph-name="Gbreve" unicode="&#x11e;" horiz-adv-x="616" 
d="M556 28c-46 -25 -122 -39 -197 -39c-207 0 -315 143 -315 354c0 201 118 356 330 356c72 0 127 -14 176 -41l-44 -100c-29 15 -71 26 -117 26c-122 0 -182 -100 -182 -251c0 -150 63 -231 144 -231c20 0 40 2 54 8v197h-88v97h239v-376zM482 890
c0 -90 -55 -147 -140 -147s-140 57 -140 147l63 10c5 -48 35 -75 77 -75s71 27 76 75z" />
    <glyph glyph-name="gbreve" unicode="&#x11f;" horiz-adv-x="570" 
d="M511 7c0 -153 -92 -232 -239 -232c-79 0 -157 17 -201 41l40 101c34 -18 84 -32 133 -32c82 0 112 44 112 107v24c-19 -9 -48 -17 -94 -17c-133 0 -222 101 -222 262c0 183 101 289 282 289c69 0 141 -14 189 -39v-504zM356 102v348c-13 6 -30 9 -49 9
c-77 0 -113 -67 -113 -189c0 -119 34 -180 110 -180c21 0 39 5 52 12zM441 743c0 -90 -55 -147 -140 -147s-140 57 -140 147l63 10c5 -48 35 -75 77 -75s71 27 76 75z" />
    <glyph glyph-name="Gdotaccent" unicode="&#x120;" horiz-adv-x="616" 
d="M556 28c-46 -25 -122 -39 -197 -39c-207 0 -315 143 -315 354c0 201 118 356 330 356c72 0 127 -14 176 -41l-44 -100c-29 15 -71 26 -117 26c-122 0 -182 -100 -182 -251c0 -150 63 -231 144 -231c20 0 40 2 54 8v197h-88v97h239v-376zM415 819c0 -39 -31 -71 -70 -71
s-71 32 -71 71s32 70 71 70s70 -31 70 -70z" />
    <glyph glyph-name="gdotaccent" unicode="&#x121;" horiz-adv-x="570" 
d="M511 7c0 -153 -92 -232 -239 -232c-79 0 -157 17 -201 41l40 101c34 -18 84 -32 133 -32c82 0 112 44 112 107v24c-19 -9 -48 -17 -94 -17c-133 0 -222 101 -222 262c0 183 101 289 282 289c69 0 141 -14 189 -39v-504zM356 102v348c-13 6 -30 9 -49 9
c-77 0 -113 -67 -113 -189c0 -119 34 -180 110 -180c21 0 39 5 52 12zM373 670c0 -39 -31 -71 -70 -71s-71 32 -71 71s32 70 71 70s70 -31 70 -70z" />
    <glyph glyph-name="Gcommaaccent" unicode="&#x122;" horiz-adv-x="616" 
d="M556 28c-46 -25 -122 -39 -197 -39c-207 0 -315 143 -315 354c0 201 118 356 330 356c72 0 127 -14 176 -41l-44 -100c-29 15 -71 26 -117 26c-122 0 -182 -100 -182 -251c0 -150 63 -231 144 -231c20 0 40 2 54 8v197h-88v97h239v-376zM413 -82l-110 -140h-81l52 146
c19 13 46 20 72 20c29 0 54 -8 67 -26z" />
    <glyph glyph-name="gcommaaccent" unicode="&#x123;" horiz-adv-x="570" 
d="M511 7c0 -153 -92 -232 -239 -232c-79 0 -157 17 -201 41l40 101c34 -18 84 -32 133 -32c82 0 112 44 112 107v24c-19 -9 -48 -17 -94 -17c-133 0 -222 101 -222 262c0 183 101 289 282 289c69 0 141 -14 189 -39v-504zM356 102v348c-13 6 -30 9 -49 9
c-77 0 -113 -67 -113 -189c0 -119 34 -180 110 -180c21 0 39 5 52 12zM425 760l-52 -147c-19 -13 -45 -20 -71 -20c-29 0 -55 9 -68 27l110 140h81z" />
    <glyph glyph-name="Hcircumflex" unicode="&#x124;" horiz-adv-x="628" 
d="M563 0h-162v298h-174v-298h-162v688h162v-284h174v284h162v-688zM460 778l-44 -41l-101 78l-101 -78l-44 41l101 105c12 13 28 19 44 19s32 -6 44 -19z" />
    <glyph glyph-name="hcircumflex" unicode="&#x125;" horiz-adv-x="579" 
d="M520 0h-156v369c0 46 -21 82 -81 82c-25 0 -48 -6 -68 -17v-434h-156v785h156v-265c32 15 69 26 116 26c135 0 189 -79 189 -172v-374zM283 853l-44 -41l-101 78l-101 -78l-44 41l101 105c12 13 28 19 44 19s32 -6 44 -19z" />
    <glyph glyph-name="Hbar" unicode="&#x126;" horiz-adv-x="628" 
d="M628 511h-65v-511h-162v298h-174v-298h-162v511h-65v72h65v105h162v-105h174v105h162v-105h65v-72zM401 404v107h-174v-107h174z" />
    <glyph glyph-name="hbar" unicode="&#x127;" horiz-adv-x="579" 
d="M520 0h-156v369c0 46 -21 82 -81 82c-25 0 -48 -6 -68 -17v-434h-156v617h-63v79h63v89h156v-89h112v-79h-112v-97c32 15 69 26 116 26c135 0 189 -79 189 -172v-374z" />
    <glyph glyph-name="Itilde" unicode="&#x128;" horiz-adv-x="296" 
d="M229 0h-162v688h162v-688zM296 848c-7 -57 -34 -103 -93 -103c-51 0 -63 41 -104 41c-22 0 -34 -17 -38 -41l-61 21c7 57 33 102 92 102c51 0 64 -41 105 -41c22 0 34 18 38 42z" />
    <glyph glyph-name="itilde" unicode="&#x129;" 
d="M218 0h-156v539h156v-539zM288 699c-7 -57 -34 -103 -93 -103c-51 0 -63 41 -104 41c-22 0 -34 -17 -38 -41l-61 21c7 57 33 102 92 102c51 0 64 -41 105 -41c22 0 34 18 38 42z" />
    <glyph glyph-name="Imacron" unicode="&#x12a;" horiz-adv-x="296" 
d="M229 0h-162v688h162v-688zM290 756h-284v81h284v-81z" />
    <glyph glyph-name="imacron" unicode="&#x12b;" 
d="M218 0h-156v539h156v-539zM282 607h-284v81h284v-81z" />
    <glyph glyph-name="Ibreve" unicode="&#x12c;" horiz-adv-x="296" 
d="M229 0h-162v688h162v-688zM288 888c0 -90 -55 -147 -140 -147s-140 57 -140 147l63 10c5 -48 35 -75 77 -75s71 27 76 75z" />
    <glyph glyph-name="ibreve" unicode="&#x12d;" 
d="M218 0h-156v539h156v-539zM280 739c0 -90 -55 -147 -140 -147s-140 57 -140 147l63 10c5 -48 35 -75 77 -75s71 27 76 75z" />
    <glyph glyph-name="Iogonek" unicode="&#x12e;" horiz-adv-x="296" 
d="M229 0h-74c-37 -28 -52 -57 -52 -82c0 -26 22 -44 55 -44c16 0 36 3 51 9l13 -60c-22 -10 -57 -16 -91 -16c-83 0 -132 35 -132 90c0 38 27 74 68 103v688h162v-688z" />
    <glyph glyph-name="iogonek" unicode="&#x12f;" 
d="M223 694c0 -41 -37 -74 -83 -74s-83 33 -83 74s37 73 83 73s83 -32 83 -73zM218 0h-68c-37 -28 -52 -57 -52 -82c0 -26 22 -44 55 -44c16 0 36 3 51 9l13 -60c-22 -10 -56 -16 -90 -16c-83 0 -133 35 -133 90c0 38 27 74 68 103v539h156v-539z" />
    <glyph glyph-name="Idotaccent" unicode="&#x130;" horiz-adv-x="296" 
d="M229 0h-162v688h162v-688zM218 818c0 -39 -31 -71 -70 -71s-71 32 -71 71s32 70 71 70s70 -31 70 -70z" />
    <glyph glyph-name="dotlessi" unicode="&#x131;" 
d="M218 0h-156v539h156v-539z" />
    <glyph glyph-name="IJ" unicode="&#x132;" horiz-adv-x="591" 
d="M524 688v-607c0 -172 -92 -286 -266 -301v113c68 19 104 79 104 174v621h162zM229 0h-162v688h162v-688z" />
    <glyph glyph-name="ij" unicode="&#x133;" horiz-adv-x="562" 
d="M505 694c0 -41 -37 -74 -83 -74c-47 0 -84 33 -84 74s37 73 83 73c47 0 84 -33 84 -73zM223 694c0 -41 -37 -74 -83 -74s-83 33 -83 74s37 73 83 73s83 -32 83 -73zM499 539v-458c0 -176 -87 -281 -245 -301v104c64 28 89 82 89 178v477h156zM218 0h-156v539h156v-539z
" />
    <glyph glyph-name="Jcircumflex" unicode="&#x134;" horiz-adv-x="296" 
d="M229 688v-601c0 -172 -88 -293 -266 -308v113c70 21 104 86 104 181v615h162zM293 778l-44 -41l-101 78l-101 -78l-44 41l101 105c12 13 28 19 44 19s32 -6 44 -19z" />
    <glyph glyph-name="jcircumflex" unicode="&#x135;" horiz-adv-x="282" 
d="M220 539v-458c0 -176 -87 -281 -245 -301v104c64 28 89 82 89 178v477h156zM287 629l-44 -41l-101 78l-101 -78l-44 41l101 105c12 13 28 19 44 19s32 -6 44 -19z" />
    <glyph glyph-name="Kcommaaccent" unicode="&#x136;" horiz-adv-x="600" 
d="M591 0h-184l-178 341h-2v-341h-160v688h160v-310h2l181 310h168l-205 -317zM383 -73l-110 -140h-81l52 146c19 13 46 20 72 20c29 0 54 -8 67 -26z" />
    <glyph glyph-name="kcommaaccent" unicode="&#x137;" horiz-adv-x="558" 
d="M554 0h-177l-159 263h-2v-263h-155v785h155v-493h2l155 247h165l-182 -253zM360 -73l-110 -140h-81l52 146c19 13 46 20 72 20c29 0 54 -8 67 -26z" />
    <glyph glyph-name="kgreenlandic" unicode="&#x138;" horiz-adv-x="558" 
d="M554 0h-177l-159 263h-2v-263h-155v539h155v-247h2l155 247h165l-182 -253z" />
    <glyph glyph-name="Lacute" unicode="&#x139;" horiz-adv-x="434" 
d="M404 0h-337v688h162v-579h175v-109zM328 881l-128 -137h-86l70 143c20 13 48 21 76 21c29 0 55 -9 68 -27z" />
    <glyph glyph-name="lacute" unicode="&#x13a;" 
d="M218 0h-156v785h156v-785zM302 967l-128 -137h-86l70 143c20 13 48 21 76 21c29 0 55 -9 68 -27z" />
    <glyph glyph-name="Lcommaaccent" unicode="&#x13b;" horiz-adv-x="434" 
d="M404 0h-337v688h162v-579h175v-109zM303 -75l-110 -140h-81l52 146c19 13 46 20 72 20c29 0 54 -8 67 -26z" />
    <glyph glyph-name="lcommaaccent" unicode="&#x13c;" 
d="M218 0h-156v785h156v-785zM205 -71l-110 -140h-81l52 146c19 13 46 20 72 20c29 0 54 -8 67 -26z" />
    <glyph glyph-name="Lcaron" unicode="&#x13d;" horiz-adv-x="434" 
d="M404 0h-337v688h162v-579h175v-109zM416 674l-37 -173h-78v173c15 14 38 21 60 21c21 0 42 -7 55 -21z" />
    <glyph glyph-name="lcaron" unicode="&#x13e;" 
d="M218 0h-156v785h156v-785zM401 772l-37 -173h-78v173c15 14 38 21 60 21c21 0 42 -7 55 -21z" />
    <glyph glyph-name="Ldot" unicode="&#x13f;" horiz-adv-x="481" 
d="M404 0h-337v688h162v-579h175v-109zM459 386c0 -39 -31 -71 -70 -71s-71 32 -71 71s32 70 71 70s70 -31 70 -70z" />
    <glyph glyph-name="ldot" unicode="&#x140;" horiz-adv-x="420" 
d="M218 0h-156v785h156v-785zM421 413c0 -39 -31 -71 -70 -71s-71 32 -71 71s32 70 71 70s70 -31 70 -70z" />
    <glyph glyph-name="Lslash" unicode="&#x141;" horiz-adv-x="444" 
d="M414 0h-337v297l-60 -25v99l60 25v292h162v-230l84 36v-99l-84 -36v-250h175v-109z" />
    <glyph glyph-name="lslash" unicode="&#x142;" horiz-adv-x="296" 
d="M288 445l-64 -27v-418h-156v358l-59 -26v95l59 26v332h156v-273l64 28v-95z" />
    <glyph glyph-name="Nacute" unicode="&#x143;" horiz-adv-x="654" 
d="M589 0h-124l-230 388c-12 21 -27 51 -36 72h-2c3 -41 4 -59 4 -81v-379h-136v688h142l211 -357c18 -31 20 -35 36 -69h2c-2 23 -4 49 -4 78v348h137v-688zM487 879l-128 -137h-86l70 143c20 13 48 21 76 21c29 0 55 -9 68 -27z" />
    <glyph glyph-name="nacute" unicode="&#x144;" horiz-adv-x="579" 
d="M520 0h-156v365c0 59 -25 88 -87 88c-24 0 -43 -4 -62 -11v-442h-156v510c61 26 135 39 218 39c170 0 243 -69 243 -185v-364zM436 733l-128 -137h-86l70 143c20 13 48 21 76 21c29 0 55 -9 68 -27z" />
    <glyph glyph-name="Ncommaaccent" unicode="&#x145;" horiz-adv-x="654" 
d="M589 0h-124l-230 388c-12 21 -27 51 -36 72h-2c3 -41 4 -59 4 -81v-379h-136v688h142l211 -357c18 -31 20 -35 36 -69h2c-2 23 -4 49 -4 78v348h137v-688zM402 -71l-110 -140h-81l52 146c19 13 46 20 72 20c29 0 54 -8 67 -26z" />
    <glyph glyph-name="ncommaaccent" unicode="&#x146;" horiz-adv-x="579" 
d="M520 0h-156v365c0 59 -25 88 -87 88c-24 0 -43 -4 -62 -11v-442h-156v510c61 26 135 39 218 39c170 0 243 -69 243 -185v-364zM362 -73l-110 -140h-81l52 146c19 13 46 20 72 20c29 0 54 -8 67 -26z" />
    <glyph glyph-name="Ncaron" unicode="&#x147;" horiz-adv-x="654" 
d="M589 0h-124l-230 388c-12 21 -27 51 -36 72h-2c3 -41 4 -59 4 -81v-379h-136v688h142l211 -357c18 -31 20 -35 36 -69h2c-2 23 -4 49 -4 78v348h137v-688zM477 864l-101 -105c-12 -13 -28 -19 -44 -19s-32 6 -44 19l-101 105l44 41l101 -78l101 78z" />
    <glyph glyph-name="ncaron" unicode="&#x148;" horiz-adv-x="579" 
d="M520 0h-156v365c0 59 -25 88 -87 88c-24 0 -43 -4 -62 -11v-442h-156v510c61 26 135 39 218 39c170 0 243 -69 243 -185v-364zM427 717l-101 -105c-12 -13 -28 -19 -44 -19s-32 6 -44 19l-101 105l44 41l101 -78l101 78z" />
    <glyph glyph-name="napostrophe" unicode="&#x149;" horiz-adv-x="579" 
d="M115 772l-37 -173h-78v173c15 15 37 21 60 21c21 0 42 -6 55 -21zM520 0h-156v365c0 60 -24 88 -87 88c-24 0 -43 -4 -62 -11v-442h-156v510c61 26 133 39 218 39c169 0 243 -69 243 -185v-364z" />
    <glyph glyph-name="Eng" unicode="&#x14a;" horiz-adv-x="654" 
d="M589 688v-595c0 -178 -88 -298 -266 -313v113c61 16 113 62 124 136l-212 359c-20 34 -32 63 -36 72h-2c2 -25 4 -56 4 -81v-379h-136v688h142l211 -357c16 -26 25 -46 36 -69h2c-2 24 -4 51 -4 78v348h137z" />
    <glyph glyph-name="eng" unicode="&#x14b;" horiz-adv-x="579" 
d="M520 364v-283c0 -176 -87 -281 -245 -301v104c64 28 89 82 89 178v303c0 56 -23 88 -87 88c-22 0 -42 -3 -62 -11v-442h-156v510c61 26 135 39 218 39c170 0 243 -69 243 -185z" />
    <glyph glyph-name="Omacron" unicode="&#x14c;" horiz-adv-x="626" 
d="M582 344c0 -204 -85 -355 -269 -355s-269 151 -269 355s85 355 269 355s269 -151 269 -355zM419 347c0 139 -24 243 -106 243s-106 -104 -106 -243s24 -242 106 -242s106 103 106 242zM455 758h-284v81h284v-81z" />
    <glyph glyph-name="omacron" unicode="&#x14d;" horiz-adv-x="566" 
d="M526 270c0 -163 -82 -281 -243 -281s-243 118 -243 281s82 280 243 280s243 -117 243 -280zM370 273c0 105 -22 181 -87 181s-87 -76 -87 -181s22 -183 87 -183s87 78 87 183zM425 609h-284v81h284v-81z" />
    <glyph glyph-name="Obreve" unicode="&#x14e;" horiz-adv-x="626" 
d="M582 344c0 -204 -85 -355 -269 -355s-269 151 -269 355s85 355 269 355s269 -151 269 -355zM419 347c0 139 -24 243 -106 243s-106 -104 -106 -243s24 -242 106 -242s106 103 106 242zM453 890c0 -90 -55 -147 -140 -147s-140 57 -140 147l63 10c5 -48 35 -75 77 -75
s71 27 76 75z" />
    <glyph glyph-name="obreve" unicode="&#x14f;" horiz-adv-x="566" 
d="M526 270c0 -163 -82 -281 -243 -281s-243 118 -243 281s82 280 243 280s243 -117 243 -280zM370 273c0 105 -22 181 -87 181s-87 -76 -87 -181s22 -183 87 -183s87 78 87 183zM423 741c0 -90 -55 -147 -140 -147s-140 57 -140 147l63 10c5 -48 35 -75 77 -75s71 27 76 75
z" />
    <glyph glyph-name="Ohungarumlaut" unicode="&#x150;" horiz-adv-x="626" 
d="M582 344c0 -204 -85 -355 -269 -355s-269 151 -269 355s85 355 269 355s269 -151 269 -355zM419 347c0 139 -24 243 -106 243s-106 -104 -106 -243s24 -242 106 -242s106 103 106 242zM534 885l-118 -140h-68l87 142c15 13 34 20 54 20s36 -7 45 -22zM383 885l-118 -140
h-68l86 142c15 13 34 20 54 20s37 -7 46 -22z" />
    <glyph glyph-name="ohungarumlaut" unicode="&#x151;" horiz-adv-x="566" 
d="M526 270c0 -163 -82 -281 -243 -281s-243 118 -243 281s82 280 243 280s243 -117 243 -280zM370 273c0 105 -22 181 -87 181s-87 -76 -87 -181s22 -183 87 -183s87 78 87 183zM500 736l-118 -140h-68l87 142c15 13 34 20 54 20s36 -7 45 -22zM349 736l-118 -140h-68
l86 142c15 13 34 20 54 20s37 -7 46 -22z" />
    <glyph glyph-name="OE" unicode="&#x152;" horiz-adv-x="769" 
d="M727 0h-316c-20 -7 -51 -11 -83 -11c-198 0 -284 151 -284 355s86 355 284 355c32 0 63 -4 83 -11h316v-109h-189v-175h166v-106h-166v-189h189v-109zM387 108v479c-14 5 -30 8 -50 8c-97 0 -130 -105 -130 -248s35 -247 130 -247c20 0 36 3 50 8z" />
    <glyph glyph-name="oe" unicode="&#x153;" horiz-adv-x="860" 
d="M820 283c0 -7 0 -11 -1 -21l-320 -46c9 -72 54 -120 135 -120c54 0 105 15 134 31l35 -98c-45 -23 -113 -40 -187 -40c-86 0 -152 40 -183 94c-30 -54 -88 -94 -161 -94c-148 0 -232 110 -232 281s84 280 232 280c69 0 126 -32 160 -89c37 60 100 89 164 89
c144 0 224 -98 224 -267zM676 321c-1 88 -28 138 -89 138c-65 0 -99 -63 -99 -156v-11zM363 273c0 105 -22 181 -87 181s-87 -76 -87 -181s22 -183 87 -183s87 78 87 183z" />
    <glyph glyph-name="Racute" unicode="&#x154;" horiz-adv-x="595" 
d="M575 0h-179l-93 206c-18 39 -44 72 -79 88v-294h-158v660c55 25 128 39 206 39c175 0 276 -69 276 -209c0 -92 -61 -154 -156 -181v-2c27 -25 50 -60 67 -92zM389 484c0 82 -37 123 -113 123c-20 0 -39 -3 -52 -8v-239c11 -3 27 -4 43 -4c78 0 122 57 122 128zM451 882
l-128 -137h-86l70 143c20 13 48 21 76 21c29 0 55 -9 68 -27z" />
    <glyph glyph-name="racute" unicode="&#x155;" horiz-adv-x="359" 
d="M347 546l-28 -108c-17 9 -38 13 -57 13s-37 -3 -47 -8v-443h-156v510c50 24 123 40 219 40c24 0 53 -2 69 -4zM354 733l-128 -137h-86l70 143c20 13 48 21 76 21c29 0 55 -9 68 -27z" />
    <glyph glyph-name="Rcommaaccent" unicode="&#x156;" horiz-adv-x="595" 
d="M575 0h-179l-93 206c-18 39 -44 72 -79 88v-294h-158v660c55 25 128 39 206 39c175 0 276 -69 276 -209c0 -92 -61 -154 -156 -181v-2c27 -25 50 -60 67 -92zM389 484c0 82 -37 123 -113 123c-20 0 -39 -3 -52 -8v-239c11 -3 27 -4 43 -4c78 0 122 57 122 128zM373 -73
l-110 -140h-81l52 146c19 13 46 20 72 20c29 0 54 -8 67 -26z" />
    <glyph glyph-name="rcommaaccent" unicode="&#x157;" horiz-adv-x="359" 
d="M347 546l-28 -108c-17 9 -38 13 -57 13s-37 -3 -47 -8v-443h-156v510c50 24 123 40 219 40c24 0 53 -2 69 -4zM203 -75l-110 -140h-81l52 146c19 13 46 20 72 20c29 0 54 -8 67 -26z" />
    <glyph glyph-name="Rcaron" unicode="&#x158;" horiz-adv-x="595" 
d="M575 0h-179l-93 206c-18 39 -44 72 -79 88v-294h-158v660c55 25 128 39 206 39c175 0 276 -69 276 -209c0 -92 -61 -154 -156 -181v-2c27 -25 50 -60 67 -92zM389 484c0 82 -37 123 -113 123c-20 0 -39 -3 -52 -8v-239c11 -3 27 -4 43 -4c78 0 122 57 122 128zM440 869
l-101 -105c-12 -13 -28 -19 -44 -19s-32 6 -44 19l-101 105l44 41l101 -78l101 78z" />
    <glyph glyph-name="rcaron" unicode="&#x159;" horiz-adv-x="359" 
d="M347 546l-28 -108c-17 9 -38 13 -57 13s-37 -3 -47 -8v-443h-156v510c50 24 123 40 219 40c24 0 53 -2 69 -4zM343 717l-101 -105c-12 -13 -28 -19 -44 -19s-32 6 -44 19l-101 105l44 41l101 -78l101 78z" />
    <glyph glyph-name="Sacute" unicode="&#x15a;" horiz-adv-x="505" 
d="M464 200c0 -121 -94 -211 -240 -211c-76 0 -143 14 -191 40l41 111c40 -22 86 -32 127 -32c61 0 97 31 97 77c0 124 -257 93 -257 313c0 117 92 201 232 201c66 0 125 -15 169 -40l-36 -99c-30 17 -74 28 -111 28c-57 0 -95 -27 -95 -76c0 -124 264 -87 264 -312z
M415 882l-128 -137h-86l70 143c20 13 48 21 76 21c29 0 55 -9 68 -27z" />
    <glyph glyph-name="sacute" unicode="&#x15b;" horiz-adv-x="446" 
d="M409 164c0 -100 -81 -175 -213 -175c-62 0 -127 15 -166 39l41 96c36 -21 73 -31 105 -31c45 0 74 26 74 60c0 93 -208 62 -208 232c0 102 84 165 188 165c67 0 119 -12 165 -39l-37 -86c-31 18 -65 28 -94 28c-44 0 -67 -25 -67 -57c0 -90 212 -61 212 -232zM387 733
l-128 -137h-86l70 143c20 13 48 21 76 21c29 0 55 -9 68 -27z" />
    <glyph glyph-name="Scircumflex" unicode="&#x15c;" horiz-adv-x="505" 
d="M464 200c0 -121 -94 -211 -240 -211c-76 0 -143 14 -191 40l41 111c40 -22 86 -32 127 -32c61 0 97 31 97 77c0 124 -257 93 -257 313c0 117 92 201 232 201c66 0 125 -15 169 -40l-36 -99c-30 17 -74 28 -111 28c-57 0 -95 -27 -95 -76c0 -124 264 -87 264 -312z
M410 775l-44 -41l-101 78l-101 -78l-44 41l101 105c12 13 28 19 44 19s32 -6 44 -19z" />
    <glyph glyph-name="scircumflex" unicode="&#x15d;" horiz-adv-x="446" 
d="M409 164c0 -100 -81 -175 -213 -175c-62 0 -127 15 -166 39l41 96c36 -21 73 -31 105 -31c45 0 74 26 74 60c0 93 -208 62 -208 232c0 102 84 165 188 165c67 0 119 -12 165 -39l-37 -86c-31 18 -65 28 -94 28c-44 0 -67 -25 -67 -57c0 -90 212 -61 212 -232zM378 628
l-44 -41l-101 78l-101 -78l-44 41l101 105c12 13 28 19 44 19s32 -6 44 -19z" />
    <glyph glyph-name="Scedilla" unicode="&#x15e;" horiz-adv-x="505" 
d="M464 200c0 -121 -94 -211 -240 -211c-76 0 -143 14 -191 40l41 111c40 -22 86 -32 127 -32c61 0 97 31 97 77c0 124 -257 93 -257 313c0 117 92 201 232 201c66 0 125 -15 169 -40l-36 -99c-30 17 -74 28 -111 28c-57 0 -95 -27 -95 -76c0 -124 264 -87 264 -312z
M348 -123c0 -59 -68 -90 -186 -90c-40 0 -73 4 -83 5l25 52c11 -1 28 -3 52 -3c57 0 87 13 87 34c0 18 -16 28 -59 28c-25 0 -42 -2 -54 -3l22 47c11 1 37 3 69 3c91 0 127 -28 127 -73z" />
    <glyph glyph-name="scedilla" unicode="&#x15f;" horiz-adv-x="446" 
d="M409 164c0 -100 -81 -175 -213 -175c-62 0 -127 15 -166 39l41 96c36 -21 73 -31 105 -31c45 0 74 26 74 60c0 93 -208 62 -208 232c0 102 84 165 188 165c67 0 119 -12 165 -39l-37 -86c-31 18 -65 28 -94 28c-44 0 -67 -25 -67 -57c0 -90 212 -61 212 -232zM329 -123
c0 -59 -68 -90 -186 -90c-40 0 -73 4 -83 5l25 52c11 -1 28 -3 52 -3c57 0 87 13 87 34c0 18 -16 28 -59 28c-25 0 -42 -2 -54 -3l22 47c11 1 37 3 69 3c91 0 127 -28 127 -73z" />
    <glyph glyph-name="Scaron" unicode="&#x160;" horiz-adv-x="505" 
d="M464 200c0 -121 -94 -211 -240 -211c-76 0 -143 14 -191 40l41 111c40 -22 86 -32 127 -32c61 0 97 31 97 77c0 124 -257 93 -257 313c0 117 92 201 232 201c66 0 125 -15 169 -40l-36 -99c-30 17 -74 28 -111 28c-57 0 -95 -27 -95 -76c0 -124 264 -87 264 -312z
M406 866l-101 -105c-12 -13 -28 -19 -44 -19s-32 6 -44 19l-101 105l44 41l101 -78l101 78z" />
    <glyph glyph-name="scaron" unicode="&#x161;" horiz-adv-x="446" 
d="M409 164c0 -100 -81 -175 -213 -175c-62 0 -127 15 -166 39l41 96c36 -21 73 -31 105 -31c45 0 74 26 74 60c0 93 -208 62 -208 232c0 102 84 165 188 165c67 0 119 -12 165 -39l-37 -86c-31 18 -65 28 -94 28c-44 0 -67 -25 -67 -57c0 -90 212 -61 212 -232zM370 719
l-101 -105c-12 -13 -28 -19 -44 -19s-32 6 -44 19l-101 105l44 41l101 -78l101 78z" />
    <glyph glyph-name="Tcommaaccent" unicode="&#x162;" horiz-adv-x="472" 
d="M441 579h-124v-579h-162v579h-124v109h410v-109zM339 -121c0 -59 -68 -90 -186 -90c-40 0 -73 4 -83 5l25 52c11 -1 28 -3 52 -3c57 0 87 13 87 34c0 18 -16 28 -59 28c-25 0 -42 -2 -54 -3l22 47c11 1 37 3 69 3c91 0 127 -28 127 -73z" />
    <glyph glyph-name="tcommaaccent" unicode="&#x163;" horiz-adv-x="364" 
d="M330 7c-17 -9 -45 -15 -79 -15c-103 0 -161 58 -161 160v287h-58v100h58v115l156 41v-156h84v-100h-84v-287c0 -36 19 -55 51 -55c12 0 23 2 33 6v-96zM299 -123c0 -59 -68 -90 -186 -90c-40 0 -73 4 -83 5l25 52c11 -1 28 -3 52 -3c57 0 87 13 87 34c0 18 -16 28 -59 28
c-25 0 -42 -2 -54 -3l22 47c11 1 37 3 69 3c91 0 127 -28 127 -73z" />
    <glyph glyph-name="Tcaron" unicode="&#x164;" horiz-adv-x="472" 
d="M441 579h-124v-579h-162v579h-124v109h410v-109zM382 866l-101 -105c-12 -13 -28 -19 -44 -19s-32 6 -44 19l-101 105l44 41l101 -78l101 78z" />
    <glyph glyph-name="tcaron" unicode="&#x165;" horiz-adv-x="364" 
d="M330 7c-17 -9 -45 -15 -79 -15c-103 0 -161 58 -161 160v287h-58v100h58v115l156 41v-156h84v-100h-84v-287c0 -36 19 -55 51 -55c12 0 23 2 33 6v-96zM425 772l-37 -173h-78v173c15 14 38 21 60 21c21 0 42 -7 55 -21z" />
    <glyph glyph-name="Tbar" unicode="&#x166;" horiz-adv-x="472" 
d="M441 579h-124v-157h96v-98h-96v-324h-162v324h-96v98h96v157h-124v109h410v-109z" />
    <glyph glyph-name="tbar" unicode="&#x167;" horiz-adv-x="364" 
d="M330 7c-17 -9 -45 -15 -79 -15c-103 0 -161 58 -161 160v108h-58v80h58v99h-58v100h58v115l156 41v-156h84v-100h-84v-99h84v-80h-84v-108c0 -36 19 -55 51 -55c12 0 23 2 33 6v-96z" />
    <glyph glyph-name="Utilde" unicode="&#x168;" horiz-adv-x="614" 
d="M549 688v-485c0 -132 -100 -215 -242 -215s-242 83 -242 215v485h162v-487c0 -56 39 -89 86 -89s85 33 85 89v487h151zM456 848c-7 -57 -34 -103 -93 -103c-51 0 -63 41 -104 41c-22 0 -34 -17 -38 -41l-61 21c7 57 33 102 92 102c51 0 64 -41 105 -41c22 0 34 18 38 42z
" />
    <glyph glyph-name="utilde" unicode="&#x169;" horiz-adv-x="572" 
d="M513 30c-51 -24 -137 -41 -220 -41c-155 0 -234 57 -234 190v360h156v-367c0 -52 28 -79 80 -79c22 0 46 5 62 12v434h156v-509zM434 699c-7 -57 -34 -103 -93 -103c-51 0 -63 41 -104 41c-22 0 -34 -17 -38 -41l-61 21c7 57 33 102 92 102c51 0 64 -41 105 -41
c22 0 34 18 38 42z" />
    <glyph glyph-name="Umacron" unicode="&#x16a;" horiz-adv-x="614" 
d="M549 688v-485c0 -132 -100 -215 -242 -215s-242 83 -242 215v485h162v-487c0 -56 39 -89 86 -89s85 33 85 89v487h151zM454 756h-284v81h284v-81z" />
    <glyph glyph-name="umacron" unicode="&#x16b;" horiz-adv-x="572" 
d="M513 30c-51 -24 -137 -41 -220 -41c-155 0 -234 57 -234 190v360h156v-367c0 -52 28 -79 80 -79c22 0 46 5 62 12v434h156v-509zM428 607h-284v81h284v-81z" />
    <glyph glyph-name="Ubreve" unicode="&#x16c;" horiz-adv-x="614" 
d="M549 688v-485c0 -132 -100 -215 -242 -215s-242 83 -242 215v485h162v-487c0 -56 39 -89 86 -89s85 33 85 89v487h151zM453 888c0 -90 -55 -147 -140 -147s-140 57 -140 147l63 10c5 -48 35 -75 77 -75s71 27 76 75z" />
    <glyph glyph-name="ubreve" unicode="&#x16d;" horiz-adv-x="572" 
d="M513 30c-51 -24 -137 -41 -220 -41c-155 0 -234 57 -234 190v360h156v-367c0 -52 28 -79 80 -79c22 0 46 5 62 12v434h156v-509zM425 739c0 -90 -55 -147 -140 -147s-140 57 -140 147l63 10c5 -48 35 -75 77 -75s71 27 76 75z" />
    <glyph glyph-name="Uring" unicode="&#x16e;" horiz-adv-x="614" 
d="M549 688v-485c0 -132 -100 -215 -242 -215s-242 83 -242 215v485h162v-487c0 -56 39 -89 86 -89s85 33 85 89v487h151zM401 824c0 -49 -41 -89 -90 -89s-90 40 -90 89s41 90 90 90s90 -41 90 -90zM350 824c0 22 -17 41 -39 41s-39 -19 -39 -41s17 -40 39 -40s39 18 39 40
z" />
    <glyph glyph-name="uring" unicode="&#x16f;" horiz-adv-x="572" 
d="M513 30c-51 -24 -137 -41 -220 -41c-155 0 -234 57 -234 190v360h156v-367c0 -52 28 -79 80 -79c22 0 46 5 62 12v434h156v-509zM375 681c0 -49 -41 -89 -90 -89s-90 40 -90 89s41 90 90 90s90 -41 90 -90zM324 681c0 22 -17 41 -39 41s-39 -19 -39 -41s17 -40 39 -40
s39 18 39 40z" />
    <glyph glyph-name="Uhungarumlaut" unicode="&#x170;" horiz-adv-x="614" 
d="M549 688v-485c0 -132 -100 -215 -242 -215s-242 83 -242 215v485h162v-487c0 -56 39 -89 86 -89s85 33 85 89v487h151zM519 884l-118 -140h-68l87 142c15 13 34 20 54 20s36 -7 45 -22zM368 884l-118 -140h-68l86 142c15 13 34 20 54 20s37 -7 46 -22z" />
    <glyph glyph-name="uhungarumlaut" unicode="&#x171;" horiz-adv-x="572" 
d="M513 30c-51 -24 -137 -41 -220 -41c-155 0 -234 57 -234 190v360h156v-367c0 -52 28 -79 80 -79c22 0 46 5 62 12v434h156v-509zM497 735l-118 -140h-68l87 142c15 13 34 20 54 20s36 -7 45 -22zM346 735l-118 -140h-68l86 142c15 13 34 20 54 20s37 -7 46 -22z" />
    <glyph glyph-name="Uogonek" unicode="&#x172;" horiz-adv-x="614" 
d="M549 688v-485c0 -96 -53 -169 -140 -198c-43 -30 -58 -61 -58 -87s22 -44 55 -44c16 0 36 3 51 9l13 -60c-22 -10 -57 -16 -91 -16c-83 0 -133 35 -133 90c0 32 21 64 53 91c-137 3 -234 86 -234 215v485h162v-487c0 -56 39 -89 86 -89s85 33 85 89v487h151z" />
    <glyph glyph-name="uogonek" unicode="&#x173;" horiz-adv-x="572" 
d="M533 -177c-22 -10 -57 -16 -91 -16c-83 0 -133 35 -133 90c0 35 23 68 59 96c-25 -3 -50 -4 -75 -4c-155 0 -234 57 -234 190v360h156v-367c0 -52 28 -79 80 -79c22 0 46 5 62 12v434h156v-509c-51 -27 -99 -67 -99 -112c0 -26 22 -44 55 -44c16 0 36 3 51 9z" />
    <glyph glyph-name="Wcircumflex" unicode="&#x174;" horiz-adv-x="841" 
d="M820 688l-155 -688h-143l-88 362c-8 31 -11 65 -12 74h-2c-1 -9 -4 -43 -12 -74l-88 -362h-144l-155 688h160l73 -402c6 -34 9 -68 10 -80h2c1 13 6 49 13 80l91 402h115l88 -402c8 -37 10 -54 13 -80h2c2 27 6 56 10 80l75 402h147zM573 775l-44 -41l-101 78l-101 -78
l-44 41l101 105c12 13 28 19 44 19s32 -6 44 -19z" />
    <glyph glyph-name="wcircumflex" unicode="&#x175;" horiz-adv-x="808" 
d="M787 539l-150 -539h-144l-76 298c-7 27 -11 58 -12 68h-2c-1 -12 -4 -40 -11 -68l-77 -298h-143l-150 539h159l62 -313c6 -29 8 -58 9 -80h2c2 21 7 52 14 80l82 313h127l76 -313c7 -30 9 -50 12 -80h2c3 31 5 50 11 80l67 313h142zM558 629l-44 -41l-101 78l-101 -78
l-44 41l101 105c12 13 28 19 44 19s32 -6 44 -19z" />
    <glyph glyph-name="Ycircumflex" unicode="&#x176;" horiz-adv-x="532" 
d="M531 688l-184 -399v-289h-162v289l-183 399h170l99 -260h2l104 260h154zM419 775l-44 -41l-101 78l-101 -78l-44 41l101 105c12 13 28 19 44 19s32 -6 44 -19z" />
    <glyph glyph-name="ycircumflex" unicode="&#x177;" horiz-adv-x="533" 
d="M520 539l-251 -754h-163l89 215l-181 539h168l75 -322c8 -34 11 -65 12 -83h2c2 17 6 49 15 83l83 322h151zM420 629l-44 -41l-101 78l-101 -78l-44 41l101 105c12 13 28 19 44 19s32 -6 44 -19z" />
    <glyph glyph-name="Ydieresis" unicode="&#x178;" horiz-adv-x="532" 
d="M531 688l-184 -399v-289h-162v289l-183 399h170l99 -260h2l104 260h154zM244 812c0 -35 -29 -64 -64 -64s-64 29 -64 64s29 64 64 64s64 -29 64 -64zM439 812c0 -35 -29 -64 -64 -64s-64 29 -64 64s29 64 64 64s64 -29 64 -64z" />
    <glyph glyph-name="Zacute" unicode="&#x179;" horiz-adv-x="477" 
d="M443 0h-426l220 579h-197v109h399l-212 -579h216v-109zM397 881l-128 -137h-86l70 143c20 13 48 21 76 21c29 0 55 -9 68 -27z" />
    <glyph glyph-name="zacute" unicode="&#x17a;" horiz-adv-x="440" 
d="M407 0h-382l184 439h-167v100h361l-180 -439h184v-100zM376 732l-128 -137h-86l70 143c20 13 48 21 76 21c29 0 55 -9 68 -27z" />
    <glyph glyph-name="Zdotaccent" unicode="&#x17b;" horiz-adv-x="477" 
d="M443 0h-426l220 579h-197v109h399l-212 -579h216v-109zM314 818c0 -39 -31 -71 -70 -71s-71 32 -71 71s32 70 71 70s70 -31 70 -70z" />
    <glyph glyph-name="zdotaccent" unicode="&#x17c;" horiz-adv-x="440" 
d="M407 0h-382l184 439h-167v100h361l-180 -439h184v-100zM297 669c0 -39 -31 -71 -70 -71s-71 32 -71 71s32 70 71 70s70 -31 70 -70z" />
    <glyph glyph-name="Zcaron" unicode="&#x17d;" horiz-adv-x="477" 
d="M443 0h-426l220 579h-197v109h399l-212 -579h216v-109zM383 866l-101 -105c-12 -13 -28 -19 -44 -19s-32 6 -44 19l-101 105l44 41l101 -78l101 78z" />
    <glyph glyph-name="zcaron" unicode="&#x17e;" horiz-adv-x="440" 
d="M407 0h-382l184 439h-167v100h361l-180 -439h184v-100zM364 717l-101 -105c-12 -13 -28 -19 -44 -19s-32 6 -44 19l-101 105l44 41l101 -78l101 78z" />
    <glyph glyph-name="longs" unicode="&#x17f;" horiz-adv-x="336" 
d="M351 778l-18 -98c-13 4 -26 5 -39 5c-50 0 -76 -31 -76 -93v-807h-155v798c0 135 80 207 201 207c31 0 65 -4 87 -12z" />
    <glyph glyph-name="uni018F" unicode="&#x18f;" horiz-adv-x="626" 
d="M582 343c0 -213 -97 -354 -276 -354c-181 0 -262 142 -262 375l372 54c-10 91 -57 166 -158 166c-56 0 -116 -17 -154 -38l-38 104c56 31 132 49 213 49c203 0 303 -148 303 -356zM427 331l-221 -36c0 -117 32 -189 106 -189c79 0 115 81 115 214v11z" />
    <glyph glyph-name="florin" unicode="&#x192;" horiz-adv-x="564" 
d="M528 677l-19 -97c-14 6 -34 10 -54 10c-52 0 -81 -41 -90 -110l-9 -68h109v-101h-122l-40 -312c-18 -139 -94 -221 -223 -221c-35 0 -74 9 -99 22l20 102c14 -7 36 -12 56 -12c52 0 83 41 92 109l40 312h-94v101h107l9 68c18 138 92 217 219 217c35 0 72 -8 98 -20z" />
    <glyph glyph-name="uni01B5" unicode="&#x1b5;" horiz-adv-x="477" 
d="M443 0h-426l115 303h-82v97h119l68 179h-197v109h399l-106 -288h87v-97h-122l-71 -194h216v-109z" />
    <glyph glyph-name="uni01B6" unicode="&#x1b6;" horiz-adv-x="440" 
d="M407 0h-382l97 231h-73v85h109l51 123h-167v100h361l-91 -223h77v-85h-112l-54 -131h184v-100z" />
    <glyph glyph-name="uni01C4" unicode="&#x1c4;" horiz-adv-x="1099" 
d="M578 344c0 -224 -112 -355 -308 -355c-75 0 -148 13 -205 39v632c57 26 130 39 205 39c196 0 308 -131 308 -355zM415 347c0 168 -45 245 -137 245c-20 0 -41 -3 -53 -8v-475c12 -5 33 -8 53 -8c92 0 137 78 137 246zM1065 0h-426l220 579h-197v109h399l-212 -579h216
v-109zM1005 866l-101 -105c-12 -13 -28 -19 -44 -19s-32 6 -44 19l-101 105l44 41l101 -78l101 78z" />
    <glyph glyph-name="uni01C5" unicode="&#x1c5;" horiz-adv-x="1062" 
d="M578 344c0 -224 -112 -355 -308 -355c-75 0 -148 13 -205 39v632c57 26 130 39 205 39c196 0 308 -131 308 -355zM415 347c0 168 -45 245 -137 245c-20 0 -41 -3 -53 -8v-475c12 -5 33 -8 53 -8c92 0 137 78 137 246zM1029 0h-382l184 439h-167v100h361l-180 -439h184
v-100zM986 717l-101 -105c-12 -13 -28 -19 -44 -19s-32 6 -44 19l-101 105l44 41l101 -78l101 78z" />
    <glyph glyph-name="uni01C6" unicode="&#x1c6;" horiz-adv-x="1010" 
d="M511 29c-49 -25 -124 -40 -210 -40c-164 0 -261 97 -261 273c0 164 90 284 243 284c26 0 49 -3 73 -9v248h155v-756zM356 96v356c-14 4 -28 6 -44 6c-84 0 -118 -74 -118 -185c0 -117 35 -186 114 -186c22 0 36 4 48 9zM977 0h-382l184 439h-167v100h361l-180 -439h184
v-100zM934 717l-101 -105c-12 -13 -28 -19 -44 -19s-32 6 -44 19l-101 105l44 41l101 -78l101 78z" />
    <glyph glyph-name="uni01C7" unicode="&#x1c7;" horiz-adv-x="730" 
d="M404 0h-337v688h162v-579h175v-109zM663 688v-601c0 -172 -88 -293 -266 -308v113c70 21 104 86 104 181v615h162z" />
    <glyph glyph-name="uni01C8" unicode="&#x1c8;" horiz-adv-x="716" 
d="M404 0h-337v688h162v-579h175v-109zM659 694c0 -41 -37 -74 -83 -74c-47 0 -83 33 -83 74s37 73 83 73c47 0 83 -33 83 -73zM654 539v-458c0 -176 -87 -281 -245 -301v104c64 28 89 82 89 178v477h156z" />
    <glyph glyph-name="uni01C9" unicode="&#x1c9;" horiz-adv-x="562" 
d="M218 0h-156v785h156v-785zM505 694c0 -41 -37 -74 -83 -74c-47 0 -83 33 -83 74s37 73 83 73c47 0 83 -33 83 -73zM500 539v-458c0 -176 -87 -281 -245 -301v104c64 28 89 82 89 178v477h156z" />
    <glyph glyph-name="uni01CA" unicode="&#x1ca;" horiz-adv-x="950" 
d="M589 0h-124l-230 388c-12 21 -27 51 -36 72h-2c3 -41 4 -59 4 -81v-379h-136v688h142l211 -357c18 -31 20 -35 36 -69h2c-2 23 -4 49 -4 78v348h137v-688zM883 688v-601c0 -172 -88 -293 -266 -308v113c70 21 104 86 104 181v615h162z" />
    <glyph glyph-name="uni01CB" unicode="&#x1cb;" horiz-adv-x="936" 
d="M589 0h-124l-230 388c-12 21 -27 51 -36 72h-2c3 -41 4 -59 4 -81v-379h-136v688h142l211 -357c18 -31 20 -35 36 -69h2c-2 23 -4 49 -4 78v348h137v-688zM879 694c0 -41 -37 -74 -83 -74c-47 0 -83 33 -83 74s37 73 83 73c47 0 83 -33 83 -73zM874 539v-458
c0 -176 -87 -281 -245 -301v104c64 28 89 82 89 178v477h156z" />
    <glyph glyph-name="uni01CC" unicode="&#x1cc;" horiz-adv-x="861" 
d="M520 0h-156v365c0 59 -25 88 -87 88c-24 0 -43 -4 -62 -11v-442h-156v510c61 26 135 39 218 39c170 0 243 -69 243 -185v-364zM804 694c0 -41 -37 -74 -83 -74c-47 0 -83 33 -83 74s37 73 83 73c47 0 83 -33 83 -73zM799 539v-458c0 -176 -87 -281 -245 -301v104
c64 28 89 82 89 178v477h156z" />
    <glyph glyph-name="uni01F1" unicode="&#x1f1;" horiz-adv-x="1099" 
d="M578 344c0 -224 -112 -355 -308 -355c-75 0 -148 13 -205 39v632c57 26 130 39 205 39c196 0 308 -131 308 -355zM415 347c0 168 -45 245 -137 245c-20 0 -41 -3 -53 -8v-475c12 -5 33 -8 53 -8c92 0 137 78 137 246zM1065 0h-426l220 579h-197v109h399l-212 -579h216
v-109z" />
    <glyph glyph-name="uni01F2" unicode="&#x1f2;" horiz-adv-x="1062" 
d="M578 344c0 -224 -112 -355 -308 -355c-75 0 -148 13 -205 39v632c57 26 130 39 205 39c196 0 308 -131 308 -355zM415 347c0 168 -45 245 -137 245c-20 0 -41 -3 -53 -8v-475c12 -5 33 -8 53 -8c92 0 137 78 137 246zM1029 0h-382l184 439h-167v100h361l-180 -439h184
v-100z" />
    <glyph glyph-name="uni01F3" unicode="&#x1f3;" horiz-adv-x="1010" 
d="M511 29c-49 -25 -124 -40 -210 -40c-164 0 -261 97 -261 273c0 164 90 284 243 284c26 0 49 -3 73 -9v248h155v-756zM356 96v356c-14 4 -28 6 -44 6c-84 0 -118 -74 -118 -185c0 -117 35 -186 114 -186c22 0 36 4 48 9zM977 0h-382l184 439h-167v100h361l-180 -439h184
v-100z" />
    <glyph glyph-name="Aringacute" unicode="&#x1fa;" horiz-adv-x="624" 
d="M516 907l-111 -127c-26 -30 -61 -45 -99 -45c-52 0 -96 34 -96 90c0 49 41 89 90 89c29 0 55 -15 66 -35l19 34c18 13 42 20 68 20s51 -8 63 -26zM340 825c0 22 -18 40 -40 40s-39 -18 -39 -40s17 -41 39 -41s40 19 40 41zM620 0h-170l-41 153h-208l-42 -153h-155
l224 688h169zM385 246l-59 224c-9 35 -14 66 -18 89h-2c-3 -23 -8 -57 -17 -89l-62 -224h158z" />
    <glyph glyph-name="aringacute" unicode="&#x1fb;" horiz-adv-x="542" 
d="M473 764l-111 -126c-26 -30 -60 -45 -98 -45c-52 0 -96 33 -96 89c0 49 41 90 90 90c29 0 55 -15 66 -35l18 34c18 13 42 20 68 20s51 -9 63 -27zM297 682c0 22 -17 41 -39 41s-39 -19 -39 -41s17 -40 39 -40s39 18 39 40zM483 29c-46 -24 -120 -40 -211 -40
c-154 0 -237 58 -237 171c0 133 136 176 302 192v24c0 52 -33 75 -93 75c-50 0 -105 -15 -144 -34l-34 92c54 24 130 41 201 41c132 0 216 -56 216 -197v-324zM337 86v193c-104 -11 -156 -43 -156 -113c0 -60 35 -90 99 -90c23 0 43 3 57 10z" />
    <glyph glyph-name="AEacute" unicode="&#x1fc;" horiz-adv-x="771" 
d="M742 0h-305l-27 153h-210l-57 -153h-154l290 688h408v-109h-217l41 -175h176v-106h-155l44 -189h166v-109zM394 246l-38 225c-6 38 -9 71 -10 88h-2c-4 -17 -11 -47 -26 -88l-83 -225h159zM603 881l-128 -137h-86l70 143c20 13 48 21 76 21c29 0 55 -9 68 -27z" />
    <glyph glyph-name="aeacute" unicode="&#x1fd;" horiz-adv-x="835" 
d="M795 285c0 -7 0 -15 -1 -23l-320 -46c9 -71 50 -120 134 -120c52 0 104 15 134 31l35 -98c-45 -23 -111 -40 -187 -40c-79 0 -141 32 -175 79c-27 -47 -83 -79 -166 -79c-127 0 -214 56 -214 170c0 132 133 176 298 192v26c0 55 -34 74 -91 74c-53 0 -108 -18 -143 -34
l-33 92c38 17 107 41 197 41c65 0 123 -23 150 -73c35 48 99 73 157 73c145 0 225 -93 225 -265zM650 321c-1 88 -28 138 -89 138c-58 0 -99 -53 -99 -154v-13zM333 158v121c-97 -10 -155 -40 -155 -114c0 -52 27 -89 79 -89c45 0 76 36 76 82zM578 732l-128 -137h-86
l70 143c20 13 48 21 76 21c29 0 55 -9 68 -27z" />
    <glyph glyph-name="Oslashacute" unicode="&#x1fe;" horiz-adv-x="626" 
d="M582 344c0 -204 -85 -355 -269 -355c-66 0 -119 19 -160 54l-58 -91l-42 28l63 101c-49 64 -72 156 -72 263c0 204 85 355 269 355c66 0 120 -19 161 -54l57 91l43 -28l-64 -101c49 -64 72 -156 72 -263zM401 531c-18 42 -46 65 -88 65c-85 0 -114 -96 -114 -248
c0 -47 3 -88 9 -123zM428 348c0 44 -2 83 -8 117l-193 -305c18 -39 46 -60 86 -60c85 0 115 96 115 248zM461 882l-128 -137h-86l70 143c20 13 48 21 76 21c29 0 55 -9 68 -27z" />
    <glyph glyph-name="oslashacute" unicode="&#x1ff;" horiz-adv-x="566" 
d="M526 270c0 -163 -82 -281 -243 -281c-55 0 -101 13 -137 38l-51 -74l-39 27l54 78c-46 50 -70 125 -70 212c0 163 82 280 243 280c55 0 101 -13 137 -38l51 74l39 -27l-54 -78c46 -50 70 -124 70 -211zM354 414c-15 30 -38 47 -71 47c-71 0 -95 -79 -95 -188
c0 -33 2 -64 7 -90zM378 273c0 31 -3 59 -7 84l-157 -230c15 -28 37 -44 69 -44c71 0 95 81 95 190zM440 733l-128 -137h-86l70 143c20 13 48 21 76 21c29 0 55 -9 68 -27z" />
    <glyph glyph-name="Scommaaccent" unicode="&#x218;" horiz-adv-x="505" 
d="M464 200c0 -121 -94 -211 -240 -211c-76 0 -143 14 -191 40l41 111c40 -22 86 -32 127 -32c61 0 97 31 97 77c0 124 -257 93 -257 313c0 117 92 201 232 201c66 0 125 -15 169 -40l-36 -99c-30 17 -74 28 -111 28c-57 0 -95 -27 -95 -76c0 -124 264 -87 264 -312z
M307 -77l-110 -140h-81l52 146c19 13 46 20 72 20c29 0 54 -8 67 -26z" />
    <glyph glyph-name="scommaaccent" unicode="&#x219;" horiz-adv-x="446" 
d="M409 164c0 -100 -81 -175 -213 -175c-62 0 -127 15 -166 39l41 96c36 -21 73 -31 105 -31c45 0 74 26 74 60c0 93 -208 62 -208 232c0 102 84 165 188 165c67 0 119 -12 165 -39l-37 -86c-31 18 -65 28 -94 28c-44 0 -67 -25 -67 -57c0 -90 212 -61 212 -232zM294 -77
l-110 -140h-81l52 146c19 13 46 20 72 20c29 0 54 -8 67 -26z" />
    <glyph glyph-name="uni021A" unicode="&#x21a;" horiz-adv-x="472" 
d="M441 579h-124v-579h-162v579h-124v109h410v-109zM302 -75l-110 -140h-81l52 146c19 13 46 20 72 20c29 0 54 -8 67 -26z" />
    <glyph glyph-name="uni021B" unicode="&#x21b;" horiz-adv-x="364" 
d="M330 7c-17 -9 -45 -15 -79 -15c-103 0 -161 58 -161 160v287h-58v100h58v115l156 41v-156h84v-100h-84v-287c0 -36 19 -55 51 -55c12 0 23 2 33 6v-96zM260 -76l-110 -140h-81l52 146c19 13 46 20 72 20c29 0 54 -8 67 -26z" />
    <glyph glyph-name="uni0237" unicode="&#x237;" horiz-adv-x="282" 
d="M220 539v-458c0 -176 -87 -281 -245 -301v104c64 28 89 82 89 178v477h156z" />
    <glyph glyph-name="uni0259" unicode="&#x259;" horiz-adv-x="558" 
d="M518 268c0 -169 -88 -279 -245 -279c-161 0 -233 115 -233 298l325 47c-11 67 -58 112 -135 112c-49 0 -103 -15 -136 -32l-36 95c50 25 122 41 197 41c173 0 263 -118 263 -282zM376 258l-188 -30c1 -89 30 -145 91 -145c64 0 97 62 97 158v17z" />
    <glyph glyph-name="uni02BB" unicode="&#x2bb;" horiz-adv-x="304" 
d="M268 785l-85 -266c-16 -27 -43 -47 -84 -47s-56 23 -61 47l148 266h82z" />
    <glyph glyph-name="afii57929" unicode="&#x2bc;" horiz-adv-x="304" 
d="M266 746l-148 -266h-82l85 266c16 27 43 47 84 47s56 -23 61 -47z" />
    <glyph glyph-name="circumflex" unicode="&#x2c6;" 
d="M285 630l-44 -41l-101 78l-101 -78l-44 41l101 105c12 13 28 19 44 19s32 -6 44 -19z" />
    <glyph glyph-name="caron" unicode="&#x2c7;" 
d="M285 717l-101 -105c-12 -13 -28 -19 -44 -19s-32 6 -44 19l-101 105l44 41l101 -78l101 78z" />
    <glyph glyph-name="uni02C9" unicode="&#x2c9;" 
d="M282 609h-284v81h284v-81z" />
    <glyph glyph-name="breve" unicode="&#x2d8;" 
d="M280 741c0 -90 -55 -147 -140 -147s-140 57 -140 147l63 10c5 -48 35 -75 77 -75s71 27 76 75z" />
    <glyph glyph-name="dotaccent" unicode="&#x2d9;" horiz-adv-x="279" 
d="M210 670c0 -39 -31 -71 -70 -71s-71 32 -71 71s32 70 71 70s70 -31 70 -70z" />
    <glyph glyph-name="ring" unicode="&#x2da;" 
d="M230 682c0 -49 -41 -89 -90 -89s-90 40 -90 89s41 90 90 90s90 -41 90 -90zM179 682c0 22 -17 41 -39 41s-39 -19 -39 -41s17 -40 39 -40s39 18 39 40z" />
    <glyph glyph-name="ogonek" unicode="&#x2db;" 
d="M263 -177c-22 -10 -57 -16 -91 -16c-83 0 -133 35 -133 90c0 43 36 85 88 115h86c-50 -32 -69 -65 -69 -94c0 -26 22 -44 55 -44c16 0 36 3 51 9z" />
    <glyph glyph-name="tilde" unicode="&#x2dc;" 
d="M288 700c-7 -57 -34 -103 -93 -103c-51 0 -63 41 -104 41c-22 0 -34 -17 -38 -41l-61 21c7 57 33 102 92 102c51 0 64 -41 105 -41c22 0 34 18 38 42z" />
    <glyph glyph-name="hungarumlaut" unicode="&#x2dd;" 
d="M345 736l-118 -140h-68l87 142c15 13 34 20 54 20s36 -7 45 -22zM194 736l-118 -140h-68l86 142c15 13 34 20 54 20s37 -7 46 -22z" />
    <glyph glyph-name="uni037E" unicode="&#x37e;" horiz-adv-x="298" 
d="M246 393c0 -49 -40 -88 -89 -88s-89 39 -89 88s40 89 89 89s89 -40 89 -89zM249 121l-149 -266h-93l84 266c18 28 49 47 90 47c42 0 63 -20 68 -47z" />
    <glyph glyph-name="tonos" unicode="&#x384;" horiz-adv-x="298" 
d="M267 728l-90 -132h-87l41 139c17 17 44 25 69 25c27 0 54 -10 67 -32z" />
    <glyph glyph-name="dieresistonos" unicode="&#x385;" horiz-adv-x="305" 
d="M331 661c0 -34 -24 -62 -55 -62s-56 28 -56 62s25 61 56 61s55 -27 55 -61zM198 749l-31 -153h-67v158c10 17 29 27 48 27c21 0 42 -11 50 -32zM63 661c0 -34 -25 -62 -56 -62s-55 28 -55 62s24 61 55 61s56 -27 56 -61z" />
    <glyph glyph-name="Alphatonos" unicode="&#x386;" horiz-adv-x="640" 
d="M636 0h-170l-41 153h-208l-42 -153h-155l224 688h169zM401 246l-59 224c-9 35 -14 66 -18 89h-2c-3 -23 -8 -57 -17 -89l-62 -224h158zM156 665l-40 -185h-86v185c13 21 39 32 64 32s51 -10 62 -32z" />
    <glyph glyph-name="anoteleia" unicode="&#x387;" horiz-adv-x="305" 
d="M247 333c0 -52 -43 -95 -95 -95s-94 43 -94 95s42 94 94 94s95 -42 95 -94z" />
    <glyph glyph-name="Epsilontonos" unicode="&#x388;" horiz-adv-x="577" 
d="M534 0h-351v688h351v-109h-189v-175h165v-106h-165v-189h189v-109zM126 665l-40 -185h-86v185c13 21 39 32 64 32s51 -10 62 -32z" />
    <glyph glyph-name="Etatonos" unicode="&#x389;" horiz-adv-x="746" 
d="M681 0h-162v298h-174v-298h-162v688h162v-284h174v284h162v-688zM126 665l-40 -185h-86v185c13 21 39 32 64 32s51 -10 62 -32z" />
    <glyph glyph-name="Iotatonos" unicode="&#x38a;" horiz-adv-x="412" 
d="M345 0h-162v688h162v-688zM126 665l-40 -185h-86v185c13 21 39 32 64 32s51 -10 62 -32z" />
    <glyph glyph-name="Omicrontonos" unicode="&#x38c;" horiz-adv-x="713" 
d="M669 344c0 -204 -85 -355 -269 -355s-269 151 -269 355s85 355 269 355s269 -151 269 -355zM506 347c0 139 -24 243 -106 243s-106 -104 -106 -243s24 -242 106 -242s106 103 106 242zM126 665l-40 -185h-86v185c13 21 39 32 64 32s51 -10 62 -32z" />
    <glyph glyph-name="Upsilontonos" unicode="&#x38e;" horiz-adv-x="710" 
d="M126 665l-40 -185h-86v185c13 21 39 32 64 32s51 -10 62 -32zM692 560c-135 -67 -184 -190 -184 -356v-204h-162v204c0 166 -49 288 -184 355l37 139c122 -49 213 -143 232 -266h2c18 121 102 217 223 266z" />
    <glyph glyph-name="Omegatonos" unicode="&#x38f;" horiz-adv-x="730" 
d="M688 0h-244v108c52 73 81 176 81 276c0 105 -34 206 -114 206s-113 -101 -113 -206c0 -100 29 -203 81 -276v-108h-245v109h113c-68 84 -111 183 -111 287c0 157 89 303 275 303s276 -146 276 -303c0 -104 -44 -203 -112 -287h113v-109zM126 665l-40 -185h-86v185
c13 21 39 32 64 32s51 -10 62 -32z" />
    <glyph glyph-name="iotadieresistonos" unicode="&#x390;" 
d="M218 0h-156v539h156v-539zM330 661c0 -34 -24 -62 -55 -62s-56 28 -56 62s25 61 56 61s55 -27 55 -61zM197 749l-31 -153h-67v158c10 17 29 27 48 27c21 0 42 -11 50 -32zM62 661c0 -34 -25 -62 -56 -62s-55 28 -55 62s24 61 55 61s56 -27 56 -61z" />
    <glyph glyph-name="Alpha" unicode="&#x391;" horiz-adv-x="624" 
d="M620 0h-170l-41 153h-208l-42 -153h-155l224 688h169zM385 246l-59 224c-9 35 -14 66 -18 89h-2c-3 -23 -8 -57 -17 -89l-62 -224h158z" />
    <glyph glyph-name="Beta" unicode="&#x392;" horiz-adv-x="601" 
d="M563 189c0 -136 -107 -200 -279 -200c-87 0 -164 14 -219 39v632c56 25 130 39 213 39c180 0 265 -81 265 -185c0 -79 -54 -132 -122 -151v-2c76 -21 142 -88 142 -172zM389 504c0 65 -34 104 -111 104c-22 0 -43 -4 -59 -9v-203h38c94 0 132 36 132 108zM401 196
c0 83 -45 123 -144 123h-38v-225c15 -6 38 -9 62 -9c74 0 120 35 120 111z" />
    <glyph glyph-name="Gamma" unicode="&#x393;" horiz-adv-x="452" 
d="M422 579h-193v-579h-162v688h355v-109z" />
    <glyph glyph-name="uni0394" unicode="&#x394;" horiz-adv-x="624" 
d="M620 0h-616l224 688h169zM428 95l-102 375c-8 29 -15 66 -18 89h-2c-3 -25 -9 -61 -17 -89l-107 -375h246z" />
    <glyph glyph-name="Epsilon" unicode="&#x395;" horiz-adv-x="459" 
d="M416 0h-351v688h351v-109h-189v-175h165v-106h-165v-189h189v-109z" />
    <glyph glyph-name="Zeta" unicode="&#x396;" horiz-adv-x="477" 
d="M443 0h-426l220 579h-197v109h399l-212 -579h216v-109z" />
    <glyph glyph-name="Eta" unicode="&#x397;" horiz-adv-x="628" 
d="M563 0h-162v298h-174v-298h-162v688h162v-284h174v284h162v-688z" />
    <glyph glyph-name="Theta" unicode="&#x398;" horiz-adv-x="654" 
d="M611 344c0 -204 -100 -355 -284 -355s-284 151 -284 355s100 355 284 355s284 -151 284 -355zM459 347c0 139 -44 244 -132 244s-132 -105 -132 -244s44 -243 132 -243s132 104 132 243zM410 298h-166v106h166v-106z" />
    <glyph glyph-name="Iota" unicode="&#x399;" horiz-adv-x="296" 
d="M229 0h-162v688h162v-688z" />
    <glyph glyph-name="Kappa" unicode="&#x39a;" horiz-adv-x="600" 
d="M591 0h-184l-178 341h-2v-341h-160v688h160v-310h2l181 310h168l-205 -317z" />
    <glyph glyph-name="Lambda" unicode="&#x39b;" horiz-adv-x="606" 
d="M602 0h-181l-108 442c-7 30 -12 64 -14 85h-2c-2 -21 -7 -56 -14 -85l-111 -442h-168l219 688h160z" />
    <glyph glyph-name="Mu" unicode="&#x39c;" horiz-adv-x="799" 
d="M760 0h-152l-32 396c-2 27 -4 70 -4 83h-2c-3 -14 -9 -45 -20 -83l-117 -396h-82l-114 396c-12 41 -18 70 -21 83h-2v-12c0 -9 0 -44 -3 -71l-36 -396h-136l73 688h159l109 -384c9 -33 14 -57 19 -88h2c5 32 9 56 18 88l109 384h159z" />
    <glyph glyph-name="Nu" unicode="&#x39d;" horiz-adv-x="654" 
d="M589 0h-124l-230 388c-12 21 -27 51 -36 72h-2c3 -41 4 -59 4 -81v-379h-136v688h142l211 -357c18 -31 20 -35 36 -69h2c-2 23 -4 49 -4 78v348h137v-688z" />
    <glyph glyph-name="Xi" unicode="&#x39e;" horiz-adv-x="476" 
d="M429 579h-382v109h382v-109zM410 298h-344v106h344v-106zM433 0h-390v109h390v-109z" />
    <glyph glyph-name="Omicron" unicode="&#x39f;" horiz-adv-x="626" 
d="M582 344c0 -204 -85 -355 -269 -355s-269 151 -269 355s85 355 269 355s269 -151 269 -355zM419 347c0 139 -24 243 -106 243s-106 -104 -106 -243s24 -242 106 -242s106 103 106 242z" />
    <glyph glyph-name="Pi" unicode="&#x3a0;" horiz-adv-x="628" 
d="M563 0h-162v582h-174v-582h-162v688h498v-688z" />
    <glyph glyph-name="Rho" unicode="&#x3a1;" horiz-adv-x="576" 
d="M542 479c0 -125 -85 -223 -275 -223c-12 0 -31 2 -43 4v-260h-159v660c54 24 128 39 209 39c191 0 268 -97 268 -220zM387 480c0 80 -31 127 -112 127c-19 0 -37 -3 -51 -8v-246c13 -2 28 -3 43 -3c87 0 120 52 120 130z" />
    <glyph glyph-name="Sigma" unicode="&#x3a3;" horiz-adv-x="478" 
d="M440 0h-430l201 359l-189 329h415v-109h-192l134 -220l-147 -250h208v-109z" />
    <glyph glyph-name="Tau" unicode="&#x3a4;" horiz-adv-x="472" 
d="M441 579h-124v-579h-162v579h-124v109h410v-109z" />
    <glyph glyph-name="Upsilon" unicode="&#x3a5;" horiz-adv-x="566" 
d="M548 560c-135 -67 -184 -190 -184 -356v-204h-162v204c0 166 -49 288 -184 355l37 139c122 -49 213 -143 232 -266h2c18 121 102 217 223 266z" />
    <glyph glyph-name="Phi" unicode="&#x3a6;" horiz-adv-x="768" 
d="M728 346c0 -154 -95 -291 -278 -309v-65h-132v65c-183 18 -278 155 -278 309s95 291 278 309v61h132v-61c183 -18 278 -155 278 -309zM585 347c0 99 -41 204 -135 214v-428c94 11 135 115 135 214zM318 133v428c-94 -10 -135 -115 -135 -214s41 -203 135 -214z" />
    <glyph glyph-name="Chi" unicode="&#x3a7;" horiz-adv-x="561" 
d="M554 0h-180l-97 235h-2l-102 -235h-166l185 350l-169 338h172l89 -217h2l95 217h157l-168 -325z" />
    <glyph glyph-name="Psi" unicode="&#x3a8;" horiz-adv-x="744" 
d="M694 457c0 -160 -91 -254 -255 -263v-194h-134v194c-167 11 -255 100 -255 263v231h134v-234c0 -92 29 -147 121 -154v388h134v-388c92 7 121 62 121 154v234h134v-231z" />
    <glyph glyph-name="uni03A9" unicode="&#x3a9;" horiz-adv-x="638" 
d="M596 0h-244v108c52 73 81 176 81 276c0 105 -34 206 -114 206s-113 -101 -113 -206c0 -100 29 -203 81 -276v-108h-245v109h113c-68 84 -111 183 -111 287c0 157 89 303 275 303s276 -146 276 -303c0 -104 -44 -203 -112 -287h113v-109z" />
    <glyph glyph-name="Iotadieresis" unicode="&#x3aa;" horiz-adv-x="296" 
d="M229 0h-162v688h162v-688zM120 811c0 -35 -29 -64 -64 -64s-64 29 -64 64s29 64 64 64s64 -29 64 -64zM304 811c0 -35 -29 -64 -64 -64s-64 29 -64 64s29 64 64 64s64 -29 64 -64z" />
    <glyph glyph-name="Upsilondieresis" unicode="&#x3ab;" horiz-adv-x="566" 
d="M548 560c-135 -67 -184 -190 -184 -356v-204h-162v204c0 166 -49 288 -184 355l37 139c122 -49 213 -143 232 -266h2c18 121 102 217 223 266zM444 785c0 -35 -29 -64 -64 -64s-64 29 -64 64s29 64 64 64s64 -29 64 -64zM258 785c0 -35 -29 -64 -64 -64s-64 29 -64 64
s29 64 64 64s64 -29 64 -64z" />
    <glyph glyph-name="alphatonos" unicode="&#x3ac;" horiz-adv-x="629" 
d="M602 0h-141l-28 110h-2c-37 -69 -83 -121 -161 -121c-150 0 -230 121 -230 280s80 281 230 281c78 0 124 -51 161 -120h2l28 109h140l-86 -269zM388 271c-25 97 -63 181 -115 181c-54 0 -79 -85 -79 -181s25 -178 79 -178c52 0 90 81 115 178zM453 728l-90 -132h-87
l41 139c17 17 44 25 69 25c27 0 54 -10 67 -32z" />
    <glyph glyph-name="epsilontonos" unicode="&#x3ad;" horiz-adv-x="473" 
d="M448 28c-51 -27 -121 -39 -187 -39c-152 0 -225 78 -225 155c0 58 40 115 117 139v2c-66 24 -100 75 -100 126c0 70 66 139 210 139c63 0 125 -12 180 -39l-33 -85c-35 17 -77 27 -116 27c-60 0 -87 -27 -87 -60c0 -37 37 -73 104 -73h70v-89h-75
c-72 0 -108 -33 -108 -71c0 -37 34 -70 99 -70c39 0 84 10 118 28zM385 728l-90 -132h-87l41 139c17 17 44 25 69 25c27 0 54 -10 67 -32z" />
    <glyph glyph-name="etatonos" unicode="&#x3ae;" horiz-adv-x="579" 
d="M520 -215h-156v580c0 59 -25 88 -87 88c-24 0 -43 -4 -62 -11v-442h-156v510c61 26 135 39 218 39c170 0 243 -69 243 -185v-579zM413 728l-90 -132h-87l41 139c17 17 44 25 69 25c27 0 54 -10 67 -32z" />
    <glyph glyph-name="iotatonos" unicode="&#x3af;" 
d="M218 0h-156v539h156v-539zM267 728l-90 -132h-87l41 139c17 17 44 25 69 25c27 0 54 -10 67 -32z" />
    <glyph glyph-name="upsilondieresistonos" unicode="&#x3b0;" horiz-adv-x="572" 
d="M513 175c0 -119 -93 -186 -227 -186s-227 67 -227 186v364h156v-368c0 -51 34 -77 71 -77s71 26 71 77v368h156v-364zM475 661c0 -34 -24 -62 -55 -62s-56 28 -56 62s25 61 56 61s55 -27 55 -61zM342 749l-31 -153h-67v158c10 17 29 27 48 27c21 0 42 -11 50 -32z
M207 661c0 -34 -25 -62 -56 -62s-55 28 -55 62s24 61 55 61s56 -27 56 -61z" />
    <glyph glyph-name="alpha" unicode="&#x3b1;" horiz-adv-x="629" 
d="M602 0h-141l-28 110h-2c-37 -69 -83 -121 -161 -121c-150 0 -230 121 -230 280s80 281 230 281c78 0 124 -51 161 -120h2l28 109h140l-86 -269zM388 271c-25 97 -63 181 -115 181c-54 0 -79 -85 -79 -181s25 -178 79 -178c52 0 90 81 115 178z" />
    <glyph glyph-name="beta" unicode="&#x3b2;" horiz-adv-x="582" 
d="M545 221c0 -114 -82 -231 -237 -231c-31 0 -68 7 -98 20v-225h-149v753c0 150 71 258 229 258c137 0 214 -96 214 -198c0 -68 -36 -135 -105 -171v-2c98 -31 146 -117 146 -204zM389 231c0 70 -35 141 -112 141h-14v88c73 9 99 67 99 130c0 56 -25 110 -73 110
c-62 0 -79 -68 -79 -157v-436c20 -12 44 -17 66 -17c74 0 113 71 113 141z" />
    <glyph glyph-name="gamma" unicode="&#x3b3;" horiz-adv-x="545" 
d="M517 539c-8 -183 -80 -373 -177 -539v-215h-151v99c0 190 -62 408 -179 655h167c52 -130 88 -278 102 -418h2c50 121 79 285 82 418h154z" />
    <glyph glyph-name="delta" unicode="&#x3b4;" horiz-adv-x="566" 
d="M526 255c0 -147 -86 -266 -243 -266c-154 0 -243 116 -243 260c0 113 66 220 173 271c-44 45 -79 89 -79 146c0 67 53 119 122 119h199v-101h-150c-19 0 -32 -15 -32 -35c0 -96 253 -176 253 -394zM372 256c0 82 -41 141 -88 192c-64 -37 -90 -120 -90 -198
c0 -81 29 -160 89 -160c64 0 89 83 89 166z" />
    <glyph glyph-name="epsilon" unicode="&#x3b5;" horiz-adv-x="473" 
d="M448 28c-51 -27 -121 -39 -187 -39c-152 0 -225 78 -225 155c0 58 40 115 117 139v2c-66 24 -100 75 -100 126c0 70 66 139 210 139c63 0 125 -12 180 -39l-33 -85c-35 17 -77 27 -116 27c-60 0 -87 -27 -87 -60c0 -37 37 -73 104 -73h70v-89h-75
c-72 0 -108 -33 -108 -71c0 -37 34 -70 99 -70c39 0 84 10 118 28z" />
    <glyph glyph-name="zeta" unicode="&#x3b6;" horiz-adv-x="424" 
d="M422 -59c0 -39 -22 -88 -51 -119l-99 46c13 21 20 43 20 61c0 34 -25 54 -67 72c-104 44 -187 106 -187 251c0 150 120 330 237 430v2h-192v101h335v-101c-99 -84 -216 -264 -216 -414c0 -121 64 -158 122 -193c51 -31 98 -60 98 -136z" />
    <glyph glyph-name="eta" unicode="&#x3b7;" horiz-adv-x="579" 
d="M520 -215h-156v580c0 59 -25 88 -87 88c-24 0 -43 -4 -62 -11v-442h-156v510c61 26 135 39 218 39c170 0 243 -69 243 -185v-579z" />
    <glyph glyph-name="theta" unicode="&#x3b8;" horiz-adv-x="572" 
d="M527 393c0 -218 -68 -404 -241 -404s-241 186 -241 404s68 403 241 403s241 -185 241 -403zM380 447c-4 141 -26 254 -94 254s-90 -113 -94 -254h188zM380 348h-188c3 -141 25 -258 94 -258s91 117 94 258z" />
    <glyph glyph-name="iota" unicode="&#x3b9;" 
d="M218 0h-156v539h156v-539z" />
    <glyph glyph-name="kappa" unicode="&#x3ba;" horiz-adv-x="574" 
d="M560 0h-173l-45 113c-26 66 -62 125 -127 152v-265h-155v539h155v-243h2l167 243h166l-195 -246c65 -35 110 -91 141 -156z" />
    <glyph glyph-name="lambda" unicode="&#x3bb;" horiz-adv-x="556" 
d="M542 0h-170l-76 327c-6 28 -12 63 -15 89h-2c-3 -26 -9 -61 -16 -89l-88 -327h-161l201 539l-92 246h154z" />
    <glyph glyph-name="uni03BC" unicode="&#x3bc;" horiz-adv-x="574" 
d="M515 41c-51 -32 -121 -51 -193 -51c-37 0 -76 7 -105 20v-225h-156v754h156v-427c19 -13 45 -20 71 -20c27 0 53 8 71 19v428h156v-498z" />
    <glyph glyph-name="nu" unicode="&#x3bd;" horiz-adv-x="544" 
d="M516 539c-5 -173 -78 -366 -177 -539h-150l-175 539h168l92 -401h2c52 117 82 257 86 401h154z" />
    <glyph glyph-name="xi" unicode="&#x3be;" horiz-adv-x="433" 
d="M426 -56c0 -39 -22 -89 -51 -122l-99 46c12 21 19 43 19 62c0 38 -28 56 -67 70c-95 35 -191 93 -191 219c0 84 53 166 153 198v2c-77 39 -121 104 -121 179c0 106 82 187 217 187h139v-101h-93c-70 0 -108 -48 -108 -105c0 -63 50 -124 153 -124h13v-100h-44
c-89 0 -143 -64 -143 -132c0 -85 61 -114 118 -143c61 -31 105 -63 105 -136z" />
    <glyph glyph-name="omicron" unicode="&#x3bf;" horiz-adv-x="566" 
d="M526 270c0 -163 -82 -281 -243 -281s-243 118 -243 281s82 280 243 280s243 -117 243 -280zM370 273c0 105 -22 181 -87 181s-87 -76 -87 -181s22 -183 87 -183s87 78 87 183z" />
    <glyph glyph-name="pi" unicode="&#x3c0;" horiz-adv-x="618" 
d="M584 439h-60v-439h-152v439h-117l-55 -439h-152l57 439h-64v100h543v-100z" />
    <glyph glyph-name="rho" unicode="&#x3c1;" horiz-adv-x="574" 
d="M534 272c0 -150 -81 -281 -239 -281c-27 0 -59 5 -84 16v-222h-153v487c0 161 79 278 237 278s239 -117 239 -278zM379 273c0 104 -20 181 -84 181s-84 -77 -84 -181v-167c20 -12 43 -17 64 -17c77 0 104 86 104 184z" />
    <glyph glyph-name="sigma1" unicode="&#x3c2;" horiz-adv-x="431" 
d="M416 -56c0 -39 -23 -89 -52 -122l-98 46c12 21 19 44 19 63c0 38 -28 57 -62 72c-115 51 -183 122 -183 266c0 145 79 281 241 281c50 0 97 -14 132 -39l-33 -86c-20 13 -45 20 -67 20c-76 0 -114 -83 -114 -173c0 -128 66 -165 124 -198c54 -31 93 -61 93 -130z" />
    <glyph glyph-name="sigma" unicode="&#x3c3;" horiz-adv-x="594" 
d="M564 438h-38c-19 0 -39 1 -60 5v-2c39 -39 59 -109 59 -187c0 -117 -59 -265 -242 -265c-161 0 -243 118 -243 281s82 280 243 280c50 0 66 -11 119 -11h162v-101zM370 273c0 105 -22 181 -87 181s-87 -76 -87 -181s22 -183 87 -183s87 78 87 183z" />
    <glyph glyph-name="tau" unicode="&#x3c4;" horiz-adv-x="435" 
d="M404 438h-109v-438h-156v438h-108v101h373v-101z" />
    <glyph glyph-name="upsilon" unicode="&#x3c5;" horiz-adv-x="572" 
d="M513 175c0 -119 -93 -186 -227 -186s-227 67 -227 186v364h156v-368c0 -51 34 -77 71 -77s71 26 71 77v368h156v-364z" />
    <glyph glyph-name="phi" unicode="&#x3c6;" horiz-adv-x="752" 
d="M712 289c0 -144 -86 -281 -274 -299v-205h-133v205c-175 16 -265 152 -265 290c0 107 54 215 165 270l51 -95c-51 -30 -78 -103 -78 -175c0 -89 41 -179 127 -190v422c55 28 110 38 171 38c157 0 236 -123 236 -261zM573 285c0 96 -29 173 -97 173c-13 0 -27 -3 -38 -8
v-361c101 11 135 101 135 196z" />
    <glyph glyph-name="chi" unicode="&#x3c7;" horiz-adv-x="551" 
d="M546 -215h-168l-114 281h-2c-53 -72 -88 -159 -103 -281h-154c26 168 101 287 191 393l-176 361h164l102 -263h2c48 68 74 147 85 263h151c-21 -157 -86 -269 -168 -370z" />
    <glyph glyph-name="psi" unicode="&#x3c8;" horiz-adv-x="738" 
d="M684 264c0 -168 -88 -262 -248 -273v-206h-134v206c-160 11 -248 105 -248 273v275h135v-275c0 -103 23 -164 113 -171v595h134v-595c90 7 113 68 113 171v275h135v-275z" />
    <glyph glyph-name="omega" unicode="&#x3c9;" horiz-adv-x="752" 
d="M710 262c0 -141 -54 -273 -194 -273c-66 0 -110 27 -139 87h-2c-29 -60 -73 -87 -139 -87c-140 0 -194 132 -194 273c0 98 26 200 69 277h137c-42 -77 -68 -181 -68 -278c0 -85 15 -168 67 -168c44 0 61 60 61 154v180h136v-180c0 -94 17 -154 61 -154c52 0 67 83 67 168
c0 97 -26 201 -68 278h137c43 -77 69 -179 69 -277z" />
    <glyph glyph-name="iotadieresis" unicode="&#x3ca;" 
d="M218 0h-156v539h156v-539zM297 663c0 -35 -29 -64 -64 -64s-64 29 -64 64s29 64 64 64s64 -29 64 -64zM111 663c0 -35 -29 -64 -64 -64s-64 29 -64 64s29 64 64 64s64 -29 64 -64z" />
    <glyph glyph-name="upsilondieresis" unicode="&#x3cb;" horiz-adv-x="572" 
d="M513 175c0 -119 -93 -186 -227 -186s-227 67 -227 186v364h156v-368c0 -51 34 -77 71 -77s71 26 71 77v368h156v-364zM443 663c0 -35 -29 -64 -64 -64s-64 29 -64 64s29 64 64 64s64 -29 64 -64zM257 663c0 -35 -29 -64 -64 -64s-64 29 -64 64s29 64 64 64s64 -29 64 -64
z" />
    <glyph glyph-name="omicrontonos" unicode="&#x3cc;" horiz-adv-x="566" 
d="M526 270c0 -163 -82 -281 -243 -281s-243 118 -243 281s82 280 243 280s243 -117 243 -280zM370 273c0 105 -22 181 -87 181s-87 -76 -87 -181s22 -183 87 -183s87 78 87 183zM409 728l-90 -132h-87l41 139c17 17 44 25 69 25c27 0 54 -10 67 -32z" />
    <glyph glyph-name="upsilontonos" unicode="&#x3cd;" horiz-adv-x="572" 
d="M513 175c0 -119 -93 -186 -227 -186s-227 67 -227 186v364h156v-368c0 -51 34 -77 71 -77s71 26 71 77v368h156v-364zM408 728l-90 -132h-87l41 139c17 17 44 25 69 25c27 0 54 -10 67 -32z" />
    <glyph glyph-name="omegatonos" unicode="&#x3ce;" horiz-adv-x="752" 
d="M710 262c0 -141 -54 -273 -194 -273c-66 0 -110 27 -139 87h-2c-29 -60 -73 -87 -139 -87c-140 0 -194 132 -194 273c0 98 26 200 69 277h137c-42 -77 -68 -181 -68 -278c0 -85 15 -168 67 -168c44 0 61 60 61 154v180h136v-180c0 -94 17 -154 61 -154c52 0 67 83 67 168
c0 97 -26 201 -68 278h137c43 -77 69 -179 69 -277zM507 728l-90 -132h-87l41 139c17 17 44 25 69 25c27 0 54 -10 67 -32z" />
    <glyph glyph-name="uni03D0" unicode="&#x3d0;" horiz-adv-x="580" 
d="M543 220c0 -117 -80 -231 -246 -231c-161 0 -238 102 -238 254v295c0 150 71 258 229 258c132 0 214 -89 214 -198c0 -64 -32 -131 -104 -169v-2c97 -32 145 -120 145 -207zM360 589c0 57 -22 111 -72 111c-63 0 -79 -70 -79 -162v-84l51 6c70 8 100 59 100 129zM387 225
c0 86 -36 151 -117 151c-19 0 -41 -3 -61 -8v-137c0 -72 23 -141 87 -141s91 67 91 135z" />
    <glyph glyph-name="theta1" unicode="&#x3d1;" horiz-adv-x="570" 
d="M525 406c0 -221 -55 -417 -244 -417c-158 0 -236 144 -241 320h149c5 -115 28 -219 92 -219c68 0 91 134 91 291c-25 -9 -57 -14 -86 -14c-167 0 -246 108 -246 216c0 107 78 213 228 213c193 0 257 -167 257 -390zM369 474c-4 118 -26 227 -102 227
c-52 0 -82 -55 -82 -112c0 -62 35 -127 118 -127c22 0 47 4 66 12z" />
    <glyph glyph-name="Upsilon1" unicode="&#x3d2;" horiz-adv-x="566" 
d="M534 571c-13 5 -26 8 -37 8c-110 0 -152 -284 -152 -464v-115h-162v175c0 180 -64 371 -183 513h175c53 -74 83 -167 93 -261h2c17 131 75 269 194 269c24 0 48 -5 70 -16v-109z" />
    <glyph glyph-name="uni03D3" unicode="&#x3d3;" horiz-adv-x="728" 
d="M126 665l-40 -185h-86v185c13 21 39 32 64 32s51 -10 62 -32zM696 571c-13 5 -26 8 -37 8c-110 0 -152 -284 -152 -464v-115h-162v175c0 180 -64 371 -183 513h175c53 -74 83 -167 93 -261h2c17 131 75 269 194 269c24 0 48 -5 70 -16v-109z" />
    <glyph glyph-name="uni03D4" unicode="&#x3d4;" horiz-adv-x="566" 
d="M534 571c-13 5 -26 8 -37 8c-110 0 -152 -284 -152 -464v-115h-162v175c0 180 -64 371 -183 513h175c53 -74 83 -167 93 -261h2c17 131 75 269 194 269c24 0 48 -5 70 -16v-109zM431 807c0 -35 -29 -64 -64 -64s-64 29 -64 64s29 64 64 64s64 -29 64 -64zM245 807
c0 -35 -29 -64 -64 -64s-64 29 -64 64s29 64 64 64s64 -29 64 -64z" />
    <glyph glyph-name="phi1" unicode="&#x3d5;" horiz-adv-x="752" 
d="M712 271c0 -141 -101 -265 -270 -280v-206h-132v206c-169 15 -270 139 -270 280s101 263 270 277v140h132v-140c169 -14 270 -136 270 -277zM574 273c0 88 -37 171 -132 182v-364c95 11 132 94 132 182zM310 91v364c-95 -11 -132 -94 -132 -182s37 -171 132 -182z" />
    <glyph glyph-name="uni0400" unicode="&#x400;" horiz-adv-x="459" 
d="M416 0h-351v688h351v-109h-189v-175h165v-106h-165v-189h189v-109zM308 744h-86l-128 137c13 18 39 27 68 27c28 0 56 -8 76 -21z" />
    <glyph glyph-name="afii10023" unicode="&#x401;" horiz-adv-x="459" 
d="M416 0h-351v688h351v-109h-189v-175h165v-106h-165v-189h189v-109zM211 811c0 -35 -29 -64 -64 -64s-64 29 -64 64s29 64 64 64s64 -29 64 -64zM396 811c0 -35 -29 -64 -64 -64s-64 29 -64 64s29 64 64 64s64 -29 64 -64z" />
    <glyph glyph-name="afii10051" unicode="&#x402;" horiz-adv-x="714" 
d="M672 168c0 -149 -90 -302 -255 -365l-51 105c97 35 142 151 142 254c0 100 -37 182 -119 182c-22 0 -50 -6 -70 -18v-326h-162v579h-125v109h494v-109h-207v-161c30 16 73 26 110 26c166 0 243 -126 243 -276z" />
    <glyph glyph-name="afii10052" unicode="&#x403;" horiz-adv-x="468" 
d="M438 579h-209v-579h-162v688h371v-109zM405 882l-128 -137h-86l70 143c20 13 48 21 76 21c29 0 55 -9 68 -27z" />
    <glyph glyph-name="afii10053" unicode="&#x404;" horiz-adv-x="523" 
d="M495 30c-43 -25 -97 -41 -164 -41c-196 0 -287 158 -287 355s91 355 287 355c65 0 121 -15 164 -40l-38 -99c-24 13 -62 22 -98 22c-95 0 -137 -80 -148 -178h218v-106h-218c9 -100 50 -185 147 -185c34 0 71 9 96 23z" />
    <glyph glyph-name="afii10054" unicode="&#x405;" horiz-adv-x="505" 
d="M464 200c0 -121 -94 -211 -240 -211c-76 0 -143 14 -191 40l41 111c40 -22 86 -32 127 -32c61 0 97 31 97 77c0 124 -257 93 -257 313c0 117 92 201 232 201c66 0 125 -15 169 -40l-36 -99c-30 17 -74 28 -111 28c-57 0 -95 -27 -95 -76c0 -124 264 -87 264 -312z" />
    <glyph glyph-name="afii10055" unicode="&#x406;" horiz-adv-x="296" 
d="M229 0h-162v688h162v-688z" />
    <glyph glyph-name="afii10056" unicode="&#x407;" horiz-adv-x="296" 
d="M229 0h-162v688h162v-688zM120 811c0 -35 -29 -64 -64 -64s-64 29 -64 64s29 64 64 64s64 -29 64 -64zM304 811c0 -35 -29 -64 -64 -64s-64 29 -64 64s29 64 64 64s64 -29 64 -64z" />
    <glyph glyph-name="afii10057" unicode="&#x408;" horiz-adv-x="296" 
d="M229 688v-601c0 -172 -88 -293 -266 -308v113c70 21 104 86 104 181v615h162z" />
    <glyph glyph-name="afii10058" unicode="&#x409;" horiz-adv-x="960" 
d="M921 212c0 -144 -107 -223 -271 -223c-75 0 -150 13 -209 39l-36 554h-112l-13 -176c-15 -199 -50 -345 -232 -427l-41 131c95 54 108 162 118 297l21 281h409l18 -267c27 8 59 12 89 12c153 0 259 -67 259 -221zM760 212c0 84 -38 128 -114 128c-23 0 -46 -4 -67 -10
l16 -236c15 -5 35 -9 54 -9c75 0 111 51 111 127z" />
    <glyph glyph-name="afii10059" unicode="&#x40a;" horiz-adv-x="925" 
d="M886 212c0 -146 -109 -223 -272 -223c-86 0 -163 13 -220 39v270h-171v-298h-158v688h158v-284h171v284h158v-265c23 6 52 10 77 10c156 0 257 -72 257 -221zM725 212c0 79 -34 128 -112 128c-20 0 -44 -3 -61 -9v-237c15 -6 37 -9 61 -9c74 0 112 49 112 127z" />
    <glyph glyph-name="afii10060" unicode="&#x40b;" horiz-adv-x="709" 
d="M648 0h-162v249c0 59 -30 95 -91 95c-25 0 -56 -7 -76 -18v-326h-162v579h-125v109h494v-109h-207v-161c33 16 80 26 125 26c127 0 204 -66 204 -195v-249z" />
    <glyph glyph-name="afii10061" unicode="&#x40c;" horiz-adv-x="614" 
d="M600 0h-182l-49 144c-29 84 -69 160 -142 195v-339h-160v688h160v-312h2l187 312h170l-212 -314c72 -44 120 -116 154 -199zM470 882l-128 -137h-86l70 143c20 13 48 21 76 21c29 0 55 -9 68 -27z" />
    <glyph glyph-name="uni040D" unicode="&#x40d;" horiz-adv-x="633" 
d="M568 0h-143v382c0 27 1 57 4 82h-2c-9 -24 -21 -52 -33 -75l-198 -389h-131v688h142v-364c0 -25 0 -54 -3 -81h2c9 26 20 53 31 75l189 370h142v-688zM384 745h-86l-128 137c13 18 39 27 68 27c28 0 56 -8 76 -21z" />
    <glyph glyph-name="afii10062" unicode="&#x40e;" horiz-adv-x="576" 
d="M552 688c-20 -167 -78 -338 -159 -484l-113 -204h-181l119 202c-106 145 -173 312 -194 486h170c15 -127 46 -251 107 -367h2c47 113 79 238 94 367h155zM435 890c0 -90 -55 -147 -140 -147s-140 57 -140 147l63 10c5 -48 35 -75 77 -75s71 27 76 75z" />
    <glyph glyph-name="afii10145" unicode="&#x40f;" horiz-adv-x="626" 
d="M561 0h-187l-6 -162h-109l-7 162h-187v688h162v-579h172v579h162v-688z" />
    <glyph glyph-name="afii10017" unicode="&#x410;" horiz-adv-x="624" 
d="M620 0h-170l-41 153h-208l-42 -153h-155l224 688h169zM385 246l-59 224c-9 35 -14 66 -18 89h-2c-3 -23 -8 -57 -17 -89l-62 -224h158z" />
    <glyph glyph-name="afii10018" unicode="&#x411;" horiz-adv-x="600" 
d="M561 206c0 -144 -111 -217 -274 -217c-87 0 -164 13 -222 39v660h438v-109h-280v-168c24 6 54 10 79 10c155 0 259 -67 259 -215zM400 206c0 77 -36 122 -114 122c-21 0 -46 -3 -63 -9v-225c15 -6 39 -9 63 -9c76 0 114 46 114 121z" />
    <glyph glyph-name="afii10019" unicode="&#x412;" horiz-adv-x="601" 
d="M563 189c0 -136 -107 -200 -279 -200c-87 0 -164 14 -219 39v632c56 25 130 39 213 39c180 0 265 -81 265 -185c0 -79 -54 -132 -122 -151v-2c76 -21 142 -88 142 -172zM389 504c0 65 -34 104 -111 104c-22 0 -43 -4 -59 -9v-203h38c94 0 132 36 132 108zM401 196
c0 83 -45 123 -144 123h-38v-225c15 -6 38 -9 62 -9c74 0 120 35 120 111z" />
    <glyph glyph-name="afii10020" unicode="&#x413;" horiz-adv-x="468" 
d="M438 579h-209v-579h-162v688h371v-109z" />
    <glyph glyph-name="afii10021" unicode="&#x414;" horiz-adv-x="698" 
d="M673 85l-11 -247h-109l-5 162h-400l-5 -162h-109l-11 247c95 76 116 230 130 369l24 234h387l46 -581zM455 108l-32 474h-112l-12 -132c-12 -134 -30 -239 -87 -342h243z" />
    <glyph glyph-name="afii10022" unicode="&#x415;" horiz-adv-x="459" 
d="M416 0h-351v688h351v-109h-189v-175h165v-106h-165v-189h189v-109z" />
    <glyph glyph-name="afii10024" unicode="&#x416;" horiz-adv-x="886" 
d="M872 0h-171l-48 144c-28 84 -64 161 -135 195v-339h-150v339c-71 -34 -107 -111 -135 -195l-48 -144h-171l70 175c33 84 79 155 150 199l-206 314h159l179 -312h2v312h150v-312h2l179 312h159l-206 -314c71 -44 117 -115 150 -199z" />
    <glyph glyph-name="afii10025" unicode="&#x417;" horiz-adv-x="506" 
d="M467 199c0 -131 -106 -210 -253 -210c-70 0 -136 14 -186 40l41 110c34 -20 84 -32 127 -32c66 0 107 35 107 94c0 71 -63 98 -154 98h-40v105h38c94 0 145 43 145 104c0 48 -39 80 -96 80c-41 0 -81 -11 -118 -29l-38 100c48 24 116 40 183 40c113 0 223 -50 223 -175
c0 -67 -46 -127 -114 -151v-2c83 -26 135 -86 135 -172z" />
    <glyph glyph-name="afii10026" unicode="&#x418;" horiz-adv-x="633" 
d="M568 0h-143v382c0 27 1 57 4 82h-2c-9 -24 -21 -52 -33 -75l-198 -389h-131v688h142v-364c0 -25 0 -54 -3 -81h2c9 26 20 53 31 75l189 370h142v-688z" />
    <glyph glyph-name="afii10027" unicode="&#x419;" horiz-adv-x="633" 
d="M568 0h-143v382c0 27 1 57 4 82h-2c-9 -24 -21 -52 -33 -75l-198 -389h-131v688h142v-364c0 -25 0 -54 -3 -81h2c9 26 20 53 31 75l189 370h142v-688zM458 890c0 -90 -55 -147 -140 -147s-140 57 -140 147l63 10c5 -48 35 -75 77 -75s71 27 76 75z" />
    <glyph glyph-name="afii10028" unicode="&#x41a;" horiz-adv-x="614" 
d="M600 0h-182l-49 144c-29 84 -69 160 -142 195v-339h-160v688h160v-312h2l187 312h170l-212 -314c72 -44 120 -116 154 -199z" />
    <glyph glyph-name="afii10029" unicode="&#x41b;" horiz-adv-x="658" 
d="M609 0h-166l-37 582h-113l-13 -176c-15 -200 -50 -345 -232 -427l-41 131c95 54 108 162 118 297l21 281h408z" />
    <glyph glyph-name="afii10030" unicode="&#x41c;" horiz-adv-x="799" 
d="M760 0h-152l-32 396c-2 27 -4 70 -4 83h-2c-3 -14 -9 -45 -20 -83l-117 -396h-82l-114 396c-12 41 -18 70 -21 83h-2v-12c0 -9 0 -44 -3 -71l-36 -396h-136l73 688h159l109 -384c9 -33 14 -57 19 -88h2c5 32 9 56 18 88l109 384h159z" />
    <glyph glyph-name="afii10031" unicode="&#x41d;" horiz-adv-x="628" 
d="M563 0h-162v298h-174v-298h-162v688h162v-284h174v284h162v-688z" />
    <glyph glyph-name="afii10032" unicode="&#x41e;" horiz-adv-x="628" 
d="M584 344c0 -204 -86 -355 -270 -355s-270 151 -270 355s86 355 270 355s270 -151 270 -355zM420 347c0 139 -24 243 -106 243s-106 -104 -106 -243s24 -242 106 -242s106 103 106 242z" />
    <glyph glyph-name="afii10033" unicode="&#x41f;" horiz-adv-x="628" 
d="M563 0h-162v582h-174v-582h-162v688h498v-688z" />
    <glyph glyph-name="afii10034" unicode="&#x420;" horiz-adv-x="576" 
d="M542 479c0 -125 -85 -223 -275 -223c-12 0 -31 2 -43 4v-260h-159v660c54 24 128 39 209 39c191 0 268 -97 268 -220zM387 480c0 80 -31 127 -112 127c-19 0 -37 -3 -51 -8v-246c13 -2 28 -3 43 -3c87 0 120 52 120 130z" />
    <glyph glyph-name="afii10035" unicode="&#x421;" horiz-adv-x="492" 
d="M466 30c-39 -26 -88 -41 -150 -41c-191 0 -272 175 -272 355s81 355 272 355c62 0 111 -14 150 -40l-35 -99c-22 13 -48 22 -83 22c-102 0 -137 -119 -137 -236c0 -114 39 -233 136 -233c33 0 60 9 81 22z" />
    <glyph glyph-name="afii10036" unicode="&#x422;" horiz-adv-x="489" 
d="M457 579h-132v-579h-162v579h-131v109h425v-109z" />
    <glyph glyph-name="afii10037" unicode="&#x423;" horiz-adv-x="576" 
d="M552 688c-20 -167 -78 -338 -159 -484l-113 -204h-181l119 202c-106 145 -173 312 -194 486h170c15 -127 46 -251 107 -367h2c47 113 79 238 94 367h155z" />
    <glyph glyph-name="afii10038" unicode="&#x424;" horiz-adv-x="768" 
d="M728 346c0 -154 -95 -291 -278 -309v-65h-132v65c-183 18 -278 155 -278 309s95 291 278 309v61h132v-61c183 -18 278 -155 278 -309zM585 347c0 99 -41 204 -135 214v-428c94 11 135 115 135 214zM318 133v428c-94 -10 -135 -115 -135 -214s41 -203 135 -214z" />
    <glyph glyph-name="afii10039" unicode="&#x425;" horiz-adv-x="561" 
d="M554 0h-180l-97 235h-2l-102 -235h-166l185 350l-169 338h172l89 -217h2l95 217h157l-168 -325z" />
    <glyph glyph-name="afii10040" unicode="&#x426;" horiz-adv-x="653" 
d="M624 85l-11 -247h-109l-5 162h-434v688h162v-579h172v579h162v-581z" />
    <glyph glyph-name="afii10041" unicode="&#x427;" horiz-adv-x="617" 
d="M552 0h-162v267c-33 -15 -81 -26 -127 -26c-129 0 -202 71 -202 200v247h162v-247c0 -57 31 -88 88 -88c26 0 59 7 79 18v317h162v-688z" />
    <glyph glyph-name="afii10042" unicode="&#x428;" horiz-adv-x="926" 
d="M861 0h-796v688h156v-579h164v579h156v-579h164v579h156v-688z" />
    <glyph glyph-name="afii10043" unicode="&#x429;" horiz-adv-x="952" 
d="M923 85l-11 -247h-109l-5 162h-733v688h156v-579h164v579h156v-579h164v579h156v-581z" />
    <glyph glyph-name="afii10044" unicode="&#x42a;" horiz-adv-x="692" 
d="M654 212c0 -146 -109 -223 -272 -223c-86 0 -164 13 -221 39v551h-129v109h287v-265c23 6 53 10 78 10c156 0 257 -72 257 -221zM493 212c0 79 -35 128 -113 128c-20 0 -44 -3 -61 -9v-237c15 -6 38 -9 62 -9c74 0 112 49 112 127z" />
    <glyph glyph-name="afii10045" unicode="&#x42b;" horiz-adv-x="860" 
d="M795 0h-158v688h158v-688zM557 212c0 -146 -109 -223 -272 -223c-86 0 -163 13 -220 39v660h158v-265c23 6 52 10 77 10c156 0 257 -72 257 -221zM396 212c0 79 -34 128 -112 128c-20 0 -44 -3 -61 -9v-237c15 -6 38 -9 62 -9c74 0 111 49 111 127z" />
    <glyph glyph-name="afii10046" unicode="&#x42c;" horiz-adv-x="596" 
d="M557 212c0 -146 -109 -223 -272 -223c-86 0 -163 13 -220 39v660h158v-265c23 6 52 10 77 10c156 0 257 -72 257 -221zM396 212c0 79 -34 128 -112 128c-20 0 -44 -3 -61 -9v-237c15 -6 38 -9 62 -9c74 0 111 49 111 127z" />
    <glyph glyph-name="afii10047" unicode="&#x42d;" horiz-adv-x="523" 
d="M479 344c0 -197 -91 -355 -287 -355c-67 0 -121 16 -164 41l40 106c25 -14 62 -23 96 -23c97 0 139 85 148 185h-218v106h218c-11 98 -53 178 -148 178c-36 0 -74 -9 -98 -22l-38 99c43 25 99 40 164 40c196 0 287 -158 287 -355z" />
    <glyph glyph-name="afii10048" unicode="&#x42e;" horiz-adv-x="877" 
d="M831 344c0 -204 -80 -355 -251 -355c-157 0 -235 130 -247 309h-111v-298h-157v688h157v-284h112c15 173 93 295 246 295c171 0 251 -151 251 -355zM680 347c0 139 -23 243 -100 243s-99 -104 -99 -243s22 -242 99 -242s100 103 100 242z" />
    <glyph glyph-name="afii10049" unicode="&#x42f;" horiz-adv-x="598" 
d="M531 0h-157v294c-36 -16 -64 -49 -82 -88l-93 -206h-179l116 215c17 32 40 67 67 92v2c-95 27 -155 89 -155 181c0 140 102 209 277 209c78 0 151 -14 206 -39v-660zM374 361v238c-13 5 -33 8 -53 8c-76 0 -115 -41 -115 -123c0 -71 44 -128 122 -128c16 0 35 2 46 5z
" />
    <glyph glyph-name="afii10065" unicode="&#x430;" horiz-adv-x="542" 
d="M483 29c-46 -24 -120 -40 -211 -40c-154 0 -237 58 -237 171c0 133 136 176 302 192v24c0 52 -33 75 -93 75c-50 0 -105 -15 -144 -34l-34 92c54 24 130 41 201 41c132 0 216 -56 216 -197v-324zM337 86v193c-104 -11 -156 -43 -156 -113c0 -60 35 -90 99 -90
c23 0 43 3 57 10z" />
    <glyph glyph-name="afii10066" unicode="&#x431;" horiz-adv-x="563" 
d="M523 257c0 -149 -87 -268 -240 -268c-173 0 -241 128 -241 327c0 202 90 386 279 416l153 25v-106l-114 -21c-68 -13 -110 -59 -134 -121c23 6 46 8 66 8c141 0 231 -98 231 -260zM368 257c0 113 -31 177 -103 177c-18 0 -40 -4 -61 -11c-5 -34 -8 -71 -8 -107
c0 -155 25 -226 87 -226c61 0 85 76 85 167z" />
    <glyph glyph-name="afii10067" unicode="&#x432;" horiz-adv-x="569" 
d="M533 148c0 -103 -89 -159 -267 -159c-74 0 -152 15 -207 40v482c57 26 131 39 205 39c165 0 252 -49 252 -144c0 -66 -50 -109 -111 -122v-2c72 -17 128 -65 128 -134zM367 395c0 55 -35 79 -99 79c-19 0 -40 -3 -55 -9v-156h42c80 0 112 31 112 86zM377 156
c0 60 -37 92 -122 92h-42v-169c16 -6 38 -9 57 -9c71 0 107 30 107 86z" />
    <glyph glyph-name="afii10068" unicode="&#x433;" horiz-adv-x="412" 
d="M382 438h-165v-438h-156v539h321v-101z" />
    <glyph glyph-name="afii10069" unicode="&#x434;" horiz-adv-x="634" 
d="M611 81l-11 -227h-107l-5 146h-346l-6 -146h-107l-10 226c71 55 92 146 103 253l22 206h372l42 -438zM410 97l-29 353h-104l-12 -117c-9 -91 -22 -164 -66 -236h211z" />
    <glyph glyph-name="afii10070" unicode="&#x435;" horiz-adv-x="558" 
d="M518 285c0 -8 0 -12 -1 -23l-324 -46c10 -76 59 -120 135 -120c49 0 103 14 136 31l36 -98c-50 -25 -123 -40 -197 -40c-173 0 -263 118 -263 282c0 169 91 279 247 279c151 0 231 -98 231 -265zM370 321c-1 88 -28 138 -89 138c-64 0 -99 -62 -99 -153v-14z" />
    <glyph glyph-name="afii10072" unicode="&#x436;" horiz-adv-x="811" 
d="M797 0h-162l-40 113c-24 67 -53 126 -118 153v-266h-143v266c-65 -27 -94 -86 -118 -153l-40 -113h-162l60 137c29 66 68 122 132 156l-180 246h153l153 -243h2v243h143v-243h2l152 243h154l-180 -246c64 -34 103 -90 132 -156z" />
    <glyph glyph-name="afii10073" unicode="&#x437;" horiz-adv-x="474" 
d="M438 144c0 -77 -73 -155 -225 -155c-66 0 -136 12 -187 39l33 90c34 -18 80 -28 119 -28c65 0 99 33 99 70c0 38 -37 71 -109 71h-75v89h70c67 0 104 36 104 73c0 33 -27 60 -87 60c-39 0 -81 -10 -116 -27l-33 85c55 27 117 39 180 39c144 0 210 -69 210 -139
c0 -51 -34 -102 -100 -126v-2c77 -24 117 -81 117 -139z" />
    <glyph glyph-name="afii10074" unicode="&#x438;" horiz-adv-x="581" 
d="M522 0h-134v286c0 24 0 46 3 70h-2c-8 -21 -19 -43 -30 -63l-165 -293h-135v539h134v-270c0 -23 0 -47 -3 -70h2c8 22 19 43 30 63l156 277h144v-539z" />
    <glyph glyph-name="afii10075" unicode="&#x439;" horiz-adv-x="581" 
d="M522 0h-134v286c0 24 0 46 3 70h-2c-8 -21 -19 -43 -30 -63l-165 -293h-135v539h134v-270c0 -23 0 -47 -3 -70h2c8 22 19 43 30 63l156 277h144v-539zM431 741c0 -90 -55 -147 -140 -147s-140 57 -140 147l63 10c5 -48 35 -75 77 -75s71 27 76 75z" />
    <glyph glyph-name="afii10076" unicode="&#x43a;" horiz-adv-x="574" 
d="M560 0h-173l-45 113c-26 66 -62 125 -127 152v-265h-155v539h155v-243h2l167 243h166l-195 -246c65 -35 110 -90 141 -156z" />
    <glyph glyph-name="afii10077" unicode="&#x43b;" horiz-adv-x="600" 
d="M560 0h-159l-36 449h-103l-13 -149c-13 -148 -45 -255 -206 -317l-37 120c74 37 86 115 93 197l20 239h389z" />
    <glyph glyph-name="afii10078" unicode="&#x43c;" horiz-adv-x="726" 
d="M689 0h-146l-26 304c-2 21 -2 40 -2 55v15h-2c-5 -25 -10 -45 -18 -70l-97 -304h-85l-93 304c-8 27 -13 48 -18 70h-2c0 -26 -1 -43 -3 -70l-27 -304h-133l65 539h155l90 -296c8 -27 11 -44 15 -69h2c5 27 9 46 16 69l89 296h156z" />
    <glyph glyph-name="afii10079" unicode="&#x43d;" horiz-adv-x="578" 
d="M519 0h-156v229h-148v-229h-156v539h156v-221h148v221h156v-539z" />
    <glyph glyph-name="afii10080" unicode="&#x43e;" horiz-adv-x="566" 
d="M526 270c0 -163 -82 -281 -243 -281s-243 118 -243 281s82 280 243 280s243 -117 243 -280zM370 273c0 105 -22 181 -87 181s-87 -76 -87 -181s22 -183 87 -183s87 78 87 183z" />
    <glyph glyph-name="afii10081" unicode="&#x43f;" horiz-adv-x="578" 
d="M519 0h-156v449h-148v-449h-156v539h460v-539z" />
    <glyph glyph-name="afii10082" unicode="&#x440;" horiz-adv-x="572" 
d="M532 274c0 -173 -96 -281 -237 -281c-32 0 -62 3 -78 9v-217h-156v726c59 27 129 39 204 39c168 0 267 -95 267 -276zM378 272c0 120 -30 186 -114 186c-18 0 -34 -3 -47 -8v-358c10 -3 24 -6 41 -6c83 0 120 65 120 186z" />
    <glyph glyph-name="afii10083" unicode="&#x441;" horiz-adv-x="432" 
d="M405 28c-34 -25 -79 -39 -136 -39c-133 0 -229 105 -229 281s98 280 229 280c57 0 102 -14 136 -39l-33 -86c-17 13 -42 21 -67 21c-63 0 -106 -65 -106 -173c0 -107 43 -173 106 -173c25 0 49 8 66 21z" />
    <glyph glyph-name="afii10084" unicode="&#x442;" horiz-adv-x="444" 
d="M413 438h-113v-438h-156v438h-113v101h382v-101z" />
    <glyph glyph-name="afii10085" unicode="&#x443;" horiz-adv-x="547" 
d="M520 539c-19 -183 -70 -367 -148 -531l-106 -223h-170l112 221c-100 160 -162 342 -181 533h160c14 -139 42 -273 97 -402h2c41 126 68 261 82 402h152z" />
    <glyph glyph-name="afii10086" unicode="&#x444;" horiz-adv-x="778" 
d="M737 269c0 -163 -77 -279 -203 -279c-29 0 -53 8 -75 21v-226h-140v226c-22 -13 -46 -21 -75 -21c-126 0 -203 116 -203 279s77 279 203 279c29 0 53 -8 75 -21v258h140v-258c22 13 46 21 75 21c126 0 203 -116 203 -279zM593 271c0 108 -27 184 -90 184
c-15 0 -31 -3 -44 -10v-348c13 -7 29 -10 44 -10c63 0 90 76 90 184zM319 97v348c-13 7 -29 10 -44 10c-63 0 -90 -76 -90 -184s27 -184 90 -184c15 0 31 3 44 10z" />
    <glyph glyph-name="afii10087" unicode="&#x445;" horiz-adv-x="524" 
d="M516 0h-172l-87 173h-2l-87 -173h-160l171 274l-154 265h163l80 -161h2l82 161h147l-153 -255z" />
    <glyph glyph-name="afii10088" unicode="&#x446;" horiz-adv-x="594" 
d="M566 81l-11 -227h-107l-5 146h-384v539h156v-438h142v438h156v-438z" />
    <glyph glyph-name="afii10089" unicode="&#x447;" horiz-adv-x="567" 
d="M508 0h-156v208c-32 -15 -65 -26 -111 -26c-118 0 -187 64 -187 178v179h156v-179c0 -52 23 -78 75 -78c24 0 47 7 67 17v240h156v-539z" />
    <glyph glyph-name="afii10090" unicode="&#x448;" horiz-adv-x="834" 
d="M775 0h-716v539h150v-438h133v438h150v-438h133v438h150v-539z" />
    <glyph glyph-name="afii10091" unicode="&#x449;" horiz-adv-x="856" 
d="M828 81l-10 -227h-107l-6 146h-646v539h150v-438h133v438h150v-438h133v438h150v-438z" />
    <glyph glyph-name="afii10092" unicode="&#x44a;" horiz-adv-x="648" 
d="M612 164c0 -113 -102 -175 -258 -175c-80 0 -155 15 -211 40v409h-112v101h267v-211c22 5 46 8 70 8c146 0 244 -53 244 -172zM457 164c0 64 -37 94 -105 94c-19 0 -39 -3 -54 -7v-172c15 -6 36 -9 56 -9c70 0 103 35 103 94z" />
    <glyph glyph-name="afii10093" unicode="&#x44b;" horiz-adv-x="811" 
d="M752 0h-155v539h155v-539zM528 164c0 -113 -102 -175 -258 -175c-80 0 -155 15 -211 40v510h155v-211c22 5 46 8 70 8c146 0 244 -53 244 -172zM373 164c0 64 -37 94 -105 94c-19 0 -39 -3 -54 -7v-172c15 -6 36 -9 56 -9c70 0 103 35 103 94z" />
    <glyph glyph-name="afii10094" unicode="&#x44c;" horiz-adv-x="564" 
d="M528 164c0 -113 -102 -175 -258 -175c-80 0 -155 15 -211 40v510h155v-211c22 5 46 8 70 8c146 0 244 -53 244 -172zM373 164c0 64 -37 94 -105 94c-19 0 -39 -3 -54 -7v-172c15 -6 36 -9 56 -9c70 0 103 35 103 94z" />
    <glyph glyph-name="afii10095" unicode="&#x44d;" horiz-adv-x="485" 
d="M445 269c0 -148 -82 -280 -261 -280c-62 0 -116 14 -158 39l34 89c24 -15 61 -24 96 -24c79 0 123 58 133 137h-200v90h201c-12 77 -56 131 -134 131c-35 0 -72 -10 -96 -25l-34 85c42 25 95 39 158 39c179 0 261 -133 261 -281z" />
    <glyph glyph-name="afii10096" unicode="&#x44e;" horiz-adv-x="814" 
d="M774 270c0 -163 -80 -281 -235 -281c-142 0 -219 100 -232 242h-97v-231h-151v539h151v-221h98c15 137 92 232 231 232c155 0 235 -117 235 -280zM626 273c0 105 -22 181 -87 181s-87 -76 -87 -181s22 -183 87 -183s87 78 87 183z" />
    <glyph glyph-name="afii10097" unicode="&#x44f;" horiz-adv-x="561" 
d="M501 0h-154v230c-39 -13 -65 -36 -81 -69l-77 -161h-171l96 168c15 27 39 55 63 72v2c-81 19 -137 65 -137 142c0 114 104 166 259 166c77 0 147 -14 202 -39v-511zM347 281v182c-13 5 -31 8 -51 8c-65 0 -101 -31 -101 -97c0 -57 42 -98 107 -98c17 0 34 3 45 5z" />
    <glyph glyph-name="uni0450" unicode="&#x450;" horiz-adv-x="558" 
d="M518 285c0 -8 0 -12 -1 -23l-324 -46c10 -76 59 -120 135 -120c49 0 103 14 136 31l36 -98c-50 -25 -123 -40 -197 -40c-173 0 -263 118 -263 282c0 169 91 279 247 279c151 0 231 -98 231 -265zM370 321c-1 88 -28 138 -89 138c-64 0 -99 -62 -99 -153v-14zM386 596h-86
l-128 137c13 18 39 27 68 27c28 0 56 -8 76 -21z" />
    <glyph glyph-name="afii10071" unicode="&#x451;" horiz-adv-x="558" 
d="M518 285c0 -8 0 -12 -1 -23l-324 -46c10 -76 59 -120 135 -120c49 0 103 14 136 31l36 -98c-50 -25 -123 -40 -197 -40c-173 0 -263 118 -263 282c0 169 91 279 247 279c151 0 231 -98 231 -265zM370 321c-1 88 -28 138 -89 138c-64 0 -99 -62 -99 -153v-14zM255 663
c0 -35 -29 -64 -64 -64s-64 29 -64 64s29 64 64 64s64 -29 64 -64zM440 663c0 -35 -29 -64 -64 -64s-64 29 -64 64s29 64 64 64s64 -29 64 -64z" />
    <glyph glyph-name="afii10099" unicode="&#x452;" horiz-adv-x="584" 
d="M544 204c0 -160 -81 -338 -241 -399l-49 101c89 32 132 160 132 278c0 123 -33 216 -113 216c-20 0 -39 -4 -58 -13v-387h-156v586h-69v86h69v113h156v-113h176v-86h-176v-113c31 14 66 22 100 22c157 0 229 -131 229 -291z" />
    <glyph glyph-name="afii10100" unicode="&#x453;" horiz-adv-x="412" 
d="M382 438h-165v-438h-156v539h321v-101zM367 733l-128 -137h-86l70 143c20 13 48 21 76 21c29 0 55 -9 68 -27z" />
    <glyph glyph-name="afii10101" unicode="&#x454;" horiz-adv-x="485" 
d="M459 28c-42 -25 -96 -39 -158 -39c-179 0 -261 132 -261 280s82 281 261 281c63 0 116 -14 158 -39l-34 -85c-24 15 -61 25 -96 25c-78 0 -121 -54 -133 -131h201v-90h-201c10 -79 54 -137 133 -137c35 0 72 9 96 24z" />
    <glyph glyph-name="afii10102" unicode="&#x455;" horiz-adv-x="446" 
d="M409 164c0 -100 -81 -175 -213 -175c-62 0 -127 15 -166 39l41 96c36 -21 73 -31 105 -31c45 0 74 26 74 60c0 93 -208 62 -208 232c0 102 84 165 188 165c67 0 119 -12 165 -39l-37 -86c-31 18 -65 28 -94 28c-44 0 -67 -25 -67 -57c0 -90 212 -61 212 -232z" />
    <glyph glyph-name="afii10103" unicode="&#x456;" 
d="M223 694c0 -41 -37 -74 -83 -74s-83 33 -83 74s37 73 83 73s83 -32 83 -73zM218 0h-156v539h156v-539z" />
    <glyph glyph-name="afii10104" unicode="&#x457;" 
d="M218 0h-156v539h156v-539zM112 662c0 -35 -29 -64 -64 -64s-64 29 -64 64s29 64 64 64s64 -29 64 -64zM296 662c0 -35 -29 -64 -64 -64s-64 29 -64 64s29 64 64 64s64 -29 64 -64z" />
    <glyph glyph-name="afii10105" unicode="&#x458;" horiz-adv-x="282" 
d="M225 694c0 -41 -37 -74 -83 -74c-47 0 -83 33 -83 74s37 73 83 73c47 0 83 -33 83 -73zM220 539v-458c0 -176 -87 -281 -245 -301v104c64 28 89 82 89 178v477h156z" />
    <glyph glyph-name="afii10106" unicode="&#x459;" horiz-adv-x="891" 
d="M855 164c0 -113 -101 -175 -256 -175c-71 0 -143 14 -200 40l-34 420h-103l-13 -149c-13 -148 -45 -255 -206 -317l-37 120c74 37 86 115 93 197l20 239h390l18 -213c26 6 56 10 84 10c146 0 244 -51 244 -172zM699 164c0 64 -36 94 -104 94c-20 0 -43 -2 -62 -8l15 -172
c14 -5 32 -8 50 -8c68 0 101 35 101 94z" />
    <glyph glyph-name="afii10107" unicode="&#x45a;" horiz-adv-x="866" 
d="M830 164c0 -113 -102 -175 -258 -175c-80 0 -155 15 -211 40v200h-148v-229h-154v539h154v-221h148v221h155v-211c22 5 46 8 70 8c146 0 244 -53 244 -172zM675 164c0 64 -37 94 -105 94c-19 0 -39 -3 -54 -7v-172c15 -6 36 -9 56 -9c70 0 103 35 103 94z" />
    <glyph glyph-name="afii10108" unicode="&#x45b;" horiz-adv-x="579" 
d="M520 0h-156v312c0 56 -25 88 -81 88c-25 0 -48 -6 -68 -17v-383h-156v586h-69v86h69v113h156v-113h172v-86h-172v-116c32 15 71 25 116 25c119 0 189 -64 189 -183v-312z" />
    <glyph glyph-name="afii10109" unicode="&#x45c;" horiz-adv-x="574" 
d="M560 0h-173l-45 113c-26 66 -62 125 -127 152v-265h-155v539h155v-243h2l167 243h166l-195 -246c65 -35 110 -90 141 -156zM439 733l-128 -137h-86l70 143c20 13 48 21 76 21c29 0 55 -9 68 -27z" />
    <glyph glyph-name="uni045D" unicode="&#x45d;" horiz-adv-x="581" 
d="M522 0h-134v286c0 24 0 46 3 70h-2c-8 -21 -19 -43 -30 -63l-165 -293h-135v539h134v-270c0 -23 0 -47 -3 -70h2c8 22 19 43 30 63l156 277h144v-539zM362 596h-86l-128 137c13 18 39 27 68 27c28 0 56 -8 76 -21z" />
    <glyph glyph-name="afii10110" unicode="&#x45e;" horiz-adv-x="547" 
d="M520 539c-19 -183 -70 -367 -148 -531l-106 -223h-170l112 221c-100 160 -162 342 -181 533h160c14 -139 42 -273 97 -402h2c41 126 68 261 82 402h152zM420 741c0 -90 -55 -147 -140 -147s-140 57 -140 147l63 10c5 -48 35 -75 77 -75s71 27 76 75z" />
    <glyph glyph-name="afii10193" unicode="&#x45f;" horiz-adv-x="572" 
d="M513 0h-167l-6 -146h-107l-7 146h-167v539h156v-438h142v438h156v-539z" />
    <glyph glyph-name="afii10050" unicode="&#x490;" horiz-adv-x="470" 
d="M440 579h-211v-579h-162v688h255l15 132h103v-241z" />
    <glyph glyph-name="afii10098" unicode="&#x491;" horiz-adv-x="426" 
d="M396 438h-179v-438h-156v539h225l14 126h96v-227z" />
    <glyph glyph-name="uni0492" unicode="&#x492;" horiz-adv-x="479" 
d="M449 579h-209v-174h115v-97h-115v-308h-162v308h-60v97h60v283h371v-109z" />
    <glyph glyph-name="uni0493" unicode="&#x493;" horiz-adv-x="422" 
d="M392 438h-165v-119h96v-86h-96v-233h-156v233h-53v86h53v220h321v-101z" />
    <glyph glyph-name="uni0496" unicode="&#x496;" horiz-adv-x="915" 
d="M896 85l-10 -247h-110l-5 162h-70l-48 144c-28 84 -64 161 -135 195v-339h-150v339c-71 -34 -107 -111 -135 -195l-48 -144h-171l70 175c33 84 79 155 150 199l-206 314h159l179 -312h2v312h150v-312h2l179 312h159l-206 -314c71 -44 117 -115 150 -199l26 -65z" />
    <glyph glyph-name="uni0497" unicode="&#x497;" horiz-adv-x="829" 
d="M810 81l-11 -227h-106l-6 146h-52l-40 113c-24 67 -53 126 -118 153v-266h-143v266c-65 -27 -94 -86 -118 -153l-40 -113h-162l60 137c29 66 68 122 132 156l-180 246h153l153 -243h2v243h143v-243h2l152 243h154l-180 -246c64 -34 103 -90 132 -156l15 -34z" />
    <glyph glyph-name="uni049A" unicode="&#x49a;" horiz-adv-x="643" 
d="M624 85l-10 -247h-110l-5 162h-81l-49 144c-29 84 -69 160 -142 195v-339h-160v688h160v-312h2l187 312h170l-212 -314c72 -44 119 -116 154 -199l27 -65z" />
    <glyph glyph-name="uni049B" unicode="&#x49b;" horiz-adv-x="589" 
d="M570 81l-10 -227h-107l-5 146h-61l-45 113c-26 66 -62 125 -127 152v-265h-155v539h155v-243h2l167 243h166l-195 -246c65 -35 112 -90 141 -156l15 -34z" />
    <glyph glyph-name="uni04A2" unicode="&#x4a2;" horiz-adv-x="655" 
d="M626 85l-11 -247h-109l-5 162h-100v298h-174v-298h-162v688h162v-284h174v284h162v-581z" />
    <glyph glyph-name="uni04A3" unicode="&#x4a3;" horiz-adv-x="600" 
d="M572 81l-10 -227h-107l-6 146h-86v229h-148v-229h-156v539h156v-221h148v221h156v-438z" />
    <glyph glyph-name="uni04AE" unicode="&#x4ae;" horiz-adv-x="532" 
d="M531 688l-184 -399v-289h-162v289l-183 399h170l99 -260h2l104 260h154z" />
    <glyph glyph-name="uni04AF" unicode="&#x4af;" horiz-adv-x="546" 
d="M532 539l-181 -539v-215h-156v215l-181 539h169l80 -325c6 -25 10 -57 12 -84h2c3 27 9 59 16 84l86 325h153z" />
    <glyph glyph-name="uni04B0" unicode="&#x4b0;" horiz-adv-x="532" 
d="M531 688l-184 -399h100v-97h-100v-192h-162v192h-100v97h100l-183 399h170l99 -260h2l104 260h154z" />
    <glyph glyph-name="uni04B1" unicode="&#x4b1;" horiz-adv-x="546" 
d="M532 539l-182 -539h98v-85h-98v-130h-154v130h-97v85h97l-182 539h169l80 -325c6 -25 10 -57 12 -84h2c3 27 9 59 16 84l86 325h153z" />
    <glyph glyph-name="uni04B2" unicode="&#x4b2;" horiz-adv-x="582" 
d="M563 85l-11 -247h-109l-5 162h-64l-97 235h-2l-102 -235h-166l185 350l-169 338h172l89 -217h2l95 217h157l-168 -325l131 -256z" />
    <glyph glyph-name="uni04B3" unicode="&#x4b3;" horiz-adv-x="533" 
d="M514 81l-10 -227h-107l-6 146h-47l-87 173h-2l-87 -173h-160l171 274l-154 265h163l80 -161h2l82 161h147l-153 -255l107 -180z" />
    <glyph glyph-name="uni04B6" unicode="&#x4b6;" horiz-adv-x="643" 
d="M614 85l-10 -247h-110l-5 162h-99v267c-33 -15 -81 -26 -127 -26c-129 0 -202 71 -202 200v247h162v-247c0 -57 31 -88 88 -88c26 0 59 7 79 18v317h162v-581z" />
    <glyph glyph-name="uni04B7" unicode="&#x4b7;" horiz-adv-x="589" 
d="M561 81l-11 -227h-106l-6 146h-86v208c-32 -15 -65 -26 -111 -26c-118 0 -187 64 -187 178v179h156v-179c0 -52 23 -78 75 -78c24 0 47 7 67 17v240h156v-438z" />
    <glyph glyph-name="uni04BA" unicode="&#x4ba;" horiz-adv-x="617" 
d="M556 0h-162v253c0 60 -31 94 -91 94c-25 0 -56 -7 -76 -18v-329h-162v688h162v-259c35 16 80 26 124 26c133 0 205 -69 205 -202v-253z" />
    <glyph glyph-name="uni04BB" unicode="&#x4bb;" horiz-adv-x="579" 
d="M520 0h-156v368c0 56 -25 84 -81 84c-25 0 -48 -6 -68 -17v-435h-156v785h156v-263c32 15 69 25 115 25c118 0 190 -60 190 -179v-368z" />
    <glyph glyph-name="uni04C0" unicode="&#x4c0;" horiz-adv-x="295" 
d="M229 0h-162v688h162v-688z" />
    <glyph glyph-name="uni04CF" unicode="&#x4cf;" 
d="M218 0h-156v785h156v-785z" />
    <glyph glyph-name="uni04D8" unicode="&#x4d8;" horiz-adv-x="626" 
d="M582 343c0 -213 -97 -354 -276 -354c-181 0 -262 142 -262 375l372 54c-10 91 -57 166 -158 166c-56 0 -116 -17 -154 -38l-38 104c56 31 132 49 213 49c203 0 303 -148 303 -356zM427 331l-221 -36c0 -117 32 -189 106 -189c79 0 115 81 115 214v11z" />
    <glyph glyph-name="afii10846" unicode="&#x4d9;" horiz-adv-x="558" 
d="M518 268c0 -169 -88 -279 -245 -279c-161 0 -233 115 -233 298l325 47c-11 67 -58 112 -135 112c-49 0 -103 -15 -136 -32l-36 95c50 25 122 41 197 41c173 0 263 -118 263 -282zM376 258l-188 -30c1 -89 30 -145 91 -145c64 0 97 62 97 158v17z" />
    <glyph glyph-name="uni04E2" unicode="&#x4e2;" horiz-adv-x="633" 
d="M568 0h-143v382c0 27 1 57 4 82h-2c-9 -24 -21 -52 -33 -75l-198 -389h-131v688h142v-364c0 -25 0 -54 -3 -81h2c9 26 20 53 31 75l189 370h142v-688zM458 758h-284v81h284v-81z" />
    <glyph glyph-name="uni04E3" unicode="&#x4e3;" horiz-adv-x="581" 
d="M522 0h-134v286c0 24 0 46 3 70h-2c-8 -21 -19 -43 -30 -63l-165 -293h-135v539h134v-270c0 -23 0 -47 -3 -70h2c8 22 19 43 30 63l156 277h144v-539zM432 609h-284v81h284v-81z" />
    <glyph glyph-name="uni04E8" unicode="&#x4e8;" horiz-adv-x="627" 
d="M583 344c0 -204 -85 -355 -269 -355s-270 151 -270 355s86 355 270 355s269 -151 269 -355zM428 402c-6 111 -35 193 -114 193s-109 -82 -115 -193h229zM428 302h-229c4 -115 33 -202 115 -202s110 87 114 202z" />
    <glyph glyph-name="uni04E9" unicode="&#x4e9;" horiz-adv-x="566" 
d="M526 270c0 -163 -82 -281 -243 -281s-243 118 -243 281s82 280 243 280s243 -117 243 -280zM379 315c-6 84 -33 145 -96 145s-90 -61 -96 -145h192zM379 236h-192c5 -87 31 -151 96 -151s91 64 96 151z" />
    <glyph glyph-name="uni04EE" unicode="&#x4ee;" horiz-adv-x="576" 
d="M552 688c-20 -167 -78 -338 -159 -484l-113 -204h-181l119 202c-106 145 -173 312 -194 486h170c15 -127 46 -251 107 -367h2c47 113 79 238 94 367h155zM436 758h-284v81h284v-81z" />
    <glyph glyph-name="uni04EF" unicode="&#x4ef;" horiz-adv-x="547" 
d="M520 539c-19 -183 -70 -367 -148 -531l-106 -223h-170l112 221c-100 160 -162 342 -181 533h160c14 -139 42 -273 97 -402h2c41 126 68 261 82 402h152zM420 609h-284v81h284v-81z" />
    <glyph glyph-name="Wgrave" unicode="&#x1e80;" horiz-adv-x="841" 
d="M820 688l-155 -688h-143l-88 362c-8 31 -11 65 -12 74h-2c-1 -9 -4 -43 -12 -74l-88 -362h-144l-155 688h160l73 -402c6 -34 9 -68 10 -80h2c1 13 6 49 13 80l91 402h115l88 -402c8 -37 10 -54 13 -80h2c2 27 6 56 10 80l75 402h147zM475 744h-86l-128 137
c13 18 39 27 68 27c28 0 56 -8 76 -21z" />
    <glyph glyph-name="wgrave" unicode="&#x1e81;" horiz-adv-x="808" 
d="M787 539l-150 -539h-144l-76 298c-7 27 -11 58 -12 68h-2c-1 -12 -4 -40 -11 -68l-77 -298h-143l-150 539h159l62 -313c6 -29 8 -58 9 -80h2c2 21 7 52 14 80l82 313h127l76 -313c7 -30 9 -50 12 -80h2c3 31 5 50 11 80l67 313h142zM467 595h-86l-128 137
c13 18 39 27 68 27c28 0 56 -8 76 -21z" />
    <glyph glyph-name="Wacute" unicode="&#x1e82;" horiz-adv-x="841" 
d="M820 688l-155 -688h-143l-88 362c-8 31 -11 65 -12 74h-2c-1 -9 -4 -43 -12 -74l-88 -362h-144l-155 688h160l73 -402c6 -34 9 -68 10 -80h2c1 13 6 49 13 80l91 402h115l88 -402c8 -37 10 -54 13 -80h2c2 27 6 56 10 80l75 402h147zM594 881l-128 -137h-86l70 143
c20 13 48 21 76 21c29 0 55 -9 68 -27z" />
    <glyph glyph-name="wacute" unicode="&#x1e83;" horiz-adv-x="808" 
d="M787 539l-150 -539h-144l-76 298c-7 27 -11 58 -12 68h-2c-1 -12 -4 -40 -11 -68l-77 -298h-143l-150 539h159l62 -313c6 -29 8 -58 9 -80h2c2 21 7 52 14 80l82 313h127l76 -313c7 -30 9 -50 12 -80h2c3 31 5 50 11 80l67 313h142zM574 732l-128 -137h-86l70 143
c20 13 48 21 76 21c29 0 55 -9 68 -27z" />
    <glyph glyph-name="Wdieresis" unicode="&#x1e84;" horiz-adv-x="841" 
d="M820 688l-155 -688h-143l-88 362c-8 31 -11 65 -12 74h-2c-1 -9 -4 -43 -12 -74l-88 -362h-144l-155 688h160l73 -402c6 -34 9 -68 10 -80h2c1 13 6 49 13 80l91 402h115l88 -402c8 -37 10 -54 13 -80h2c2 27 6 56 10 80l75 402h147zM584 811c0 -35 -29 -64 -64 -64
s-64 29 -64 64s29 64 64 64s64 -29 64 -64zM398 811c0 -35 -29 -64 -64 -64s-64 29 -64 64s29 64 64 64s64 -29 64 -64z" />
    <glyph glyph-name="wdieresis" unicode="&#x1e85;" horiz-adv-x="808" 
d="M787 539l-150 -539h-144l-76 298c-7 27 -11 58 -12 68h-2c-1 -12 -4 -40 -11 -68l-77 -298h-143l-150 539h159l62 -313c6 -29 8 -58 9 -80h2c2 21 7 52 14 80l82 313h127l76 -313c7 -30 9 -50 12 -80h2c3 31 5 50 11 80l67 313h142zM570 662c0 -35 -29 -64 -64 -64
s-64 29 -64 64s29 64 64 64s64 -29 64 -64zM384 662c0 -35 -29 -64 -64 -64s-64 29 -64 64s29 64 64 64s64 -29 64 -64z" />
    <glyph glyph-name="uni1E8A" unicode="&#x1e8a;" horiz-adv-x="561" 
d="M554 0h-180l-97 235h-2l-102 -235h-166l185 350l-169 338h172l89 -217h2l95 217h157l-168 -325zM357 819c0 -39 -31 -71 -70 -71s-71 32 -71 71s32 70 71 70s70 -31 70 -70z" />
    <glyph glyph-name="uni1E8B" unicode="&#x1e8b;" horiz-adv-x="524" 
d="M516 0h-172l-87 173h-2l-87 -173h-160l171 274l-154 265h163l80 -161h2l82 161h147l-153 -255zM340 670c0 -39 -31 -71 -70 -71s-71 32 -71 71s32 70 71 70s70 -31 70 -70z" />
    <glyph glyph-name="Ygrave" unicode="&#x1ef2;" horiz-adv-x="532" 
d="M531 688l-184 -399v-289h-162v289l-183 399h170l99 -260h2l104 260h154zM334 744h-86l-128 137c13 18 39 27 68 27c28 0 56 -8 76 -21z" />
    <glyph glyph-name="ygrave" unicode="&#x1ef3;" horiz-adv-x="533" 
d="M520 539l-251 -754h-163l89 215l-181 539h168l75 -322c8 -34 11 -65 12 -83h2c2 17 6 49 15 83l83 322h151zM338 595h-86l-128 137c13 18 39 27 68 27c28 0 56 -8 76 -21z" />
    <glyph glyph-name="uni2007" unicode="&#x2007;" horiz-adv-x="578" 
 />
    <glyph glyph-name="uni2008" unicode="&#x2008;" horiz-adv-x="282" 
 />
    <glyph glyph-name="uni200B" unicode="&#x200b;" horiz-adv-x="0" 
 />
    <glyph glyph-name="endash" unicode="&#x2013;" horiz-adv-x="408" 
d="M408 270h-408v110h408v-110z" />
    <glyph glyph-name="emdash" unicode="&#x2014;" horiz-adv-x="816" 
d="M816 272h-816v106h816v-106z" />
    <glyph glyph-name="afii00208" unicode="&#x2015;" horiz-adv-x="816" 
d="M816 272h-816v106h816v-106z" />
    <glyph glyph-name="quoteleft" unicode="&#x2018;" horiz-adv-x="304" 
d="M268 785l-85 -266c-16 -27 -43 -47 -84 -47s-56 23 -61 47l148 266h82z" />
    <glyph glyph-name="quoteright" unicode="&#x2019;" horiz-adv-x="304" 
d="M266 746l-148 -266h-82l85 266c16 27 43 47 84 47s56 -23 61 -47z" />
    <glyph glyph-name="quotesinglbase" unicode="&#x201a;" horiz-adv-x="304" 
d="M266 121l-148 -266h-82l85 266c16 27 43 47 84 47s56 -23 61 -47z" />
    <glyph glyph-name="quotedblleft" unicode="&#x201c;" horiz-adv-x="520" 
d="M484 785l-85 -266c-16 -27 -43 -47 -84 -47s-56 23 -61 47l148 266h82zM268 785l-85 -266c-16 -27 -43 -47 -84 -47s-56 23 -61 47l148 266h82z" />
    <glyph glyph-name="quotedblright" unicode="&#x201d;" horiz-adv-x="520" 
d="M482 746l-148 -266h-82l85 266c16 27 43 47 84 47s56 -23 61 -47zM266 746l-148 -266h-82l85 266c16 27 43 47 84 47s56 -23 61 -47z" />
    <glyph glyph-name="quotedblbase" unicode="&#x201e;" horiz-adv-x="520" 
d="M482 121l-148 -266h-82l85 266c16 27 43 47 84 47s56 -23 61 -47zM266 121l-148 -266h-82l85 266c16 27 43 47 84 47s56 -23 61 -47z" />
    <glyph glyph-name="dagger" unicode="&#x2020;" horiz-adv-x="608" 
d="M566 392l-194 13l13 -620h-161l12 620l-194 -13v154l194 -13l-12 252h161l-13 -252l194 13v-154z" />
    <glyph glyph-name="daggerdbl" unicode="&#x2021;" horiz-adv-x="608" 
d="M566 100l-194 13l13 -328h-161l12 328l-194 -13v150l194 -12v170l-194 -13v151l194 -13l-12 252h161l-13 -252l194 13v-151l-194 13v-170l194 12v-150z" />
    <glyph glyph-name="bullet" unicode="&#x2022;" horiz-adv-x="392" 
d="M338 363c0 -79 -63 -142 -142 -142s-142 63 -142 142s63 142 142 142s142 -63 142 -142z" />
    <glyph glyph-name="ellipsis" unicode="&#x2026;" horiz-adv-x="846" 
d="M794 80c0 -49 -40 -89 -89 -89s-89 40 -89 89s40 89 89 89s89 -40 89 -89zM512 80c0 -49 -40 -89 -89 -89s-89 40 -89 89s40 89 89 89s89 -40 89 -89zM230 80c0 -49 -40 -89 -89 -89s-89 40 -89 89s40 89 89 89s89 -40 89 -89z" />
    <glyph glyph-name="perthousand" unicode="&#x2030;" horiz-adv-x="1222" 
d="M1175 186c0 -106 -52 -197 -153 -197s-153 91 -153 197s52 197 153 197s153 -91 153 -197zM808 186c0 -106 -52 -197 -153 -197s-153 91 -153 197s52 197 153 197s153 -91 153 -197zM584 676l-237 -689l-77 26l237 688zM353 502c0 -106 -52 -197 -153 -197
s-153 91 -153 197s52 197 153 197s153 -91 153 -197zM1076 189c0 75 -14 132 -54 132s-54 -57 -54 -132s14 -133 54 -133s54 58 54 133zM709 189c0 75 -14 132 -54 132s-54 -57 -54 -132s14 -133 54 -133s54 58 54 133zM254 505c0 75 -14 132 -54 132s-54 -57 -54 -132
s14 -133 54 -133s54 58 54 133z" />
    <glyph glyph-name="guilsinglleft" unicode="&#x2039;" horiz-adv-x="308" 
d="M262 143l-87 -50l-139 241l139 241l87 -49l-110 -192z" />
    <glyph glyph-name="guilsinglright" unicode="&#x203a;" horiz-adv-x="308" 
d="M272 334l-139 -241l-87 50l110 191l-110 192l87 49z" />
    <glyph glyph-name="fraction" unicode="&#x2044;" horiz-adv-x="132" 
d="M254 671l-303 -690l-79 37l303 689z" />
    <glyph glyph-name="uni2070" unicode="&#x2070;" horiz-adv-x="372" 
d="M341 682c0 -113 -45 -214 -155 -214s-155 101 -155 214s45 214 155 214s155 -101 155 -214zM237 684c0 85 -11 147 -51 147s-51 -62 -51 -147s11 -147 51 -147s51 62 51 147z" />
    <glyph glyph-name="uni2074" unicode="&#x2074;" horiz-adv-x="372" 
d="M340 556h-36v-80h-101v80h-175v58l171 274h105v-275h36v-57zM206 797h-2c-9 -21 -18 -39 -30 -59l-74 -125h103v122c0 20 1 41 3 62z" />
    <glyph glyph-name="uni2075" unicode="&#x2075;" horiz-adv-x="372" 
d="M328 600c0 -74 -67 -132 -170 -132c-49 0 -100 8 -132 23l29 71c21 -11 56 -19 86 -19c48 0 74 26 74 58c0 35 -24 64 -100 64c-19 0 -41 -2 -65 -5l27 228h230v-81h-154l-10 -84c7 1 12 1 17 1c117 0 168 -52 168 -124z" />
    <glyph glyph-name="uni2076" unicode="&#x2076;" horiz-adv-x="372" 
d="M341 604c0 -76 -53 -136 -154 -136c-104 0 -155 67 -155 162c0 147 109 242 253 266l20 -70c-65 -14 -122 -43 -152 -101c12 4 27 6 40 6c93 0 148 -51 148 -127zM239 606c0 50 -23 73 -69 73c-11 0 -23 -1 -33 -5c-3 -15 -4 -29 -4 -48c0 -58 17 -93 55 -93
c35 0 51 32 51 73z" />
    <glyph glyph-name="uni2077" unicode="&#x2077;" horiz-adv-x="372" 
d="M345 888l-54 -127c-50 -117 -88 -223 -102 -285h-129l156 330h-183v82h312z" />
    <glyph glyph-name="uni2078" unicode="&#x2078;" horiz-adv-x="372" 
d="M342 579c0 -68 -65 -111 -157 -111c-87 0 -155 39 -155 111c0 56 39 84 88 111c-43 26 -75 54 -75 101c0 63 60 105 142 105s144 -41 144 -104c0 -47 -30 -74 -74 -99c49 -28 87 -60 87 -114zM242 793c0 28 -23 47 -54 47c-32 0 -53 -19 -53 -47c0 -29 17 -44 54 -67
c35 22 53 39 53 67zM242 580c0 34 -18 52 -58 76c-41 -23 -60 -42 -60 -75c0 -29 27 -51 60 -51c34 0 58 20 58 50z" />
    <glyph glyph-name="uni2079" unicode="&#x2079;" horiz-adv-x="372" 
d="M340 734c0 -147 -109 -242 -253 -266l-20 70c63 15 121 43 151 101c-12 -4 -26 -6 -39 -6c-93 0 -148 51 -148 127s52 136 153 136c104 0 156 -67 156 -162zM239 740c0 58 -18 93 -56 93c-35 0 -50 -32 -50 -73c0 -50 23 -74 69 -74c11 0 23 2 33 6c3 15 4 29 4 48z" />
    <glyph glyph-name="uni207A" unicode="&#x207a;" horiz-adv-x="368" 
d="M320 646h-96v-96h-81v96h-95v75h95v95h81v-95h96v-75z" />
    <glyph glyph-name="uni207B" unicode="&#x207b;" horiz-adv-x="368" 
d="M320 646h-272v75h272v-75z" />
    <glyph glyph-name="uni207C" unicode="&#x207c;" horiz-adv-x="368" 
d="M320 716h-272v75h272v-75zM320 576h-272v75h272v-75z" />
    <glyph glyph-name="uni207D" unicode="&#x207d;" horiz-adv-x="238" 
d="M227 415l-52 -39c-90 77 -141 184 -141 306s51 229 141 306l52 -39c-55 -73 -85 -169 -85 -267s30 -194 85 -267z" />
    <glyph glyph-name="uni207E" unicode="&#x207e;" horiz-adv-x="238" 
d="M204 682c0 -122 -51 -229 -141 -306l-52 39c55 73 85 169 85 267s-30 194 -85 267l52 39c90 -77 141 -184 141 -306z" />
    <glyph glyph-name="uni207F" unicode="&#x207f;" horiz-adv-x="420" 
d="M370 476h-112v236c0 32 -16 52 -54 52c-17 0 -30 -2 -43 -7v-281h-111v328c40 16 99 27 154 27c119 0 166 -43 166 -116v-239z" />
    <glyph glyph-name="uni2080" unicode="&#x2080;" horiz-adv-x="372" 
d="M341 -9c0 -113 -45 -214 -155 -214s-155 101 -155 214s45 214 155 214s155 -101 155 -214zM237 -7c0 85 -11 147 -51 147s-51 -62 -51 -147s11 -147 51 -147s51 62 51 147z" />
    <glyph glyph-name="uni2081" unicode="&#x2081;" horiz-adv-x="372" 
d="M279 -215h-113v307c-22 -9 -64 -16 -100 -18l-14 61c68 7 122 31 145 62h82v-412z" />
    <glyph glyph-name="uni2082" unicode="&#x2082;" horiz-adv-x="372" 
d="M320 -215h-301l156 217c20 28 29 51 29 73c0 39 -26 56 -68 56c-27 0 -58 -9 -77 -17l-25 66c33 15 78 25 126 25c111 0 157 -51 157 -117c0 -34 -18 -69 -58 -118l-84 -103h145v-82z" />
    <glyph glyph-name="uni2083" unicode="&#x2083;" horiz-adv-x="372" 
d="M328 -90c0 -79 -69 -133 -170 -133c-49 0 -98 9 -131 24l27 70c21 -11 56 -18 86 -18c46 0 75 22 75 58c0 43 -41 62 -98 62h-8v53c62 6 96 29 96 63c0 29 -21 43 -59 43c-30 0 -58 -6 -82 -16l-24 65c35 15 80 24 124 24c91 0 147 -37 147 -102c0 -42 -33 -71 -67 -85
v-2c47 -16 84 -49 84 -106z" />
    <glyph glyph-name="uni2084" unicode="&#x2084;" horiz-adv-x="372" 
d="M340 -135h-36v-80h-101v80h-175v58l171 274h105v-275h36v-57zM206 106h-2c-9 -21 -18 -39 -30 -59l-74 -125h103v122c0 20 1 41 3 62z" />
    <glyph glyph-name="uni2085" unicode="&#x2085;" horiz-adv-x="372" 
d="M328 -91c0 -74 -67 -132 -170 -132c-49 0 -100 8 -132 23l29 71c21 -11 56 -19 86 -19c48 0 74 26 74 58c0 35 -24 64 -100 64c-19 0 -41 -2 -65 -5l27 228h230v-81h-154l-10 -84c7 1 12 1 17 1c117 0 168 -52 168 -124z" />
    <glyph glyph-name="uni2086" unicode="&#x2086;" horiz-adv-x="372" 
d="M341 -87c0 -76 -53 -136 -154 -136c-104 0 -155 67 -155 162c0 147 109 242 253 266l20 -70c-65 -14 -122 -43 -152 -101c12 4 27 6 40 6c93 0 148 -51 148 -127zM239 -85c0 50 -23 73 -69 73c-11 0 -23 -1 -33 -5c-3 -15 -4 -29 -4 -48c0 -58 17 -93 55 -93
c35 0 51 32 51 73z" />
    <glyph glyph-name="uni2087" unicode="&#x2087;" horiz-adv-x="372" 
d="M345 197l-54 -127c-50 -117 -88 -223 -102 -285h-129l156 330h-183v82h312z" />
    <glyph glyph-name="uni2088" unicode="&#x2088;" horiz-adv-x="372" 
d="M342 -112c0 -68 -65 -111 -157 -111c-87 0 -155 39 -155 111c0 56 39 84 88 111c-43 26 -75 54 -75 101c0 63 60 105 142 105s144 -41 144 -104c0 -47 -30 -74 -74 -99c49 -28 87 -60 87 -114zM242 102c0 28 -23 47 -54 47c-32 0 -53 -19 -53 -47c0 -29 17 -44 54 -67
c35 22 53 39 53 67zM242 -111c0 34 -18 52 -58 76c-41 -23 -60 -42 -60 -75c0 -29 27 -51 60 -51c34 0 58 20 58 50z" />
    <glyph glyph-name="uni2089" unicode="&#x2089;" horiz-adv-x="372" 
d="M340 43c0 -147 -109 -242 -253 -266l-20 70c63 15 121 43 151 101c-12 -4 -26 -6 -39 -6c-93 0 -148 51 -148 127s52 136 153 136c104 0 156 -67 156 -162zM239 49c0 58 -18 93 -56 93c-35 0 -50 -32 -50 -73c0 -50 23 -74 69 -74c11 0 23 2 33 6c3 15 4 29 4 48z" />
    <glyph glyph-name="uni208A" unicode="&#x208a;" horiz-adv-x="368" 
d="M320 -45h-96v-96h-81v96h-95v75h95v95h81v-95h96v-75z" />
    <glyph glyph-name="uni208B" unicode="&#x208b;" horiz-adv-x="368" 
d="M320 -45h-272v75h272v-75z" />
    <glyph glyph-name="uni208C" unicode="&#x208c;" horiz-adv-x="368" 
d="M320 25h-272v75h272v-75zM320 -115h-272v75h272v-75z" />
    <glyph glyph-name="uni208D" unicode="&#x208d;" horiz-adv-x="238" 
d="M227 -276l-52 -39c-90 77 -141 184 -141 306s51 229 141 306l52 -39c-55 -73 -85 -169 -85 -267s30 -194 85 -267z" />
    <glyph glyph-name="uni208E" unicode="&#x208e;" horiz-adv-x="238" 
d="M204 -9c0 -122 -51 -229 -141 -306l-52 39c55 73 85 169 85 267s-30 194 -85 267l52 39c90 -77 141 -184 141 -306z" />
    <glyph glyph-name="Euro" unicode="&#x20ac;" horiz-adv-x="654" 
d="M612 29c-34 -24 -93 -41 -158 -41c-174 0 -266 110 -295 253h-104v65h95c-1 12 -1 25 -1 38c0 16 1 33 2 49h-96v65h107c33 137 128 242 292 242c65 0 125 -17 158 -40l-34 -94c-20 12 -56 22 -94 22c-90 0 -138 -56 -160 -130h212v-65h-224c-2 -16 -3 -31 -3 -47
c0 -13 1 -27 2 -40h225v-65h-213c22 -75 72 -133 161 -133c37 0 70 9 92 21z" />
    <glyph glyph-name="uni20B4" unicode="&#x20b4;" horiz-adv-x="564" 
d="M520 241h-258c-12 -17 -18 -36 -18 -59c0 -44 37 -76 84 -76c34 0 74 11 109 32l37 -109c-42 -26 -101 -40 -167 -40c-126 0 -213 75 -213 193c0 22 2 41 7 59h-57v65h88c28 38 69 65 102 87h-190v65h265c10 15 16 33 16 54c0 49 -37 76 -88 76c-34 0 -75 -11 -104 -29
l-34 100c42 26 98 40 158 40c128 0 212 -72 212 -188c0 -20 -2 -37 -6 -53h57v-65h-86c-26 -37 -63 -63 -97 -87h183v-65z" />
    <glyph glyph-name="afii61289" unicode="&#x2113;" horiz-adv-x="332" 
d="M301 7c-17 -9 -45 -15 -79 -15c-103 0 -160 58 -160 160v633h156v-633c0 -37 20 -55 51 -55c11 0 23 2 32 6v-96z" />
    <glyph glyph-name="afii61352" unicode="&#x2116;" horiz-adv-x="995" 
d="M953 344c0 -106 -56 -190 -162 -190s-162 84 -162 190c0 105 57 190 162 190s162 -85 162 -190zM943 0h-304v87h304v-87zM559 0h-126l-202 387c-13 25 -23 47 -33 73h-2c3 -36 3 -61 3 -81v-379h-134v688h143l186 -355c12 -24 22 -48 31 -73h2c-3 32 -3 62 -3 80v348h135
v-688zM847 346c0 67 -13 117 -56 117s-56 -50 -56 -117s13 -117 56 -117s56 50 56 117z" />
    <glyph glyph-name="uni2117" unicode="&#x2117;" horiz-adv-x="806" 
d="M761 344c0 -196 -161 -356 -358 -356s-358 160 -358 356s161 356 358 356s358 -160 358 -356zM676 345c0 157 -121 285 -273 285s-273 -128 -273 -285s121 -285 273 -285s273 128 273 285zM549 425c0 -66 -41 -120 -137 -120c-14 0 -27 1 -37 2v-149h-80v364
c27 13 68 22 111 22c101 0 143 -50 143 -119zM470 426c0 46 -19 71 -66 71c-11 0 -22 -2 -29 -4v-138c7 -1 14 -1 24 -1c53 0 71 30 71 72z" />
    <glyph glyph-name="trademark" unicode="&#x2122;" horiz-adv-x="804" 
d="M760 288h-97l-18 224c-1 14 -2 32 -2 47h-2c-4 -23 -6 -30 -11 -47l-70 -224h-52l-68 224c-5 17 -9 34 -12 47h-2c0 -15 -1 -33 -2 -47l-21 -224h-87l45 400h101l64 -216c5 -17 9 -37 11 -50h2c2 14 6 32 11 50l65 216h100zM297 618h-82v-330h-103v330h-82v70h267v-70z
" />
    <glyph glyph-name="Omega" unicode="&#x2126;" horiz-adv-x="638" 
d="M596 0h-244v108c52 73 81 176 81 276c0 105 -34 206 -114 206s-113 -101 -113 -206c0 -100 29 -203 81 -276v-108h-245v109h113c-68 84 -111 183 -111 287c0 157 89 303 275 303s276 -146 276 -303c0 -104 -44 -203 -112 -287h113v-109z" />
    <glyph glyph-name="estimated" unicode="&#x212e;" horiz-adv-x="878" 
d="M838 330h-633c7 -213 132 -298 264 -298c114 0 235 62 288 163l36 -23c-59 -105 -177 -184 -354 -184c-266 0 -399 179 -399 356s133 356 399 356s399 -179 399 -356v-14zM672 371c-11 194 -122 291 -233 291s-222 -97 -233 -291h466z" />
    <glyph glyph-name="uni2150" unicode="&#x2150;" horiz-adv-x="878" 
d="M840 412l-55 -127c-50 -116 -88 -223 -102 -285h-128l156 330h-172v82h301zM603 671l-304 -690l-79 37l304 689zM279 276h-113v307c-22 -9 -64 -16 -100 -18l-14 61c68 7 122 31 145 62h82v-412z" />
    <glyph glyph-name="uni2151" unicode="&#x2151;" horiz-adv-x="878" 
d="M834 258c0 -147 -109 -242 -253 -266l-21 70c63 15 122 43 152 101c-12 -4 -26 -6 -39 -6c-93 0 -149 51 -149 127s53 136 154 136c104 0 156 -67 156 -162zM610 671l-303 -690l-79 37l303 689zM279 276h-113v307c-22 -9 -64 -16 -100 -18l-14 61c68 7 122 31 145 62h82
v-412zM733 264c0 58 -18 93 -56 93c-35 0 -50 -32 -50 -73c0 -50 23 -74 69 -74c11 0 22 2 32 6c3 15 5 29 5 48z" />
    <glyph glyph-name="uni2152" unicode="&#x2152;" horiz-adv-x="1190" 
d="M1146 206c0 -113 -45 -214 -155 -214s-156 101 -156 214s46 214 156 214s155 -101 155 -214zM757 0h-113v307c-22 -9 -64 -16 -100 -18l-14 61c68 7 123 31 146 62h81v-412zM611 671l-303 -690l-79 37l303 689zM279 276h-113v307c-22 -9 -64 -16 -100 -18l-14 61
c68 7 122 31 145 62h82v-412zM1042 208c0 85 -11 147 -51 147s-51 -62 -51 -147s11 -147 51 -147s51 62 51 147z" />
    <glyph glyph-name="onethird" unicode="&#x2153;" horiz-adv-x="878" 
d="M832 125c0 -79 -69 -133 -170 -133c-49 0 -98 9 -131 24l27 70c21 -11 56 -18 86 -18c46 0 75 22 75 58c0 43 -41 62 -98 62h-9v53c62 6 97 29 97 63c0 29 -22 43 -60 43c-30 0 -57 -6 -81 -16l-24 65c35 15 80 24 124 24c91 0 147 -37 147 -102c0 -42 -34 -71 -68 -85
v-2c47 -16 85 -49 85 -106zM609 671l-304 -690l-79 37l304 689zM279 276h-113v307c-22 -9 -64 -16 -100 -18l-14 61c68 7 122 31 145 62h82v-412z" />
    <glyph glyph-name="twothirds" unicode="&#x2154;" horiz-adv-x="878" 
d="M832 125c0 -79 -69 -133 -170 -133c-49 0 -98 9 -131 24l27 70c21 -11 56 -18 86 -18c46 0 75 22 75 58c0 43 -41 62 -98 62h-9v53c62 6 97 29 97 63c0 29 -22 43 -60 43c-30 0 -54 -6 -78 -16l-23 65c35 15 76 24 120 24c91 0 147 -37 147 -102c0 -42 -34 -71 -68 -85
v-2c47 -16 85 -49 85 -106zM628 671l-303 -690l-79 37l303 689zM316 276h-299l155 217c20 28 28 51 28 73c0 39 -26 56 -68 56c-27 0 -57 -9 -76 -17l-25 66c33 15 77 25 125 25c111 0 158 -51 158 -117c0 -34 -19 -69 -59 -118l-84 -103h145v-82z" />
    <glyph glyph-name="uni2155" unicode="&#x2155;" horiz-adv-x="878" 
d="M832 124c0 -74 -67 -132 -170 -132c-49 0 -100 8 -132 23l29 71c21 -11 56 -19 86 -19c48 0 74 26 74 58c0 35 -24 64 -100 64c-19 0 -41 -2 -65 -5l27 228h230v-81h-154l-10 -84c9 1 11 1 17 1c117 0 168 -52 168 -124zM620 671l-304 -690l-79 37l304 689zM279 276h-113
v307c-22 -9 -64 -16 -100 -18l-14 61c68 7 122 31 145 62h82v-412z" />
    <glyph glyph-name="uni2156" unicode="&#x2156;" horiz-adv-x="878" 
d="M832 124c0 -74 -67 -132 -170 -132c-49 0 -100 8 -132 23l29 71c21 -11 56 -19 86 -19c48 0 74 26 74 58c0 35 -24 64 -100 64c-19 0 -41 -2 -65 -5l27 228h230v-81h-154l-10 -84c11 1 12 1 17 1c117 0 168 -52 168 -124zM639 671l-304 -690l-79 37l304 689zM317 276
h-300l156 217c20 28 28 51 28 73c0 39 -26 56 -68 56c-27 0 -58 -9 -77 -17l-25 66c33 15 78 25 126 25c111 0 158 -51 158 -117c0 -34 -18 -69 -58 -118l-85 -103h145v-82z" />
    <glyph glyph-name="uni2157" unicode="&#x2157;" horiz-adv-x="878" 
d="M832 124c0 -74 -67 -132 -170 -132c-49 0 -100 8 -132 23l29 71c21 -11 56 -19 86 -19c48 0 74 26 74 58c0 35 -24 64 -100 64c-19 0 -41 -2 -65 -5l27 228h230v-81h-154l-10 -84c11 1 12 1 17 1c117 0 168 -52 168 -124zM625 671l-304 -690l-79 37l304 689zM327 401
c0 -79 -69 -133 -170 -133c-49 0 -98 9 -131 24l27 70c21 -11 56 -18 86 -18c46 0 75 22 75 58c0 43 -41 62 -98 62h-8v53c62 6 96 29 96 63c0 29 -21 43 -59 43c-30 0 -58 -6 -82 -16l-24 65c35 15 80 24 124 24c91 0 147 -37 147 -102c0 -42 -33 -71 -67 -85v-2
c47 -16 84 -49 84 -106z" />
    <glyph glyph-name="uni2158" unicode="&#x2158;" horiz-adv-x="878" 
d="M832 124c0 -74 -67 -132 -170 -132c-49 0 -100 8 -132 23l29 71c21 -11 56 -19 86 -19c48 0 74 26 74 58c0 35 -24 64 -100 64c-19 0 -41 -2 -65 -5l27 228h230v-81h-154l-10 -84c12 1 13 1 17 1c117 0 168 -52 168 -124zM637 671l-304 -690l-79 37l304 689zM341 356h-36
v-80h-101v80h-175v58l171 274h105v-275h36v-57zM207 597h-2c-11 -25 -19 -40 -30 -59l-74 -125h103v122c0 20 1 38 3 62z" />
    <glyph glyph-name="uni2159" unicode="&#x2159;" horiz-adv-x="878" 
d="M831 128c0 -76 -53 -136 -154 -136c-104 0 -156 67 -156 162c0 147 109 242 253 266l21 -70c-65 -14 -122 -43 -152 -101c12 4 27 6 40 6c93 0 148 -51 148 -127zM627 671l-304 -690l-79 37l304 689zM279 276h-113v307c-22 -9 -64 -16 -100 -18l-14 61
c68 7 122 31 145 62h82v-412zM729 130c0 50 -24 73 -70 73c-11 0 -22 -1 -32 -5c-3 -15 -5 -29 -5 -48c0 -58 18 -93 56 -93c35 0 51 32 51 73z" />
    <glyph glyph-name="uni215A" unicode="&#x215a;" horiz-adv-x="878" 
d="M831 128c0 -76 -53 -136 -154 -136c-104 0 -156 67 -156 162c0 147 109 242 253 266l21 -70c-65 -14 -122 -43 -152 -101c12 4 27 6 40 6c93 0 148 -51 148 -127zM637 671l-304 -690l-79 37l304 689zM328 400c0 -74 -66 -132 -169 -132c-49 0 -101 8 -133 23l30 71
c21 -11 55 -19 85 -19c48 0 74 26 74 58c0 35 -23 64 -99 64c-19 0 -42 -2 -66 -5l27 228h231v-81h-155l-10 -84c11 1 14 1 17 1c117 0 168 -52 168 -124zM729 130c0 50 -24 73 -70 73c-11 0 -22 -1 -32 -5c-3 -15 -5 -29 -5 -48c0 -58 18 -93 56 -93c35 0 51 32 51 73z" />
    <glyph glyph-name="oneeighth" unicode="&#x215b;" horiz-adv-x="878" 
d="M834 103c0 -68 -64 -111 -156 -111c-87 0 -155 39 -155 111c0 56 39 84 88 111c-43 26 -75 54 -75 101c0 63 60 105 142 105s143 -41 143 -104c0 -47 -30 -74 -74 -99c49 -28 87 -60 87 -114zM613 671l-304 -690l-79 37l304 689zM279 276h-113v307
c-22 -9 -64 -16 -100 -18l-14 61c68 7 122 31 145 62h82v-412zM734 317c0 28 -22 47 -53 47c-32 0 -53 -19 -53 -47c0 -29 17 -44 54 -67c35 22 52 39 52 67zM734 104c0 34 -17 52 -57 76c-41 -23 -60 -42 -60 -75c0 -29 27 -51 60 -51c34 0 57 20 57 50z" />
    <glyph glyph-name="threeeighths" unicode="&#x215c;" horiz-adv-x="878" 
d="M834 103c0 -68 -64 -111 -156 -111c-87 0 -155 39 -155 111c0 56 39 84 88 111c-43 26 -75 54 -75 101c0 63 60 105 142 105s143 -41 143 -104c0 -47 -30 -74 -74 -99c49 -28 87 -60 87 -114zM619 671l-304 -690l-79 37l304 689zM327 401c0 -79 -69 -133 -170 -133
c-49 0 -98 9 -131 24l27 70c21 -11 56 -18 86 -18c46 0 75 22 75 58c0 43 -41 62 -98 62h-8v53c62 6 96 29 96 63c0 29 -21 43 -59 43c-30 0 -58 -6 -82 -16l-24 65c35 15 80 24 124 24c91 0 147 -37 147 -102c0 -42 -33 -71 -67 -85v-2c47 -16 84 -49 84 -106zM734 317
c0 28 -22 47 -53 47c-32 0 -53 -19 -53 -47c0 -29 17 -44 54 -67c35 22 52 39 52 67zM734 104c0 34 -17 52 -57 76c-41 -23 -60 -42 -60 -75c0 -29 27 -51 60 -51c34 0 57 20 57 50z" />
    <glyph glyph-name="fiveeighths" unicode="&#x215d;" horiz-adv-x="878" 
d="M834 103c0 -68 -64 -111 -156 -111c-87 0 -155 39 -155 111c0 56 39 84 88 111c-43 26 -75 54 -75 101c0 63 60 105 142 105s143 -41 143 -104c0 -47 -30 -74 -74 -99c49 -28 87 -60 87 -114zM620 671l-304 -690l-79 37l304 689zM328 400c0 -74 -66 -132 -169 -132
c-49 0 -101 8 -133 23l30 71c21 -11 55 -19 85 -19c48 0 74 26 74 58c0 35 -23 64 -99 64c-19 0 -42 -2 -66 -5l27 228h231v-81h-155l-10 -84c12 1 13 1 17 1c117 0 168 -52 168 -124zM734 317c0 28 -22 47 -53 47c-32 0 -53 -19 -53 -47c0 -29 17 -44 54 -67
c35 22 52 39 52 67zM734 104c0 34 -17 52 -57 76c-41 -23 -60 -42 -60 -75c0 -29 27 -51 60 -51c34 0 57 20 57 50z" />
    <glyph glyph-name="seveneighths" unicode="&#x215e;" horiz-adv-x="878" 
d="M834 103c0 -68 -64 -111 -156 -111c-87 0 -155 39 -155 111c0 56 39 84 88 111c-43 26 -75 54 -75 101c0 63 60 105 142 105s143 -41 143 -104c0 -47 -30 -74 -74 -99c49 -28 87 -60 87 -114zM588 671l-304 -690l-79 37l304 689zM359 688l-55 -127
c-50 -116 -88 -223 -102 -285h-128l156 330h-183v82h312zM734 317c0 28 -22 47 -53 47c-32 0 -53 -19 -53 -47c0 -29 17 -44 54 -67c35 22 52 39 52 67zM734 104c0 34 -17 52 -57 76c-41 -23 -60 -42 -60 -75c0 -29 27 -51 60 -51c34 0 57 20 57 50z" />
    <glyph glyph-name="uni215F" unicode="&#x215f;" horiz-adv-x="491" 
d="M613 671l-303 -690l-79 37l303 689zM279 276h-113v307c-22 -9 -64 -16 -100 -18l-14 61c68 7 122 31 145 62h82v-412z" />
    <glyph glyph-name="uni2189" unicode="&#x2189;" horiz-adv-x="878" 
d="M838 125c0 -79 -69 -133 -170 -133c-49 0 -98 9 -131 24l27 70c21 -11 56 -18 86 -18c46 0 75 22 75 58c0 43 -41 62 -98 62h-9v53c62 6 97 29 97 63c0 29 -22 43 -60 43c-29 0 -53 -5 -76 -15l-23 65c35 15 75 23 118 23c91 0 147 -37 147 -102c0 -42 -34 -71 -68 -85
v-2c47 -16 85 -49 85 -106zM631 671l-303 -690l-79 37l303 689zM351 482c0 -113 -46 -214 -156 -214s-155 101 -155 214s45 214 155 214s156 -101 156 -214zM246 484c0 85 -11 147 -51 147s-51 -62 -51 -147s11 -147 51 -147s51 62 51 147z" />
    <glyph glyph-name="arrowleft" unicode="&#x2190;" horiz-adv-x="940" 
d="M944 272h-684l162 -162l-76 -75l-290 290l290 290l76 -74l-162 -163h684v-106z" />
    <glyph glyph-name="arrowup" unicode="&#x2191;" horiz-adv-x="704" 
d="M648 499l-73 -73l-166 165v-591h-114v591l-166 -165l-73 73l296 296z" />
    <glyph glyph-name="arrowright" unicode="&#x2192;" horiz-adv-x="940" 
d="M884 325l-290 -290l-76 75l162 162h-684v106h684l-162 163l76 74z" />
    <glyph glyph-name="arrowdown" unicode="&#x2193;" horiz-adv-x="704" 
d="M648 286l-296 -296l-296 296l73 73l166 -165v591h114v-591l166 165z" />
    <glyph glyph-name="arrowboth" unicode="&#x2194;" horiz-adv-x="1200" 
d="M1144 325l-290 -290l-76 75l162 162h-680l162 -162l-76 -75l-290 290l290 290l76 -74l-162 -163h680l-162 163l76 74z" />
    <glyph glyph-name="uni2196" unicode="&#x2196;" horiz-adv-x="704" 
d="M664 175l-81 -82l-406 406v-231h-107v420h405v-100h-224z" />
    <glyph glyph-name="uni2197" unicode="&#x2197;" horiz-adv-x="704" 
d="M634 268h-107v231l-406 -406l-81 82l413 413h-224v100h405v-420z" />
    <glyph glyph-name="uni2198" unicode="&#x2198;" horiz-adv-x="704" 
d="M634 0h-405v100h224l-413 413l81 82l406 -406v231h107v-420z" />
    <glyph glyph-name="uni2199" unicode="&#x2199;" horiz-adv-x="704" 
d="M664 513l-413 -413h224v-100h-405v420h107v-231l406 406z" />
    <glyph glyph-name="carriagereturn" unicode="&#x21b5;" horiz-adv-x="940" 
d="M868 0h-612l150 -150l-76 -75l-278 278l278 278l76 -75l-150 -150h495v220h-157v106h274v-432z" />
    <glyph glyph-name="uni21E6" unicode="&#x21e6;" horiz-adv-x="870" 
d="M802 146l-367 39v-185h-73l-344 344l344 344h73v-185l367 39v-396zM707 252v184l-361 -34v134l-193 -192l193 -192v134z" />
    <glyph glyph-name="uni21E7" unicode="&#x21e7;" horiz-adv-x="778" 
d="M734 366h-183l44 -366h-412l44 366h-183v73l345 345l345 -345v-73zM586 452l-197 197l-197 -197h139l-33 -361h182l-33 361h139z" />
    <glyph glyph-name="uni21E8" unicode="&#x21e8;" horiz-adv-x="870" 
d="M852 344l-344 -344h-73v185l-367 -39v396l367 -39v185h73zM717 344l-193 192v-134l-361 34v-184l361 34v-134z" />
    <glyph glyph-name="uni21E9" unicode="&#x21e9;" horiz-adv-x="778" 
d="M734 249l-345 -345l-345 345v73h183l-44 366h412l-44 -366h183v-73zM586 236h-139l33 361h-182l33 -361h-139l197 -197z" />
    <glyph glyph-name="partialdiff" unicode="&#x2202;" horiz-adv-x="564" 
d="M518 257c0 -158 -81 -268 -239 -268c-156 0 -235 101 -235 225c0 126 86 208 230 208c23 0 46 -4 66 -10c-47 100 -136 155 -242 182l30 104c224 -42 390 -200 390 -441zM372 251c0 32 -2 56 -8 82c-18 6 -37 10 -57 10c-77 0 -116 -42 -116 -127c0 -70 27 -126 86 -126
c64 0 95 62 95 161z" />
    <glyph glyph-name="Delta" unicode="&#x2206;" horiz-adv-x="624" 
d="M620 0h-616l224 688h169zM428 95l-102 375c-8 29 -15 66 -18 89h-2c-3 -25 -9 -61 -17 -89l-107 -375h246z" />
    <glyph glyph-name="product" unicode="&#x220f;" horiz-adv-x="746" 
d="M704 579h-82v-794h-162v794h-174v-794h-162v794h-82v109h662v-109z" />
    <glyph glyph-name="summation" unicode="&#x2211;" horiz-adv-x="564" 
d="M518 -215h-483l238 471l-233 432h472v-118h-245l173 -314l-181 -348h259v-123z" />
    <glyph glyph-name="minus" unicode="&#x2212;" horiz-adv-x="532" 
d="M478 272h-424v106h424v-106z" />
    <glyph glyph-name="uni2219" unicode="&#x2219;" horiz-adv-x="532" 
d="M408 363c0 -79 -63 -142 -142 -142s-142 63 -142 142s63 142 142 142s142 -63 142 -142z" />
    <glyph glyph-name="radical" unicode="&#x221a;" horiz-adv-x="564" 
d="M550 785l-182 -785h-140l-129 406h-81v93h194l80 -315h2l119 601h137z" />
    <glyph glyph-name="infinity" unicode="&#x221e;" horiz-adv-x="750" 
d="M704 341c0 -107 -63 -191 -164 -191c-75 0 -124 43 -166 107c-44 -65 -85 -107 -161 -107c-102 0 -167 81 -167 191c0 105 65 191 167 191c75 0 118 -47 162 -109c40 61 85 109 163 109c102 0 166 -86 166 -191zM613 342c0 49 -29 85 -75 85c-44 0 -71 -30 -104 -83
c35 -54 60 -84 104 -84c46 0 75 33 75 82zM314 336c-32 50 -59 85 -103 85c-46 0 -75 -35 -75 -84c0 -47 29 -83 75 -83c44 0 70 31 103 82z" />
    <glyph glyph-name="integral" unicode="&#x222b;" horiz-adv-x="422" 
d="M394 778l-18 -98c-13 4 -26 5 -39 5c-50 0 -77 -31 -77 -93v-604c0 -135 -80 -208 -201 -208c-31 0 -65 5 -87 13l18 102c13 -4 26 -5 39 -5c50 0 76 31 76 93v600c0 135 81 207 202 207c31 0 65 -4 87 -12z" />
    <glyph glyph-name="approxequal" unicode="&#x2248;" horiz-adv-x="532" 
d="M478 396c-24 -26 -59 -46 -115 -46c-69 0 -125 57 -194 57c-56 0 -91 -20 -115 -46v110c23 24 59 43 115 43c70 0 125 -58 194 -58c56 0 91 20 115 49v-109zM478 182c-24 -26 -59 -46 -115 -46c-69 0 -125 58 -194 58c-56 0 -91 -21 -115 -47v110c23 24 59 44 115 44
c70 0 125 -58 194 -58c56 0 91 19 115 48v-109z" />
    <glyph glyph-name="notequal" unicode="&#x2260;" horiz-adv-x="532" 
d="M478 166h-241l-49 -119l-65 29l38 90h-107v106h151l45 107h-196v106h241l47 114l64 -29l-35 -85h107v-106h-151l-46 -107h197v-106z" />
    <glyph glyph-name="lessequal" unicode="&#x2264;" horiz-adv-x="532" 
d="M478 160l-424 163v87l424 162v-108l-289 -97v-2l289 -97v-108zM478 0h-424v97h424v-97z" />
    <glyph glyph-name="greaterequal" unicode="&#x2265;" horiz-adv-x="532" 
d="M478 323l-424 -163v108l289 97v2l-289 97v108l424 -162v-87zM478 0h-424v97h424v-97z" />
    <glyph glyph-name="dotmath" unicode="&#x22c5;" horiz-adv-x="532" 
d="M355 326c0 -49 -40 -89 -89 -89s-89 40 -89 89s40 89 89 89s89 -40 89 -89z" />
    <glyph glyph-name="uni2300" unicode="&#x2300;" horiz-adv-x="850" 
d="M812 655l-100 -99c45 -59 73 -133 73 -212c0 -196 -162 -355 -360 -355c-79 0 -152 25 -211 68l-99 -100l-77 77l99 99c-45 59 -72 132 -72 211c0 196 162 355 360 355c79 0 151 -26 210 -69l101 101zM557 552c-37 27 -83 43 -132 43c-136 0 -246 -112 -246 -251
c0 -48 14 -93 39 -130zM671 344c0 49 -14 93 -39 130l-339 -339c37 -27 83 -42 132 -42c136 0 246 112 246 251z" />
    <glyph glyph-name="uni2318" unicode="&#x2318;" horiz-adv-x="860" 
d="M804 129c0 -80 -67 -140 -152 -140c-106 0 -162 60 -162 161v57h-120v-57c0 -101 -56 -161 -162 -161c-85 0 -152 60 -152 140c0 92 65 146 176 146h46v138h-46c-111 0 -176 54 -176 146c0 80 67 140 152 140c106 0 162 -60 162 -161v-57h120v57c0 101 56 161 162 161
c85 0 152 -60 152 -140c0 -92 -65 -146 -176 -146h-46v-138h46c111 0 176 -54 176 -146zM712 559c0 40 -26 72 -62 72c-45 0 -68 -33 -68 -93v-57h49c56 0 81 31 81 78zM712 129c0 47 -25 78 -81 78h-49v-57c0 -60 23 -93 68 -93c36 0 62 32 62 72zM490 275v138h-120v-138
h120zM278 481v57c0 60 -23 93 -68 93c-36 0 -62 -32 -62 -72c0 -47 25 -78 81 -78h49zM278 150v57h-49c-56 0 -81 -31 -81 -78c0 -40 26 -72 62 -72c45 0 68 33 68 93z" />
    <glyph glyph-name="uni2324" unicode="&#x2324;" horiz-adv-x="800" 
d="M732 583h-664v105h664v-105zM688 294l-77 -77l-211 211l-211 -211l-77 77l288 288z" />
    <glyph glyph-name="uni2325" unicode="&#x2325;" horiz-adv-x="860" 
d="M802 326h-359v106h359v-106zM802 0h-431l-148 326h-165v106h246l148 -326h350v-106z" />
    <glyph glyph-name="uni2326" unicode="&#x2326;" horiz-adv-x="1140" 
d="M1092 344l-344 -344h-676v688h676zM956 344l-254 254h-528v-508h528zM684 209l-66 -67l-136 137l-137 -137l-66 67l137 136l-137 136l66 66l137 -137l136 137l66 -66l-136 -136z" />
    <glyph glyph-name="uni232B" unicode="&#x232b;" horiz-adv-x="1140" 
d="M1068 0h-676l-344 344l344 344h676v-688zM966 90v508h-528l-254 -254l254 -254h528zM861 209l-66 -67l-137 137l-136 -137l-66 67l136 136l-136 136l66 66l136 -137l137 137l66 -66l-137 -136z" />
    <glyph glyph-name="uni2460" unicode="&#x2460;" horiz-adv-x="898" 
d="M851 392c0 -222 -180 -402 -402 -402s-402 180 -402 402s180 402 402 402s402 -180 402 -402zM770 393c0 184 -144 334 -321 334s-321 -150 -321 -334s144 -334 321 -334s321 150 321 334zM519 192h-100v309c-21 -9 -62 -16 -96 -18l-13 59c64 7 115 31 137 62h72v-412z
" />
    <glyph glyph-name="uni2461" unicode="&#x2461;" horiz-adv-x="898" 
d="M851 392c0 -222 -180 -402 -402 -402s-402 180 -402 402s180 402 402 402s402 -180 402 -402zM770 393c0 184 -144 334 -321 334s-321 -150 -321 -334s144 -334 321 -334s321 150 321 334zM588 192h-281l148 216c19 28 28 53 28 76c0 38 -26 55 -66 55
c-26 0 -55 -8 -73 -16l-23 63c30 15 73 25 118 25c104 0 147 -51 147 -117c0 -34 -17 -69 -55 -118l-80 -102h137v-82z" />
    <glyph glyph-name="uni2462" unicode="&#x2462;" horiz-adv-x="898" 
d="M851 392c0 -222 -180 -402 -402 -402s-402 180 -402 402s180 402 402 402s402 -180 402 -402zM770 393c0 184 -144 334 -321 334s-321 -150 -321 -334s144 -334 321 -334s321 150 321 334zM605 317c0 -79 -65 -132 -159 -132c-46 0 -93 9 -123 24l27 67
c20 -11 52 -18 80 -18c44 0 71 23 71 60c0 44 -39 62 -92 62h-8v53c58 6 91 30 91 64c0 29 -22 44 -57 44c-28 0 -54 -6 -76 -16l-24 62c33 15 75 24 117 24c84 0 137 -38 137 -102c0 -42 -32 -70 -64 -84v-2c44 -16 80 -49 80 -106z" />
    <glyph glyph-name="uni2463" unicode="&#x2463;" horiz-adv-x="898" 
d="M851 392c0 -222 -180 -402 -402 -402s-402 180 -402 402s180 402 402 402s402 -180 402 -402zM770 393c0 184 -144 334 -321 334s-321 -150 -321 -334s144 -334 321 -334s321 150 321 334zM585 272h-43v-80h-93v80h-164v58l160 274h97v-278h43v-54zM452 513h-2
c-5 -13 -13 -32 -28 -59l-73 -128h100v125c0 22 1 38 3 62z" />
    <glyph glyph-name="uni2464" unicode="&#x2464;" horiz-adv-x="898" 
d="M851 392c0 -222 -180 -402 -402 -402s-402 180 -402 402s180 402 402 402s402 -180 402 -402zM770 393c0 184 -144 334 -321 334s-321 -150 -321 -334s144 -334 321 -334s321 150 321 334zM594 317c0 -74 -63 -132 -159 -132c-46 0 -93 8 -123 23l27 68
c20 -11 51 -18 80 -18c46 0 71 26 71 59c0 36 -23 67 -95 67c-18 0 -38 -2 -61 -5l26 225h215v-81h-146l-9 -83h16c109 0 158 -52 158 -123z" />
    <glyph glyph-name="uni2465" unicode="&#x2465;" horiz-adv-x="898" 
d="M851 392c0 -222 -180 -402 -402 -402s-402 180 -402 402s180 402 402 402s402 -180 402 -402zM770 393c0 184 -144 334 -321 334s-321 -150 -321 -334s144 -334 321 -334s321 150 321 334zM590 321c0 -76 -49 -136 -143 -136c-97 0 -145 67 -145 161
c0 146 101 241 235 265l20 -67c-61 -15 -116 -47 -144 -104c11 4 25 6 38 6c86 0 139 -49 139 -125zM496 322c0 49 -22 73 -66 73c-11 0 -22 -1 -32 -5c-3 -15 -4 -28 -4 -47c0 -58 18 -94 54 -94c33 0 48 32 48 73z" />
    <glyph glyph-name="uni2466" unicode="&#x2466;" horiz-adv-x="898" 
d="M851 392c0 -222 -180 -402 -402 -402s-402 180 -402 402s180 402 402 402s402 -180 402 -402zM770 393c0 184 -144 334 -321 334s-321 -150 -321 -334s144 -334 321 -334s321 150 321 334zM602 604l-52 -127c-48 -116 -84 -223 -97 -285h-120l150 331h-169v81h288z" />
    <glyph glyph-name="uni2467" unicode="&#x2467;" horiz-adv-x="898" 
d="M851 392c0 -222 -180 -402 -402 -402s-402 180 -402 402s180 402 402 402s402 -180 402 -402zM770 393c0 184 -144 334 -321 334s-321 -150 -321 -334s144 -334 321 -334s321 150 321 334zM594 296c0 -67 -59 -111 -145 -111c-81 0 -144 39 -144 110c0 56 36 84 82 111
c-41 26 -70 53 -70 100c0 63 56 105 132 105c77 0 133 -41 133 -104c0 -46 -28 -73 -69 -98c46 -28 81 -59 81 -113zM503 508c0 28 -22 47 -51 47c-30 0 -51 -18 -51 -46c0 -29 17 -44 52 -67c33 22 50 38 50 66zM503 296c0 34 -17 52 -55 76c-39 -23 -57 -41 -57 -74
c0 -29 26 -52 58 -52c33 0 54 21 54 50z" />
    <glyph glyph-name="uni2468" unicode="&#x2468;" horiz-adv-x="898" 
d="M851 392c0 -222 -180 -402 -402 -402s-402 180 -402 402s180 402 402 402s402 -180 402 -402zM770 393c0 184 -144 334 -321 334s-321 -150 -321 -334s144 -334 321 -334s321 150 321 334zM596 450c0 -146 -102 -241 -236 -265l-19 67c61 15 115 47 143 104
c-11 -4 -25 -6 -38 -6c-86 0 -138 49 -138 125s49 136 143 136c97 0 145 -67 145 -161zM504 455c0 58 -18 93 -54 93c-33 0 -49 -32 -49 -73c0 -49 23 -73 67 -73c11 0 21 2 31 6c3 15 5 28 5 47z" />
    <glyph glyph-name="uni2469" unicode="&#x2469;" horiz-adv-x="1178" 
d="M1131 392c0 -222 -180 -402 -402 -402h-280c-222 0 -402 180 -402 402s180 402 402 402h280c222 0 402 -180 402 -402zM1050 393c0 184 -144 334 -321 334h-280c-177 0 -321 -150 -321 -334s144 -334 321 -334h280c177 0 321 150 321 334zM881 398
c0 -112 -42 -213 -144 -213s-144 101 -144 213s42 213 144 213s144 -101 144 -213zM501 192h-100v309c-21 -9 -62 -16 -96 -18l-13 59c64 7 115 31 137 62h72v-412zM785 400c0 85 -9 147 -48 147s-49 -62 -49 -147s10 -147 49 -147s48 62 48 147z" />
    <glyph glyph-name="uni246A" unicode="&#x246a;" horiz-adv-x="1178" 
d="M1131 392c0 -222 -180 -402 -402 -402h-280c-222 0 -402 180 -402 402s180 402 402 402h280c222 0 402 -180 402 -402zM1050 393c0 184 -144 334 -321 334h-280c-177 0 -321 -150 -321 -334s144 -334 321 -334h280c177 0 321 150 321 334zM808 192h-101v309
c-21 -9 -62 -16 -96 -18l-12 59c64 7 115 31 137 62h72v-412zM520 192h-100v309c-21 -9 -62 -16 -96 -18l-13 59c64 7 115 31 137 62h72v-412z" />
    <glyph glyph-name="uni246B" unicode="&#x246b;" horiz-adv-x="1178" 
d="M1131 392c0 -222 -180 -402 -402 -402h-280c-222 0 -402 180 -402 402s180 402 402 402h280c222 0 402 -180 402 -402zM1050 393c0 184 -144 334 -321 334h-280c-177 0 -321 -150 -321 -334s144 -334 321 -334h280c177 0 321 150 321 334zM856 192h-281l147 216
c19 28 28 53 28 76c0 38 -25 55 -65 55c-26 0 -55 -8 -73 -16l-24 63c30 15 73 25 118 25c104 0 147 -51 147 -117c0 -34 -17 -70 -55 -118l-80 -102h138v-82zM504 192h-100v309c-21 -9 -62 -16 -96 -18l-12 59c64 7 115 31 137 62h71v-412z" />
    <glyph glyph-name="uni246C" unicode="&#x246c;" horiz-adv-x="1178" 
d="M1131 392c0 -222 -180 -402 -402 -402h-280c-222 0 -402 180 -402 402s180 402 402 402h280c222 0 402 -180 402 -402zM1050 393c0 184 -144 334 -321 334h-280c-177 0 -321 -150 -321 -334s144 -334 321 -334h280c177 0 321 150 321 334zM860 317
c0 -79 -65 -132 -159 -132c-46 0 -93 9 -123 24l27 67c20 -11 52 -18 80 -18c44 0 71 23 71 60c0 44 -39 62 -92 62h-8v53c58 6 91 30 91 64c0 29 -22 44 -57 44c-28 0 -54 -6 -76 -16l-24 62c33 15 75 24 117 24c84 0 137 -38 137 -102c0 -42 -32 -70 -64 -84v-2
c44 -16 80 -49 80 -106zM504 192h-100v309c-21 -9 -62 -16 -96 -18l-12 59c64 7 115 31 137 62h71v-412z" />
    <glyph glyph-name="uni246D" unicode="&#x246d;" horiz-adv-x="1178" 
d="M1131 392c0 -222 -180 -402 -402 -402h-280c-222 0 -402 180 -402 402s180 402 402 402h280c222 0 402 -180 402 -402zM1050 393c0 184 -144 334 -321 334h-280c-177 0 -321 -150 -321 -334s144 -334 321 -334h280c177 0 321 150 321 334zM870 272h-37v-80h-93v80h-164
v58l160 274h97v-278h37v-54zM498 192h-100v309c-21 -9 -62 -16 -96 -18l-13 59c64 7 115 31 137 62h72v-412zM743 513h-2c-7 -18 -17 -40 -28 -59l-73 -128h101v125c0 21 1 42 2 62z" />
    <glyph glyph-name="uni246E" unicode="&#x246e;" horiz-adv-x="1178" 
d="M1131 392c0 -222 -180 -402 -402 -402h-280c-222 0 -402 180 -402 402s180 402 402 402h280c222 0 402 -180 402 -402zM1050 393c0 184 -144 334 -321 334h-280c-177 0 -321 -150 -321 -334s144 -334 321 -334h280c177 0 321 150 321 334zM855 317
c0 -74 -62 -132 -158 -132c-46 0 -93 8 -123 23l26 68c20 -11 52 -18 81 -18c46 0 70 26 70 59c0 36 -22 67 -94 67c-18 0 -38 -2 -61 -5l25 225h215v-81h-145l-9 -83h16c109 0 157 -52 157 -123zM499 192h-100v309c-21 -9 -62 -16 -96 -18l-12 59c64 7 115 31 137 62h71
v-412z" />
    <glyph glyph-name="uni246F" unicode="&#x246f;" horiz-adv-x="1178" 
d="M1131 392c0 -222 -180 -402 -402 -402h-280c-222 0 -402 180 -402 402s180 402 402 402h280c222 0 402 -180 402 -402zM1050 393c0 184 -144 334 -321 334h-280c-177 0 -321 -150 -321 -334s144 -334 321 -334h280c177 0 321 150 321 334zM871 321
c0 -76 -49 -136 -143 -136c-97 0 -145 67 -145 161c0 146 101 241 235 265l20 -67c-61 -15 -116 -47 -144 -104c11 4 25 6 38 6c86 0 139 -49 139 -125zM496 192h-100v309c-21 -9 -62 -16 -96 -18l-13 59c64 7 115 31 137 62h72v-412zM777 322c0 49 -22 73 -66 73
c-11 0 -22 -1 -32 -5c-3 -15 -4 -28 -4 -47c0 -58 18 -94 54 -94c33 0 48 32 48 73z" />
    <glyph glyph-name="uni2470" unicode="&#x2470;" horiz-adv-x="1178" 
d="M1131 392c0 -222 -180 -402 -402 -402h-280c-222 0 -402 180 -402 402s180 402 402 402h280c222 0 402 -180 402 -402zM1050 393c0 184 -144 334 -321 334h-280c-177 0 -321 -150 -321 -334s144 -334 321 -334h280c177 0 321 150 321 334zM870 604l-52 -127
c-48 -116 -83 -223 -96 -285h-120l149 331h-173v81h292zM496 192h-101v309c-21 -9 -61 -16 -95 -18l-13 59c64 7 115 31 137 62h72v-412z" />
    <glyph glyph-name="uni2471" unicode="&#x2471;" horiz-adv-x="1178" 
d="M1131 392c0 -222 -180 -402 -402 -402h-280c-222 0 -402 180 -402 402s180 402 402 402h280c222 0 402 -180 402 -402zM1050 393c0 184 -144 334 -321 334h-280c-177 0 -321 -150 -321 -334s144 -334 321 -334h280c177 0 321 150 321 334zM870 296
c0 -67 -59 -111 -145 -111c-81 0 -144 39 -144 110c0 56 36 84 82 111c-41 26 -70 53 -70 100c0 63 56 105 132 105c77 0 133 -41 133 -104c0 -46 -29 -73 -70 -98c46 -28 82 -59 82 -113zM497 192h-100v309c-21 -9 -62 -16 -96 -18l-12 59c64 7 115 31 137 62h71v-412z
M779 508c0 28 -22 47 -51 47c-30 0 -51 -18 -51 -46c0 -29 17 -44 52 -67c33 22 50 38 50 66zM779 296c0 34 -17 52 -55 76c-39 -23 -57 -41 -57 -74c0 -29 25 -52 57 -52c33 0 55 21 55 50z" />
    <glyph glyph-name="uni2472" unicode="&#x2472;" horiz-adv-x="1178" 
d="M1131 392c0 -222 -180 -402 -402 -402h-280c-222 0 -402 180 -402 402s180 402 402 402h280c222 0 402 -180 402 -402zM1050 393c0 184 -144 334 -321 334h-280c-177 0 -321 -150 -321 -334s144 -334 321 -334h280c177 0 321 150 321 334zM875 450
c0 -146 -102 -241 -236 -265l-19 67c61 15 115 47 143 104c-11 -4 -25 -6 -38 -6c-86 0 -138 49 -138 125s49 136 143 136c97 0 145 -67 145 -161zM501 192h-101v309c-21 -9 -61 -16 -95 -18l-13 59c64 7 115 31 137 62h72v-412zM782 455c0 58 -17 93 -53 93
c-33 0 -49 -32 -49 -73c0 -49 22 -73 66 -73c11 0 22 2 32 6c3 15 4 28 4 47z" />
    <glyph glyph-name="uni2473" unicode="&#x2473;" horiz-adv-x="1178" 
d="M1131 392c0 -222 -180 -402 -402 -402h-280c-222 0 -402 180 -402 402s180 402 402 402h280c222 0 402 -180 402 -402zM1050 393c0 184 -144 334 -321 334h-280c-177 0 -321 -150 -321 -334s144 -334 321 -334h280c177 0 321 150 321 334zM908 398
c0 -112 -42 -213 -144 -213s-144 101 -144 213s42 213 144 213s144 -101 144 -213zM565 192h-275l142 216c19 28 28 53 28 76c0 38 -26 55 -66 55c-26 0 -55 -8 -73 -16l-23 63c30 15 73 25 118 25c104 0 147 -51 147 -117c0 -34 -18 -69 -55 -118l-78 -102h135v-82z
M813 400c0 85 -10 147 -49 147s-48 -62 -48 -147s9 -147 48 -147s49 62 49 147z" />
    <glyph glyph-name="uni24EA" unicode="&#x24ea;" horiz-adv-x="898" 
d="M851 392c0 -222 -180 -402 -402 -402s-402 180 -402 402s180 402 402 402s402 -180 402 -402zM770 393c0 184 -144 334 -321 334s-321 -150 -321 -334s144 -334 321 -334s321 150 321 334zM593 398c0 -112 -42 -213 -144 -213s-144 101 -144 213s42 213 144 213
s144 -101 144 -213zM498 400c0 85 -10 147 -49 147s-48 -62 -48 -147s9 -147 48 -147s49 62 49 147z" />
    <glyph glyph-name="lozenge" unicode="&#x25ca;" horiz-adv-x="628" 
d="M584 344l-270 -354l-270 354l270 354zM455 344l-141 186l-142 -186l142 -184z" />
    <glyph glyph-name="uni2713" unicode="&#x2713;" horiz-adv-x="740" 
d="M702 634l-364 -649l-300 354l112 98l173 -230l254 492z" />
    <glyph glyph-name="fi" unicode="&#xfb01;" horiz-adv-x="634" 
d="M577 694c0 -41 -38 -74 -85 -74s-85 33 -85 74s38 73 85 73s85 -32 85 -73zM571 0h-156v539h156v-539zM330 439h-84v-439h-156v439h-58v100h58v55c0 122 75 193 198 193c16 0 26 -1 42 -3v-100c-10 1 -11 1 -15 1c-47 0 -69 -32 -69 -87v-59h84v-100z" />
    <glyph glyph-name="fl" unicode="&#xfb02;" horiz-adv-x="645" 
d="M583 0h-156v785h156v-785zM330 439h-84v-439h-156v439h-58v100h58v55c0 122 75 193 198 193c11 0 18 0 42 -3v-100c-10 1 -11 1 -15 1c-47 0 -69 -32 -69 -87v-59h84v-100z" />
    <glyph glyph-name="i.latn_TRK" 
d="M223 694c0 -41 -37 -74 -83 -74s-83 33 -83 74s37 73 83 73s83 -32 83 -73zM218 0h-156v539h156v-539z" />
    <glyph glyph-name="Ldot.latn_CAT" horiz-adv-x="481" 
d="M404 0h-337v688h162v-579h175v-109zM459 386c0 -39 -31 -71 -70 -71s-71 32 -71 71s32 70 71 70s70 -31 70 -70z" />
    <glyph glyph-name="ldot.latn_CAT" horiz-adv-x="420" 
d="M218 0h-156v785h156v-785zM421 413c0 -39 -31 -71 -70 -71s-71 32 -71 71s32 70 71 70s70 -31 70 -70z" />
    <glyph glyph-name="n.subs" horiz-adv-x="420" 
d="M370 -215h-112v236c0 32 -16 52 -54 52c-17 0 -30 -2 -43 -7v-281h-111v328c40 16 99 27 154 27c119 0 166 -43 166 -116v-239z" />
    <glyph glyph-name="parenleft.numr" horiz-adv-x="238" 
d="M227 215l-52 -39c-90 77 -141 184 -141 306s51 229 141 306l52 -39c-55 -73 -85 -169 -85 -267s30 -194 85 -267z" />
    <glyph glyph-name="parenright.numr" horiz-adv-x="238" 
d="M204 482c0 -122 -51 -229 -141 -306l-52 39c55 73 85 169 85 267s-30 194 -85 267l52 39c90 -77 141 -184 141 -306z" />
    <glyph glyph-name="plus.numr" horiz-adv-x="368" 
d="M320 446h-96v-96h-81v96h-95v75h95v95h81v-95h96v-75z" />
    <glyph glyph-name="zero.numr" horiz-adv-x="372" 
d="M341 482c0 -113 -45 -214 -155 -214s-155 101 -155 214s45 214 155 214s155 -101 155 -214zM237 484c0 85 -11 147 -51 147s-51 -62 -51 -147s11 -147 51 -147s51 62 51 147z" />
    <glyph glyph-name="one.numr" horiz-adv-x="372" 
d="M279 276h-113v307c-22 -9 -64 -16 -100 -18l-14 61c68 7 122 31 145 62h82v-412z" />
    <glyph glyph-name="two.numr" horiz-adv-x="372" 
d="M320 276h-301l156 217c20 28 29 51 29 73c0 39 -26 56 -68 56c-27 0 -58 -9 -77 -17l-25 66c33 15 78 25 126 25c111 0 157 -51 157 -117c0 -34 -18 -69 -58 -118l-84 -103h145v-82z" />
    <glyph glyph-name="three.numr" horiz-adv-x="372" 
d="M328 401c0 -79 -69 -133 -170 -133c-49 0 -98 9 -131 24l27 70c21 -11 56 -18 86 -18c46 0 75 22 75 58c0 43 -41 62 -98 62h-8v53c62 6 96 29 96 63c0 29 -21 43 -59 43c-30 0 -58 -6 -82 -16l-24 65c35 15 80 24 124 24c91 0 147 -37 147 -102c0 -42 -33 -71 -67 -85
v-2c47 -16 84 -49 84 -106z" />
    <glyph glyph-name="four.numr" horiz-adv-x="372" 
d="M340 356h-36v-80h-101v80h-175v58l171 274h105v-275h36v-57zM206 597h-2c-9 -21 -18 -39 -30 -59l-74 -125h103v122c0 20 1 41 3 62z" />
    <glyph glyph-name="five.numr" horiz-adv-x="372" 
d="M328 400c0 -74 -67 -132 -170 -132c-49 0 -100 8 -132 23l29 71c21 -11 56 -19 86 -19c48 0 74 26 74 58c0 35 -24 64 -100 64c-19 0 -41 -2 -65 -5l27 228h230v-81h-154l-10 -84c7 1 12 1 17 1c117 0 168 -52 168 -124z" />
    <glyph glyph-name="six.numr" horiz-adv-x="372" 
d="M341 404c0 -76 -53 -136 -154 -136c-104 0 -155 67 -155 162c0 147 109 242 253 266l20 -70c-65 -14 -122 -43 -152 -101c12 4 27 6 40 6c93 0 148 -51 148 -127zM239 406c0 50 -23 73 -69 73c-11 0 -23 -1 -33 -5c-3 -15 -4 -29 -4 -48c0 -58 17 -93 55 -93
c35 0 51 32 51 73z" />
    <glyph glyph-name="seven.numr" horiz-adv-x="372" 
d="M345 688l-54 -127c-50 -117 -88 -223 -102 -285h-129l156 330h-183v82h312z" />
    <glyph glyph-name="eight.numr" horiz-adv-x="372" 
d="M342 379c0 -68 -65 -111 -157 -111c-87 0 -155 39 -155 111c0 56 39 84 88 111c-43 26 -75 54 -75 101c0 63 60 105 142 105s144 -41 144 -104c0 -47 -30 -74 -74 -99c49 -28 87 -60 87 -114zM242 593c0 28 -23 47 -54 47c-32 0 -53 -19 -53 -47c0 -29 17 -44 54 -67
c35 22 53 39 53 67zM242 380c0 34 -18 52 -58 76c-41 -23 -60 -42 -60 -75c0 -29 27 -51 60 -51c34 0 58 20 58 50z" />
    <glyph glyph-name="nine.numr" horiz-adv-x="372" 
d="M340 534c0 -147 -109 -242 -253 -266l-20 70c63 15 121 43 151 101c-12 -4 -26 -6 -39 -6c-93 0 -148 51 -148 127s52 136 153 136c104 0 156 -67 156 -162zM239 540c0 58 -18 93 -56 93c-35 0 -50 -32 -50 -73c0 -50 23 -74 69 -74c11 0 23 2 33 6c3 15 4 29 4 48z" />
    <glyph glyph-name="equal.numr" horiz-adv-x="368" 
d="M320 516h-272v75h272v-75zM320 376h-272v75h272v-75z" />
    <glyph glyph-name="n.numr" horiz-adv-x="420" 
d="M370 276h-112v236c0 32 -16 52 -54 52c-17 0 -30 -2 -43 -7v-281h-111v328c40 16 99 27 154 27c119 0 166 -43 166 -116v-239z" />
    <glyph glyph-name="minus.numr" horiz-adv-x="368" 
d="M320 446h-272v75h272v-75z" />
    <glyph glyph-name="parenleft.dnom" horiz-adv-x="238" 
d="M227 -61l-52 -39c-90 77 -141 184 -141 306s51 229 141 306l52 -39c-55 -73 -85 -169 -85 -267s30 -194 85 -267z" />
    <glyph glyph-name="parenright.dnom" horiz-adv-x="238" 
d="M204 206c0 -122 -51 -229 -141 -306l-52 39c55 73 85 169 85 267s-30 194 -85 267l52 39c90 -77 141 -184 141 -306z" />
    <glyph glyph-name="plus.dnom" horiz-adv-x="368" 
d="M320 170h-96v-96h-81v96h-95v75h95v95h81v-95h96v-75z" />
    <glyph glyph-name="zero.dnom" horiz-adv-x="372" 
d="M341 206c0 -113 -45 -214 -155 -214s-155 101 -155 214s45 214 155 214s155 -101 155 -214zM237 208c0 85 -11 147 -51 147s-51 -62 -51 -147s11 -147 51 -147s51 62 51 147z" />
    <glyph glyph-name="one.dnom" horiz-adv-x="372" 
d="M279 0h-113v307c-22 -9 -64 -16 -100 -18l-14 61c68 7 122 31 145 62h82v-412z" />
    <glyph glyph-name="two.dnom" horiz-adv-x="372" 
d="M320 0h-301l156 217c20 28 29 51 29 73c0 39 -26 56 -68 56c-27 0 -58 -9 -77 -17l-25 66c33 15 78 25 126 25c111 0 157 -51 157 -117c0 -34 -18 -69 -58 -118l-84 -103h145v-82z" />
    <glyph glyph-name="three.dnom" horiz-adv-x="372" 
d="M328 125c0 -79 -69 -133 -170 -133c-49 0 -98 9 -131 24l27 70c21 -11 56 -18 86 -18c46 0 75 22 75 58c0 43 -41 62 -98 62h-8v53c62 6 96 29 96 63c0 29 -21 43 -59 43c-30 0 -58 -6 -82 -16l-24 65c35 15 80 24 124 24c91 0 147 -37 147 -102c0 -42 -33 -71 -67 -85
v-2c47 -16 84 -49 84 -106z" />
    <glyph glyph-name="four.dnom" horiz-adv-x="372" 
d="M340 80h-36v-80h-101v80h-175v58l171 274h105v-275h36v-57zM206 321h-2c-9 -21 -18 -39 -30 -59l-74 -125h103v122c0 20 1 41 3 62z" />
    <glyph glyph-name="five.dnom" horiz-adv-x="372" 
d="M328 124c0 -74 -67 -132 -170 -132c-49 0 -100 8 -132 23l29 71c21 -11 56 -19 86 -19c48 0 74 26 74 58c0 35 -24 64 -100 64c-19 0 -41 -2 -65 -5l27 228h230v-81h-154l-10 -84c7 1 12 1 17 1c117 0 168 -52 168 -124z" />
    <glyph glyph-name="six.dnom" horiz-adv-x="372" 
d="M341 128c0 -76 -53 -136 -154 -136c-104 0 -155 67 -155 162c0 147 109 242 253 266l20 -70c-65 -14 -122 -43 -152 -101c12 4 27 6 40 6c93 0 148 -51 148 -127zM239 130c0 50 -23 73 -69 73c-11 0 -23 -1 -33 -5c-3 -15 -4 -29 -4 -48c0 -58 17 -93 55 -93
c35 0 51 32 51 73z" />
    <glyph glyph-name="seven.dnom" horiz-adv-x="372" 
d="M345 412l-54 -127c-50 -117 -88 -223 -102 -285h-129l156 330h-183v82h312z" />
    <glyph glyph-name="eight.dnom" horiz-adv-x="372" 
d="M342 103c0 -68 -65 -111 -157 -111c-87 0 -155 39 -155 111c0 56 39 84 88 111c-43 26 -75 54 -75 101c0 63 60 105 142 105s144 -41 144 -104c0 -47 -30 -74 -74 -99c49 -28 87 -60 87 -114zM242 317c0 28 -23 47 -54 47c-32 0 -53 -19 -53 -47c0 -29 17 -44 54 -67
c35 22 53 39 53 67zM242 104c0 34 -18 52 -58 76c-41 -23 -60 -42 -60 -75c0 -29 27 -51 60 -51c34 0 58 20 58 50z" />
    <glyph glyph-name="nine.dnom" horiz-adv-x="372" 
d="M340 258c0 -147 -109 -242 -253 -266l-20 70c63 15 121 43 151 101c-12 -4 -26 -6 -39 -6c-93 0 -148 51 -148 127s52 136 153 136c104 0 156 -67 156 -162zM239 264c0 58 -18 93 -56 93c-35 0 -50 -32 -50 -73c0 -50 23 -74 69 -74c11 0 23 2 33 6c3 15 4 29 4 48z" />
    <glyph glyph-name="equal.dnom" horiz-adv-x="368" 
d="M320 240h-272v75h272v-75zM320 100h-272v75h272v-75z" />
    <glyph glyph-name="n.dnom" horiz-adv-x="420" 
d="M370 0h-112v236c0 32 -16 52 -54 52c-17 0 -30 -2 -43 -7v-281h-111v328c40 16 99 27 154 27c119 0 166 -43 166 -116v-239z" />
    <glyph glyph-name="minus.dnom" horiz-adv-x="368" 
d="M320 170h-272v75h272v-75z" />
    <glyph glyph-name="space.frac" horiz-adv-x="53" 
 />
    <glyph glyph-name="numbersign.osf" horiz-adv-x="580" 
d="M525 327h-90l-15 -109h79v-77h-90l-19 -141h-84l20 141h-110l-19 -141h-84l20 141h-78v77h88l15 109h-78v77h88l18 135h84l-18 -135h109l18 135h84l-18 -135h80v-77zM351 327h-109l-15 -109h109z" />
    <glyph glyph-name="dollar.osf" horiz-adv-x="486" 
d="M433 162c0 -81 -57 -148 -154 -167v-127h-81v121c-58 2 -117 17 -153 39l42 96c30 -18 72 -31 108 -31c46 0 78 24 78 61c0 91 -215 64 -215 233c0 86 63 145 150 159v123h81v-120c50 -4 93 -16 131 -38l-40 -86c-24 15 -62 28 -95 28c-46 0 -73 -23 -73 -58
c0 -87 221 -64 221 -233z" />
    <glyph glyph-name="percent.osf" horiz-adv-x="866" 
d="M818 172c0 -101 -50 -183 -148 -183s-148 82 -148 183s50 183 148 183s148 -82 148 -183zM560 526l-185 -540l-70 26l184 540zM344 367c0 -101 -50 -183 -148 -183s-148 82 -148 183s50 183 148 183s148 -82 148 -183zM723 174c0 69 -16 119 -53 119s-53 -50 -53 -119
s16 -119 53 -119s53 50 53 119zM249 369c0 69 -16 119 -53 119s-53 -50 -53 -119s16 -119 53 -119s53 50 53 119z" />
    <glyph glyph-name="zero.osf" horiz-adv-x="584" 
d="M539 270c0 -158 -91 -281 -247 -281s-247 123 -247 281s91 280 247 280s247 -122 247 -280zM380 272c0 95 -21 185 -88 185s-88 -90 -88 -185s21 -182 88 -182s88 87 88 182z" />
    </font>
</defs>
</svg>
