<?xml version="1.0" standalone="no"?>
<!DOCTYPE svg PUBLIC "-//W3C//DTD SVG 1.1//EN" "http://www.w3.org/Graphics/SVG/1.1/DTD/svg11.dtd" >
<svg xmlns="http://www.w3.org/2000/svg" xmlns:xlink="http://www.w3.org/1999/xlink" version="1.1">
<metadata>
Created by FontForge 20141024 at Thu Jan 15 17:45:25 2015
 By System Administrator

</metadata>
<defs>
<font id="DaxPro" horiz-adv-x="528" >
  <font-face 
    font-family="DaxPro"
    font-weight="400"
    font-stretch="normal"
    units-per-em="1000"
    panose-1="2 11 5 4 3 1 1 2 1 2"
    ascent="785"
    descent="-215"
    x-height="539"
    cap-height="688"
    bbox="-123 -306 1128 991"
    underline-thickness="52"
    underline-position="-49"
    stemh="48"
    stemv="88"
    unicode-range="U+000D-FB02"
  />
<missing-glyph horiz-adv-x="533" 
d="M71 0v688h391v-688h-391zM128 57h277v574h-277v-574z" />
    <glyph glyph-name=".notdef" horiz-adv-x="533" 
d="M71 0v688h391v-688h-391zM128 57h277v574h-277v-574z" />
    <glyph glyph-name=".null" horiz-adv-x="0" 
 />
    <glyph glyph-name=".null" horiz-adv-x="0" 
 />
    <glyph glyph-name="CR" unicode="&#xd;" horiz-adv-x="276" 
 />
    <glyph glyph-name="space" unicode=" " horiz-adv-x="276" 
 />
    <glyph glyph-name="exclam" unicode="!" horiz-adv-x="278" 
d="M195 688l-18 -460h-66l-18 460h102zM201 51c0 -31 -26 -57 -57 -57s-57 26 -57 57s26 57 57 57s57 -26 57 -57z" />
    <glyph glyph-name="quotedbl" unicode="&#x22;" horiz-adv-x="390" 
d="M320 673l-19 -247h-48l-19 247c9 15 24 24 43 24s34 -9 43 -24zM156 673l-19 -247h-48l-19 247c9 15 24 24 43 24s34 -9 43 -24z" />
    <glyph glyph-name="numbersign" unicode="#" horiz-adv-x="652" 
d="M594 429h-119l-21 -157h112v-48h-119l-30 -224h-57l30 224h-162l-30 -224h-57l30 224h-113v48h120l21 157h-113v48h119l29 211h57l-29 -211h162l29 211h57l-29 -211h113v-48zM418 429h-162l-21 -157h162z" />
    <glyph glyph-name="dollar" unicode="$" horiz-adv-x="502" 
d="M441 181c0 -96 -65 -171 -170 -188v-121h-55v118c-62 1 -121 14 -161 38l26 62c35 -21 84 -32 135 -32c84 0 132 51 132 119c0 170 -286 117 -286 342c0 96 65 162 164 176v116h56v-113c52 -2 100 -17 134 -38l-25 -56c-28 17 -74 31 -116 31c-76 0 -122 -41 -122 -111
c0 -168 288 -111 288 -343z" />
    <glyph glyph-name="percent" unicode="%" horiz-adv-x="850" 
d="M792 203c0 -107 -41 -213 -140 -213s-140 106 -140 213s41 213 140 213s140 -106 140 -213zM568 679l-236 -688l-51 18l236 688zM338 485c0 -107 -41 -213 -140 -213s-140 106 -140 213s41 213 140 213s140 -106 140 -213zM727 204c0 84 -19 170 -75 170
s-75 -86 -75 -170s19 -169 75 -169s75 85 75 169zM273 486c0 84 -19 170 -75 170s-75 -86 -75 -170s19 -169 75 -169s75 85 75 169z" />
    <glyph glyph-name="ampersand" unicode="&#x26;" horiz-adv-x="613" 
d="M603 400l-120 -20v-351c-41 -24 -116 -39 -184 -39c-156 0 -251 67 -251 190c0 106 82 165 178 197v2c-91 22 -139 77 -139 155c0 107 93 164 197 164c53 0 103 -14 141 -36l-27 -53c-28 16 -65 27 -104 27c-63 0 -119 -35 -119 -106c0 -67 54 -116 132 -116
c48 0 95 7 142 17l141 29zM396 65v305c-176 -28 -254 -82 -254 -188c0 -81 53 -134 160 -134c36 0 69 7 94 17z" />
    <glyph glyph-name="quotesingle" unicode="'" horiz-adv-x="226" 
d="M156 673l-19 -247h-48l-19 247c9 15 24 24 43 24s34 -9 43 -24z" />
    <glyph glyph-name="parenleft" unicode="(" horiz-adv-x="343" 
d="M314 -198l-46 -32c-134 146 -208 316 -208 516s74 370 208 516l46 -32c-104 -135 -162 -306 -162 -484s58 -349 162 -484z" />
    <glyph glyph-name="parenright" unicode=")" horiz-adv-x="343" 
d="M283 286c0 -200 -74 -370 -208 -516l-46 32c104 135 162 306 162 484s-58 349 -162 484l46 32c134 -146 208 -316 208 -516z" />
    <glyph glyph-name="asterisk" unicode="*" horiz-adv-x="430" 
d="M375 728c0 -25 -20 -45 -45 -45s-45 20 -45 45s20 45 45 45s45 -20 45 -45zM260 813c0 -25 -20 -45 -45 -45s-45 20 -45 45s20 45 45 45s45 -20 45 -45zM253 694c0 -21 -17 -38 -38 -38s-38 17 -38 38s17 38 38 38s38 -17 38 -38zM331 595c0 -25 -20 -45 -45 -45
s-45 20 -45 45s20 45 45 45s45 -20 45 -45zM145 728c0 -25 -20 -45 -45 -45s-45 20 -45 45s20 45 45 45s45 -20 45 -45zM189 595c0 -25 -20 -45 -45 -45s-45 20 -45 45s20 45 45 45s45 -20 45 -45z" />
    <glyph glyph-name="plus" unicode="+" horiz-adv-x="518" 
d="M456 303h-163v-165h-68v165h-163v62h163v164h68v-164h163v-62z" />
    <glyph glyph-name="comma" unicode="," horiz-adv-x="257" 
d="M191 80l-120 -225h-54l77 225c12 18 32 29 55 29s38 -12 42 -29z" />
    <glyph glyph-name="hyphen" unicode="-" horiz-adv-x="344" 
d="M285 299h-226v70h226v-70z" />
    <glyph glyph-name="period" unicode="." horiz-adv-x="250" 
d="M182 51c0 -31 -26 -57 -57 -57s-57 26 -57 57s26 57 57 57s57 -26 57 -57z" />
    <glyph glyph-name="slash" unicode="/" horiz-adv-x="446" 
d="M413 772l-342 -987l-73 27l342 988z" />
    <glyph glyph-name="zero" unicode="0" horiz-adv-x="536" 
d="M479 344c0 -175 -53 -354 -211 -354s-211 179 -211 354s53 354 211 354s211 -179 211 -354zM392 346c0 139 -22 295 -124 295s-124 -156 -124 -295s22 -296 124 -296s124 157 124 296z" />
    <glyph glyph-name="one" unicode="1" horiz-adv-x="399" 
d="M296 0h-88v577c-39 -23 -118 -43 -176 -48l-12 53c97 14 179 50 215 106h61v-688z" />
    <glyph glyph-name="two" unicode="2" horiz-adv-x="484" 
d="M429 0h-409l248 356c48 68 59 111 59 153c0 77 -44 124 -138 124c-43 0 -93 -12 -127 -29l-23 57c45 24 105 37 167 37c145 0 214 -74 214 -183c0 -51 -24 -111 -85 -193l-185 -249h279v-73z" />
    <glyph glyph-name="three" unicode="3" horiz-adv-x="476" 
d="M424 199c0 -127 -98 -209 -228 -209c-64 0 -131 12 -175 35l24 61c35 -19 91 -31 137 -31c89 0 149 54 149 144c0 104 -80 145 -176 145h-21v51c102 8 173 59 173 137c0 74 -56 102 -117 102c-47 0 -91 -10 -129 -28l-24 57c47 23 106 35 165 35c106 0 194 -54 194 -155
c0 -87 -70 -135 -128 -157v-2c71 -18 156 -69 156 -185z" />
    <glyph glyph-name="four" unicode="4" horiz-adv-x="502" 
d="M457 157h-56v-157h-81v157h-282v57l279 474h84v-478h56v-53zM323 601h-2c-11 -26 -24 -56 -47 -95l-174 -296h220v288c0 36 1 69 3 103z" />
    <glyph glyph-name="five" unicode="5" horiz-adv-x="476" 
d="M424 199c0 -113 -94 -209 -230 -209c-62 0 -130 12 -173 35l24 61c34 -19 88 -31 137 -31c93 0 149 66 149 143c0 92 -51 156 -178 156c-31 0 -64 -3 -97 -8l37 342h312v-73h-250l-23 -211c25 3 39 4 56 4c150 0 236 -81 236 -209z" />
    <glyph glyph-name="six" unicode="6" horiz-adv-x="526" 
d="M475 203c0 -109 -66 -213 -207 -213c-136 0 -213 98 -213 260c0 229 139 388 355 448l19 -58c-130 -43 -218 -107 -270 -247c28 11 62 18 96 18c134 0 220 -76 220 -208zM390 204c0 104 -51 158 -150 158c-33 0 -64 -7 -93 -18c-7 -35 -8 -59 -8 -96
c0 -123 41 -199 130 -199c85 0 121 74 121 155z" />
    <glyph glyph-name="seven" unicode="7" horiz-adv-x="466" 
d="M446 688l-92 -214c-76 -177 -146 -379 -171 -474h-109l267 615h-317v73h422z" />
    <glyph glyph-name="eight" unicode="8" horiz-adv-x="524" 
d="M472 163c0 -102 -90 -173 -210 -173c-110 0 -210 61 -210 172c0 104 73 152 152 196c-71 41 -132 86 -132 177c0 97 85 163 190 163c106 0 190 -66 190 -163c0 -88 -60 -133 -131 -173c78 -44 151 -94 151 -199zM377 536c0 66 -48 109 -114 109c-67 0 -114 -43 -114 -109
c0 -70 50 -105 116 -143c63 37 112 74 112 143zM390 163c0 85 -58 125 -130 165c-71 -40 -128 -81 -128 -164c0 -71 60 -116 129 -116c74 0 129 48 129 115z" />
    <glyph glyph-name="nine" unicode="9" horiz-adv-x="526" 
d="M471 438c0 -229 -139 -388 -355 -448l-19 58c130 43 218 107 270 247c-28 -11 -62 -18 -96 -18c-134 0 -220 76 -220 208c0 109 66 213 207 213c136 0 213 -98 213 -260zM387 442c0 123 -42 199 -131 199c-85 0 -120 -75 -120 -156c0 -104 51 -157 150 -157
c33 0 64 6 93 17c7 35 8 60 8 97z" />
    <glyph glyph-name="colon" unicode=":" horiz-adv-x="260" 
d="M192 51c0 -31 -26 -57 -57 -57s-57 26 -57 57s26 57 57 57s57 -26 57 -57zM192 356c0 -31 -26 -57 -57 -57s-57 26 -57 57s26 57 57 57s57 -26 57 -57z" />
    <glyph glyph-name="semicolon" unicode=";" horiz-adv-x="263" 
d="M195 356c0 -32 -25 -58 -57 -58s-58 26 -58 58s26 57 58 57s57 -25 57 -57zM198 80l-121 -225h-53l76 225c12 18 33 29 56 29s38 -12 42 -29z" />
    <glyph glyph-name="less" unicode="&#x3c;" horiz-adv-x="518" 
d="M456 132l-394 173v58l394 172v-70l-317 -130v-2l317 -130v-71z" />
    <glyph glyph-name="equal" unicode="=" horiz-adv-x="518" 
d="M456 394h-394v62h394v-62zM456 211h-394v62h394v-62z" />
    <glyph glyph-name="greater" unicode="&#x3e;" horiz-adv-x="518" 
d="M456 305l-394 -173v71l317 130v2l-317 130v70l394 -172v-58z" />
    <glyph glyph-name="question" unicode="?" horiz-adv-x="406" 
d="M388 537c0 -88 -87 -144 -146 -161l-9 -148h-66l-9 175c59 14 139 53 139 129c0 60 -36 103 -117 103c-35 0 -77 -10 -104 -26l-26 52c36 22 94 37 144 37c118 0 194 -62 194 -161zM257 51c0 -31 -26 -57 -57 -57s-57 26 -57 57s26 57 57 57s57 -26 57 -57z" />
    <glyph glyph-name="at" unicode="@" horiz-adv-x="912" 
d="M860 372c0 -194 -148 -383 -368 -383c-153 0 -229 104 -229 234c0 156 94 295 246 295c60 0 109 -23 136 -45l-64 -420c109 32 215 147 215 319c0 149 -83 276 -266 276c-265 0 -414 -215 -414 -429c0 -197 118 -361 346 -361c140 0 264 45 363 134l33 -40
c-104 -95 -244 -146 -397 -146c-258 0 -409 180 -409 408c0 247 181 484 481 484c214 0 327 -150 327 -326zM576 449c-18 11 -40 19 -74 19c-110 0 -174 -119 -174 -242c0 -114 57 -185 166 -185c6 0 8 0 22 1z" />
    <glyph glyph-name="A" unicode="A" horiz-adv-x="590" 
d="M571 0h-97l-64 208h-239l-65 -208h-87l232 688h87zM393 263l-80 260c-8 25 -16 63 -20 89h-2c-4 -23 -12 -60 -21 -89l-81 -260h204z" />
    <glyph glyph-name="B" unicode="B" horiz-adv-x="562" 
d="M514 186c0 -138 -106 -196 -249 -196c-72 0 -141 13 -188 37v634c49 24 112 37 180 37c151 0 231 -72 231 -173c0 -86 -53 -139 -132 -159v-2c83 -16 158 -85 158 -178zM400 519c0 78 -44 124 -145 124c-32 0 -65 -5 -91 -15v-243h52c129 0 184 45 184 134zM422 185
c0 108 -68 154 -206 154h-52v-276c25 -11 59 -15 96 -15c91 0 162 38 162 137z" />
    <glyph glyph-name="C" unicode="C" horiz-adv-x="479" 
d="M447 28c-36 -24 -80 -38 -135 -38c-177 0 -258 170 -258 354s81 354 258 354c55 0 99 -14 135 -38l-23 -56c-25 16 -63 29 -101 29c-124 0 -173 -144 -173 -288c0 -143 50 -286 172 -286c38 0 76 13 101 29z" />
    <glyph glyph-name="D" unicode="D" horiz-adv-x="596" 
d="M542 344c0 -221 -106 -354 -287 -354c-62 0 -127 12 -178 37v634c51 25 116 37 178 37c181 0 287 -133 287 -354zM448 346c0 187 -63 291 -191 291c-33 0 -70 -6 -89 -14v-555c19 -8 56 -14 89 -14c128 0 191 105 191 292z" />
    <glyph glyph-name="E" unicode="E" horiz-adv-x="442" 
d="M396 0h-319v688h319v-62h-227v-240h204v-61h-204v-263h227v-62z" />
    <glyph glyph-name="F" unicode="F" horiz-adv-x="434" 
d="M394 626h-225v-240h203v-61h-203v-325h-92v688h317v-62z" />
    <glyph glyph-name="G" unicode="G" horiz-adv-x="594" 
d="M523 27c-42 -23 -114 -37 -176 -37c-163 0 -293 118 -293 354c0 214 115 354 301 354c63 0 115 -14 156 -38l-26 -57c-32 17 -76 30 -125 30c-135 0 -212 -113 -212 -293c0 -194 92 -285 196 -285c33 0 66 4 90 14v259h-127v58h216v-359z" />
    <glyph glyph-name="H" unicode="H" horiz-adv-x="597" 
d="M520 0h-92v325h-259v-325h-92v688h92v-302h259v302h92v-688z" />
    <glyph glyph-name="I" unicode="I" horiz-adv-x="252" 
d="M172 0h-92v688h92v-688z" />
    <glyph glyph-name="J" unicode="J" horiz-adv-x="252" 
d="M172 74c0 -152 -77 -264 -216 -294v65c77 30 124 109 124 224v619h92v-614z" />
    <glyph glyph-name="K" unicode="K" horiz-adv-x="540" 
d="M522 0h-110l-240 356h-2v-356h-90v688h90v-319h2l238 319h101l-255 -321z" />
    <glyph glyph-name="L" unicode="L" horiz-adv-x="411" 
d="M379 0h-299v688h92v-626h207v-62z" />
    <glyph glyph-name="M" unicode="M" horiz-adv-x="782" 
d="M729 0h-88l-52 515c-3 25 -4 52 -5 81h-2c-3 -16 -12 -56 -19 -81l-147 -515h-59l-145 515c-7 26 -11 42 -19 81h-2c-1 -34 -3 -59 -5 -81l-54 -515h-79l82 688h97l140 -496c8 -28 13 -52 18 -85h2c5 33 10 57 18 85l140 496h98z" />
    <glyph glyph-name="N" unicode="N" horiz-adv-x="647" 
d="M570 0h-80l-300 513c-12 20 -29 56 -37 74h-2c2 -36 3 -64 3 -85v-502h-77v688h96l284 -489c11 -19 23 -42 37 -72h2c-2 37 -3 55 -3 82v479h77v-688z" />
    <glyph glyph-name="O" unicode="O" horiz-adv-x="606" 
d="M552 344c0 -199 -76 -354 -249 -354s-249 155 -249 354s76 354 249 354s249 -155 249 -354zM459 346c0 154 -37 289 -156 289s-156 -135 -156 -289s37 -290 156 -290s156 136 156 290z" />
    <glyph glyph-name="P" unicode="P" horiz-adv-x="526" 
d="M485 490c0 -115 -76 -209 -251 -209c-24 0 -48 3 -67 6v-287h-90v661c45 22 108 37 172 37c162 0 236 -86 236 -208zM396 492c0 93 -43 151 -147 151c-30 0 -60 -6 -82 -14v-287c18 -3 43 -5 67 -5c120 0 162 68 162 155z" />
    <glyph glyph-name="Q" unicode="Q" horiz-adv-x="604" 
d="M550 344c0 -145 -39 -269 -129 -323l121 -151l-69 -57l-108 186c-19 -6 -40 -9 -63 -9c-173 0 -248 155 -248 354s75 354 248 354s248 -155 248 -354zM458 346c0 154 -37 289 -156 289s-156 -135 -156 -289s37 -290 156 -290s156 136 156 290z" />
    <glyph glyph-name="R" unicode="R" horiz-adv-x="546" 
d="M512 0h-105l-131 225c-26 45 -60 79 -108 91v-316h-89v661c46 22 109 37 170 37c152 0 240 -67 240 -195c0 -99 -79 -173 -192 -189v-2c27 -22 50 -51 69 -80zM400 501c0 95 -51 142 -149 142c-31 0 -61 -6 -83 -14v-274c18 -4 41 -5 63 -5c103 0 169 63 169 151z" />
    <glyph glyph-name="S" unicode="S" horiz-adv-x="484" 
d="M431 181c0 -110 -86 -191 -218 -191c-65 0 -127 13 -169 38l27 62c37 -22 86 -32 135 -32c85 0 131 51 131 118c0 170 -285 118 -285 343c0 108 83 179 206 179c57 0 110 -16 147 -38l-24 -56c-29 18 -75 31 -116 31c-77 0 -122 -40 -122 -110c0 -167 288 -112 288 -344z
" />
    <glyph glyph-name="T" unicode="T" horiz-adv-x="442" 
d="M412 626h-145v-626h-92v626h-145v62h382v-62z" />
    <glyph glyph-name="U" unicode="U" horiz-adv-x="585" 
d="M508 196c0 -117 -83 -207 -216 -207s-215 90 -215 207v492h92v-492c0 -85 59 -135 127 -135s127 50 127 135v492h85v-492z" />
    <glyph glyph-name="V" unicode="V" horiz-adv-x="531" 
d="M509 688l-203 -688h-80l-202 688h97l127 -484c9 -35 16 -68 21 -101h2c5 32 11 67 20 101l130 484h88z" />
    <glyph glyph-name="W" unicode="W" horiz-adv-x="818" 
d="M783 688l-161 -688h-81l-117 480c-7 30 -10 54 -13 79h-2c-3 -22 -7 -49 -14 -79l-116 -480h-82l-161 688h94l101 -497c5 -25 9 -55 12 -84h2c4 30 7 52 15 84l119 497h71l115 -497c5 -20 12 -65 14 -84h2c3 22 11 70 14 84l103 497h85z" />
    <glyph glyph-name="X" unicode="X" horiz-adv-x="526" 
d="M502 0h-103l-137 291h-2l-142 -291h-94l191 355l-173 333h98l123 -262h2l129 262h89l-172 -324z" />
    <glyph glyph-name="Y" unicode="Y" horiz-adv-x="501" 
d="M486 688l-189 -383v-305h-92v305l-188 383h99l138 -311h2l142 311h88z" />
    <glyph glyph-name="Z" unicode="Z" horiz-adv-x="444" 
d="M411 0h-387l263 626h-247v62h364l-260 -626h267v-62z" />
    <glyph glyph-name="bracketleft" unicode="[" horiz-adv-x="324" 
d="M278 -215h-200v1000h200v-51h-121v-897h121v-52z" />
    <glyph glyph-name="backslash" unicode="\" horiz-adv-x="446" 
d="M448 -188l-73 -27l-342 987l72 28z" />
    <glyph glyph-name="bracketright" unicode="]" horiz-adv-x="324" 
d="M246 -215h-200v52h121v897h-121v51h200v-1000z" />
    <glyph glyph-name="asciicircum" unicode="^" horiz-adv-x="482" 
d="M426 505l-39 -36l-146 151l-146 -151l-39 36l146 175c11 13 25 18 39 18s28 -5 39 -18z" />
    <glyph glyph-name="underscore" unicode="_" horiz-adv-x="500" 
d="M510 -127h-520v52h520v-52z" />
    <glyph glyph-name="grave" unicode="`" horiz-adv-x="242" 
d="M174 599h-51l-113 131c8 14 25 21 43 21c17 0 35 -5 48 -15z" />
    <glyph glyph-name="a" unicode="a" horiz-adv-x="499" 
d="M428 28c-43 -23 -107 -38 -179 -38c-129 0 -205 56 -205 163c0 130 128 180 302 197v33c0 74 -40 107 -115 107c-47 0 -98 -14 -135 -34l-21 54c45 23 106 39 164 39c117 0 189 -55 189 -175v-346zM346 59v245c-137 -16 -218 -54 -218 -149c0 -73 45 -114 129 -114
c34 0 68 7 89 18z" />
    <glyph glyph-name="b" unicode="b" horiz-adv-x="527" 
d="M477 280c0 -174 -85 -290 -246 -290c-64 0 -124 17 -160 38v757h87v-262c31 16 68 24 108 24c126 0 211 -104 211 -267zM389 275c0 135 -52 219 -145 219c-32 0 -61 -8 -86 -20v-414c20 -9 49 -14 76 -14c111 0 155 94 155 229z" />
    <glyph glyph-name="c" unicode="c" horiz-adv-x="415" 
d="M380 25c-29 -22 -71 -35 -121 -35c-130 0 -209 115 -209 280s80 279 209 279c50 0 92 -13 121 -35l-21 -52c-21 16 -53 27 -85 27c-86 0 -134 -93 -134 -217c0 -122 49 -218 134 -218c32 0 63 10 84 26z" />
    <glyph glyph-name="d" unicode="d" horiz-adv-x="527" 
d="M456 28c-36 -22 -99 -38 -170 -38c-155 0 -236 108 -236 269c0 159 80 286 236 286c27 0 54 -3 83 -11v251h87v-757zM369 63v420c-21 6 -45 10 -68 10c-122 0 -163 -107 -163 -225c0 -127 43 -220 153 -220c36 0 60 5 78 15z" />
    <glyph glyph-name="e" unicode="e" horiz-adv-x="524" 
d="M474 285l-339 -50c8 -111 64 -182 166 -182c49 0 101 14 131 32l23 -57c-38 -22 -100 -38 -163 -38c-154 0 -242 106 -242 281c0 169 81 278 218 278c129 0 206 -84 206 -254v-10zM389 323c-2 109 -39 171 -123 171c-89 0 -135 -84 -135 -206v-5z" />
    <glyph glyph-name="f" unicode="f" horiz-adv-x="310" 
d="M283 484h-94v-484h-88v484h-62v55h62v76c0 102 56 171 164 171c6 0 7 0 18 -1v-57h-6c-47 0 -88 -24 -88 -110v-79h94v-55z" />
    <glyph glyph-name="g" unicode="g" horiz-adv-x="527" 
d="M456 512v-520c0 -136 -76 -217 -208 -217c-64 0 -127 16 -166 38l26 58c31 -17 79 -31 125 -31c98 0 136 60 136 142v36c-24 -14 -60 -24 -107 -24c-130 0 -212 103 -212 267c0 173 86 288 247 288c62 0 122 -15 159 -37zM369 71v410c-20 10 -48 15 -77 15
c-108 0 -154 -91 -154 -232c0 -137 44 -215 147 -215c34 0 64 10 84 22z" />
    <glyph glyph-name="h" unicode="h" horiz-adv-x="534" 
d="M463 0h-88v380c0 57 -25 108 -110 108c-38 0 -75 -11 -106 -29v-459h-88v785h88v-274c33 20 76 33 124 33c136 0 180 -83 180 -161v-383z" />
    <glyph glyph-name="i" unicode="i" horiz-adv-x="242" 
d="M174 691c0 -27 -24 -49 -53 -49s-53 22 -53 49s24 49 53 49s53 -22 53 -49zM165 0h-88v539h88v-539z" />
    <glyph glyph-name="j" unicode="j" horiz-adv-x="246" 
d="M169 539v-467c0 -155 -56 -253 -187 -293v60c73 44 99 106 99 223v477h88zM178 691c0 -27 -24 -49 -53 -49s-53 22 -53 49s24 49 53 49s53 -22 53 -49z" />
    <glyph glyph-name="k" unicode="k" horiz-adv-x="489" 
d="M481 0h-105l-212 275h-2v-275h-86v785h86v-499h2l200 253h97l-216 -256z" />
    <glyph glyph-name="l" unicode="l" horiz-adv-x="242" 
d="M165 0h-88v785h88v-785z" />
    <glyph glyph-name="m" unicode="m" horiz-adv-x="834" 
d="M763 0h-87v376c0 71 -32 117 -111 117c-44 0 -79 -20 -105 -51v-442h-87v390c0 62 -34 103 -114 103c-41 0 -71 -5 -101 -18v-475h-87v511c52 23 112 38 185 38c81 0 127 -22 162 -63c36 39 91 63 155 63c132 0 190 -71 190 -174v-375z" />
    <glyph glyph-name="n" unicode="n" horiz-adv-x="534" 
d="M463 0h-88v372c0 81 -33 121 -121 121c-37 0 -67 -6 -95 -18v-475h-88v511c50 23 116 38 183 38c145 0 209 -63 209 -177v-372z" />
    <glyph glyph-name="o" unicode="o" horiz-adv-x="526" 
d="M476 270c0 -162 -67 -280 -213 -280s-213 118 -213 280c0 161 67 279 213 279s213 -118 213 -279zM388 272c0 120 -31 221 -125 221s-125 -101 -125 -221s31 -223 125 -223s125 103 125 223z" />
    <glyph glyph-name="p" unicode="p" horiz-adv-x="527" 
d="M477 279c0 -180 -93 -287 -235 -287c-31 0 -64 6 -84 13v-220h-87v727c46 24 105 37 167 37c154 0 239 -106 239 -270zM389 274c0 135 -41 221 -154 221c-27 0 -56 -4 -77 -14v-422c16 -6 39 -11 65 -11c110 0 166 83 166 226z" />
    <glyph glyph-name="q" unicode="q" horiz-adv-x="527" 
d="M456 -215h-87v231c-25 -14 -62 -24 -106 -24c-131 0 -213 105 -213 268c0 173 86 289 247 289c62 0 122 -15 159 -37v-727zM369 70v411c-20 10 -48 15 -77 15c-108 0 -155 -91 -155 -232c0 -136 46 -216 148 -216c34 0 64 10 84 22z" />
    <glyph glyph-name="r" unicode="r" horiz-adv-x="322" 
d="M302 546l-20 -66c-16 6 -35 9 -55 9c-24 0 -49 -4 -68 -14v-475h-88v511c46 23 107 38 184 38c20 0 42 -2 47 -3z" />
    <glyph glyph-name="s" unicode="s" horiz-adv-x="418" 
d="M370 149c0 -87 -74 -159 -184 -159c-53 0 -111 14 -145 37l25 56c32 -20 73 -31 111 -31c63 0 104 40 104 93c0 132 -228 79 -228 257c0 83 67 147 166 147c52 0 99 -13 135 -37l-23 -52c-28 18 -65 31 -100 31c-62 0 -91 -38 -91 -85c0 -123 230 -73 230 -257z" />
    <glyph glyph-name="t" unicode="t" horiz-adv-x="321" 
d="M283 4c-14 -6 -32 -9 -53 -9c-77 0 -129 47 -129 136v353h-62v55h62v124l88 27v-151h94v-55h-94v-353c0 -47 23 -75 67 -75c10 0 19 1 27 4v-56z" />
    <glyph glyph-name="u" unicode="u" horiz-adv-x="524" 
d="M453 30c-41 -22 -115 -40 -185 -40c-129 0 -197 55 -197 176v373h88v-376c0 -75 35 -113 110 -113c34 0 73 6 96 18v471h88v-509z" />
    <glyph glyph-name="v" unicode="v" horiz-adv-x="492" 
d="M465 539l-178 -539h-80l-178 539h94l112 -386c5 -17 9 -34 14 -70h2c5 36 9 53 14 70l117 386h83z" />
    <glyph glyph-name="w" unicode="w" horiz-adv-x="773" 
d="M740 539l-154 -539h-77l-109 387c-5 18 -9 38 -12 62h-2c-3 -26 -6 -44 -11 -62l-109 -387h-77l-154 539h91l94 -388c3 -11 8 -37 11 -66h2c3 25 10 56 13 66l109 388h75l106 -388c6 -22 9 -39 12 -66h2c4 29 7 45 12 66l96 388h82z" />
    <glyph glyph-name="x" unicode="x" horiz-adv-x="475" 
d="M450 0h-97l-117 220h-2l-119 -220h-90l167 279l-150 260h93l104 -198h2l107 198h84l-149 -254z" />
    <glyph glyph-name="y" unicode="y" horiz-adv-x="492" 
d="M465 539l-250 -754h-94l89 215l-181 539h94l113 -391c5 -17 11 -50 12 -67h2c2 17 10 51 15 67l117 391h83z" />
    <glyph glyph-name="z" unicode="z" horiz-adv-x="417" 
d="M378 0h-348l227 484h-210v55h323l-225 -484h233v-55z" />
    <glyph glyph-name="braceleft" unicode="{" horiz-adv-x="357" 
d="M311 -215h-18c-122 0 -182 68 -182 184v183c0 63 -15 101 -68 109v51c53 8 68 47 68 110v179c0 116 60 184 182 184h18v-51c-92 0 -121 -49 -121 -132v-178c0 -74 -18 -115 -73 -136v-2c55 -21 73 -62 73 -136v-182c0 -81 28 -131 121 -131v-52z" />
    <glyph glyph-name="bar" unicode="|" horiz-adv-x="228" 
d="M150 -215h-72v1000h72v-1000z" />
    <glyph glyph-name="braceright" unicode="}" horiz-adv-x="357" 
d="M314 261c-53 -8 -68 -46 -68 -109v-183c0 -116 -61 -184 -183 -184h-17v52c93 0 121 50 121 131v182c0 74 17 115 72 136v2c-55 21 -72 62 -72 136v178c0 83 -29 132 -121 132v51h17c122 0 183 -68 183 -184v-179c0 -63 15 -102 68 -110v-51z" />
    <glyph glyph-name="asciitilde" unicode="~" horiz-adv-x="482" 
d="M426 395c-11 -65 -46 -114 -110 -114c-61 0 -90 64 -148 64c-34 0 -53 -25 -62 -61l-50 18c11 65 46 114 110 114c61 0 90 -64 148 -64c34 0 53 26 62 62z" />
    <glyph glyph-name="uni00A0" unicode="&#xa0;" horiz-adv-x="276" 
 />
    <glyph glyph-name="exclamdown" unicode="&#xa1;" horiz-adv-x="278" 
d="M201 422c0 -31 -26 -57 -57 -57s-57 26 -57 57s26 57 57 57s57 -26 57 -57zM195 -215h-102l18 460h66z" />
    <glyph glyph-name="cent" unicode="&#xa2;" horiz-adv-x="434" 
d="M385 135c-20 -15 -56 -28 -104 -30v-105h-52v107c-103 15 -170 98 -170 238c0 134 69 220 170 236v107h52v-105c44 -1 79 -12 104 -29l-20 -49c-19 11 -44 21 -81 21c-96 0 -137 -75 -137 -179c0 -110 47 -182 136 -182c36 0 61 9 81 21z" />
    <glyph glyph-name="sterling" unicode="&#xa3;" 
d="M473 0h-415c56 66 107 154 107 241c0 32 -5 60 -11 85h-94v60h77c-11 35 -21 69 -21 111c0 126 81 201 209 201c55 0 109 -13 147 -37l-22 -57c-30 18 -70 28 -113 28c-86 0 -134 -56 -134 -141c0 -42 7 -73 15 -105h174v-60h-161c4 -24 7 -50 7 -83
c0 -54 -25 -126 -57 -170h292v-73z" />
    <glyph glyph-name="currency" unicode="&#xa4;" horiz-adv-x="554" 
d="M502 157l-40 -39l-70 70c-30 -31 -69 -50 -115 -50s-85 19 -115 50l-70 -70l-40 39l75 75c-17 32 -27 70 -27 112s10 79 27 111l-75 75l40 39l69 -70c30 31 70 50 116 50s86 -19 116 -50l69 70l40 -39l-75 -75c17 -32 27 -69 27 -111s-10 -80 -27 -112zM379 345
c0 89 -44 150 -102 150s-102 -61 -102 -150s44 -151 102 -151s102 62 102 151z" />
    <glyph glyph-name="yen" unicode="&#xa5;" horiz-adv-x="618" 
d="M558 688l-124 -239h101v-44h-123l-60 -115h183v-44h-183v-246h-86v246h-183v44h183l-60 115h-123v44h101l-124 239h96l155 -337h2l160 337h85z" />
    <glyph glyph-name="brokenbar" unicode="&#xa6;" horiz-adv-x="228" 
d="M150 390h-72v395h72v-395zM150 -215h-72v395h72v-395z" />
    <glyph glyph-name="section" unicode="&#xa7;" horiz-adv-x="532" 
d="M472 224c0 -72 -52 -126 -116 -162c39 -33 68 -72 68 -127c0 -91 -79 -159 -182 -159c-52 0 -109 14 -145 38l24 58c29 -20 72 -32 111 -32c63 0 104 41 104 95c0 133 -276 144 -276 341c0 72 50 127 114 164c-31 29 -53 63 -53 111c0 84 69 147 168 147
c49 0 96 -13 131 -37l-23 -55c-28 19 -64 32 -100 32c-63 0 -92 -40 -92 -87c0 -127 267 -138 267 -327zM396 216c0 94 -98 135 -177 189c-46 -28 -83 -66 -83 -119c0 -93 91 -137 171 -189c49 27 89 64 89 119z" />
    <glyph glyph-name="dieresis" unicode="&#xa8;" horiz-adv-x="242" 
d="M245 654c0 -24 -20 -44 -44 -44s-44 20 -44 44s20 44 44 44s44 -20 44 -44zM85 654c0 -24 -20 -44 -44 -44s-44 20 -44 44s20 44 44 44s44 -20 44 -44z" />
    <glyph glyph-name="copyright" unicode="&#xa9;" horiz-adv-x="822" 
d="M767 344c0 -196 -160 -355 -356 -355s-356 159 -356 355s160 355 356 355s356 -159 356 -355zM707 345c0 167 -131 306 -296 306s-296 -139 -296 -306s131 -306 296 -306s296 139 296 306zM505 165c-20 -13 -56 -21 -91 -21c-113 0 -174 92 -174 203
c0 108 62 203 174 203c41 0 70 -8 91 -21l-16 -37c-14 8 -38 14 -65 14c-86 0 -121 -79 -121 -159c0 -82 39 -157 121 -157c26 0 48 6 64 14z" />
    <glyph glyph-name="ordfeminine" unicode="&#xaa;" horiz-adv-x="378" 
d="M309 344c-30 -16 -76 -26 -124 -26c-88 0 -142 37 -142 111c0 89 88 123 203 134v21c0 47 -26 69 -75 69c-31 0 -65 -9 -91 -23l-16 41c29 15 69 27 115 27c80 0 130 -38 130 -121v-233zM246 369v158c-88 -10 -140 -34 -140 -96c0 -47 29 -74 84 -74c21 0 43 5 56 12z
" />
    <glyph glyph-name="guillemotleft" unicode="&#xab;" horiz-adv-x="482" 
d="M420 139l-52 -31l-130 226l130 226l52 -31l-113 -195zM234 139l-52 -31l-130 226l130 226l52 -31l-113 -195z" />
    <glyph glyph-name="logicalnot" unicode="&#xac;" horiz-adv-x="518" 
d="M456 138h-68v165h-326v62h394v-227z" />
    <glyph glyph-name="uni00AD" unicode="&#xad;" horiz-adv-x="344" 
d="M285 299h-226v70h226v-70z" />
    <glyph glyph-name="registered" unicode="&#xae;" horiz-adv-x="822" 
d="M767 344c0 -196 -160 -355 -356 -355s-356 159 -356 355s160 355 356 355s356 -159 356 -355zM707 345c0 167 -131 306 -296 306s-296 -139 -296 -306s131 -306 296 -306s296 139 296 306zM556 151h-68l-72 129c-14 26 -34 45 -60 52v-181h-58v383c27 14 66 22 103 22
c90 0 141 -40 141 -115c0 -57 -43 -99 -107 -109v-2c16 -13 28 -30 39 -47zM484 440c0 54 -28 80 -83 80c-17 0 -31 -2 -45 -7v-156c10 -2 23 -2 35 -2c57 0 93 36 93 85z" />
    <glyph glyph-name="macron" unicode="&#xaf;" horiz-adv-x="242" 
d="M246 616h-250v53h250v-53z" />
    <glyph glyph-name="degree" unicode="&#xb0;" horiz-adv-x="426" 
d="M362 549c0 -82 -67 -149 -149 -149s-149 67 -149 149s67 149 149 149s149 -67 149 -149zM310 549c0 55 -43 100 -97 100s-97 -45 -97 -100s43 -99 97 -99s97 44 97 99z" />
    <glyph glyph-name="plusminus" unicode="&#xb1;" horiz-adv-x="518" 
d="M456 318h-163v-162h-68v162h-163v59h163v162h68v-162h163v-59zM456 0h-394v59h394v-59z" />
    <glyph glyph-name="twosuperior" unicode="&#xb2;" horiz-adv-x="338" 
d="M282 476h-261l152 214c27 38 34 63 34 88c0 46 -27 69 -80 69c-26 0 -56 -7 -76 -17l-17 42c29 14 67 23 107 23c94 0 136 -45 136 -111c0 -31 -17 -68 -54 -117l-104 -138h163v-53z" />
    <glyph glyph-name="threesuperior" unicode="&#xb3;" horiz-adv-x="338" 
d="M288 596c0 -77 -62 -127 -146 -127c-41 0 -84 8 -112 22l18 44c21 -11 55 -18 83 -18c54 0 88 30 88 80c0 58 -48 80 -106 80h-12v37c62 5 104 33 104 77c0 41 -30 57 -69 57c-29 0 -56 -6 -79 -16l-17 41c30 14 68 22 106 22c71 0 125 -34 125 -95
c0 -50 -40 -79 -75 -92v-2c44 -12 92 -42 92 -110z" />
    <glyph glyph-name="acute" unicode="&#xb4;" horiz-adv-x="242" 
d="M232 730l-113 -131h-51l73 137c13 10 31 15 48 15c18 0 35 -7 43 -21z" />
    <glyph glyph-name="mu" unicode="&#xb5;" horiz-adv-x="527" 
d="M456 42c-46 -32 -110 -52 -175 -52c-41 0 -86 9 -119 29v-234h-88v754h88v-458c28 -20 68 -32 107 -32c37 0 74 12 99 29v461h88v-497z" />
    <glyph glyph-name="paragraph" unicode="&#xb6;" horiz-adv-x="604" 
d="M526 -215h-80v838c-36 11 -80 17 -120 17c-18 0 -31 -1 -53 -4v-851h-80v508c-98 26 -148 106 -148 193c0 157 140 212 281 212c73 0 146 -14 200 -37v-876z" />
    <glyph glyph-name="periodcentered" unicode="&#xb7;" horiz-adv-x="250" 
d="M182 333c0 -31 -26 -57 -57 -57s-57 26 -57 57s26 57 57 57s57 -26 57 -57z" />
    <glyph glyph-name="cedilla" unicode="&#xb8;" horiz-adv-x="242" 
d="M244 -124c0 -51 -63 -78 -168 -78c-36 0 -65 4 -74 5l18 36c19 -2 29 -3 48 -3c60 0 107 13 107 40c0 23 -23 32 -71 32c-24 0 -37 -1 -53 -2l16 34c12 1 31 3 62 3c83 0 115 -29 115 -67z" />
    <glyph glyph-name="onesuperior" unicode="&#xb9;" horiz-adv-x="338" 
d="M238 476h-69v336c-24 -13 -70 -23 -104 -26l-9 39c60 8 111 29 134 63h48v-412z" />
    <glyph glyph-name="ordmasculine" unicode="&#xba;" horiz-adv-x="392" 
d="M343 508c0 -100 -45 -190 -147 -190s-147 90 -147 190s45 190 147 190s147 -90 147 -190zM277 509c0 73 -17 143 -81 143s-81 -70 -81 -143s17 -143 81 -143s81 70 81 143z" />
    <glyph glyph-name="guillemotright" unicode="&#xbb;" horiz-adv-x="482" 
d="M430 334l-130 -226l-52 31l113 195l-113 195l52 31zM244 334l-130 -226l-52 31l113 195l-113 195l52 31z" />
    <glyph glyph-name="onequarter" unicode="&#xbc;" horiz-adv-x="806" 
d="M748 91h-35v-91h-61v91h-172v40l170 281h63v-282h35v-39zM596 677l-315 -689l-49 23l315 689zM238 276h-69v336c-24 -13 -70 -23 -104 -26l-9 39c60 8 111 29 134 63h48v-412zM655 351h-2c-4 -9 -16 -36 -29 -58l-96 -163h125v159c0 21 1 44 2 62z" />
    <glyph glyph-name="onehalf" unicode="&#xbd;" horiz-adv-x="806" 
d="M750 0h-261l152 214c27 38 34 63 34 88c0 46 -27 69 -80 69c-26 0 -55 -7 -75 -17l-17 42c29 14 67 23 106 23c94 0 136 -45 136 -111c0 -31 -16 -68 -53 -117l-105 -138h163v-53zM556 677l-314 -689l-49 23l314 689zM238 276h-69v336c-24 -13 -70 -23 -104 -26l-9 39
c60 8 111 29 134 63h48v-412z" />
    <glyph glyph-name="threequarters" unicode="&#xbe;" horiz-adv-x="806" 
d="M748 91h-35v-91h-61v91h-172v40l170 281h63v-282h35v-39zM603 677l-315 -689l-49 23l315 689zM288 396c0 -77 -62 -127 -146 -127c-41 0 -84 8 -112 22l18 44c21 -11 55 -18 83 -18c54 0 88 30 88 80c0 58 -48 80 -106 80h-12v37c62 5 104 33 104 77c0 41 -30 57 -69 57
c-29 0 -56 -6 -79 -16l-17 41c30 14 68 22 106 22c71 0 125 -34 125 -95c0 -50 -40 -79 -75 -92v-2c44 -12 92 -42 92 -110zM655 351h-2c-9 -21 -17 -37 -29 -58l-96 -163h125v159c0 21 1 44 2 62z" />
    <glyph glyph-name="questiondown" unicode="&#xbf;" horiz-adv-x="406" 
d="M295 422c0 -32 -25 -57 -57 -57s-58 25 -58 57s26 57 58 57s57 -25 57 -57zM388 -188c-36 -22 -94 -37 -144 -37c-118 0 -194 62 -194 161c0 88 87 144 146 161l8 148h67l9 -175c-59 -14 -139 -53 -139 -129c0 -60 36 -103 117 -103c35 0 78 10 105 26z" />
    <glyph glyph-name="Agrave" unicode="&#xc0;" horiz-adv-x="590" 
d="M571 0h-97l-64 208h-239l-65 -208h-87l232 688h87zM393 263l-80 260c-8 25 -16 63 -20 89h-2c-4 -23 -12 -60 -21 -89l-81 -260h204zM327 747h-51l-113 131c8 14 25 21 43 21c17 0 35 -5 48 -15z" />
    <glyph glyph-name="Aacute" unicode="&#xc1;" horiz-adv-x="590" 
d="M571 0h-97l-64 208h-239l-65 -208h-87l232 688h87zM393 263l-80 260c-8 25 -16 63 -20 89h-2c-4 -23 -12 -60 -21 -89l-81 -260h204zM426 878l-113 -131h-51l73 137c13 10 31 15 48 15c18 0 35 -7 43 -21z" />
    <glyph glyph-name="Acircumflex" unicode="&#xc2;" horiz-adv-x="590" 
d="M571 0h-97l-64 208h-239l-65 -208h-87l232 688h87zM393 263l-80 260c-8 25 -16 63 -20 89h-2c-4 -23 -12 -60 -21 -89l-81 -260h204zM421 768l-30 -26l-97 82l-97 -82l-30 26l93 100c9 10 23 15 34 15s25 -5 34 -15z" />
    <glyph glyph-name="Atilde" unicode="&#xc3;" horiz-adv-x="590" 
d="M571 0h-97l-64 208h-239l-65 -208h-87l232 688h87zM393 263l-80 260c-8 25 -16 63 -20 89h-2c-4 -23 -12 -60 -21 -89l-81 -260h204zM423 834c-8 -46 -30 -81 -77 -81c-44 0 -63 41 -101 41c-23 0 -35 -16 -40 -39l-40 13c8 46 30 80 77 80c44 0 64 -41 102 -41
c23 0 34 17 39 40z" />
    <glyph glyph-name="Adieresis" unicode="&#xc4;" horiz-adv-x="590" 
d="M571 0h-97l-64 208h-239l-65 -208h-87l232 688h87zM393 263l-80 260c-8 25 -16 63 -20 89h-2c-4 -23 -12 -60 -21 -89l-81 -260h204zM259 803c0 -24 -20 -44 -44 -44s-44 20 -44 44s20 44 44 44s44 -20 44 -44zM419 803c0 -24 -20 -44 -44 -44s-44 20 -44 44s20 44 44 44
s44 -20 44 -44z" />
    <glyph glyph-name="Aring" unicode="&#xc5;" horiz-adv-x="590" 
d="M571 0h-97l-64 208h-239l-65 -208h-87l232 688h87zM393 263l-80 260c-8 25 -16 63 -20 89h-2c-4 -23 -12 -60 -21 -89l-81 -260h204zM375 824c0 -45 -36 -81 -81 -81s-81 36 -81 81s36 81 81 81s81 -36 81 -81zM339 824c0 25 -20 46 -45 46s-45 -21 -45 -46
s20 -46 45 -46s45 21 45 46z" />
    <glyph glyph-name="AE" unicode="&#xc6;" horiz-adv-x="752" 
d="M726 0h-264l-46 208h-241l-83 -208h-88l290 688h371v-62h-264l59 -240h204v-61h-190l65 -263h187v-62zM404 263l-58 261c-7 32 -11 60 -15 88h-2c-9 -31 -17 -57 -29 -88l-103 -261h207z" />
    <glyph glyph-name="Ccedilla" unicode="&#xc7;" horiz-adv-x="479" 
d="M447 28c-36 -24 -80 -38 -135 -38c-177 0 -258 170 -258 354s81 354 258 354c55 0 99 -14 135 -38l-23 -56c-25 16 -63 29 -101 29c-124 0 -173 -144 -173 -288c0 -143 50 -286 172 -286c38 0 76 13 101 29zM374 -124c0 -51 -63 -78 -168 -78c-36 0 -65 4 -74 5l18 36
c19 -2 29 -3 48 -3c60 0 107 13 107 40c0 23 -23 32 -71 32c-24 0 -37 -1 -53 -2l16 34c12 1 31 3 62 3c83 0 115 -29 115 -67z" />
    <glyph glyph-name="Egrave" unicode="&#xc8;" horiz-adv-x="442" 
d="M396 0h-319v688h319v-62h-227v-240h204v-61h-204v-263h227v-62zM281 747h-51l-113 131c8 14 25 21 43 21c17 0 35 -5 48 -15z" />
    <glyph glyph-name="Eacute" unicode="&#xc9;" horiz-adv-x="442" 
d="M396 0h-319v688h319v-62h-227v-240h204v-61h-204v-263h227v-62zM357 878l-113 -131h-51l73 137c13 10 31 15 48 15c18 0 35 -7 43 -21z" />
    <glyph glyph-name="Ecircumflex" unicode="&#xca;" horiz-adv-x="442" 
d="M396 0h-319v688h319v-62h-227v-240h204v-61h-204v-263h227v-62zM358 768l-30 -26l-97 82l-97 -82l-30 26l93 100c9 10 23 15 34 15s25 -5 34 -15z" />
    <glyph glyph-name="Edieresis" unicode="&#xcb;" horiz-adv-x="442" 
d="M396 0h-319v688h319v-62h-227v-240h204v-61h-204v-263h227v-62zM198 803c0 -24 -20 -44 -44 -44s-44 20 -44 44s20 44 44 44s44 -20 44 -44zM358 803c0 -24 -20 -44 -44 -44s-44 20 -44 44s20 44 44 44s44 -20 44 -44z" />
    <glyph glyph-name="Igrave" unicode="&#xcc;" horiz-adv-x="252" 
d="M172 0h-92v688h92v-688zM167 747h-51l-113 131c8 14 25 21 43 21c17 0 35 -5 48 -15z" />
    <glyph glyph-name="Iacute" unicode="&#xcd;" horiz-adv-x="252" 
d="M172 0h-92v688h92v-688zM249 878l-113 -131h-51l73 137c13 10 31 15 48 15c18 0 35 -7 43 -21z" />
    <glyph glyph-name="Icircumflex" unicode="&#xce;" horiz-adv-x="252" 
d="M171 0h-92v688h92v-688zM253 769l-30 -26l-97 82l-97 -82l-30 26l93 100c9 10 23 15 34 15s25 -5 34 -15z" />
    <glyph glyph-name="Idieresis" unicode="&#xcf;" horiz-adv-x="252" 
d="M172 0h-92v688h92v-688zM90 803c0 -24 -20 -44 -44 -44s-44 20 -44 44s20 44 44 44s44 -20 44 -44zM250 803c0 -24 -20 -44 -44 -44s-44 20 -44 44s20 44 44 44s44 -20 44 -44z" />
    <glyph glyph-name="Eth" unicode="&#xd0;" horiz-adv-x="604" 
d="M550 351c0 -221 -95 -361 -282 -361c-70 0 -138 14 -183 37v306h-64v55h64v272c45 23 112 38 181 38c180 0 284 -127 284 -347zM457 352c0 189 -64 287 -195 287c-33 0 -63 -4 -86 -13v-238h116v-55h-116v-265c19 -8 52 -14 88 -14c139 0 193 107 193 298z" />
    <glyph glyph-name="Ntilde" unicode="&#xd1;" horiz-adv-x="647" 
d="M570 0h-80l-300 513c-12 20 -29 56 -37 74h-2c2 -36 3 -64 3 -85v-502h-77v688h96l284 -489c11 -19 23 -42 37 -72h2c-2 37 -3 55 -3 82v479h77v-688zM454 834c-8 -46 -30 -81 -77 -81c-44 0 -63 41 -101 41c-23 0 -35 -16 -40 -39l-40 13c8 46 30 80 77 80
c44 0 64 -41 102 -41c23 0 34 17 39 40z" />
    <glyph glyph-name="Ograve" unicode="&#xd2;" horiz-adv-x="606" 
d="M552 344c0 -199 -76 -354 -249 -354s-249 155 -249 354s76 354 249 354s249 -155 249 -354zM459 346c0 154 -37 289 -156 289s-156 -135 -156 -289s37 -290 156 -290s156 136 156 290zM345 748h-51l-113 131c8 14 25 21 43 21c17 0 35 -5 48 -15z" />
    <glyph glyph-name="Oacute" unicode="&#xd3;" horiz-adv-x="606" 
d="M552 344c0 -199 -76 -354 -249 -354s-249 155 -249 354s76 354 249 354s249 -155 249 -354zM459 346c0 154 -37 289 -156 289s-156 -135 -156 -289s37 -290 156 -290s156 136 156 290zM426 879l-113 -131h-51l73 137c13 10 31 15 48 15c18 0 35 -7 43 -21z" />
    <glyph glyph-name="Ocircumflex" unicode="&#xd4;" horiz-adv-x="606" 
d="M552 344c0 -199 -76 -354 -249 -354s-249 155 -249 354s76 354 249 354s249 -155 249 -354zM459 346c0 154 -37 289 -156 289s-156 -135 -156 -289s37 -290 156 -290s156 136 156 290zM430 768l-30 -26l-97 82l-97 -82l-30 26l93 100c9 10 23 15 34 15s25 -5 34 -15z" />
    <glyph glyph-name="Otilde" unicode="&#xd5;" horiz-adv-x="606" 
d="M552 344c0 -199 -76 -354 -249 -354s-249 155 -249 354s76 354 249 354s249 -155 249 -354zM459 346c0 154 -37 289 -156 289s-156 -135 -156 -289s37 -290 156 -290s156 136 156 290zM432 834c-8 -46 -30 -81 -77 -81c-44 0 -63 41 -101 41c-23 0 -35 -16 -40 -39
l-40 13c8 46 30 80 77 80c44 0 64 -41 102 -41c23 0 34 17 39 40z" />
    <glyph glyph-name="Odieresis" unicode="&#xd6;" horiz-adv-x="606" 
d="M552 344c0 -199 -76 -354 -249 -354s-249 155 -249 354s76 354 249 354s249 -155 249 -354zM459 346c0 154 -37 289 -156 289s-156 -135 -156 -289s37 -290 156 -290s156 136 156 290zM268 803c0 -24 -20 -44 -44 -44s-44 20 -44 44s20 44 44 44s44 -20 44 -44zM428 803
c0 -24 -20 -44 -44 -44s-44 20 -44 44s20 44 44 44s44 -20 44 -44z" />
    <glyph glyph-name="multiply" unicode="&#xd7;" horiz-adv-x="518" 
d="M456 183l-44 -43l-153 153l-153 -153l-44 43l153 153l-153 154l44 43l153 -153l153 153l44 -43l-153 -154z" />
    <glyph glyph-name="Oslash" unicode="&#xd8;" horiz-adv-x="606" 
d="M552 344c0 -199 -76 -354 -249 -354c-66 0 -118 23 -157 62l-56 -92l-31 20l62 102c-45 64 -67 157 -67 262c0 199 76 354 249 354c67 0 118 -22 157 -62l57 92l31 -20l-63 -102c45 -64 67 -157 67 -262zM420 570c-25 44 -63 70 -117 70c-122 0 -160 -135 -160 -293
c0 -70 7 -136 26 -187zM463 347c0 68 -7 132 -25 182l-250 -409c25 -42 62 -67 115 -67c122 0 160 136 160 294z" />
    <glyph glyph-name="Ugrave" unicode="&#xd9;" horiz-adv-x="585" 
d="M508 196c0 -117 -83 -207 -216 -207s-215 90 -215 207v492h92v-492c0 -85 59 -135 127 -135s127 50 127 135v492h85v-492zM346 747h-51l-113 131c8 14 25 21 43 21c17 0 35 -5 48 -15z" />
    <glyph glyph-name="Uacute" unicode="&#xda;" horiz-adv-x="585" 
d="M508 196c0 -117 -83 -207 -216 -207s-215 90 -215 207v492h92v-492c0 -85 59 -135 127 -135s127 50 127 135v492h85v-492zM410 878l-113 -131h-51l73 137c13 10 31 15 48 15c18 0 35 -7 43 -21z" />
    <glyph glyph-name="Ucircumflex" unicode="&#xdb;" horiz-adv-x="585" 
d="M508 196c0 -117 -83 -207 -216 -207s-215 90 -215 207v492h92v-492c0 -85 59 -135 127 -135s127 50 127 135v492h85v-492zM422 768l-30 -26l-97 82l-97 -82l-30 26l93 100c9 10 23 15 34 15s25 -5 34 -15z" />
    <glyph glyph-name="Udieresis" unicode="&#xdc;" horiz-adv-x="585" 
d="M508 196c0 -117 -83 -207 -216 -207s-215 90 -215 207v492h92v-492c0 -85 59 -135 127 -135s127 50 127 135v492h85v-492zM260 803c0 -24 -20 -44 -44 -44s-44 20 -44 44s20 44 44 44s44 -20 44 -44zM420 803c0 -24 -20 -44 -44 -44s-44 20 -44 44s20 44 44 44
s44 -20 44 -44z" />
    <glyph glyph-name="Yacute" unicode="&#xdd;" horiz-adv-x="501" 
d="M486 688l-189 -383v-305h-92v305l-188 383h99l138 -311h2l142 311h88zM380 878l-113 -131h-51l73 137c13 10 31 15 48 15c18 0 35 -7 43 -21z" />
    <glyph glyph-name="Thorn" unicode="&#xde;" horiz-adv-x="533" 
d="M484 372c0 -115 -75 -209 -250 -209c-24 0 -47 2 -67 4v-167h-90v688h90v-120c24 7 53 12 82 12c158 0 235 -81 235 -208zM395 374c0 93 -41 151 -146 151c-33 0 -61 -5 -82 -13v-289c19 -2 43 -4 67 -4c120 0 161 68 161 155z" />
    <glyph glyph-name="germandbls" unicode="&#xdf;" horiz-adv-x="566" 
d="M520 147c0 -94 -74 -155 -177 -155c-35 0 -82 13 -110 29l18 57c21 -12 57 -23 83 -23c62 0 98 35 98 92c0 105 -169 119 -169 253c0 73 52 120 126 134c1 12 3 27 3 57c0 75 -31 145 -110 145c-91 0 -122 -96 -122 -200v-536h-87v531c0 146 63 264 208 264
c130 0 197 -94 197 -203c0 -27 -5 -67 -13 -90c-75 -5 -119 -37 -119 -98c0 -95 174 -114 174 -257z" />
    <glyph glyph-name="agrave" unicode="&#xe0;" horiz-adv-x="499" 
d="M428 28c-43 -23 -107 -38 -179 -38c-129 0 -205 56 -205 163c0 130 128 180 302 197v33c0 74 -40 107 -115 107c-47 0 -98 -14 -135 -34l-21 54c45 23 106 39 164 39c117 0 189 -55 189 -175v-346zM346 59v245c-137 -16 -218 -54 -218 -149c0 -73 45 -114 129 -114
c34 0 68 7 89 18zM302 599h-51l-113 131c8 14 25 21 43 21c17 0 35 -5 48 -15z" />
    <glyph glyph-name="aacute" unicode="&#xe1;" horiz-adv-x="499" 
d="M428 28c-43 -23 -107 -38 -179 -38c-129 0 -205 56 -205 163c0 130 128 180 302 197v33c0 74 -40 107 -115 107c-47 0 -98 -14 -135 -34l-21 54c45 23 106 39 164 39c117 0 189 -55 189 -175v-346zM346 59v245c-137 -16 -218 -54 -218 -149c0 -73 45 -114 129 -114
c34 0 68 7 89 18zM381 730l-113 -131h-51l73 137c13 10 31 15 48 15c18 0 35 -7 43 -21z" />
    <glyph glyph-name="acircumflex" unicode="&#xe2;" horiz-adv-x="499" 
d="M428 28c-43 -23 -107 -38 -179 -38c-129 0 -205 56 -205 163c0 130 128 180 302 197v33c0 74 -40 107 -115 107c-47 0 -98 -14 -135 -34l-21 54c45 23 106 39 164 39c117 0 189 -55 189 -175v-346zM346 59v245c-137 -16 -218 -54 -218 -149c0 -73 45 -114 129 -114
c34 0 68 7 89 18zM378 619l-30 -26l-97 82l-97 -82l-30 26l93 100c9 10 23 15 34 15s25 -5 34 -15z" />
    <glyph glyph-name="atilde" unicode="&#xe3;" horiz-adv-x="499" 
d="M428 28c-43 -23 -107 -38 -179 -38c-129 0 -205 56 -205 163c0 130 128 180 302 197v33c0 74 -40 107 -115 107c-47 0 -98 -14 -135 -34l-21 54c45 23 106 39 164 39c117 0 189 -55 189 -175v-346zM346 59v245c-137 -16 -218 -54 -218 -149c0 -73 45 -114 129 -114
c34 0 68 7 89 18zM377 685c-8 -46 -30 -81 -77 -81c-44 0 -63 41 -101 41c-23 0 -35 -16 -40 -39l-40 13c8 46 30 80 77 80c44 0 64 -41 102 -41c23 0 34 17 39 40z" />
    <glyph glyph-name="adieresis" unicode="&#xe4;" horiz-adv-x="499" 
d="M428 28c-43 -23 -107 -38 -179 -38c-129 0 -205 56 -205 163c0 130 128 180 302 197v33c0 74 -40 107 -115 107c-47 0 -98 -14 -135 -34l-21 54c45 23 106 39 164 39c117 0 189 -55 189 -175v-346zM346 59v245c-137 -16 -218 -54 -218 -149c0 -73 45 -114 129 -114
c34 0 68 7 89 18zM219 654c0 -24 -20 -44 -44 -44s-44 20 -44 44s20 44 44 44s44 -20 44 -44zM379 654c0 -24 -20 -44 -44 -44s-44 20 -44 44s20 44 44 44s44 -20 44 -44z" />
    <glyph glyph-name="aring" unicode="&#xe5;" horiz-adv-x="499" 
d="M428 28c-43 -23 -107 -38 -179 -38c-129 0 -205 56 -205 163c0 130 128 180 302 197v33c0 74 -40 107 -115 107c-47 0 -98 -14 -135 -34l-21 54c45 23 106 39 164 39c117 0 189 -55 189 -175v-346zM346 59v245c-137 -16 -218 -54 -218 -149c0 -73 45 -114 129 -114
c34 0 68 7 89 18zM335 679c0 -45 -36 -81 -81 -81s-81 36 -81 81s36 81 81 81s81 -36 81 -81zM299 679c0 25 -20 46 -45 46s-45 -21 -45 -46s20 -46 45 -46s45 21 45 46z" />
    <glyph glyph-name="ae" unicode="&#xe6;" horiz-adv-x="805" 
d="M755 285l-338 -50c8 -110 61 -182 166 -182c50 0 101 15 130 32l23 -57c-36 -21 -97 -38 -160 -38c-80 0 -145 35 -182 99c-30 -65 -84 -99 -162 -99c-114 0 -188 60 -188 163c0 129 126 180 300 197v33c0 81 -49 107 -117 107c-52 0 -101 -18 -131 -34l-21 54
c31 16 92 39 163 39c68 0 130 -26 154 -95c35 68 100 95 159 95c128 0 204 -83 204 -257v-7zM671 323c-2 109 -39 171 -123 171c-76 0 -135 -64 -135 -206v-5zM344 155v149c-135 -15 -217 -52 -217 -149c0 -66 37 -114 110 -114c58 0 107 49 107 114z" />
    <glyph glyph-name="ccedilla" unicode="&#xe7;" horiz-adv-x="415" 
d="M380 25c-29 -22 -71 -35 -121 -35c-130 0 -209 115 -209 280s80 279 209 279c50 0 92 -13 121 -35l-21 -52c-21 16 -53 27 -85 27c-86 0 -134 -93 -134 -217c0 -122 49 -218 134 -218c32 0 63 10 84 26zM328 -124c0 -51 -63 -78 -168 -78c-36 0 -65 4 -74 5l18 36
c19 -2 29 -3 48 -3c60 0 107 13 107 40c0 23 -23 32 -71 32c-24 0 -37 -1 -53 -2l16 34c12 1 31 3 62 3c83 0 115 -29 115 -67z" />
    <glyph glyph-name="egrave" unicode="&#xe8;" horiz-adv-x="524" 
d="M474 285l-339 -50c8 -111 64 -182 166 -182c49 0 101 14 131 32l23 -57c-38 -22 -100 -38 -163 -38c-154 0 -242 106 -242 281c0 169 81 278 218 278c129 0 206 -84 206 -254v-10zM389 323c-2 109 -39 171 -123 171c-89 0 -135 -84 -135 -206v-5zM310 599h-51l-113 131
c8 14 25 21 43 21c17 0 35 -5 48 -15z" />
    <glyph glyph-name="eacute" unicode="&#xe9;" horiz-adv-x="524" 
d="M474 285l-339 -50c8 -111 64 -182 166 -182c49 0 101 14 131 32l23 -57c-38 -22 -100 -38 -163 -38c-154 0 -242 106 -242 281c0 169 81 278 218 278c129 0 206 -84 206 -254v-10zM389 323c-2 109 -39 171 -123 171c-89 0 -135 -84 -135 -206v-5zM391 730l-113 -131h-51
l73 137c13 10 31 15 48 15c18 0 35 -7 43 -21z" />
    <glyph glyph-name="ecircumflex" unicode="&#xea;" horiz-adv-x="524" 
d="M474 285l-339 -50c8 -111 64 -182 166 -182c49 0 101 14 131 32l23 -57c-38 -22 -100 -38 -163 -38c-154 0 -242 106 -242 281c0 169 81 278 218 278c129 0 206 -84 206 -254v-10zM389 323c-2 109 -39 171 -123 171c-89 0 -135 -84 -135 -206v-5zM396 619l-30 -26l-97 82
l-97 -82l-30 26l93 100c9 10 23 15 34 15s25 -5 34 -15z" />
    <glyph glyph-name="edieresis" unicode="&#xeb;" horiz-adv-x="524" 
d="M474 285l-339 -50c8 -111 64 -182 166 -182c49 0 101 14 131 32l23 -57c-38 -22 -100 -38 -163 -38c-154 0 -242 106 -242 281c0 169 81 278 218 278c129 0 206 -84 206 -254v-10zM389 323c-2 109 -39 171 -123 171c-89 0 -135 -84 -135 -206v-5zM233 654
c0 -24 -20 -44 -44 -44s-44 20 -44 44s20 44 44 44s44 -20 44 -44zM393 654c0 -24 -20 -44 -44 -44s-44 20 -44 44s20 44 44 44s44 -20 44 -44z" />
    <glyph glyph-name="igrave" unicode="&#xec;" horiz-adv-x="242" 
d="M165 0h-88v539h88v-539zM170 598h-51l-113 131c8 14 25 21 43 21c17 0 35 -5 48 -15z" />
    <glyph glyph-name="iacute" unicode="&#xed;" horiz-adv-x="242" 
d="M165 0h-88v539h88v-539zM236 729l-113 -131h-51l73 137c13 10 31 15 48 15c18 0 35 -7 43 -21z" />
    <glyph glyph-name="icircumflex" unicode="&#xee;" horiz-adv-x="242" 
d="M165 0h-88v539h88v-539zM248 619l-30 -26l-97 82l-97 -82l-30 26l93 100c9 10 23 15 34 15s25 -5 34 -15z" />
    <glyph glyph-name="idieresis" unicode="&#xef;" horiz-adv-x="242" 
d="M165 0h-88v539h88v-539zM85 654c0 -24 -20 -44 -44 -44s-44 20 -44 44s20 44 44 44s44 -20 44 -44zM245 654c0 -24 -20 -44 -44 -44s-44 20 -44 44s20 44 44 44s44 -20 44 -44z" />
    <glyph glyph-name="eth" unicode="&#xf0;" horiz-adv-x="526" 
d="M476 269c0 -159 -63 -279 -214 -279c-137 0 -212 104 -212 272c0 154 82 275 221 275c23 0 44 -3 59 -8c-20 41 -47 80 -79 116l-102 -62l-26 38l93 60l-74 74l56 43l80 -81l93 58l29 -42l-84 -53c104 -116 160 -256 160 -411zM388 269c0 74 -12 143 -36 207
c-15 6 -37 12 -65 12c-103 0 -149 -102 -149 -226c0 -122 37 -213 125 -213c98 0 125 109 125 220z" />
    <glyph glyph-name="ntilde" unicode="&#xf1;" horiz-adv-x="534" 
d="M463 0h-88v372c0 81 -33 121 -121 121c-37 0 -67 -6 -95 -18v-475h-88v511c50 23 116 38 183 38c145 0 209 -63 209 -177v-372zM391 685c-8 -46 -30 -81 -77 -81c-44 0 -63 41 -101 41c-23 0 -35 -16 -40 -39l-40 13c8 46 30 80 77 80c44 0 64 -41 102 -41
c23 0 34 17 39 40z" />
    <glyph glyph-name="ograve" unicode="&#xf2;" horiz-adv-x="526" 
d="M476 270c0 -162 -67 -280 -213 -280s-213 118 -213 280c0 161 67 279 213 279s213 -118 213 -279zM388 272c0 120 -31 221 -125 221s-125 -101 -125 -221s31 -223 125 -223s125 103 125 223zM303 599h-51l-113 131c8 14 25 21 43 21c17 0 35 -5 48 -15z" />
    <glyph glyph-name="oacute" unicode="&#xf3;" horiz-adv-x="526" 
d="M476 270c0 -162 -67 -280 -213 -280s-213 118 -213 280c0 161 67 279 213 279s213 -118 213 -279zM388 272c0 120 -31 221 -125 221s-125 -101 -125 -221s31 -223 125 -223s125 103 125 223zM387 730l-113 -131h-51l73 137c13 10 31 15 48 15c18 0 35 -7 43 -21z" />
    <glyph glyph-name="ocircumflex" unicode="&#xf4;" horiz-adv-x="526" 
d="M476 270c0 -162 -67 -280 -213 -280s-213 118 -213 280c0 161 67 279 213 279s213 -118 213 -279zM388 272c0 120 -31 221 -125 221s-125 -101 -125 -221s31 -223 125 -223s125 103 125 223zM390 619l-30 -26l-97 82l-97 -82l-30 26l93 100c9 10 23 15 34 15
s25 -5 34 -15z" />
    <glyph glyph-name="otilde" unicode="&#xf5;" horiz-adv-x="526" 
d="M476 270c0 -162 -67 -280 -213 -280s-213 118 -213 280c0 161 67 279 213 279s213 -118 213 -279zM388 272c0 120 -31 221 -125 221s-125 -101 -125 -221s31 -223 125 -223s125 103 125 223zM392 685c-8 -46 -30 -81 -77 -81c-44 0 -63 41 -101 41c-23 0 -35 -16 -40 -39
l-40 13c8 46 30 80 77 80c44 0 64 -41 102 -41c23 0 34 17 39 40z" />
    <glyph glyph-name="odieresis" unicode="&#xf6;" horiz-adv-x="526" 
d="M476 270c0 -162 -67 -280 -213 -280s-213 118 -213 280c0 161 67 279 213 279s213 -118 213 -279zM388 272c0 120 -31 221 -125 221s-125 -101 -125 -221s31 -223 125 -223s125 103 125 223zM227 654c0 -24 -20 -44 -44 -44s-44 20 -44 44s20 44 44 44s44 -20 44 -44z
M387 654c0 -24 -20 -44 -44 -44s-44 20 -44 44s20 44 44 44s44 -20 44 -44z" />
    <glyph glyph-name="divide" unicode="&#xf7;" horiz-adv-x="518" 
d="M310 495c0 -28 -23 -51 -51 -51s-51 23 -51 51s23 51 51 51s51 -23 51 -51zM456 307h-394v54h394v-54zM310 173c0 -28 -23 -51 -51 -51s-51 23 -51 51s23 51 51 51s51 -23 51 -51z" />
    <glyph glyph-name="oslash" unicode="&#xf8;" horiz-adv-x="526" 
d="M476 270c0 -162 -67 -280 -213 -280c-54 0 -98 16 -131 45l-47 -73l-29 18l52 81c-39 50 -58 123 -58 209c0 161 67 279 213 279c54 0 98 -16 131 -45l47 73l29 -18l-52 -81c39 -50 58 -123 58 -208zM356 445c-20 32 -50 53 -93 53c-98 0 -130 -105 -130 -226
c0 -52 7 -101 21 -140zM393 272c0 51 -6 99 -20 137l-202 -313c20 -31 50 -51 92 -51c98 0 130 106 130 227z" />
    <glyph glyph-name="ugrave" unicode="&#xf9;" horiz-adv-x="524" 
d="M453 30c-41 -22 -115 -40 -185 -40c-129 0 -197 55 -197 176v373h88v-376c0 -75 35 -113 110 -113c34 0 73 6 96 18v471h88v-509zM315 598h-51l-113 131c8 14 25 21 43 21c17 0 35 -5 48 -15z" />
    <glyph glyph-name="uacute" unicode="&#xfa;" horiz-adv-x="524" 
d="M453 30c-41 -22 -115 -40 -185 -40c-129 0 -197 55 -197 176v373h88v-376c0 -75 35 -113 110 -113c34 0 73 6 96 18v471h88v-509zM387 729l-113 -131h-51l73 137c13 10 31 15 48 15c18 0 35 -7 43 -21z" />
    <glyph glyph-name="ucircumflex" unicode="&#xfb;" horiz-adv-x="524" 
d="M453 30c-41 -22 -115 -40 -185 -40c-129 0 -197 55 -197 176v373h88v-376c0 -75 35 -113 110 -113c34 0 73 6 96 18v471h88v-509zM389 619l-30 -26l-97 82l-97 -82l-30 26l93 100c9 10 23 15 34 15s25 -5 34 -15z" />
    <glyph glyph-name="udieresis" unicode="&#xfc;" horiz-adv-x="524" 
d="M453 30c-41 -22 -115 -40 -185 -40c-129 0 -197 55 -197 176v373h88v-376c0 -75 35 -113 110 -113c34 0 73 6 96 18v471h88v-509zM226 654c0 -24 -20 -44 -44 -44s-44 20 -44 44s20 44 44 44s44 -20 44 -44zM386 654c0 -24 -20 -44 -44 -44s-44 20 -44 44s20 44 44 44
s44 -20 44 -44z" />
    <glyph glyph-name="yacute" unicode="&#xfd;" horiz-adv-x="492" 
d="M465 539l-250 -754h-94l89 215l-181 539h94l113 -391c5 -17 11 -50 12 -67h2c2 17 10 51 15 67l117 391h83zM372 730l-113 -131h-51l73 137c13 10 31 15 48 15c18 0 35 -7 43 -21z" />
    <glyph glyph-name="thorn" unicode="&#xfe;" 
d="M478 280c0 -172 -85 -289 -234 -289c-30 0 -62 5 -85 13v-219h-87v1000h87v-263c27 14 63 24 108 24c126 0 211 -103 211 -266zM390 275c0 127 -47 219 -145 219c-30 0 -61 -8 -86 -20v-413c20 -9 48 -13 75 -13c112 0 156 93 156 227z" />
    <glyph glyph-name="ydieresis" unicode="&#xff;" horiz-adv-x="492" 
d="M465 539l-250 -754h-94l89 215l-181 539h94l113 -391c5 -17 11 -50 12 -67h2c2 17 10 51 15 67l117 391h83zM217 654c0 -24 -20 -44 -44 -44s-44 20 -44 44s20 44 44 44s44 -20 44 -44zM382 654c0 -24 -20 -44 -44 -44s-44 20 -44 44s20 44 44 44s44 -20 44 -44z" />
    <glyph glyph-name="Amacron" unicode="&#x100;" horiz-adv-x="590" 
d="M571 0h-97l-64 208h-239l-65 -208h-87l232 688h87zM393 263l-80 260c-8 25 -16 63 -20 89h-2c-4 -23 -12 -60 -21 -89l-81 -260h204zM420 765h-250v53h250v-53z" />
    <glyph glyph-name="amacron" unicode="&#x101;" horiz-adv-x="499" 
d="M428 28c-43 -23 -107 -38 -179 -38c-129 0 -205 56 -205 163c0 130 128 180 302 197v33c0 74 -40 107 -115 107c-47 0 -98 -14 -135 -34l-21 54c45 23 106 39 164 39c117 0 189 -55 189 -175v-346zM346 59v245c-137 -16 -218 -54 -218 -149c0 -73 45 -114 129 -114
c34 0 68 7 89 18zM378 616h-250v53h250v-53z" />
    <glyph glyph-name="Abreve" unicode="&#x102;" horiz-adv-x="590" 
d="M571 0h-97l-64 208h-239l-65 -208h-87l232 688h87zM393 263l-80 260c-8 25 -16 63 -20 89h-2c-4 -23 -12 -60 -21 -89l-81 -260h204zM416 874c0 -81 -55 -126 -121 -126s-121 45 -121 126l42 7c6 -53 39 -79 79 -79s73 26 79 79z" />
    <glyph glyph-name="abreve" unicode="&#x103;" horiz-adv-x="499" 
d="M428 28c-43 -23 -107 -38 -179 -38c-129 0 -205 56 -205 163c0 130 128 180 302 197v33c0 74 -40 107 -115 107c-47 0 -98 -14 -135 -34l-21 54c45 23 106 39 164 39c117 0 189 -55 189 -175v-346zM346 59v245c-137 -16 -218 -54 -218 -149c0 -73 45 -114 129 -114
c34 0 68 7 89 18zM369 725c0 -81 -55 -126 -121 -126s-121 45 -121 126l42 7c6 -53 39 -79 79 -79s73 26 79 79z" />
    <glyph glyph-name="Aogonek" unicode="&#x104;" horiz-adv-x="590" 
d="M600 -164c-21 -10 -50 -16 -80 -16c-62 0 -114 27 -114 84c0 39 30 72 68 96l-64 208h-239l-65 -208h-87l232 688h87l233 -688h-38c-38 -26 -58 -56 -58 -85c0 -28 23 -50 59 -50c19 0 41 4 57 11zM393 263l-80 260c-9 28 -16 64 -20 89h-2c-5 -28 -12 -60 -21 -89
l-82 -260h205z" />
    <glyph glyph-name="aogonek" unicode="&#x105;" horiz-adv-x="499" 
d="M448 -164c-21 -10 -51 -16 -81 -16c-62 0 -113 27 -113 84c0 35 24 66 57 89c-20 -3 -40 -3 -62 -3c-129 0 -205 56 -205 163c0 130 128 180 302 197v33c0 84 -51 107 -119 107c-52 0 -101 -18 -131 -34l-21 54c35 18 98 39 164 39c101 0 189 -43 189 -175v-346
c-48 -23 -105 -63 -105 -113c0 -28 23 -50 59 -50c19 0 41 4 57 11zM346 59v245c-137 -16 -218 -54 -218 -149c0 -73 45 -114 129 -114c34 0 67 6 89 18z" />
    <glyph glyph-name="Cacute" unicode="&#x106;" horiz-adv-x="479" 
d="M447 28c-36 -24 -80 -38 -135 -38c-177 0 -258 170 -258 354s81 354 258 354c55 0 99 -14 135 -38l-23 -56c-25 16 -63 29 -101 29c-124 0 -173 -144 -173 -288c0 -143 50 -286 172 -286c38 0 76 13 101 29zM420 879l-113 -131h-51l73 137c13 10 31 15 48 15
c18 0 35 -7 43 -21z" />
    <glyph glyph-name="cacute" unicode="&#x107;" horiz-adv-x="415" 
d="M380 25c-29 -22 -71 -35 -121 -35c-130 0 -209 115 -209 280s80 279 209 279c50 0 92 -13 121 -35l-21 -52c-21 16 -53 27 -85 27c-86 0 -134 -93 -134 -217c0 -122 49 -218 134 -218c32 0 63 10 84 26zM361 730l-113 -131h-51l73 137c13 10 31 15 48 15
c18 0 35 -7 43 -21z" />
    <glyph glyph-name="Ccircumflex" unicode="&#x108;" horiz-adv-x="479" 
d="M447 28c-36 -24 -80 -38 -135 -38c-177 0 -258 170 -258 354s81 354 258 354c55 0 99 -14 135 -38l-23 -56c-25 16 -63 29 -101 29c-124 0 -173 -144 -173 -288c0 -143 50 -286 172 -286c38 0 76 13 101 29zM427 768l-30 -26l-97 82l-97 -82l-30 26l93 100
c9 10 23 15 34 15s25 -5 34 -15z" />
    <glyph glyph-name="ccircumflex" unicode="&#x109;" horiz-adv-x="415" 
d="M380 25c-29 -22 -71 -35 -121 -35c-130 0 -209 115 -209 280s80 279 209 279c50 0 92 -13 121 -35l-21 -52c-21 16 -53 27 -85 27c-86 0 -134 -93 -134 -217c0 -122 49 -218 134 -218c32 0 63 10 84 26zM371 619l-30 -26l-97 82l-97 -82l-30 26l93 100c9 10 23 15 34 15
s25 -5 34 -15z" />
    <glyph glyph-name="Cdotaccent" unicode="&#x10a;" horiz-adv-x="479" 
d="M447 28c-36 -24 -80 -38 -135 -38c-177 0 -258 170 -258 354s81 354 258 354c55 0 99 -14 135 -38l-23 -56c-25 16 -63 29 -101 29c-124 0 -173 -144 -173 -288c0 -143 50 -286 172 -286c38 0 76 13 101 29zM343 808c0 -27 -22 -49 -49 -49s-49 22 -49 49s22 49 49 49
s49 -22 49 -49z" />
    <glyph glyph-name="cdotaccent" unicode="&#x10b;" horiz-adv-x="415" 
d="M380 25c-29 -22 -71 -35 -121 -35c-130 0 -209 115 -209 280s80 279 209 279c50 0 92 -13 121 -35l-21 -52c-21 16 -53 27 -85 27c-86 0 -134 -93 -134 -217c0 -122 49 -218 134 -218c32 0 63 10 84 26zM293 659c0 -27 -22 -49 -49 -49s-49 22 -49 49s22 49 49 49
s49 -22 49 -49z" />
    <glyph glyph-name="Ccaron" unicode="&#x10c;" horiz-adv-x="479" 
d="M447 28c-36 -24 -80 -38 -135 -38c-177 0 -258 170 -258 354s81 354 258 354c55 0 99 -14 135 -38l-23 -56c-25 16 -63 29 -101 29c-124 0 -173 -144 -173 -288c0 -143 50 -286 172 -286c38 0 76 13 101 29zM420 862l-93 -100c-9 -10 -23 -15 -34 -15s-25 5 -34 15
l-93 100l30 26l97 -81l97 81z" />
    <glyph glyph-name="ccaron" unicode="&#x10d;" horiz-adv-x="415" 
d="M380 25c-29 -22 -71 -35 -121 -35c-130 0 -209 115 -209 280s80 279 209 279c50 0 92 -13 121 -35l-21 -52c-21 16 -53 27 -85 27c-86 0 -134 -93 -134 -217c0 -122 49 -218 134 -218c32 0 63 10 84 26zM370 713l-93 -100c-9 -10 -23 -15 -34 -15s-25 5 -34 15l-93 100
l30 26l97 -81l97 81z" />
    <glyph glyph-name="Dcaron" unicode="&#x10e;" horiz-adv-x="596" 
d="M542 344c0 -221 -106 -354 -287 -354c-62 0 -127 12 -178 37v634c51 25 116 37 178 37c181 0 287 -133 287 -354zM448 346c0 187 -63 291 -191 291c-33 0 -70 -6 -89 -14v-555c19 -8 56 -14 89 -14c128 0 191 105 191 292zM402 862l-93 -100c-9 -10 -23 -15 -34 -15
s-25 5 -34 15l-93 100l30 26l97 -81l97 81z" />
    <glyph glyph-name="dcaron" unicode="&#x10f;" horiz-adv-x="527" 
d="M456 28c-36 -22 -99 -38 -170 -38c-155 0 -236 108 -236 269c0 159 80 286 236 286c27 0 54 -3 83 -11v251h87v-757zM369 63v420c-21 6 -45 10 -68 10c-122 0 -163 -107 -163 -225c0 -127 43 -220 153 -220c36 0 60 5 78 15zM609 775l-27 -159h-48v159c9 11 24 17 39 17
s29 -6 36 -17z" />
    <glyph glyph-name="Dcroat" unicode="&#x110;" horiz-adv-x="604" 
d="M550 351c0 -221 -95 -361 -282 -361c-70 0 -138 14 -183 37v306h-64v55h64v272c45 23 112 38 181 38c180 0 284 -127 284 -347zM457 352c0 189 -64 287 -195 287c-33 0 -63 -4 -86 -13v-238h116v-55h-116v-265c19 -8 52 -14 88 -14c139 0 193 107 193 298z" />
    <glyph glyph-name="dcroat" unicode="&#x111;" horiz-adv-x="527" 
d="M535 632h-79v-604c-36 -22 -99 -38 -170 -38c-155 0 -236 108 -236 269c0 159 80 286 236 286c27 0 54 -3 83 -11v98h-117v47h117v106h87v-106h79v-47zM369 63v420c-21 6 -45 10 -68 10c-122 0 -163 -107 -163 -225c0 -127 43 -220 153 -220c36 0 60 5 78 15z" />
    <glyph glyph-name="Emacron" unicode="&#x112;" horiz-adv-x="442" 
d="M396 0h-319v688h319v-62h-227v-240h204v-61h-204v-263h227v-62zM360 765h-250v53h250v-53z" />
    <glyph glyph-name="emacron" unicode="&#x113;" horiz-adv-x="524" 
d="M474 285l-339 -50c8 -111 64 -182 166 -182c49 0 101 14 131 32l23 -57c-38 -22 -100 -38 -163 -38c-154 0 -242 106 -242 281c0 169 81 278 218 278c129 0 206 -84 206 -254v-10zM389 323c-2 109 -39 171 -123 171c-89 0 -135 -84 -135 -206v-5zM393 616h-250v53h250
v-53z" />
    <glyph glyph-name="Ebreve" unicode="&#x114;" horiz-adv-x="442" 
d="M396 0h-319v688h319v-62h-227v-240h204v-61h-204v-263h227v-62zM358 874c0 -81 -55 -126 -121 -126s-121 45 -121 126l42 7c6 -53 39 -79 79 -79s73 26 79 79z" />
    <glyph glyph-name="ebreve" unicode="&#x115;" horiz-adv-x="524" 
d="M474 285l-339 -50c8 -111 64 -182 166 -182c49 0 101 14 131 32l23 -57c-38 -22 -100 -38 -163 -38c-154 0 -242 106 -242 281c0 169 81 278 218 278c129 0 206 -84 206 -254v-10zM389 323c-2 109 -39 171 -123 171c-89 0 -135 -84 -135 -206v-5zM386 725
c0 -81 -55 -126 -121 -126s-121 45 -121 126l42 7c6 -53 39 -79 79 -79s73 26 79 79z" />
    <glyph glyph-name="Edotaccent" unicode="&#x116;" horiz-adv-x="442" 
d="M396 0h-319v688h319v-62h-227v-240h204v-61h-204v-263h227v-62zM286 808c0 -27 -22 -49 -49 -49s-49 22 -49 49s22 49 49 49s49 -22 49 -49z" />
    <glyph glyph-name="edotaccent" unicode="&#x117;" horiz-adv-x="524" 
d="M474 285l-339 -50c8 -111 64 -182 166 -182c49 0 101 14 131 32l23 -57c-38 -22 -100 -38 -163 -38c-154 0 -242 106 -242 281c0 169 81 278 218 278c129 0 206 -84 206 -254v-10zM389 323c-2 109 -39 171 -123 171c-89 0 -135 -84 -135 -206v-5zM317 659
c0 -27 -22 -49 -49 -49s-49 22 -49 49s22 49 49 49s49 -22 49 -49z" />
    <glyph glyph-name="Eogonek" unicode="&#x118;" horiz-adv-x="442" 
d="M463 -164c-21 -10 -50 -16 -80 -16c-62 0 -114 27 -114 84c0 39 30 72 68 96h-260v688h319v-62h-227v-240h204v-61h-204v-263h227v-62c-38 -26 -58 -56 -58 -85c0 -28 23 -50 59 -50c19 0 41 4 57 11z" />
    <glyph glyph-name="eogonek" unicode="&#x119;" horiz-adv-x="524" 
d="M474 -164c-21 -10 -50 -16 -80 -16c-62 0 -113 27 -113 84c0 35 24 65 56 88c-15 -2 -30 -2 -45 -2c-154 0 -242 106 -242 281c0 169 81 278 218 278c129 0 206 -84 206 -254v-10l-339 -50c8 -111 64 -182 166 -182c49 0 101 14 131 32l23 -57
c-50 -24 -106 -63 -106 -113c0 -28 23 -50 59 -50c19 0 41 4 57 11zM389 323c-2 109 -39 171 -123 171c-89 0 -135 -83 -135 -205v-6z" />
    <glyph glyph-name="Ecaron" unicode="&#x11a;" horiz-adv-x="442" 
d="M396 0h-319v688h319v-62h-227v-240h204v-61h-204v-263h227v-62zM362 862l-93 -100c-9 -10 -23 -15 -34 -15s-25 5 -34 15l-93 100l30 26l97 -81l97 81z" />
    <glyph glyph-name="ecaron" unicode="&#x11b;" horiz-adv-x="524" 
d="M474 285l-339 -50c8 -111 64 -182 166 -182c49 0 101 14 131 32l23 -57c-38 -22 -100 -38 -163 -38c-154 0 -242 106 -242 281c0 169 81 278 218 278c129 0 206 -84 206 -254v-10zM389 323c-2 109 -39 171 -123 171c-89 0 -135 -84 -135 -206v-5zM393 713l-93 -100
c-9 -10 -23 -15 -34 -15s-25 5 -34 15l-93 100l30 26l97 -81l97 81z" />
    <glyph glyph-name="Gcircumflex" unicode="&#x11c;" horiz-adv-x="594" 
d="M523 27c-42 -23 -114 -37 -176 -37c-163 0 -293 118 -293 354c0 214 115 354 301 354c63 0 115 -14 156 -38l-26 -57c-32 17 -76 30 -125 30c-135 0 -212 -113 -212 -293c0 -194 92 -285 196 -285c33 0 66 4 90 14v259h-127v58h216v-359zM459 768l-30 -26l-97 82l-97 -82
l-30 26l93 100c9 10 23 15 34 15s25 -5 34 -15z" />
    <glyph glyph-name="gcircumflex" unicode="&#x11d;" horiz-adv-x="527" 
d="M456 512v-520c0 -136 -76 -217 -208 -217c-64 0 -127 16 -166 38l26 58c31 -17 79 -31 125 -31c98 0 136 60 136 142v36c-24 -14 -60 -24 -107 -24c-130 0 -212 103 -212 267c0 173 86 288 247 288c62 0 122 -15 159 -37zM369 71v410c-20 10 -48 15 -77 15
c-108 0 -154 -91 -154 -232c0 -137 44 -215 147 -215c34 0 64 10 84 22zM409 619l-30 -26l-97 82l-97 -82l-30 26l93 100c9 10 23 15 34 15s25 -5 34 -15z" />
    <glyph glyph-name="Gbreve" unicode="&#x11e;" horiz-adv-x="594" 
d="M523 27c-42 -23 -114 -37 -176 -37c-163 0 -293 118 -293 354c0 214 115 354 301 354c63 0 115 -14 156 -38l-26 -57c-32 17 -76 30 -125 30c-135 0 -212 -113 -212 -293c0 -194 92 -285 196 -285c33 0 66 4 90 14v259h-127v58h216v-359zM448 874
c0 -81 -55 -126 -121 -126s-121 45 -121 126l42 7c6 -53 39 -79 79 -79s73 26 79 79z" />
    <glyph glyph-name="gbreve" unicode="&#x11f;" horiz-adv-x="527" 
d="M456 512v-520c0 -136 -76 -217 -208 -217c-64 0 -127 16 -166 38l26 58c31 -17 79 -31 125 -31c98 0 136 60 136 142v36c-24 -14 -60 -24 -107 -24c-130 0 -212 103 -212 267c0 173 86 288 247 288c62 0 122 -15 159 -37zM369 71v410c-20 10 -48 15 -77 15
c-108 0 -154 -91 -154 -232c0 -137 44 -215 147 -215c34 0 64 10 84 22zM398 725c0 -81 -55 -126 -121 -126s-121 45 -121 126l42 7c6 -53 39 -79 79 -79s73 26 79 79z" />
    <glyph glyph-name="Gdotaccent" unicode="&#x120;" horiz-adv-x="594" 
d="M523 27c-42 -23 -114 -37 -176 -37c-163 0 -293 118 -293 354c0 214 115 354 301 354c63 0 115 -14 156 -38l-26 -57c-32 17 -76 30 -125 30c-135 0 -212 -113 -212 -293c0 -194 92 -285 196 -285c33 0 66 4 90 14v259h-127v58h216v-359zM378 808c0 -27 -22 -49 -49 -49
s-49 22 -49 49s22 49 49 49s49 -22 49 -49z" />
    <glyph glyph-name="gdotaccent" unicode="&#x121;" horiz-adv-x="527" 
d="M456 512v-520c0 -136 -76 -217 -208 -217c-64 0 -127 16 -166 38l26 58c31 -17 79 -31 125 -31c98 0 136 60 136 142v36c-24 -14 -60 -24 -107 -24c-130 0 -212 103 -212 267c0 173 86 288 247 288c62 0 122 -15 159 -37zM369 71v410c-20 10 -48 15 -77 15
c-108 0 -154 -91 -154 -232c0 -137 44 -215 147 -215c34 0 64 10 84 22zM328 659c0 -27 -22 -49 -49 -49s-49 22 -49 49s22 49 49 49s49 -22 49 -49z" />
    <glyph glyph-name="Gcommaaccent" unicode="&#x122;" horiz-adv-x="594" 
d="M523 27c-42 -23 -114 -37 -176 -37c-163 0 -293 118 -293 354c0 214 115 354 301 354c63 0 115 -14 156 -38l-26 -57c-32 17 -76 30 -125 30c-135 0 -212 -113 -212 -293c0 -194 92 -285 196 -285c33 0 66 4 90 14v259h-127v58h216v-359zM377 -78l-99 -137h-50l61 142
c12 10 29 16 46 16c19 0 35 -8 42 -21z" />
    <glyph glyph-name="gcommaaccent" unicode="&#x123;" horiz-adv-x="527" 
d="M456 512v-520c0 -136 -76 -217 -208 -217c-64 0 -127 16 -166 38l26 58c31 -17 79 -31 125 -31c98 0 136 60 136 142v36c-24 -14 -60 -24 -107 -24c-130 0 -212 103 -212 267c0 173 86 288 247 288c62 0 122 -15 159 -37zM369 71v410c-20 10 -48 15 -77 15
c-108 0 -154 -91 -154 -232c0 -137 44 -215 147 -215c34 0 64 10 84 22zM383 757l-61 -143c-12 -10 -29 -16 -46 -16c-19 0 -35 8 -42 21l99 138h50z" />
    <glyph glyph-name="Hcircumflex" unicode="&#x124;" horiz-adv-x="597" 
d="M520 0h-92v325h-259v-325h-92v688h92v-302h259v302h92v-688zM426 768l-30 -26l-97 82l-97 -82l-30 26l93 100c9 10 23 15 34 15s25 -5 34 -15z" />
    <glyph glyph-name="hcircumflex" unicode="&#x125;" horiz-adv-x="534" 
d="M463 0h-88v380c0 57 -25 108 -110 108c-38 0 -75 -11 -106 -29v-459h-88v785h88v-274c33 20 76 33 124 33c136 0 180 -83 180 -161v-383zM243 839l-30 -26l-97 82l-97 -82l-30 26l93 100c9 10 23 15 34 15s25 -5 34 -15z" />
    <glyph glyph-name="Hbar" unicode="&#x126;" horiz-adv-x="597" 
d="M597 520h-77v-520h-92v325h-259v-325h-92v520h-77v46h77v122h92v-122h259v122h92v-122h77v-46zM428 386v134h-259v-134h259z" />
    <glyph glyph-name="hbar" unicode="&#x127;" horiz-adv-x="534" 
d="M463 0h-88v380c0 57 -25 108 -110 108c-38 0 -75 -11 -106 -29v-459h-88v632h-79v47h79v106h88v-106h116v-47h-116v-121c33 20 76 33 124 33c136 0 180 -83 180 -161v-383z" />
    <glyph glyph-name="Itilde" unicode="&#x128;" horiz-adv-x="252" 
d="M172 0h-92v688h92v-688zM255 834c-8 -46 -30 -81 -77 -81c-44 0 -63 41 -101 41c-23 0 -35 -16 -40 -39l-40 13c8 46 30 80 77 80c44 0 64 -41 102 -41c23 0 34 17 39 40z" />
    <glyph glyph-name="itilde" unicode="&#x129;" horiz-adv-x="242" 
d="M165 0h-88v539h88v-539zM250 685c-8 -46 -30 -81 -77 -81c-44 0 -63 41 -101 41c-23 0 -35 -16 -40 -39l-40 13c8 46 30 80 77 80c44 0 64 -41 102 -41c23 0 34 17 39 40z" />
    <glyph glyph-name="Imacron" unicode="&#x12a;" horiz-adv-x="252" 
d="M172 0h-92v688h92v-688zM251 765h-250v53h250v-53z" />
    <glyph glyph-name="imacron" unicode="&#x12b;" horiz-adv-x="242" 
d="M165 0h-88v539h88v-539zM246 616h-250v53h250v-53z" />
    <glyph glyph-name="Ibreve" unicode="&#x12c;" horiz-adv-x="252" 
d="M172 0h-92v688h92v-688zM247 874c0 -81 -55 -126 -121 -126s-121 45 -121 126l42 7c6 -53 39 -79 79 -79s73 26 79 79z" />
    <glyph glyph-name="ibreve" unicode="&#x12d;" horiz-adv-x="242" 
d="M165 0h-88v539h88v-539zM242 725c0 -81 -55 -126 -121 -126s-121 45 -121 126l42 7c6 -53 39 -79 79 -79s73 26 79 79z" />
    <glyph glyph-name="Iogonek" unicode="&#x12e;" horiz-adv-x="252" 
d="M206 -164c-21 -10 -50 -16 -80 -16c-62 0 -114 27 -114 84c0 39 30 72 68 96v688h92v-688h-33c-38 -26 -58 -56 -58 -85c0 -28 23 -50 59 -50c19 0 41 4 57 11z" />
    <glyph glyph-name="iogonek" unicode="&#x12f;" horiz-adv-x="242" 
d="M202 -164c-21 -10 -50 -16 -80 -16c-62 0 -113 27 -113 84c0 39 30 72 68 96v539h88v-539h-30c-38 -26 -58 -56 -58 -85c0 -28 23 -50 59 -50c19 0 41 4 57 11zM174 691c0 -27 -24 -49 -53 -49s-53 22 -53 49s24 49 53 49s53 -22 53 -49z" />
    <glyph glyph-name="Idotaccent" unicode="&#x130;" horiz-adv-x="252" 
d="M172 0h-92v688h92v-688zM175 808c0 -27 -22 -49 -49 -49s-49 22 -49 49s22 49 49 49s49 -22 49 -49z" />
    <glyph glyph-name="dotlessi" unicode="&#x131;" horiz-adv-x="242" 
d="M165 0h-88v539h88v-539z" />
    <glyph glyph-name="IJ" unicode="&#x132;" horiz-adv-x="505" 
d="M425 688v-616c0 -152 -78 -262 -216 -292v66c77 30 124 106 124 221v621h92zM172 0h-92v688h92v-688z" />
    <glyph glyph-name="ij" unicode="&#x133;" horiz-adv-x="488" 
d="M411 539v-467c0 -155 -56 -253 -187 -293v60c73 44 99 106 99 223v477h88zM165 0h-88v539h88v-539zM174 691c0 -27 -24 -49 -53 -49s-53 22 -53 49s24 49 53 49s53 -22 53 -49zM420 691c0 -27 -24 -49 -53 -49s-53 22 -53 49s24 49 53 49s53 -22 53 -49z" />
    <glyph glyph-name="Jcircumflex" unicode="&#x134;" horiz-adv-x="252" 
d="M172 74c0 -152 -77 -264 -216 -294v65c77 30 124 109 124 224v619h92v-614zM253 768l-30 -26l-97 82l-97 -82l-30 26l93 100c9 10 23 15 34 15s25 -5 34 -15z" />
    <glyph glyph-name="jcircumflex" unicode="&#x135;" horiz-adv-x="246" 
d="M169 539v-467c0 -155 -56 -253 -187 -293v60c73 44 99 106 99 223v477h88zM252 619l-30 -26l-97 82l-97 -82l-30 26l93 100c9 10 23 15 34 15s25 -5 34 -15z" />
    <glyph glyph-name="Kcommaaccent" unicode="&#x136;" horiz-adv-x="540" 
d="M522 0h-110l-240 356h-2v-356h-90v688h90v-319h2l238 319h101l-255 -321zM327 -78l-99 -137h-50l61 142c12 10 29 16 46 16c19 0 35 -8 42 -21z" />
    <glyph glyph-name="kcommaaccent" unicode="&#x137;" horiz-adv-x="489" 
d="M481 0h-105l-212 275h-2v-275h-86v785h86v-499h2l200 253h97l-216 -256zM303 -78l-99 -137h-50l61 142c12 10 29 16 46 16c19 0 35 -8 42 -21z" />
    <glyph glyph-name="kgreenlandic" unicode="&#x138;" horiz-adv-x="489" 
d="M481 0h-105l-212 275h-2v-275h-86v539h86v-253h2l200 253h97l-216 -256z" />
    <glyph glyph-name="Lacute" unicode="&#x139;" horiz-adv-x="411" 
d="M379 0h-299v688h92v-626h207v-62zM279 878l-113 -131h-51l73 137c13 10 31 15 48 15c18 0 35 -7 43 -21z" />
    <glyph glyph-name="lacute" unicode="&#x13a;" horiz-adv-x="242" 
d="M165 0h-88v785h88v-785zM256 970l-113 -131h-51l73 137c13 10 31 15 48 15c18 0 35 -7 43 -21z" />
    <glyph glyph-name="Lcommaaccent" unicode="&#x13b;" horiz-adv-x="411" 
d="M379 0h-299v688h92v-626h207v-62zM267 -78l-99 -137h-50l61 142c12 10 29 16 46 16c19 0 35 -8 42 -21z" />
    <glyph glyph-name="lcommaaccent" unicode="&#x13c;" horiz-adv-x="242" 
d="M165 0h-88v785h88v-785zM162 -77l-99 -137h-50l61 142c12 10 29 16 46 16c19 0 35 -8 42 -21z" />
    <glyph glyph-name="Lcaron" unicode="&#x13d;" horiz-adv-x="411" 
d="M379 0h-299v688h92v-626h207v-62zM333 677l-27 -159h-48v159c9 11 24 17 39 17s29 -6 36 -17z" />
    <glyph glyph-name="lcaron" unicode="&#x13e;" horiz-adv-x="242" 
d="M165 0h-88v785h88v-785zM318 775l-27 -159h-48v159c9 11 24 17 39 17s29 -6 36 -17z" />
    <glyph glyph-name="Ldot" unicode="&#x13f;" horiz-adv-x="446" 
d="M379 0h-299v688h92v-626h207v-62zM398 375c0 -27 -22 -49 -49 -49s-49 22 -49 49s22 49 49 49s49 -22 49 -49z" />
    <glyph glyph-name="ldot" unicode="&#x140;" horiz-adv-x="338" 
d="M165 0h-88v785h88v-785zM339 416c0 -27 -22 -49 -49 -49s-49 22 -49 49s22 49 49 49s49 -22 49 -49z" />
    <glyph glyph-name="Lslash" unicode="&#x141;" horiz-adv-x="421" 
d="M389 0h-299v340l-69 -33v59l69 33v289h92v-249l90 44v-60l-90 -43v-318h207v-62z" />
    <glyph glyph-name="lslash" unicode="&#x142;" horiz-adv-x="263" 
d="M245 482l-70 -35v-447h-88v409l-69 -34v56l69 34v320h88v-282l70 34v-55z" />
    <glyph glyph-name="Nacute" unicode="&#x143;" horiz-adv-x="647" 
d="M570 0h-80l-300 513c-12 20 -29 56 -37 74h-2c2 -36 3 -64 3 -85v-502h-77v688h96l284 -489c11 -19 23 -42 37 -72h2c-2 37 -3 55 -3 82v479h77v-688zM456 878l-113 -131h-51l73 137c13 10 31 15 48 15c18 0 35 -7 43 -21z" />
    <glyph glyph-name="nacute" unicode="&#x144;" horiz-adv-x="534" 
d="M463 0h-88v372c0 81 -33 121 -121 121c-37 0 -67 -6 -95 -18v-475h-88v511c50 23 116 38 183 38c145 0 209 -63 209 -177v-372zM380 730l-113 -131h-51l73 137c13 10 31 15 48 15c18 0 35 -7 43 -21z" />
    <glyph glyph-name="Ncommaaccent" unicode="&#x145;" horiz-adv-x="647" 
d="M570 0h-80l-300 513c-12 20 -29 56 -37 74h-2c2 -36 3 -64 3 -85v-502h-77v688h96l284 -489c11 -19 23 -42 37 -72h2c-2 37 -3 55 -3 82v479h77v-688zM367 -77l-99 -137h-50l61 142c12 10 29 16 46 16c19 0 35 -8 42 -21z" />
    <glyph glyph-name="ncommaaccent" unicode="&#x146;" horiz-adv-x="534" 
d="M463 0h-88v372c0 81 -33 121 -121 121c-37 0 -67 -6 -95 -18v-475h-88v511c50 23 116 38 183 38c145 0 209 -63 209 -177v-372zM314 -77l-99 -137h-50l61 142c12 10 29 16 46 16c19 0 35 -8 42 -21z" />
    <glyph glyph-name="Ncaron" unicode="&#x147;" horiz-adv-x="647" 
d="M570 0h-80l-300 513c-12 20 -29 56 -37 74h-2c2 -36 3 -64 3 -85v-502h-77v688h96l284 -489c11 -19 23 -42 37 -72h2c-2 37 -3 55 -3 82v479h77v-688zM456 862l-93 -100c-9 -10 -23 -15 -34 -15s-25 5 -34 15l-93 100l30 26l97 -81l97 81z" />
    <glyph glyph-name="ncaron" unicode="&#x148;" horiz-adv-x="534" 
d="M463 0h-88v372c0 81 -33 121 -121 121c-37 0 -67 -6 -95 -18v-475h-88v511c50 23 116 38 183 38c145 0 209 -63 209 -177v-372zM386 713l-93 -100c-9 -10 -23 -15 -34 -15s-25 5 -34 15l-93 100l30 26l97 -81l97 81z" />
    <glyph glyph-name="napostrophe" unicode="&#x149;" horiz-adv-x="534" 
d="M75 775l-27 -159h-48v159c9 11 24 17 39 17s29 -6 36 -17zM463 0h-88v372c0 81 -33 121 -121 121c-37 0 -67 -6 -95 -18v-475h-88v511c50 23 116 38 183 38c145 0 209 -63 209 -177v-372z" />
    <glyph glyph-name="Eng" unicode="&#x14a;" horiz-adv-x="647" 
d="M570 76c0 -154 -77 -266 -216 -296v66c64 24 117 78 132 161l-296 506c-11 19 -25 47 -37 74h-2c1 -20 3 -51 3 -85v-502h-77v688h96l284 -489c11 -19 25 -45 37 -72h2c-1 18 -3 49 -3 82v479h77v-612z" />
    <glyph glyph-name="eng" unicode="&#x14b;" horiz-adv-x="534" 
d="M463 72c0 -155 -56 -253 -187 -293v60c73 44 99 106 99 223v310c0 77 -30 121 -121 121c-33 0 -65 -5 -95 -18v-475h-88v511c50 23 116 38 183 38c146 0 209 -63 209 -177v-300z" />
    <glyph glyph-name="Omacron" unicode="&#x14c;" horiz-adv-x="606" 
d="M552 344c0 -199 -76 -354 -249 -354s-249 155 -249 354s76 354 249 354s249 -155 249 -354zM459 346c0 154 -37 289 -156 289s-156 -135 -156 -289s37 -290 156 -290s156 136 156 290zM428 765h-250v53h250v-53z" />
    <glyph glyph-name="omacron" unicode="&#x14d;" horiz-adv-x="526" 
d="M476 270c0 -162 -67 -280 -213 -280s-213 118 -213 280c0 161 67 279 213 279s213 -118 213 -279zM388 272c0 120 -31 221 -125 221s-125 -101 -125 -221s31 -223 125 -223s125 103 125 223zM388 616h-250v53h250v-53z" />
    <glyph glyph-name="Obreve" unicode="&#x14e;" horiz-adv-x="606" 
d="M552 344c0 -199 -76 -354 -249 -354s-249 155 -249 354s76 354 249 354s249 -155 249 -354zM459 346c0 154 -37 289 -156 289s-156 -135 -156 -289s37 -290 156 -290s156 136 156 290zM424 874c0 -81 -55 -126 -121 -126s-121 45 -121 126l42 7c6 -53 39 -79 79 -79
s73 26 79 79z" />
    <glyph glyph-name="obreve" unicode="&#x14f;" horiz-adv-x="526" 
d="M476 270c0 -162 -67 -280 -213 -280s-213 118 -213 280c0 161 67 279 213 279s213 -118 213 -279zM388 272c0 120 -31 221 -125 221s-125 -101 -125 -221s31 -223 125 -223s125 103 125 223zM384 725c0 -81 -55 -126 -121 -126s-121 45 -121 126l42 7
c6 -53 39 -79 79 -79s73 26 79 79z" />
    <glyph glyph-name="Ohungarumlaut" unicode="&#x150;" horiz-adv-x="606" 
d="M552 344c0 -199 -76 -354 -249 -354s-249 155 -249 354s76 354 249 354s249 -155 249 -354zM459 346c0 154 -37 289 -156 289s-156 -135 -156 -289s37 -290 156 -290s156 136 156 290zM493 878l-109 -130h-43l83 134c11 10 23 15 38 15c16 0 26 -7 31 -19zM365 878
l-109 -130h-43l83 134c11 10 23 15 38 15c16 0 26 -7 31 -19z" />
    <glyph glyph-name="ohungarumlaut" unicode="&#x151;" horiz-adv-x="526" 
d="M476 270c0 -162 -67 -280 -213 -280s-213 118 -213 280c0 161 67 279 213 279s213 -118 213 -279zM388 272c0 120 -31 221 -125 221s-125 -101 -125 -221s31 -223 125 -223s125 103 125 223zM448 729l-109 -130h-43l83 134c11 10 23 15 38 15c16 0 26 -7 31 -19zM320 729
l-109 -130h-43l83 134c11 10 23 15 38 15c16 0 26 -7 31 -19z" />
    <glyph glyph-name="OE" unicode="&#x152;" horiz-adv-x="758" 
d="M712 0h-304c-21 -6 -50 -10 -83 -10c-190 0 -271 156 -271 354s81 354 271 354c33 0 62 -4 83 -10h304v-62h-226v-240h205v-61h-205v-263h226v-62zM400 61v569c-19 6 -45 10 -72 10c-136 0 -182 -137 -182 -295s48 -293 182 -293c27 0 53 3 72 9z" />
    <glyph glyph-name="oe" unicode="&#x153;" horiz-adv-x="846" 
d="M796 285l-337 -50c8 -110 62 -182 166 -182c51 0 101 15 130 32l23 -57c-36 -21 -97 -38 -160 -38c-93 0 -160 48 -194 125c-27 -71 -81 -125 -165 -125c-141 0 -209 116 -209 280s68 279 209 279c76 0 132 -39 165 -117c34 81 103 117 169 117c128 0 203 -85 203 -258
v-6zM713 323c-2 109 -39 171 -123 171c-89 0 -135 -84 -135 -206v-5zM386 272c0 120 -31 221 -125 221s-125 -101 -125 -221s31 -223 125 -223s125 103 125 223z" />
    <glyph glyph-name="Racute" unicode="&#x154;" horiz-adv-x="546" 
d="M512 0h-105l-131 225c-26 45 -60 79 -108 91v-316h-89v661c46 22 109 37 170 37c152 0 240 -67 240 -195c0 -99 -79 -173 -192 -189v-2c27 -22 50 -51 69 -80zM400 501c0 95 -51 142 -149 142c-31 0 -61 -6 -83 -14v-274c18 -4 41 -5 63 -5c103 0 169 63 169 151z
M397 879l-113 -131h-51l73 137c13 10 31 15 48 15c18 0 35 -7 43 -21z" />
    <glyph glyph-name="racute" unicode="&#x155;" horiz-adv-x="322" 
d="M302 546l-20 -66c-16 6 -35 9 -55 9c-24 0 -49 -4 -68 -14v-475h-88v511c46 23 107 38 184 38c20 0 42 -2 47 -3zM305 730l-113 -131h-51l73 137c13 10 31 15 48 15c18 0 35 -7 43 -21z" />
    <glyph glyph-name="Rcommaaccent" unicode="&#x156;" horiz-adv-x="546" 
d="M512 0h-105l-131 225c-26 45 -60 79 -108 91v-316h-89v661c46 22 109 37 170 37c152 0 240 -67 240 -195c0 -99 -79 -173 -192 -189v-2c27 -22 50 -51 69 -80zM400 501c0 95 -51 142 -149 142c-31 0 -61 -6 -83 -14v-274c18 -4 41 -5 63 -5c103 0 169 63 169 151z
M318 -78l-99 -137h-50l61 142c12 10 29 16 46 16c19 0 35 -8 42 -21z" />
    <glyph glyph-name="rcommaaccent" unicode="&#x157;" horiz-adv-x="322" 
d="M302 546l-20 -66c-16 6 -35 9 -55 9c-24 0 -49 -4 -68 -14v-475h-88v511c46 23 107 38 184 38c20 0 42 -2 47 -3zM159 -78l-99 -137h-50l61 142c12 10 29 16 46 16c19 0 35 -8 42 -21z" />
    <glyph glyph-name="Rcaron" unicode="&#x158;" horiz-adv-x="546" 
d="M512 0h-105l-131 225c-26 45 -60 79 -108 91v-316h-89v661c46 22 109 37 170 37c152 0 240 -67 240 -195c0 -99 -79 -173 -192 -189v-2c27 -22 50 -51 69 -80zM400 501c0 95 -51 142 -149 142c-31 0 -61 -6 -83 -14v-274c18 -4 41 -5 63 -5c103 0 169 63 169 151z
M398 862l-93 -100c-9 -10 -23 -15 -34 -15s-25 5 -34 15l-93 100l30 26l97 -81l97 81z" />
    <glyph glyph-name="rcaron" unicode="&#x159;" horiz-adv-x="322" 
d="M302 546l-20 -66c-16 6 -35 9 -55 9c-24 0 -49 -4 -68 -14v-475h-88v511c46 23 107 38 184 38c20 0 42 -2 47 -3zM310 713l-93 -100c-9 -10 -23 -15 -34 -15s-25 5 -34 15l-93 100l30 26l97 -81l97 81z" />
    <glyph glyph-name="Sacute" unicode="&#x15a;" horiz-adv-x="484" 
d="M431 181c0 -110 -86 -191 -218 -191c-65 0 -127 13 -169 38l27 62c37 -22 86 -32 135 -32c85 0 131 51 131 118c0 170 -285 118 -285 343c0 108 83 179 206 179c57 0 110 -16 147 -38l-24 -56c-29 18 -75 31 -116 31c-77 0 -122 -40 -122 -110c0 -167 288 -112 288 -344z
M370 879l-113 -131h-51l73 137c13 10 31 15 48 15c18 0 35 -7 43 -21z" />
    <glyph glyph-name="sacute" unicode="&#x15b;" horiz-adv-x="418" 
d="M370 149c0 -87 -74 -159 -184 -159c-53 0 -111 14 -145 37l25 56c32 -20 73 -31 111 -31c63 0 104 40 104 93c0 132 -228 79 -228 257c0 83 67 147 166 147c52 0 99 -13 135 -37l-23 -52c-28 18 -65 31 -100 31c-62 0 -91 -38 -91 -85c0 -123 230 -73 230 -257zM338 730
l-113 -131h-51l73 137c13 10 31 15 48 15c18 0 35 -7 43 -21z" />
    <glyph glyph-name="Scircumflex" unicode="&#x15c;" horiz-adv-x="484" 
d="M431 181c0 -110 -86 -191 -218 -191c-65 0 -127 13 -169 38l27 62c37 -22 86 -32 135 -32c85 0 131 51 131 118c0 170 -285 118 -285 343c0 108 83 179 206 179c57 0 110 -16 147 -38l-24 -56c-29 18 -75 31 -116 31c-77 0 -122 -40 -122 -110c0 -167 288 -112 288 -344z
M373 768l-30 -26l-97 82l-97 -82l-30 26l93 100c9 10 23 15 34 15s25 -5 34 -15z" />
    <glyph glyph-name="scircumflex" unicode="&#x15d;" horiz-adv-x="418" 
d="M370 149c0 -87 -74 -159 -184 -159c-53 0 -111 14 -145 37l25 56c32 -20 73 -31 111 -31c63 0 104 40 104 93c0 132 -228 79 -228 257c0 83 67 147 166 147c52 0 99 -13 135 -37l-23 -52c-28 18 -65 31 -100 31c-62 0 -91 -38 -91 -85c0 -123 230 -73 230 -257zM343 619
l-30 -26l-97 82l-97 -82l-30 26l93 100c9 10 23 15 34 15s25 -5 34 -15z" />
    <glyph glyph-name="Scedilla" unicode="&#x15e;" horiz-adv-x="484" 
d="M431 181c0 -110 -86 -191 -218 -191c-65 0 -127 13 -169 38l27 62c37 -22 86 -32 135 -32c85 0 131 51 131 118c0 170 -285 118 -285 343c0 108 83 179 206 179c57 0 110 -16 147 -38l-24 -56c-29 18 -75 31 -116 31c-77 0 -122 -40 -122 -110c0 -167 288 -112 288 -344z
M324 -124c0 -51 -63 -78 -168 -78c-36 0 -65 4 -74 5l18 36c19 -2 29 -3 48 -3c60 0 107 13 107 40c0 23 -23 32 -71 32c-24 0 -37 -1 -53 -2l16 34c12 1 31 3 62 3c83 0 115 -29 115 -67z" />
    <glyph glyph-name="scedilla" unicode="&#x15f;" horiz-adv-x="418" 
d="M370 149c0 -87 -74 -159 -184 -159c-53 0 -111 14 -145 37l25 56c32 -20 73 -31 111 -31c63 0 104 40 104 93c0 132 -228 79 -228 257c0 83 67 147 166 147c52 0 99 -13 135 -37l-23 -52c-28 18 -65 31 -100 31c-62 0 -91 -38 -91 -85c0 -123 230 -73 230 -257zM302 -124
c0 -51 -63 -78 -168 -78c-36 0 -65 4 -74 5l18 36c19 -2 29 -3 48 -3c60 0 107 13 107 40c0 23 -23 32 -71 32c-24 0 -37 -1 -53 -2l16 34c12 1 31 3 62 3c83 0 115 -29 115 -67z" />
    <glyph glyph-name="Scaron" unicode="&#x160;" horiz-adv-x="484" 
d="M431 181c0 -110 -86 -191 -218 -191c-65 0 -127 13 -169 38l27 62c37 -22 86 -32 135 -32c85 0 131 51 131 118c0 170 -285 118 -285 343c0 108 83 179 206 179c57 0 110 -16 147 -38l-24 -56c-29 18 -75 31 -116 31c-77 0 -122 -40 -122 -110c0 -167 288 -112 288 -344z
M373 866l-93 -100c-9 -10 -23 -15 -34 -15s-25 5 -34 15l-93 100l30 26l97 -81l97 81z" />
    <glyph glyph-name="scaron" unicode="&#x161;" horiz-adv-x="418" 
d="M370 149c0 -87 -74 -159 -184 -159c-53 0 -111 14 -145 37l25 56c32 -20 73 -31 111 -31c63 0 104 40 104 93c0 132 -228 79 -228 257c0 83 67 147 166 147c52 0 99 -13 135 -37l-23 -52c-28 18 -65 31 -100 31c-62 0 -91 -38 -91 -85c0 -123 230 -73 230 -257zM338 717
l-93 -100c-9 -10 -23 -15 -34 -15s-25 5 -34 15l-93 100l30 26l97 -81l97 81z" />
    <glyph glyph-name="Tcommaaccent" unicode="&#x162;" horiz-adv-x="442" 
d="M412 626h-145v-626h-92v626h-145v62h382v-62zM316 -124c0 -51 -63 -78 -168 -78c-36 0 -65 4 -74 5l18 36c19 -2 29 -3 48 -3c60 0 107 13 107 40c0 23 -23 32 -71 32c-24 0 -37 -1 -53 -2l16 34c12 1 31 3 62 3c83 0 115 -29 115 -67z" />
    <glyph glyph-name="tcommaaccent" unicode="&#x163;" horiz-adv-x="321" 
d="M283 4c-14 -6 -32 -9 -53 -9c-77 0 -129 47 -129 136v353h-62v55h62v124l88 27v-151h94v-55h-94v-353c0 -47 23 -75 67 -75c10 0 19 1 27 4v-56zM263 -124c0 -51 -63 -78 -168 -78c-36 0 -65 4 -74 5l18 36c19 -2 29 -3 48 -3c60 0 107 13 107 40c0 23 -23 32 -71 32
c-24 0 -37 -1 -53 -2l16 34c12 1 31 3 62 3c83 0 115 -29 115 -67z" />
    <glyph glyph-name="Tcaron" unicode="&#x164;" horiz-adv-x="442" 
d="M412 626h-145v-626h-92v626h-145v62h382v-62zM349 862l-93 -100c-9 -10 -23 -15 -34 -15s-25 5 -34 15l-93 100l30 26l97 -81l97 81z" />
    <glyph glyph-name="tcaron" unicode="&#x165;" horiz-adv-x="321" 
d="M283 4c-14 -6 -32 -9 -53 -9c-77 0 -129 47 -129 136v353h-62v55h62v124l88 27v-151h94v-55h-94v-353c0 -47 23 -75 67 -75c10 0 19 1 27 4v-56zM340 775l-27 -159h-48v159c9 11 24 17 39 17s29 -6 36 -17z" />
    <glyph glyph-name="Tbar" unicode="&#x166;" horiz-adv-x="442" 
d="M412 626h-145v-211h119v-56h-119v-359h-92v359h-119v56h119v211h-145v62h382v-62z" />
    <glyph glyph-name="tbar" unicode="&#x167;" horiz-adv-x="321" 
d="M283 4c-14 -6 -32 -9 -53 -9c-77 0 -129 47 -129 136v167h-62v49h62v137h-62v55h62v124l88 27v-151h94v-55h-94v-137h94v-49h-94v-167c0 -47 23 -75 67 -75c10 0 19 1 27 4v-56z" />
    <glyph glyph-name="Utilde" unicode="&#x168;" horiz-adv-x="585" 
d="M508 196c0 -117 -83 -207 -216 -207s-215 90 -215 207v492h92v-492c0 -85 59 -135 127 -135s127 50 127 135v492h85v-492zM422 834c-8 -46 -30 -81 -77 -81c-44 0 -63 41 -101 41c-23 0 -35 -16 -40 -39l-40 13c8 46 30 80 77 80c44 0 64 -41 102 -41c23 0 34 17 39 40z
" />
    <glyph glyph-name="utilde" unicode="&#x169;" horiz-adv-x="524" 
d="M453 30c-41 -22 -115 -40 -185 -40c-129 0 -197 55 -197 176v373h88v-376c0 -75 35 -113 110 -113c34 0 73 6 96 18v471h88v-509zM391 685c-8 -46 -30 -81 -77 -81c-44 0 -63 41 -101 41c-23 0 -35 -16 -40 -39l-40 13c8 46 30 80 77 80c44 0 64 -41 102 -41
c23 0 34 17 39 40z" />
    <glyph glyph-name="Umacron" unicode="&#x16a;" horiz-adv-x="585" 
d="M508 196c0 -117 -83 -207 -216 -207s-215 90 -215 207v492h92v-492c0 -85 59 -135 127 -135s127 50 127 135v492h85v-492zM421 765h-250v53h250v-53z" />
    <glyph glyph-name="umacron" unicode="&#x16b;" horiz-adv-x="524" 
d="M453 30c-41 -22 -115 -40 -185 -40c-129 0 -197 55 -197 176v373h88v-376c0 -75 35 -113 110 -113c34 0 73 6 96 18v471h88v-509zM387 616h-250v53h250v-53z" />
    <glyph glyph-name="Ubreve" unicode="&#x16c;" horiz-adv-x="585" 
d="M508 196c0 -117 -83 -207 -216 -207s-215 90 -215 207v492h92v-492c0 -85 59 -135 127 -135s127 50 127 135v492h85v-492zM417 874c0 -81 -55 -126 -121 -126s-121 45 -121 126l42 7c6 -53 39 -79 79 -79s73 26 79 79z" />
    <glyph glyph-name="ubreve" unicode="&#x16d;" horiz-adv-x="524" 
d="M453 30c-41 -22 -115 -40 -185 -40c-129 0 -197 55 -197 176v373h88v-376c0 -75 35 -113 110 -113c34 0 73 6 96 18v471h88v-509zM383 725c0 -81 -55 -126 -121 -126s-121 45 -121 126l42 7c6 -53 39 -79 79 -79s73 26 79 79z" />
    <glyph glyph-name="Uring" unicode="&#x16e;" horiz-adv-x="585" 
d="M508 196c0 -117 -83 -207 -216 -207s-215 90 -215 207v492h92v-492c0 -85 59 -135 127 -135s127 50 127 135v492h85v-492zM375 824c0 -45 -36 -81 -81 -81s-81 36 -81 81s36 81 81 81s81 -36 81 -81zM339 824c0 25 -20 46 -45 46s-45 -21 -45 -46s20 -46 45 -46
s45 21 45 46z" />
    <glyph glyph-name="uring" unicode="&#x16f;" horiz-adv-x="524" 
d="M453 30c-41 -22 -115 -40 -185 -40c-129 0 -197 55 -197 176v373h88v-376c0 -75 35 -113 110 -113c34 0 73 6 96 18v471h88v-509zM343 678c0 -45 -36 -81 -81 -81s-81 36 -81 81s36 81 81 81s81 -36 81 -81zM307 678c0 25 -20 46 -45 46s-45 -21 -45 -46s20 -46 45 -46
s45 21 45 46z" />
    <glyph glyph-name="Uhungarumlaut" unicode="&#x170;" horiz-adv-x="585" 
d="M508 196c0 -117 -83 -207 -216 -207s-215 90 -215 207v492h92v-492c0 -85 59 -135 127 -135s127 50 127 135v492h85v-492zM475 877l-109 -130h-43l83 134c11 10 23 15 38 15c16 0 26 -7 31 -19zM347 877l-109 -130h-43l83 134c11 10 23 15 38 15c16 0 26 -7 31 -19z" />
    <glyph glyph-name="uhungarumlaut" unicode="&#x171;" horiz-adv-x="524" 
d="M453 30c-41 -22 -115 -40 -185 -40c-129 0 -197 55 -197 176v373h88v-376c0 -75 35 -113 110 -113c34 0 73 6 96 18v471h88v-509zM444 728l-109 -130h-43l83 134c11 10 23 15 38 15c16 0 26 -7 31 -19zM316 728l-109 -130h-43l83 134c11 10 23 15 38 15
c16 0 26 -7 31 -19z" />
    <glyph glyph-name="Uogonek" unicode="&#x172;" horiz-adv-x="585" 
d="M508 196c0 -95 -54 -174 -148 -198c-37 -26 -54 -55 -54 -83s23 -50 59 -50c19 0 41 4 57 11l9 -40c-21 -10 -51 -16 -81 -16c-62 0 -113 27 -113 84c0 33 21 62 51 85c-131 2 -211 91 -211 207v492h92v-492c0 -85 59 -135 127 -135s127 50 127 135v492h85v-492z" />
    <glyph glyph-name="uogonek" unicode="&#x173;" horiz-adv-x="524" 
d="M468 -164c-21 -10 -51 -16 -81 -16c-62 0 -113 27 -113 84c0 36 25 67 59 90c-21 -3 -43 -4 -65 -4c-129 0 -197 55 -197 176v373h88v-376c0 -75 35 -113 110 -113c34 0 73 6 96 18v471h88v-509c-52 -25 -110 -63 -110 -115c0 -28 23 -50 59 -50c19 0 41 4 57 11z" />
    <glyph glyph-name="Wcircumflex" unicode="&#x174;" horiz-adv-x="818" 
d="M783 688l-161 -688h-81l-117 480c-7 30 -10 54 -13 79h-2c-3 -22 -7 -49 -14 -79l-116 -480h-82l-161 688h94l101 -497c5 -25 9 -55 12 -84h2c4 30 7 52 15 84l119 497h71l115 -497c5 -20 12 -65 14 -84h2c3 22 11 70 14 84l103 497h85zM541 768l-30 -26l-97 82l-97 -82
l-30 26l93 100c9 10 23 15 34 15s25 -5 34 -15z" />
    <glyph glyph-name="wcircumflex" unicode="&#x175;" horiz-adv-x="773" 
d="M740 539l-154 -539h-77l-109 387c-5 18 -9 38 -12 62h-2c-3 -26 -6 -44 -11 -62l-109 -387h-77l-154 539h91l94 -388c3 -11 8 -37 11 -66h2c3 25 10 56 13 66l109 388h75l106 -388c6 -22 9 -39 12 -66h2c4 29 7 45 12 66l96 388h82zM520 619l-30 -26l-97 82l-97 -82
l-30 26l93 100c9 10 23 15 34 15s25 -5 34 -15z" />
    <glyph glyph-name="Ycircumflex" unicode="&#x176;" horiz-adv-x="501" 
d="M486 688l-189 -383v-305h-92v305l-188 383h99l138 -311h2l142 311h88zM383 768l-30 -26l-97 82l-97 -82l-30 26l93 100c9 10 23 15 34 15s25 -5 34 -15z" />
    <glyph glyph-name="ycircumflex" unicode="&#x177;" horiz-adv-x="492" 
d="M465 539l-250 -754h-94l89 215l-181 539h94l113 -391c5 -17 11 -50 12 -67h2c2 17 10 51 15 67l117 391h83zM379 619l-30 -26l-97 82l-97 -82l-30 26l93 100c9 10 23 15 34 15s25 -5 34 -15z" />
    <glyph glyph-name="Ydieresis" unicode="&#x178;" horiz-adv-x="501" 
d="M486 688l-189 -383v-305h-92v305l-188 383h99l138 -311h2l142 311h88zM220 803c0 -24 -20 -44 -44 -44s-44 20 -44 44s20 44 44 44s44 -20 44 -44zM380 803c0 -24 -20 -44 -44 -44s-44 20 -44 44s20 44 44 44s44 -20 44 -44z" />
    <glyph glyph-name="Zacute" unicode="&#x179;" horiz-adv-x="444" 
d="M411 0h-387l263 626h-247v62h364l-260 -626h267v-62zM345 878l-113 -131h-51l73 137c13 10 31 15 48 15c18 0 35 -7 43 -21z" />
    <glyph glyph-name="zacute" unicode="&#x17a;" horiz-adv-x="417" 
d="M378 0h-348l227 484h-210v55h323l-225 -484h233v-55zM329 729l-113 -131h-51l73 137c13 10 31 15 48 15c18 0 35 -7 43 -21z" />
    <glyph glyph-name="Zdotaccent" unicode="&#x17b;" horiz-adv-x="444" 
d="M411 0h-387l263 626h-247v62h364l-260 -626h267v-62zM274 808c0 -27 -22 -49 -49 -49s-49 22 -49 49s22 49 49 49s49 -22 49 -49z" />
    <glyph glyph-name="zdotaccent" unicode="&#x17c;" horiz-adv-x="417" 
d="M378 0h-348l227 484h-210v55h323l-225 -484h233v-55zM258 658c0 -27 -22 -49 -49 -49s-49 22 -49 49s22 49 49 49s49 -22 49 -49z" />
    <glyph glyph-name="Zcaron" unicode="&#x17d;" horiz-adv-x="444" 
d="M411 0h-387l263 626h-247v62h364l-260 -626h267v-62zM347 862l-93 -100c-9 -10 -23 -15 -34 -15s-25 5 -34 15l-93 100l30 26l97 -81l97 81z" />
    <glyph glyph-name="zcaron" unicode="&#x17e;" horiz-adv-x="417" 
d="M378 0h-348l227 484h-210v55h323l-225 -484h233v-55zM332 713l-93 -100c-9 -10 -23 -15 -34 -15s-25 5 -34 15l-93 100l30 26l97 -81l97 81z" />
    <glyph glyph-name="longs" unicode="&#x17f;" horiz-adv-x="312" 
d="M312 779l-12 -57c-13 4 -27 6 -42 6c-64 0 -93 -42 -93 -117v-826h-87v822c0 112 64 182 167 182c24 0 50 -4 67 -10z" />
    <glyph glyph-name="uni018F" unicode="&#x18f;" horiz-adv-x="605" 
d="M551 343c0 -214 -85 -353 -254 -353c-162 0 -242 119 -243 353l403 64c-12 123 -68 225 -200 225c-57 0 -118 -18 -155 -40l-25 59c45 27 114 47 187 47c185 0 287 -131 287 -355zM462 352l-315 -52c0 -150 47 -243 152 -243c113 0 163 106 163 290v5z" />
    <glyph glyph-name="florin" unicode="&#x192;" 
d="M488 680l-12 -57c-13 6 -35 10 -54 10c-67 0 -100 -61 -112 -154l-10 -74h118v-59h-125l-45 -346c-18 -138 -79 -221 -193 -221c-27 0 -57 7 -75 16l13 60c13 -6 36 -11 55 -11c67 0 100 61 112 156l45 346h-103v59h110l10 74c18 136 77 215 191 215c26 0 56 -5 75 -14z
" />
    <glyph glyph-name="uni01B5" unicode="&#x1b5;" horiz-adv-x="444" 
d="M411 0h-387l138 328h-108v55h131l102 243h-247v62h364l-127 -305h111v-55h-134l-110 -266h267v-62z" />
    <glyph glyph-name="uni01B6" unicode="&#x1b6;" horiz-adv-x="417" 
d="M378 0h-348l119 252h-95v51h118l85 181h-210v55h323l-110 -236h98v-51h-121l-92 -197h233v-55z" />
    <glyph glyph-name="uni01C4" unicode="&#x1c4;" horiz-adv-x="1040" 
d="M542 344c0 -221 -106 -354 -287 -354c-62 0 -127 12 -178 37v634c51 25 116 37 178 37c181 0 287 -133 287 -354zM448 346c0 187 -63 291 -191 291c-33 0 -70 -6 -89 -14v-555c19 -8 56 -14 89 -14c128 0 191 105 191 292zM1007 0h-387l263 626h-247v62h364l-260 -626
h267v-62zM943 862l-93 -100c-9 -10 -23 -15 -34 -15s-25 5 -34 15l-93 100l30 26l97 -81l97 81z" />
    <glyph glyph-name="uni01C5" unicode="&#x1c5;" horiz-adv-x="1013" 
d="M542 344c0 -221 -106 -354 -287 -354c-62 0 -127 12 -178 37v634c51 25 116 37 178 37c181 0 287 -133 287 -354zM448 346c0 187 -63 291 -191 291c-33 0 -70 -6 -89 -14v-555c19 -8 56 -14 89 -14c128 0 191 105 191 292zM974 0h-348l227 484h-210v55h323l-225 -484h233
v-55zM928 713l-93 -100c-9 -10 -23 -15 -34 -15s-25 5 -34 15l-93 100l30 26l97 -81l97 81z" />
    <glyph glyph-name="uni01C6" unicode="&#x1c6;" horiz-adv-x="944" 
d="M456 28c-36 -22 -99 -38 -170 -38c-155 0 -236 108 -236 269c0 159 80 286 236 286c27 0 54 -3 83 -11v251h87v-757zM369 63v420c-21 6 -45 10 -68 10c-122 0 -163 -107 -163 -225c0 -127 43 -220 153 -220c36 0 60 5 78 15zM905 0h-348l227 484h-210v55h323l-225 -484
h233v-55zM859 713l-93 -100c-9 -10 -23 -15 -34 -15s-25 5 -34 15l-93 100l30 26l97 -81l97 81z" />
    <glyph glyph-name="uni01C7" unicode="&#x1c7;" horiz-adv-x="663" 
d="M379 0h-299v688h92v-626h207v-62zM583 74c0 -152 -77 -264 -216 -294v65c77 30 124 109 124 224v619h92v-614z" />
    <glyph glyph-name="uni01C8" unicode="&#x1c8;" horiz-adv-x="657" 
d="M379 0h-299v688h92v-626h207v-62zM580 539v-467c0 -155 -56 -253 -187 -293v60c73 44 99 106 99 223v477h88zM589 691c0 -27 -24 -49 -53 -49s-53 22 -53 49s24 49 53 49s53 -22 53 -49z" />
    <glyph glyph-name="uni01C9" unicode="&#x1c9;" horiz-adv-x="488" 
d="M165 0h-88v785h88v-785zM411 539v-467c0 -155 -56 -253 -187 -293v60c73 44 99 106 99 223v477h88zM420 691c0 -27 -24 -49 -53 -49s-53 22 -53 49s24 49 53 49s53 -22 53 -49z" />
    <glyph glyph-name="uni01CA" unicode="&#x1ca;" horiz-adv-x="899" 
d="M570 0h-80l-300 513c-12 20 -29 56 -37 74h-2c2 -36 3 -64 3 -85v-502h-77v688h96l284 -489c11 -19 23 -42 37 -72h2c-2 37 -3 55 -3 82v479h77v-688zM819 74c0 -152 -77 -264 -216 -294v65c77 30 124 109 124 224v619h92v-614z" />
    <glyph glyph-name="uni01CB" unicode="&#x1cb;" horiz-adv-x="893" 
d="M570 0h-80l-300 513c-12 20 -29 56 -37 74h-2c2 -36 3 -64 3 -85v-502h-77v688h96l284 -489c11 -19 23 -42 37 -72h2c-2 37 -3 55 -3 82v479h77v-688zM816 539v-467c0 -155 -56 -253 -187 -293v60c73 44 99 106 99 223v477h88zM825 691c0 -27 -24 -49 -53 -49
s-53 22 -53 49s24 49 53 49s53 -22 53 -49z" />
    <glyph glyph-name="uni01CC" unicode="&#x1cc;" horiz-adv-x="780" 
d="M463 0h-88v372c0 81 -33 121 -121 121c-37 0 -67 -6 -95 -18v-475h-88v511c50 23 116 38 183 38c145 0 209 -63 209 -177v-372zM703 539v-467c0 -155 -56 -253 -187 -293v60c73 44 99 106 99 223v477h88zM712 691c0 -27 -24 -49 -53 -49s-53 22 -53 49s24 49 53 49
s53 -22 53 -49z" />
    <glyph glyph-name="uni01F1" unicode="&#x1f1;" horiz-adv-x="1040" 
d="M542 344c0 -221 -106 -354 -287 -354c-62 0 -127 12 -178 37v634c51 25 116 37 178 37c181 0 287 -133 287 -354zM448 346c0 187 -63 291 -191 291c-33 0 -70 -6 -89 -14v-555c19 -8 56 -14 89 -14c128 0 191 105 191 292zM1007 0h-387l263 626h-247v62h364l-260 -626
h267v-62z" />
    <glyph glyph-name="uni01F2" unicode="&#x1f2;" horiz-adv-x="1013" 
d="M542 344c0 -221 -106 -354 -287 -354c-62 0 -127 12 -178 37v634c51 25 116 37 178 37c181 0 287 -133 287 -354zM448 346c0 187 -63 291 -191 291c-33 0 -70 -6 -89 -14v-555c19 -8 56 -14 89 -14c128 0 191 105 191 292zM974 0h-348l227 484h-210v55h323l-225 -484h233
v-55z" />
    <glyph glyph-name="uni01F3" unicode="&#x1f3;" horiz-adv-x="944" 
d="M456 28c-36 -22 -99 -38 -170 -38c-155 0 -236 108 -236 269c0 159 80 286 236 286c27 0 54 -3 83 -11v251h87v-757zM369 63v420c-21 6 -45 10 -68 10c-122 0 -163 -107 -163 -225c0 -127 43 -220 153 -220c36 0 60 5 78 15zM905 0h-348l227 484h-210v55h323l-225 -484
h233v-55z" />
    <glyph glyph-name="Aringacute" unicode="&#x1fa;" horiz-adv-x="590" 
d="M469 900l-100 -118c-21 -24 -43 -39 -76 -39c-46 0 -84 34 -84 81c0 45 37 81 82 81c30 0 56 -17 67 -42l24 43c12 10 29 15 46 15s34 -7 41 -21zM335 824c0 26 -19 46 -44 46s-45 -20 -45 -46s20 -46 45 -46s44 20 44 46zM571 0h-97l-64 208h-239l-65 -208h-87l232 688
h87zM393 263l-80 260c-8 25 -16 63 -20 89h-2c-4 -23 -12 -60 -21 -89l-81 -260h204z" />
    <glyph glyph-name="aringacute" unicode="&#x1fb;" horiz-adv-x="499" 
d="M422 755l-99 -119c-20 -25 -43 -38 -76 -38c-46 0 -84 34 -84 81c0 45 37 81 82 81c30 0 56 -17 67 -42l24 42c12 10 28 16 45 16s34 -7 41 -21zM289 679c0 26 -19 46 -44 46s-45 -20 -45 -46s20 -46 45 -46s44 20 44 46zM428 28c-43 -23 -107 -38 -179 -38
c-129 0 -205 56 -205 163c0 130 128 180 302 197v33c0 74 -40 107 -115 107c-47 0 -98 -14 -135 -34l-21 54c45 23 106 39 164 39c117 0 189 -55 189 -175v-346zM346 59v245c-137 -16 -218 -54 -218 -149c0 -73 45 -114 129 -114c34 0 68 7 89 18z" />
    <glyph glyph-name="AEacute" unicode="&#x1fc;" horiz-adv-x="752" 
d="M726 0h-264l-46 208h-241l-83 -208h-88l290 688h371v-62h-264l59 -240h204v-61h-190l65 -263h187v-62zM404 263l-58 261c-7 32 -11 60 -15 88h-2c-9 -31 -17 -57 -29 -88l-103 -261h207zM556 878l-113 -131h-51l73 137c13 10 31 15 48 15c18 0 35 -7 43 -21z" />
    <glyph glyph-name="aeacute" unicode="&#x1fd;" horiz-adv-x="805" 
d="M755 285l-338 -50c8 -110 61 -182 166 -182c50 0 101 15 130 32l23 -57c-36 -21 -97 -38 -160 -38c-80 0 -145 35 -182 99c-30 -65 -84 -99 -162 -99c-114 0 -188 60 -188 163c0 129 126 180 300 197v33c0 81 -49 107 -117 107c-52 0 -101 -18 -131 -34l-21 54
c31 16 92 39 163 39c68 0 130 -26 154 -95c35 68 100 95 159 95c128 0 204 -83 204 -257v-7zM671 323c-2 109 -39 171 -123 171c-76 0 -135 -64 -135 -206v-5zM344 155v149c-135 -15 -217 -52 -217 -149c0 -66 37 -114 110 -114c58 0 107 49 107 114zM526 729l-113 -131h-51
l73 137c13 10 31 15 48 15c18 0 35 -7 43 -21z" />
    <glyph glyph-name="Oslashacute" unicode="&#x1fe;" horiz-adv-x="606" 
d="M552 344c0 -199 -76 -354 -249 -354c-66 0 -118 23 -157 62l-56 -92l-31 20l62 102c-45 64 -67 157 -67 262c0 199 76 354 249 354c67 0 118 -22 157 -62l57 92l31 -20l-63 -102c45 -64 67 -157 67 -262zM420 570c-25 44 -63 70 -117 70c-122 0 -160 -135 -160 -293
c0 -70 7 -136 26 -187zM463 347c0 68 -7 132 -25 182l-250 -409c25 -42 62 -67 115 -67c122 0 160 136 160 294zM425 879l-113 -131h-51l73 137c13 10 31 15 48 15c18 0 35 -7 43 -21z" />
    <glyph glyph-name="oslashacute" unicode="&#x1ff;" horiz-adv-x="526" 
d="M476 270c0 -162 -67 -280 -213 -280c-54 0 -98 16 -131 45l-47 -73l-29 18l52 81c-39 50 -58 123 -58 209c0 161 67 279 213 279c54 0 98 -16 131 -45l47 73l29 -18l-52 -81c39 -50 58 -123 58 -208zM356 445c-20 32 -50 53 -93 53c-98 0 -130 -105 -130 -226
c0 -52 7 -101 21 -140zM393 272c0 51 -6 99 -20 137l-202 -313c20 -31 50 -51 92 -51c98 0 130 106 130 227zM387 730l-113 -131h-51l73 137c13 10 31 15 48 15c18 0 35 -7 43 -21z" />
    <glyph glyph-name="Scommaaccent" unicode="&#x218;" horiz-adv-x="484" 
d="M431 181c0 -110 -86 -191 -218 -191c-65 0 -127 13 -169 38l27 62c37 -22 86 -32 135 -32c85 0 131 51 131 118c0 170 -285 118 -285 343c0 108 83 179 206 179c57 0 110 -16 147 -38l-24 -56c-29 18 -75 31 -116 31c-77 0 -122 -40 -122 -110c0 -167 288 -112 288 -344z
M269 -79l-99 -137h-50l61 142c12 10 29 16 46 16c19 0 35 -8 42 -21z" />
    <glyph glyph-name="scommaaccent" unicode="&#x219;" horiz-adv-x="418" 
d="M370 149c0 -87 -74 -159 -184 -159c-53 0 -111 14 -145 37l25 56c32 -20 73 -31 111 -31c63 0 104 40 104 93c0 132 -228 79 -228 257c0 83 67 147 166 147c52 0 99 -13 135 -37l-23 -52c-28 18 -65 31 -100 31c-62 0 -91 -38 -91 -85c0 -123 230 -73 230 -257zM253 -79
l-99 -137h-50l61 142c12 10 29 16 46 16c19 0 35 -8 42 -21z" />
    <glyph glyph-name="uni021A" unicode="&#x21a;" horiz-adv-x="442" 
d="M412 626h-145v-626h-92v626h-145v62h382v-62zM262 -78l-99 -137h-50l61 142c12 10 29 16 46 16c19 0 35 -8 42 -21z" />
    <glyph glyph-name="uni021B" unicode="&#x21b;" horiz-adv-x="321" 
d="M283 4c-14 -6 -32 -9 -53 -9c-77 0 -129 47 -129 136v353h-62v55h62v124l88 27v-151h94v-55h-94v-353c0 -47 23 -75 67 -75c10 0 19 1 27 4v-56zM212 -78l-99 -137h-50l61 142c12 10 29 16 46 16c19 0 35 -8 42 -21z" />
    <glyph glyph-name="uni0237" unicode="&#x237;" horiz-adv-x="246" 
d="M169 539v-467c0 -155 -56 -253 -187 -293v60c73 44 99 106 99 223v477h88z" />
    <glyph glyph-name="uni0259" unicode="&#x259;" horiz-adv-x="524" 
d="M474 268c0 -169 -76 -278 -216 -278c-139 0 -208 98 -208 280l338 51c-10 92 -60 168 -165 168c-49 0 -101 -17 -131 -35l-23 55c38 22 99 40 163 40c156 0 242 -106 242 -281zM393 273l-258 -40c2 -112 41 -186 125 -186c91 0 133 86 133 221v5z" />
    <glyph glyph-name="uni02BB" unicode="&#x2bb;" horiz-adv-x="257" 
d="M213 785l-77 -227c-11 -17 -30 -27 -52 -27s-34 11 -38 27l117 227h50z" />
    <glyph glyph-name="afii57929" unicode="&#x2bc;" horiz-adv-x="257" 
d="M211 765l-117 -227h-50l78 227c11 17 30 27 52 27s33 -11 37 -27z" />
    <glyph glyph-name="circumflex" unicode="&#x2c6;" horiz-adv-x="242" 
d="M248 620l-30 -26l-97 82l-97 -82l-30 26l93 100c9 10 23 15 34 15s25 -5 34 -15z" />
    <glyph glyph-name="caron" unicode="&#x2c7;" horiz-adv-x="242" 
d="M248 713l-93 -100c-9 -10 -23 -15 -34 -15s-25 5 -34 15l-93 100l30 26l97 -81l97 81z" />
    <glyph glyph-name="uni02C9" unicode="&#x2c9;" horiz-adv-x="242" 
d="M246 616h-250v53h250v-53z" />
    <glyph glyph-name="breve" unicode="&#x2d8;" horiz-adv-x="242" 
d="M242 725c0 -81 -55 -126 -121 -126s-121 45 -121 126l42 7c6 -53 39 -79 79 -79s73 26 79 79z" />
    <glyph glyph-name="dotaccent" unicode="&#x2d9;" horiz-adv-x="242" 
d="M170 659c0 -27 -22 -49 -49 -49s-49 22 -49 49s22 49 49 49s49 -22 49 -49z" />
    <glyph glyph-name="ring" unicode="&#x2da;" horiz-adv-x="242" 
d="M202 679c0 -45 -36 -81 -81 -81s-81 36 -81 81s36 81 81 81s81 -36 81 -81zM166 679c0 25 -20 46 -45 46s-45 -21 -45 -46s20 -46 45 -46s45 21 45 46z" />
    <glyph glyph-name="ogonek" unicode="&#x2db;" horiz-adv-x="242" 
d="M228 -164c-21 -10 -51 -16 -81 -16c-62 0 -113 27 -113 84c0 45 40 83 86 107h58c-50 -29 -75 -62 -75 -96c0 -28 23 -50 59 -50c19 0 41 4 57 11z" />
    <glyph glyph-name="tilde" unicode="&#x2dc;" horiz-adv-x="242" 
d="M250 685c-8 -46 -30 -81 -77 -81c-44 0 -63 41 -101 41c-23 0 -35 -16 -40 -39l-40 13c8 46 30 80 77 80c44 0 64 -41 102 -41c23 0 34 17 39 40z" />
    <glyph glyph-name="hungarumlaut" unicode="&#x2dd;" horiz-adv-x="242" 
d="M296 729l-109 -130h-43l83 134c11 10 23 15 38 15c16 0 26 -7 31 -19zM168 729l-109 -130h-43l83 134c11 10 23 15 38 15c16 0 26 -7 31 -19z" />
    <glyph glyph-name="uni037E" unicode="&#x37e;" horiz-adv-x="263" 
d="M195 356c0 -32 -25 -58 -57 -58s-58 26 -58 58s26 57 58 57s57 -25 57 -57zM198 80l-121 -225h-53l76 225c12 18 33 29 56 29s38 -12 42 -29z" />
    <glyph glyph-name="tonos" unicode="&#x384;" horiz-adv-x="247" 
d="M220 729l-80 -130h-51l44 135c11 11 27 18 44 18c18 0 36 -7 43 -23z" />
    <glyph glyph-name="dieresistonos" unicode="&#x385;" horiz-adv-x="262" 
d="M274 654c0 -24 -18 -44 -41 -44s-42 20 -42 44s19 43 42 43s41 -19 41 -43zM166 744l-28 -145h-43v148c7 12 21 19 35 19c15 0 29 -7 36 -22zM55 654c0 -24 -18 -44 -41 -44s-41 20 -41 44s18 43 41 43s41 -19 41 -43z" />
    <glyph glyph-name="Alphatonos" unicode="&#x386;" horiz-adv-x="590" 
d="M571 0h-97l-64 208h-239l-65 -208h-87l232 688h87zM393 263l-80 260c-8 25 -16 63 -20 89h-2c-4 -23 -12 -60 -21 -89l-81 -260h204zM148 674l-33 -178h-50v179c9 14 27 21 43 21s33 -8 40 -22z" />
    <glyph glyph-name="anoteleia" unicode="&#x387;" horiz-adv-x="286" 
d="M204 334c0 -34 -27 -61 -61 -61s-61 27 -61 61s27 60 61 60s61 -26 61 -60z" />
    <glyph glyph-name="Epsilontonos" unicode="&#x388;" horiz-adv-x="522" 
d="M476 0h-319v688h319v-62h-227v-240h204v-61h-204v-263h227v-62zM83 674l-33 -178h-50v179c9 14 27 21 43 21s33 -8 40 -22z" />
    <glyph glyph-name="Etatonos" unicode="&#x389;" horiz-adv-x="677" 
d="M600 0h-92v325h-259v-325h-92v688h92v-302h259v302h92v-688zM83 674l-33 -178h-50v179c9 14 27 21 43 21s33 -8 40 -22z" />
    <glyph glyph-name="Iotatonos" unicode="&#x38a;" horiz-adv-x="329" 
d="M249 0h-92v688h92v-688zM83 674l-33 -178h-50v179c9 14 27 21 43 21s33 -8 40 -22z" />
    <glyph glyph-name="Omicrontonos" unicode="&#x38c;" horiz-adv-x="658" 
d="M604 344c0 -199 -76 -354 -249 -354s-249 155 -249 354s76 354 249 354s249 -155 249 -354zM511 346c0 154 -37 289 -156 289s-156 -135 -156 -289s37 -290 156 -290s156 136 156 290zM83 674l-33 -178h-50v179c9 14 27 21 43 21s33 -8 40 -22z" />
    <glyph glyph-name="Upsilontonos" unicode="&#x38e;" horiz-adv-x="642" 
d="M83 674l-33 -178h-50v179c9 14 27 21 43 21s33 -8 40 -22zM620 617c-138 -90 -195 -220 -195 -414v-203h-92v203c0 194 -58 323 -196 413l28 81c122 -75 205 -188 216 -320h2c12 131 91 245 212 320z" />
    <glyph glyph-name="Omegatonos" unicode="&#x38f;" horiz-adv-x="671" 
d="M618 0h-217v61c79 91 123 204 123 324c0 122 -49 250 -161 250s-161 -128 -161 -250c0 -120 44 -233 123 -324v-61h-217v62h139c-84 92 -138 204 -138 327c0 160 85 309 254 309s254 -149 254 -309c0 -123 -54 -235 -138 -327h139v-62zM83 674l-33 -178h-50v179
c9 14 27 21 43 21s33 -8 40 -22z" />
    <glyph glyph-name="iotadieresistonos" unicode="&#x390;" horiz-adv-x="242" 
d="M165 0h-88v539h88v-539zM272 654c0 -24 -18 -44 -41 -44s-42 20 -42 44s19 43 42 43s41 -19 41 -43zM164 744l-28 -145h-43v148c7 12 21 19 35 19c15 0 29 -7 36 -22zM53 654c0 -24 -18 -44 -41 -44s-41 20 -41 44s18 43 41 43s41 -19 41 -43z" />
    <glyph glyph-name="Alpha" unicode="&#x391;" horiz-adv-x="590" 
d="M571 0h-97l-64 208h-239l-65 -208h-87l232 688h87zM393 263l-80 260c-8 25 -16 63 -20 89h-2c-4 -23 -12 -60 -21 -89l-81 -260h204z" />
    <glyph glyph-name="Beta" unicode="&#x392;" horiz-adv-x="562" 
d="M514 186c0 -138 -106 -196 -249 -196c-72 0 -141 13 -188 37v634c49 24 112 37 180 37c151 0 231 -72 231 -173c0 -86 -53 -139 -132 -159v-2c83 -16 158 -85 158 -178zM400 519c0 78 -44 124 -145 124c-32 0 -65 -5 -91 -15v-243h52c129 0 184 45 184 134zM422 185
c0 108 -68 154 -206 154h-52v-276c25 -11 59 -15 96 -15c91 0 162 38 162 137z" />
    <glyph glyph-name="Gamma" unicode="&#x393;" horiz-adv-x="434" 
d="M404 626h-231v-626h-92v688h323v-62z" />
    <glyph glyph-name="uni0394" unicode="&#x394;" horiz-adv-x="590" 
d="M571 0h-552l232 688h87zM458 58l-145 465c-11 35 -16 67 -20 89h-2c-4 -22 -12 -60 -21 -89l-147 -465h335z" />
    <glyph glyph-name="Epsilon" unicode="&#x395;" horiz-adv-x="442" 
d="M396 0h-319v688h319v-62h-227v-240h204v-61h-204v-263h227v-62z" />
    <glyph glyph-name="Zeta" unicode="&#x396;" horiz-adv-x="444" 
d="M411 0h-387l263 626h-247v62h364l-260 -626h267v-62z" />
    <glyph glyph-name="Eta" unicode="&#x397;" horiz-adv-x="597" 
d="M520 0h-92v325h-259v-325h-92v688h92v-302h259v302h92v-688z" />
    <glyph glyph-name="Theta" unicode="&#x398;" horiz-adv-x="622" 
d="M568 344c0 -199 -84 -354 -257 -354s-257 155 -257 354s84 354 257 354s257 -155 257 -354zM479 346c0 154 -47 290 -168 290s-168 -136 -168 -290s47 -290 168 -290s168 136 168 290zM425 325h-228v61h228v-61z" />
    <glyph glyph-name="Iota" unicode="&#x399;" horiz-adv-x="252" 
d="M172 0h-92v688h92v-688z" />
    <glyph glyph-name="Kappa" unicode="&#x39a;" horiz-adv-x="540" 
d="M522 0h-110l-240 356h-2v-356h-90v688h90v-319h2l238 319h101l-255 -321z" />
    <glyph glyph-name="Lambda" unicode="&#x39b;" horiz-adv-x="584" 
d="M565 0h-103l-154 514c-8 28 -14 59 -18 87h-2c-4 -28 -10 -59 -18 -87l-155 -514h-96l231 688h84z" />
    <glyph glyph-name="Mu" unicode="&#x39c;" horiz-adv-x="782" 
d="M729 0h-88l-52 515c-3 25 -4 52 -5 81h-2c-3 -16 -12 -56 -19 -81l-147 -515h-59l-145 515c-7 26 -11 42 -19 81h-2c-1 -34 -3 -59 -5 -81l-54 -515h-79l82 688h97l140 -496c8 -28 13 -52 18 -85h2c5 33 10 57 18 85l140 496h98z" />
    <glyph glyph-name="Nu" unicode="&#x39d;" horiz-adv-x="647" 
d="M570 0h-80l-300 513c-12 20 -29 56 -37 74h-2c2 -36 3 -64 3 -85v-502h-77v688h96l284 -489c11 -19 23 -42 37 -72h2c-2 37 -3 55 -3 82v479h77v-688z" />
    <glyph glyph-name="Xi" unicode="&#x39e;" horiz-adv-x="452" 
d="M402 626h-352v62h352v-62zM383 325h-314v61h314v-61zM406 0h-360v62h360v-62z" />
    <glyph glyph-name="Omicron" unicode="&#x39f;" horiz-adv-x="606" 
d="M552 344c0 -199 -76 -354 -249 -354s-249 155 -249 354s76 354 249 354s249 -155 249 -354zM459 346c0 154 -37 289 -156 289s-156 -135 -156 -289s37 -290 156 -290s156 136 156 290z" />
    <glyph glyph-name="Pi" unicode="&#x3a0;" horiz-adv-x="597" 
d="M520 0h-92v627h-259v-627h-92v688h443v-688z" />
    <glyph glyph-name="Rho" unicode="&#x3a1;" horiz-adv-x="526" 
d="M485 490c0 -115 -76 -209 -251 -209c-24 0 -48 3 -67 6v-287h-90v661c45 22 108 37 172 37c162 0 236 -86 236 -208zM396 492c0 93 -43 151 -147 151c-30 0 -60 -6 -82 -14v-287c18 -3 43 -5 67 -5c120 0 162 68 162 155z" />
    <glyph glyph-name="Sigma" unicode="&#x3a3;" horiz-adv-x="450" 
d="M410 0h-390l222 362l-209 326h373v-62h-240l172 -264l-187 -300h259v-62z" />
    <glyph glyph-name="Tau" unicode="&#x3a4;" horiz-adv-x="442" 
d="M412 626h-145v-626h-92v626h-145v62h382v-62z" />
    <glyph glyph-name="Upsilon" unicode="&#x3a5;" horiz-adv-x="527" 
d="M505 617c-138 -90 -195 -220 -195 -414v-203h-92v203c0 194 -58 323 -196 413l28 81c122 -75 205 -188 216 -320h2c12 131 91 245 212 320z" />
    <glyph glyph-name="Phi" unicode="&#x3a6;" horiz-adv-x="708" 
d="M658 345c0 -157 -96 -295 -265 -307v-65h-78v65c-169 12 -265 150 -265 307s96 296 265 307v63h78v-63c169 -11 265 -150 265 -307zM572 346c0 121 -60 243 -179 252v-503c119 10 179 130 179 251zM315 95v503c-119 -9 -179 -131 -179 -252s60 -241 179 -251z" />
    <glyph glyph-name="Chi" unicode="&#x3a7;" horiz-adv-x="526" 
d="M502 0h-103l-137 291h-2l-142 -291h-94l191 355l-173 333h98l123 -262h2l129 262h89l-172 -324z" />
    <glyph glyph-name="Psi" unicode="&#x3a8;" horiz-adv-x="688" 
d="M628 470c0 -159 -81 -248 -243 -259v-211h-82v211c-163 11 -243 99 -243 259v218h82v-219c0 -115 44 -188 161 -197v416h82v-416c117 9 161 82 161 197v219h82v-218z" />
    <glyph glyph-name="uni03A9" unicode="&#x3a9;" horiz-adv-x="616" 
d="M563 0h-217v61c79 91 123 204 123 324c0 122 -49 250 -161 250s-161 -128 -161 -250c0 -120 44 -233 123 -324v-61h-217v62h139c-84 92 -138 204 -138 327c0 160 85 309 254 309s254 -149 254 -309c0 -123 -54 -235 -138 -327h139v-62z" />
    <glyph glyph-name="Iotadieresis" unicode="&#x3aa;" horiz-adv-x="252" 
d="M172 0h-92v688h92v-688zM90 803c0 -24 -20 -44 -44 -44s-44 20 -44 44s20 44 44 44s44 -20 44 -44zM250 803c0 -24 -20 -44 -44 -44s-44 20 -44 44s20 44 44 44s44 -20 44 -44z" />
    <glyph glyph-name="Upsilondieresis" unicode="&#x3ab;" horiz-adv-x="527" 
d="M505 617c-138 -90 -195 -220 -195 -414v-203h-92v203c0 194 -58 323 -196 413l28 81c122 -75 205 -188 216 -320h2c12 131 91 245 212 320zM389 781c0 -24 -20 -44 -44 -44s-44 20 -44 44s20 44 44 44s44 -20 44 -44zM229 781c0 -24 -20 -44 -44 -44s-44 20 -44 44
s20 44 44 44s44 -20 44 -44z" />
    <glyph glyph-name="alphatonos" unicode="&#x3ac;" horiz-adv-x="593" 
d="M554 0h-84l-42 172h-2c-35 -99 -80 -182 -177 -182c-131 0 -199 124 -199 280s68 279 199 279c97 0 142 -81 177 -180h2l42 170h83l-83 -268zM398 270c-31 118 -76 223 -148 223c-77 0 -113 -109 -113 -221s36 -222 113 -222c72 0 115 102 148 220zM410 729l-80 -130h-51
l44 135c11 11 27 18 44 18c18 0 36 -7 43 -23z" />
    <glyph glyph-name="epsilontonos" unicode="&#x3ad;" horiz-adv-x="450" 
d="M417 27c-45 -24 -108 -37 -165 -37c-137 0 -206 75 -206 151c0 58 41 117 124 141v2c-70 25 -105 78 -105 130c0 68 62 135 189 135c54 0 112 -13 157 -37l-22 -51c-36 19 -83 30 -125 30c-76 0 -111 -41 -111 -85c0 -50 47 -101 135 -101h62v-54h-69
c-98 0 -144 -51 -144 -102s45 -98 127 -98c44 0 95 11 131 30zM346 729l-80 -130h-51l44 135c11 11 27 18 44 18c18 0 36 -7 43 -23z" />
    <glyph glyph-name="etatonos" unicode="&#x3ae;" horiz-adv-x="534" 
d="M463 -215h-88v587c0 81 -33 121 -121 121c-37 0 -67 -6 -95 -18v-475h-88v511c50 23 116 38 183 38c145 0 209 -63 209 -177v-587zM363 729l-80 -130h-51l44 135c11 11 27 18 44 18c18 0 36 -7 43 -23z" />
    <glyph glyph-name="iotatonos" unicode="&#x3af;" horiz-adv-x="242" 
d="M165 0h-88v539h88v-539zM220 729l-80 -130h-51l44 135c11 11 27 18 44 18c18 0 36 -7 43 -23z" />
    <glyph glyph-name="upsilondieresistonos" unicode="&#x3b0;" horiz-adv-x="524" 
d="M453 165c0 -116 -90 -175 -191 -175s-191 59 -191 175v374h88v-377c0 -74 51 -111 103 -111s103 37 103 111v377h88v-374zM413 654c0 -24 -18 -44 -41 -44s-42 20 -42 44s19 43 42 43s41 -19 41 -43zM305 744l-28 -145h-43v148c7 12 21 19 35 19c15 0 29 -7 36 -22z
M194 654c0 -24 -18 -44 -41 -44s-41 20 -41 44s18 43 41 43s41 -19 41 -43z" />
    <glyph glyph-name="alpha" unicode="&#x3b1;" horiz-adv-x="593" 
d="M554 0h-84l-42 172h-2c-35 -99 -80 -182 -177 -182c-131 0 -199 124 -199 280s68 279 199 279c97 0 142 -81 177 -180h2l42 170h83l-83 -268zM398 270c-31 118 -76 223 -148 223c-77 0 -113 -109 -113 -221s36 -222 113 -222c72 0 115 102 148 220z" />
    <glyph glyph-name="beta" unicode="&#x3b2;" horiz-adv-x="538" 
d="M492 222c0 -115 -80 -232 -229 -232c-33 0 -70 7 -104 23v-228h-85v761c0 140 54 249 192 249c116 0 180 -88 180 -186c0 -75 -40 -147 -112 -176v-2c107 -29 158 -118 158 -209zM404 224c0 86 -51 173 -156 173h-24v52c105 11 140 77 140 157c0 68 -31 133 -98 133
c-84 0 -107 -85 -107 -191v-475c29 -16 59 -24 90 -24c101 0 155 88 155 175z" />
    <glyph glyph-name="gamma" unicode="&#x3b3;" horiz-adv-x="506" 
d="M466 539c-8 -181 -78 -367 -180 -539v-215h-86v116c0 207 -72 424 -177 638h95c67 -143 116 -309 134 -468h2c68 131 119 316 125 468h87z" />
    <glyph glyph-name="delta" unicode="&#x3b4;" horiz-adv-x="526" 
d="M476 250c0 -134 -71 -260 -213 -260c-137 0 -213 117 -213 252c0 115 59 233 172 289c-48 45 -87 89 -87 146c0 62 48 108 114 108h165v-58h-149c-30 0 -51 -25 -51 -56c0 -117 262 -184 262 -421zM389 251c0 110 -61 180 -124 240c-88 -43 -128 -149 -128 -246
c0 -101 43 -196 126 -196c89 0 126 106 126 202z" />
    <glyph glyph-name="epsilon" unicode="&#x3b5;" horiz-adv-x="450" 
d="M417 27c-45 -24 -108 -37 -165 -37c-137 0 -206 75 -206 151c0 58 41 117 124 141v2c-70 25 -105 78 -105 130c0 68 62 135 189 135c54 0 112 -13 157 -37l-22 -51c-36 19 -83 30 -125 30c-76 0 -111 -41 -111 -85c0 -50 47 -101 135 -101h62v-54h-69
c-98 0 -144 -51 -144 -102s45 -98 127 -98c44 0 95 11 131 30z" />
    <glyph glyph-name="zeta" unicode="&#x3b6;" horiz-adv-x="406" 
d="M402 -66c0 -34 -22 -78 -48 -106l-55 31c16 22 26 50 26 71c0 37 -28 54 -75 70c-117 40 -202 99 -202 253c0 160 138 363 264 472v2h-212v58h295v-58c-128 -109 -256 -309 -256 -468c0 -145 83 -179 155 -209c57 -24 108 -45 108 -116z" />
    <glyph glyph-name="eta" unicode="&#x3b7;" horiz-adv-x="534" 
d="M463 -215h-88v587c0 81 -33 121 -121 121c-37 0 -67 -6 -95 -18v-475h-88v511c50 23 116 38 183 38c145 0 209 -63 209 -177v-587z" />
    <glyph glyph-name="theta" unicode="&#x3b8;" horiz-adv-x="538" 
d="M482 393c0 -201 -51 -403 -213 -403s-213 202 -213 403s51 402 213 402s213 -201 213 -402zM398 426c-3 149 -30 313 -129 313s-125 -164 -128 -313h257zM398 369h-257c2 -150 28 -320 128 -320s127 170 129 320z" />
    <glyph glyph-name="iota" unicode="&#x3b9;" horiz-adv-x="242" 
d="M165 0h-88v539h88v-539z" />
    <glyph glyph-name="kappa" unicode="&#x3ba;" horiz-adv-x="507" 
d="M487 0h-100l-56 107c-41 77 -86 137 -171 169v-276h-87v539h87v-250h2l213 250h100l-227 -246c75 -35 125 -90 167 -165z" />
    <glyph glyph-name="lambda" unicode="&#x3bb;" horiz-adv-x="512" 
d="M484 0h-95l-112 391c-6 21 -13 53 -17 76h-2c-3 -23 -9 -53 -16 -76l-124 -391h-90l196 539l-90 246h88z" />
    <glyph glyph-name="uni03BC" unicode="&#x3bc;" horiz-adv-x="527" 
d="M456 42c-46 -32 -110 -52 -175 -52c-41 0 -86 9 -119 29v-234h-88v754h88v-458c28 -20 68 -32 107 -32c37 0 74 12 99 29v461h88v-497z" />
    <glyph glyph-name="nu" unicode="&#x3bd;" horiz-adv-x="504" 
d="M464 539c-8 -178 -76 -364 -179 -539h-79l-178 539h95l130 -458h2c67 128 116 303 122 458h87z" />
    <glyph glyph-name="xi" unicode="&#x3be;" horiz-adv-x="419" 
d="M410 -65c0 -34 -22 -79 -48 -107l-55 31c16 22 25 49 25 71c0 39 -30 55 -75 69c-106 34 -211 83 -211 227c0 90 59 176 161 203v2c-83 36 -125 106 -125 178c0 94 71 176 201 176h126v-58h-108c-87 0 -132 -61 -132 -127c0 -75 59 -152 179 -152h15v-56h-62
c-99 0 -163 -80 -163 -164c0 -120 83 -148 157 -176c66 -25 115 -48 115 -117z" />
    <glyph glyph-name="omicron" unicode="&#x3bf;" horiz-adv-x="526" 
d="M476 270c0 -162 -67 -280 -213 -280s-213 118 -213 280c0 161 67 279 213 279s213 -118 213 -279zM388 272c0 120 -31 221 -125 221s-125 -101 -125 -221s31 -223 125 -223s125 103 125 223z" />
    <glyph glyph-name="pi" unicode="&#x3c0;" horiz-adv-x="578" 
d="M540 482h-73v-482h-87v482h-170l-63 -482h-88l65 482h-77v57h493v-57z" />
    <glyph glyph-name="rho" unicode="&#x3c1;" horiz-adv-x="534" 
d="M484 274c0 -143 -73 -284 -230 -284c-32 0 -68 7 -98 23v-228h-86v489c0 156 64 275 206 275c143 0 208 -119 208 -275zM396 274c0 117 -28 219 -120 219c-91 0 -120 -102 -120 -219v-201c27 -18 62 -25 92 -25c108 0 148 115 148 226z" />
    <glyph glyph-name="sigma1" unicode="&#x3c2;" horiz-adv-x="408" 
d="M389 -65c0 -34 -22 -79 -48 -107l-54 31c16 22 25 49 25 71c0 38 -30 56 -67 70c-127 47 -195 116 -195 272c0 134 68 277 218 277c43 0 86 -11 118 -35l-21 -52c-25 16 -54 26 -83 26c-102 0 -142 -118 -142 -215c0 -159 81 -194 150 -224c55 -24 99 -46 99 -114z" />
    <glyph glyph-name="sigma" unicode="&#x3c3;" horiz-adv-x="555" 
d="M524 481h-55c-22 0 -44 1 -68 5v-2c49 -41 75 -120 75 -219c0 -146 -60 -275 -213 -275c-146 0 -213 118 -213 280c0 161 67 279 213 279c43 0 59 -10 112 -10h149v-58zM388 272c0 120 -31 221 -125 221s-125 -101 -125 -221s31 -223 125 -223s125 103 125 223z" />
    <glyph glyph-name="tau" unicode="&#x3c4;" horiz-adv-x="400" 
d="M368 481h-124v-481h-88v481h-124v58h336v-58z" />
    <glyph glyph-name="upsilon" unicode="&#x3c5;" horiz-adv-x="524" 
d="M453 165c0 -116 -90 -175 -191 -175s-191 59 -191 175v374h88v-377c0 -74 51 -111 103 -111s103 37 103 111v377h88v-374z" />
    <glyph glyph-name="phi" unicode="&#x3c6;" horiz-adv-x="688" 
d="M638 288c0 -151 -78 -281 -263 -297v-206h-77v206c-165 14 -248 152 -248 291c0 109 50 218 152 267l28 -55c-65 -36 -99 -124 -99 -212c0 -110 54 -220 167 -233v463c43 26 88 37 137 37c136 0 203 -119 203 -261zM558 287c0 109 -34 208 -123 208c-21 0 -42 -4 -60 -14
v-433c139 14 183 118 183 239z" />
    <glyph glyph-name="chi" unicode="&#x3c7;" horiz-adv-x="512" 
d="M494 -215h-95l-151 330h-2c-64 -83 -118 -186 -142 -330h-86c29 172 112 294 193 395l-180 359h94l136 -302h2c59 77 105 171 125 302h86c-26 -161 -100 -270 -175 -365z" />
    <glyph glyph-name="psi" unicode="&#x3c8;" horiz-adv-x="670" 
d="M604 259c0 -164 -71 -256 -230 -268v-206h-78v206c-159 12 -230 104 -230 268v280h80v-280c0 -126 37 -198 150 -209v638h78v-638c113 11 150 83 150 209v280h80v-280z" />
    <glyph glyph-name="omega" unicode="&#x3c9;" horiz-adv-x="688" 
d="M636 255c0 -136 -48 -265 -167 -265c-61 0 -102 33 -124 94h-2c-22 -61 -63 -94 -124 -94c-119 0 -167 129 -167 265c0 102 27 211 70 284h81c-43 -74 -70 -183 -70 -284c0 -96 22 -205 91 -205c52 0 81 62 81 177v193h78v-193c0 -115 29 -177 81 -177
c69 0 91 109 91 205c0 101 -27 210 -70 284h81c43 -73 70 -182 70 -284z" />
    <glyph glyph-name="iotadieresis" unicode="&#x3ca;" horiz-adv-x="242" 
d="M165 0h-88v539h88v-539zM245 654c0 -24 -20 -44 -44 -44s-44 20 -44 44s20 44 44 44s44 -20 44 -44zM85 654c0 -24 -20 -44 -44 -44s-44 20 -44 44s20 44 44 44s44 -20 44 -44z" />
    <glyph glyph-name="upsilondieresis" unicode="&#x3cb;" horiz-adv-x="524" 
d="M453 165c0 -116 -90 -175 -191 -175s-191 59 -191 175v374h88v-377c0 -74 51 -111 103 -111s103 37 103 111v377h88v-374zM386 654c0 -24 -20 -44 -44 -44s-44 20 -44 44s20 44 44 44s44 -20 44 -44zM226 654c0 -24 -20 -44 -44 -44s-44 20 -44 44s20 44 44 44
s44 -20 44 -44z" />
    <glyph glyph-name="omicrontonos" unicode="&#x3cc;" horiz-adv-x="526" 
d="M476 270c0 -162 -67 -280 -213 -280s-213 118 -213 280c0 161 67 279 213 279s213 -118 213 -279zM388 272c0 120 -31 221 -125 221s-125 -101 -125 -221s31 -223 125 -223s125 103 125 223zM363 729l-80 -130h-51l44 135c11 11 27 18 44 18c18 0 36 -7 43 -23z" />
    <glyph glyph-name="upsilontonos" unicode="&#x3cd;" horiz-adv-x="524" 
d="M453 165c0 -116 -90 -175 -191 -175s-191 59 -191 175v374h88v-377c0 -74 51 -111 103 -111s103 37 103 111v377h88v-374zM359 729l-80 -130h-51l44 135c11 11 27 18 44 18c18 0 36 -7 43 -23z" />
    <glyph glyph-name="omegatonos" unicode="&#x3ce;" horiz-adv-x="688" 
d="M636 255c0 -136 -48 -265 -167 -265c-61 0 -102 33 -124 94h-2c-22 -61 -63 -94 -124 -94c-119 0 -167 129 -167 265c0 102 27 211 70 284h81c-43 -74 -70 -183 -70 -284c0 -96 22 -205 91 -205c52 0 81 62 81 177v193h78v-193c0 -115 29 -177 81 -177
c69 0 91 109 91 205c0 101 -27 210 -70 284h81c43 -73 70 -182 70 -284zM446 729l-80 -130h-51l44 135c11 11 27 18 44 18c18 0 36 -7 43 -23z" />
    <glyph glyph-name="uni03D0" unicode="&#x3d0;" horiz-adv-x="534" 
d="M488 219c0 -119 -71 -229 -212 -229c-144 0 -205 104 -205 248v308c0 140 54 249 192 249c115 0 180 -86 180 -186c0 -67 -33 -141 -112 -172v-2c108 -29 157 -124 157 -216zM361 606c0 68 -31 133 -98 133c-84 0 -107 -86 -107 -193v-103l71 10c91 13 134 63 134 153z
M400 221c0 100 -52 180 -160 180c-26 0 -58 -4 -84 -10v-157c0 -96 30 -185 119 -185c88 0 125 84 125 172z" />
    <glyph glyph-name="theta1" unicode="&#x3d1;" horiz-adv-x="534" 
d="M478 419c0 -226 -49 -429 -212 -429c-143 0 -208 148 -216 319h86c8 -132 41 -260 130 -260c97 0 125 180 125 354c-31 -14 -71 -21 -109 -21c-158 0 -232 107 -232 212c0 102 70 201 199 201c168 0 229 -162 229 -376zM390 458c-4 149 -36 281 -142 281
c-73 0 -114 -70 -114 -143c0 -78 46 -158 154 -158c34 0 73 7 102 20z" />
    <glyph glyph-name="Upsilon1" unicode="&#x3d2;" horiz-adv-x="527" 
d="M497 622c-12 5 -28 8 -39 8c-107 0 -166 -280 -166 -456v-174h-92v194c0 187 -57 352 -187 494h103c76 -89 119 -195 131 -312h2c16 139 72 319 194 319c17 0 36 -4 54 -12v-61z" />
    <glyph glyph-name="uni03D3" unicode="&#x3d3;" horiz-adv-x="649" 
d="M83 674l-33 -178h-50v179c9 14 27 21 43 21s33 -8 40 -22zM619 622c-12 5 -28 8 -39 8c-107 0 -166 -280 -166 -456v-174h-92v194c0 187 -57 352 -187 494h103c76 -89 119 -195 131 -312h2c16 139 72 319 194 319c17 0 36 -4 54 -12v-61z" />
    <glyph glyph-name="uni03D4" unicode="&#x3d4;" horiz-adv-x="527" 
d="M497 622c-12 5 -28 8 -39 8c-107 0 -166 -280 -166 -456v-174h-92v194c0 187 -57 352 -187 494h103c76 -89 119 -195 131 -312h2c16 139 72 319 194 319c17 0 36 -4 54 -12v-61zM377 795c0 -24 -20 -44 -44 -44s-44 20 -44 44s20 44 44 44s44 -20 44 -44zM217 795
c0 -24 -20 -44 -44 -44s-44 20 -44 44s20 44 44 44s44 -20 44 -44z" />
    <glyph glyph-name="phi1" unicode="&#x3d5;" horiz-adv-x="688" 
d="M638 270c0 -135 -88 -264 -255 -278v-207h-78v207c-167 14 -255 143 -255 278s88 264 255 277v141h78v-141c167 -13 255 -142 255 -277zM557 272c0 103 -50 207 -174 221v-443c124 13 174 119 174 222zM305 50v443c-124 -14 -174 -118 -174 -221s50 -209 174 -222z" />
    <glyph glyph-name="uni0400" unicode="&#x400;" horiz-adv-x="442" 
d="M396 0h-319v688h319v-62h-227v-240h204v-61h-204v-263h227v-62zM281 747h-51l-113 131c8 14 25 21 43 21c17 0 35 -5 48 -15z" />
    <glyph glyph-name="afii10023" unicode="&#x401;" horiz-adv-x="442" 
d="M396 0h-319v688h319v-62h-227v-240h204v-61h-204v-263h227v-62zM198 803c0 -24 -20 -44 -44 -44s-44 20 -44 44s20 44 44 44s44 -20 44 -44zM358 803c0 -24 -20 -44 -44 -44s-44 20 -44 44s20 44 44 44s44 -20 44 -44z" />
    <glyph glyph-name="afii10051" unicode="&#x402;" horiz-adv-x="682" 
d="M630 183c0 -152 -90 -319 -256 -374l-28 62c127 41 191 182 191 307c0 115 -52 215 -160 215c-35 0 -78 -10 -109 -30v-363h-92v626h-144v62h461v-62h-225v-207c32 21 82 34 122 34c167 0 240 -126 240 -270z" />
    <glyph glyph-name="afii10052" unicode="&#x403;" horiz-adv-x="452" 
d="M422 626h-248v-626h-92v688h340v-62zM377 878l-113 -131h-51l73 137c13 10 31 15 48 15c18 0 35 -7 43 -21z" />
    <glyph glyph-name="afii10053" unicode="&#x404;" horiz-adv-x="504" 
d="M469 28c-39 -24 -90 -38 -149 -38c-185 0 -266 164 -266 354s81 354 266 354c58 0 110 -14 149 -38l-25 -56c-29 18 -74 29 -115 29c-123 0 -172 -116 -180 -247h264v-61h-264c4 -138 52 -265 180 -265c40 0 84 11 114 29z" />
    <glyph glyph-name="afii10054" unicode="&#x405;" horiz-adv-x="484" 
d="M431 181c0 -110 -86 -191 -218 -191c-65 0 -127 13 -169 38l27 62c37 -22 86 -32 135 -32c85 0 131 51 131 118c0 170 -285 118 -285 343c0 108 83 179 206 179c57 0 110 -16 147 -38l-24 -56c-29 18 -75 31 -116 31c-77 0 -122 -40 -122 -110c0 -167 288 -112 288 -344z
" />
    <glyph glyph-name="afii10055" unicode="&#x406;" horiz-adv-x="252" 
d="M172 0h-92v688h92v-688z" />
    <glyph glyph-name="afii10056" unicode="&#x407;" horiz-adv-x="252" 
d="M172 0h-92v688h92v-688zM250 803c0 -24 -20 -44 -44 -44s-44 20 -44 44s20 44 44 44s44 -20 44 -44zM90 803c0 -24 -20 -44 -44 -44s-44 20 -44 44s20 44 44 44s44 -20 44 -44z" />
    <glyph glyph-name="afii10057" unicode="&#x408;" horiz-adv-x="252" 
d="M172 74c0 -152 -77 -264 -216 -294v65c77 30 124 109 124 224v619h92v-614z" />
    <glyph glyph-name="afii10058" unicode="&#x409;" horiz-adv-x="933" 
d="M884 200c0 -135 -100 -210 -245 -210c-60 0 -123 14 -173 37l-46 600h-159l-14 -176c-16 -197 -41 -374 -208 -467l-26 79c116 74 133 229 145 391l18 234h330l22 -291c35 12 73 19 111 19c138 0 245 -65 245 -216zM791 200c0 111 -63 159 -158 159
c-35 0 -69 -5 -101 -16l21 -280c25 -10 56 -15 86 -15c96 0 152 57 152 152z" />
    <glyph glyph-name="afii10059" unicode="&#x40a;" horiz-adv-x="898" 
d="M849 200c0 -138 -104 -210 -245 -210c-71 0 -138 13 -185 37v298h-252v-325h-90v688h90v-302h252v302h90v-289c30 10 67 17 100 17c144 0 240 -74 240 -216zM757 200c0 101 -52 159 -153 159c-31 0 -69 -6 -95 -15v-281c24 -11 59 -15 95 -15c94 0 153 53 153 152z" />
    <glyph glyph-name="afii10060" unicode="&#x40b;" horiz-adv-x="676" 
d="M603 0h-92v257c0 84 -43 136 -127 136c-37 0 -85 -12 -116 -30v-363h-92v626h-144v62h461v-62h-225v-207c36 21 88 34 133 34c128 0 202 -68 202 -196v-257z" />
    <glyph glyph-name="afii10061" unicode="&#x40c;" horiz-adv-x="558" 
d="M536 0h-105l-64 137c-46 99 -99 174 -197 215v-352h-90v688h90v-321h2l246 321h104l-259 -315c85 -44 142 -113 190 -209zM411 878l-113 -131h-51l73 137c13 10 31 15 48 15c18 0 35 -7 43 -21z" />
    <glyph glyph-name="uni040D" unicode="&#x40d;" horiz-adv-x="614" 
d="M537 0h-81v503c0 28 1 57 3 85h-2c-10 -27 -23 -54 -36 -79l-262 -509h-82v688h81v-485c0 -25 0 -51 -3 -82h2c10 29 21 54 33 78l251 489h96v-688zM354 747h-51l-113 131c8 14 25 21 43 21c17 0 35 -5 48 -15z" />
    <glyph glyph-name="afii10062" unicode="&#x40e;" 
d="M500 688c-28 -166 -87 -331 -166 -477l-113 -211h-105l121 210c-103 146 -177 307 -209 478h97c27 -141 79 -281 158 -408h2c56 120 104 264 127 408h88zM389 874c0 -81 -55 -126 -121 -126s-121 45 -121 126l42 7c6 -53 39 -79 79 -79s73 26 79 79z" />
    <glyph glyph-name="afii10145" unicode="&#x40f;" horiz-adv-x="593" 
d="M516 0h-180l-7 -162h-65l-7 162h-180v688h92v-626h255v626h92v-688z" />
    <glyph glyph-name="afii10017" unicode="&#x410;" horiz-adv-x="590" 
d="M571 0h-97l-64 208h-239l-65 -208h-87l232 688h87zM393 263l-80 260c-9 29 -16 64 -20 89h-2c-4 -25 -12 -60 -21 -89l-81 -260h204z" />
    <glyph glyph-name="afii10018" unicode="&#x411;" horiz-adv-x="564" 
d="M516 198c0 -137 -106 -208 -250 -208c-72 0 -141 13 -189 37v661h377v-62h-287v-231c30 10 70 17 104 17c146 0 245 -73 245 -214zM423 198c0 100 -55 157 -158 157c-32 0 -71 -6 -98 -15v-277c25 -11 61 -15 98 -15c97 0 158 52 158 150z" />
    <glyph glyph-name="afii10019" unicode="&#x412;" horiz-adv-x="562" 
d="M514 186c0 -138 -106 -196 -249 -196c-72 0 -141 13 -188 37v634c49 24 112 37 180 37c151 0 231 -72 231 -173c0 -86 -53 -139 -132 -159v-2c83 -16 158 -85 158 -178zM400 519c0 78 -44 124 -145 124c-32 0 -65 -5 -91 -15v-243h52c129 0 184 45 184 134zM422 185
c0 108 -68 154 -206 154h-52v-276c25 -11 59 -15 96 -15c91 0 162 38 162 137z" />
    <glyph glyph-name="afii10020" unicode="&#x413;" horiz-adv-x="452" 
d="M422 626h-248v-626h-92v688h340v-62z" />
    <glyph glyph-name="afii10021" unicode="&#x414;" horiz-adv-x="658" 
d="M620 42l-10 -204h-64l-5 162h-428l-5 -162h-64l-10 204c99 99 123 247 140 412l24 234h319l50 -626zM479 61l-43 566h-160l-18 -177c-17 -163 -34 -271 -111 -389h332z" />
    <glyph glyph-name="afii10022" unicode="&#x415;" horiz-adv-x="442" 
d="M396 0h-319v688h319v-62h-227v-240h204v-61h-204v-263h227v-62z" />
    <glyph glyph-name="afii10024" unicode="&#x416;" horiz-adv-x="824" 
d="M802 0h-100l-62 137c-45 99 -89 175 -185 215v-352h-86v352c-96 -40 -140 -116 -185 -215l-62 -137h-100l81 164c47 96 96 165 179 209l-246 315h98l233 -321h2v321h86v-321h2l233 321h98l-246 -315c83 -44 132 -113 179 -209z" />
    <glyph glyph-name="afii10025" unicode="&#x417;" horiz-adv-x="482" 
d="M434 188c0 -126 -99 -198 -231 -198c-62 0 -124 13 -168 38l27 62c36 -21 87 -32 135 -32c87 0 143 48 143 130c0 98 -81 137 -186 137h-45v61h45c103 0 169 56 169 138c0 69 -54 111 -128 111c-44 0 -87 -11 -124 -31l-25 56c42 23 101 38 158 38
c112 0 208 -55 208 -169c0 -80 -54 -140 -134 -163v-2c94 -22 156 -79 156 -176z" />
    <glyph glyph-name="afii10026" unicode="&#x418;" horiz-adv-x="614" 
d="M537 0h-81v503c0 28 1 57 3 85h-2c-10 -27 -23 -54 -36 -79l-262 -509h-82v688h81v-485c0 -25 0 -51 -3 -82h2c10 29 21 54 33 78l251 489h96v-688z" />
    <glyph glyph-name="afii10027" unicode="&#x419;" horiz-adv-x="614" 
d="M537 0h-81v503c0 28 1 57 3 85h-2c-10 -27 -23 -54 -36 -79l-262 -509h-82v688h81v-485c0 -25 0 -51 -3 -82h2c10 29 21 54 33 78l251 489h96v-688zM429 874c0 -81 -55 -126 -121 -126s-121 45 -121 126l42 7c6 -53 39 -79 79 -79s73 26 79 79z" />
    <glyph glyph-name="afii10028" unicode="&#x41a;" horiz-adv-x="558" 
d="M536 0h-105l-64 137c-46 99 -99 174 -197 215v-352h-90v688h90v-321h2l246 321h104l-259 -315c85 -44 142 -113 190 -209z" />
    <glyph glyph-name="afii10029" unicode="&#x41b;" horiz-adv-x="623" 
d="M562 0h-94l-47 627h-160l-14 -176c-16 -197 -41 -374 -208 -467l-26 79c116 74 133 230 145 391l18 234h331z" />
    <glyph glyph-name="afii10030" unicode="&#x41c;" horiz-adv-x="782" 
d="M729 0h-88l-52 515c-3 25 -4 52 -5 81h-2c-5 -25 -12 -56 -19 -81l-147 -515h-59l-145 515c-7 26 -11 42 -19 81h-2c-1 -34 -3 -59 -5 -81l-54 -515h-79l82 688h97l140 -496c8 -28 13 -52 18 -85h2c5 33 10 57 18 85l140 496h98z" />
    <glyph glyph-name="afii10031" unicode="&#x41d;" horiz-adv-x="597" 
d="M520 0h-92v325h-259v-325h-92v688h92v-302h259v302h92v-688z" />
    <glyph glyph-name="afii10032" unicode="&#x41e;" horiz-adv-x="606" 
d="M552 344c0 -199 -76 -354 -249 -354s-249 155 -249 354s76 354 249 354s249 -155 249 -354zM459 346c0 154 -37 289 -156 289s-156 -135 -156 -289s37 -290 156 -290s156 136 156 290z" />
    <glyph glyph-name="afii10033" unicode="&#x41f;" horiz-adv-x="597" 
d="M520 0h-92v627h-259v-627h-92v688h443v-688z" />
    <glyph glyph-name="afii10034" unicode="&#x420;" horiz-adv-x="526" 
d="M485 490c0 -115 -76 -209 -251 -209c-24 0 -48 3 -67 6v-287h-90v661c45 22 108 37 172 37c162 0 236 -86 236 -208zM396 492c0 93 -43 151 -147 151c-30 0 -60 -6 -82 -14v-287c18 -3 43 -5 67 -5c120 0 162 68 162 155z" />
    <glyph glyph-name="afii10035" unicode="&#x421;" horiz-adv-x="479" 
d="M447 28c-36 -24 -80 -38 -135 -38c-177 0 -258 170 -258 354s81 354 258 354c55 0 99 -14 135 -38l-23 -56c-25 16 -63 29 -101 29c-124 0 -173 -144 -173 -288c0 -143 50 -286 172 -286c38 0 76 13 101 29z" />
    <glyph glyph-name="afii10036" unicode="&#x422;" horiz-adv-x="464" 
d="M432 626h-154v-626h-92v626h-154v62h400v-62z" />
    <glyph glyph-name="afii10037" unicode="&#x423;" 
d="M500 688c-28 -166 -87 -331 -166 -477l-113 -211h-105l121 210c-103 146 -177 307 -209 478h97c27 -141 79 -281 158 -408h2c56 120 104 264 127 408h88z" />
    <glyph glyph-name="afii10038" unicode="&#x424;" horiz-adv-x="708" 
d="M658 345c0 -157 -96 -295 -265 -307v-65h-78v65c-169 12 -265 150 -265 307s96 296 265 307v63h78v-63c169 -11 265 -150 265 -307zM572 346c0 121 -60 243 -179 252v-503c119 10 179 130 179 251zM315 95v503c-119 -9 -179 -131 -179 -252s60 -241 179 -251z" />
    <glyph glyph-name="afii10039" unicode="&#x425;" horiz-adv-x="526" 
d="M502 0h-103l-137 291h-2l-142 -291h-94l191 355l-173 333h98l123 -262h2l129 262h89l-172 -324z" />
    <glyph glyph-name="afii10040" unicode="&#x426;" horiz-adv-x="614" 
d="M569 42l-11 -204h-64l-5 162h-412v688h92v-626h255v626h92v-626z" />
    <glyph glyph-name="afii10041" unicode="&#x427;" horiz-adv-x="578" 
d="M501 0h-92v288c-36 -20 -91 -34 -138 -34c-122 0 -198 64 -198 186v248h92v-248c0 -78 44 -121 122 -121c39 0 91 11 122 29v340h92v-688z" />
    <glyph glyph-name="afii10042" unicode="&#x428;" horiz-adv-x="901" 
d="M824 0h-747v688h90v-626h239v626h90v-626h238v626h90v-688z" />
    <glyph glyph-name="afii10043" unicode="&#x429;" horiz-adv-x="922" 
d="M877 42l-10 -204h-65l-5 162h-720v688h90v-626h239v626h90v-626h238v626h90v-626z" />
    <glyph glyph-name="afii10044" unicode="&#x42a;" horiz-adv-x="663" 
d="M615 200c0 -138 -105 -210 -246 -210c-71 0 -138 13 -185 37v599h-152v62h242v-289c30 10 67 17 100 17c144 0 241 -74 241 -216zM522 200c0 101 -52 159 -153 159c-31 0 -69 -6 -95 -15v-281c24 -11 59 -15 95 -15c94 0 153 53 153 152z" />
    <glyph glyph-name="afii10045" unicode="&#x42b;" horiz-adv-x="772" 
d="M695 0h-90v688h90v-688zM508 200c0 -138 -105 -210 -246 -210c-71 0 -138 13 -185 37v661h90v-289c30 10 67 17 100 17c144 0 241 -74 241 -216zM415 200c0 101 -52 159 -153 159c-31 0 -69 -6 -95 -15v-281c24 -11 59 -15 95 -15c94 0 153 53 153 152z" />
    <glyph glyph-name="afii10046" unicode="&#x42c;" horiz-adv-x="556" 
d="M508 200c0 -138 -105 -210 -246 -210c-71 0 -138 13 -185 37v661h90v-289c30 10 67 17 100 17c144 0 241 -74 241 -216zM415 200c0 101 -52 159 -153 159c-31 0 -69 -6 -95 -15v-281c24 -11 59 -15 95 -15c94 0 153 53 153 152z" />
    <glyph glyph-name="afii10047" unicode="&#x42d;" horiz-adv-x="504" 
d="M450 344c0 -190 -81 -354 -266 -354c-59 0 -110 14 -149 38l26 61c30 -18 74 -29 114 -29c128 0 176 127 180 265h-264v61h264c-8 131 -57 247 -180 247c-41 0 -86 -11 -115 -29l-25 56c39 24 91 38 149 38c185 0 266 -164 266 -354z" />
    <glyph glyph-name="afii10048" unicode="&#x42e;" horiz-adv-x="838" 
d="M782 344c0 -199 -69 -354 -231 -354c-156 0 -226 146 -231 335h-153v-325h-90v688h90v-302h154c10 178 80 312 230 312c162 0 231 -155 231 -354zM693 346c0 154 -32 289 -142 289s-143 -135 -143 -289s33 -290 143 -290s142 136 142 290z" />
    <glyph glyph-name="afii10049" unicode="&#x42f;" horiz-adv-x="551" 
d="M472 0h-89v316c-49 -12 -86 -45 -113 -91l-130 -225h-105l146 232c18 29 41 58 68 80v2c-113 16 -192 90 -192 189c0 128 93 195 245 195c61 0 124 -15 170 -37v-661zM383 356v272c-22 8 -52 15 -83 15c-98 0 -153 -47 -153 -142c0 -88 65 -151 168 -151c22 0 50 2 68 6z
" />
    <glyph glyph-name="afii10065" unicode="&#x430;" horiz-adv-x="499" 
d="M428 28c-43 -23 -107 -38 -179 -38c-129 0 -205 56 -205 163c0 130 128 180 302 197v33c0 74 -40 107 -115 107c-47 0 -98 -14 -135 -34l-21 54c45 23 106 39 164 39c117 0 189 -55 189 -175v-346zM346 59v245c-137 -16 -218 -54 -218 -149c0 -73 45 -114 129 -114
c34 0 68 7 89 18z" />
    <glyph glyph-name="afii10066" unicode="&#x431;" horiz-adv-x="522" 
d="M472 244c0 -132 -71 -254 -210 -254c-145 0 -210 115 -210 313c0 194 66 381 238 413l141 26v-62l-116 -23c-85 -17 -131 -84 -155 -170c35 13 68 20 99 20c127 0 213 -92 213 -263zM385 244c0 140 -51 211 -141 211c-28 0 -62 -8 -96 -22c-7 -42 -9 -86 -9 -130
c0 -166 38 -254 123 -254c86 0 123 99 123 195z" />
    <glyph glyph-name="afii10067" unicode="&#x432;" horiz-adv-x="522" 
d="M476 145c0 -102 -90 -155 -229 -155c-61 0 -132 16 -176 38v484c47 23 111 37 172 37c128 0 212 -45 212 -138c0 -69 -49 -113 -117 -126v-2c80 -15 138 -68 138 -138zM371 405c0 70 -50 96 -126 96c-32 0 -65 -6 -88 -15v-184h61c111 0 153 37 153 103zM388 147
c0 75 -52 114 -170 114h-61v-204c24 -11 61 -16 92 -16c87 0 139 36 139 106z" />
    <glyph glyph-name="afii10068" unicode="&#x433;" horiz-adv-x="393" 
d="M362 481h-200v-481h-88v539h288v-58z" />
    <glyph glyph-name="afii10069" unicode="&#x434;" horiz-adv-x="585" 
d="M550 40l-10 -186h-62l-5 146h-372l-5 -146h-62l-10 185c76 77 97 174 110 294l23 206h297l47 -481zM417 56l-39 429h-146l-16 -152c-12 -113 -28 -192 -84 -277h285z" />
    <glyph glyph-name="afii10070" unicode="&#x435;" horiz-adv-x="524" 
d="M474 285l-339 -50c8 -111 64 -182 166 -182c49 0 101 14 131 32l23 -57c-38 -22 -100 -38 -163 -38c-154 0 -242 106 -242 281c0 169 81 278 218 278c129 0 206 -84 206 -254v-10zM389 323c-2 109 -39 171 -123 171c-89 0 -135 -84 -135 -206v-5z" />
    <glyph glyph-name="afii10072" unicode="&#x436;" horiz-adv-x="736" 
d="M714 0h-96l-50 107c-37 79 -75 138 -160 170v-277h-81v277c-85 -32 -121 -91 -159 -170l-51 -107h-95l67 128c40 77 82 132 156 166l-210 245h95l195 -250h2v250h81v-250h2l196 250h94l-209 -245c74 -34 116 -89 156 -166z" />
    <glyph glyph-name="afii10073" unicode="&#x437;" horiz-adv-x="453" 
d="M407 141c0 -76 -69 -151 -206 -151c-57 0 -120 13 -165 37l22 54c36 -19 87 -30 131 -30c82 0 127 47 127 98s-46 102 -144 102h-69v54h62c88 0 135 51 135 101c0 44 -35 85 -111 85c-42 0 -89 -11 -125 -30l-22 51c45 24 103 37 157 37c127 0 189 -67 189 -135
c0 -52 -35 -105 -105 -130v-2c83 -24 124 -83 124 -141z" />
    <glyph glyph-name="afii10074" unicode="&#x438;" horiz-adv-x="546" 
d="M475 0h-77v377c0 25 1 47 3 72h-2c-9 -22 -19 -43 -31 -65l-219 -384h-78v539h77v-359c0 -24 -1 -48 -3 -72h2c9 23 19 44 31 65l207 366h90v-539z" />
    <glyph glyph-name="afii10075" unicode="&#x439;" horiz-adv-x="546" 
d="M475 0h-77v377c0 25 1 47 3 72h-2c-9 -22 -19 -43 -31 -65l-219 -384h-78v539h77v-359c0 -24 -1 -48 -3 -72h2c9 23 19 44 31 65l207 366h90v-539zM394 725c0 -81 -55 -126 -121 -126s-121 45 -121 126l42 7c6 -53 39 -79 79 -79s73 26 79 79z" />
    <glyph glyph-name="afii10076" unicode="&#x43a;" horiz-adv-x="507" 
d="M487 0h-100l-56 107c-41 77 -86 137 -171 169v-276h-87v539h87v-250h2l213 250h100l-227 -246c75 -35 125 -90 167 -165z" />
    <glyph glyph-name="afii10077" unicode="&#x43b;" horiz-adv-x="560" 
d="M505 0h-89l-44 484h-145l-17 -180c-13 -138 -35 -245 -176 -317l-23 69c89 54 104 148 113 248l22 235h307z" />
    <glyph glyph-name="afii10078" unicode="&#x43c;" horiz-adv-x="678" 
d="M627 0h-84l-42 391c-3 26 -4 50 -4 67h-2c-3 -15 -8 -40 -16 -67l-117 -391h-55l-115 391c-5 17 -12 48 -16 67h-2c-1 -23 -2 -40 -5 -67l-43 -391h-75l69 539h93l110 -378c5 -18 10 -40 15 -67h2c4 26 9 49 14 67l111 378h92z" />
    <glyph glyph-name="afii10079" unicode="&#x43d;" horiz-adv-x="533" 
d="M462 0h-88v250h-215v-250h-88v539h88v-234h215v234h88v-539z" />
    <glyph glyph-name="afii10080" unicode="&#x43e;" horiz-adv-x="526" 
d="M476 270c0 -162 -67 -280 -213 -280s-213 118 -213 280c0 161 67 279 213 279s213 -118 213 -279zM388 272c0 120 -31 221 -125 221s-125 -101 -125 -221s31 -223 125 -223s125 103 125 223z" />
    <glyph glyph-name="afii10081" unicode="&#x43f;" horiz-adv-x="533" 
d="M462 0h-88v484h-215v-484h-88v539h391v-539z" />
    <glyph glyph-name="afii10082" unicode="&#x440;" horiz-adv-x="530" 
d="M480 279c0 -180 -93 -287 -235 -287c-31 0 -64 6 -84 13v-220h-87v727c46 24 105 37 167 37c154 0 239 -106 239 -270zM392 274c0 135 -41 221 -154 221c-27 0 -56 -4 -77 -14v-422c16 -6 39 -11 65 -11c110 0 166 83 166 226z" />
    <glyph glyph-name="afii10083" unicode="&#x441;" horiz-adv-x="415" 
d="M380 25c-29 -22 -71 -35 -121 -35c-130 0 -209 115 -209 280s80 279 209 279c50 0 92 -13 121 -35l-21 -52c-21 16 -53 27 -85 27c-86 0 -134 -93 -134 -217c0 -122 49 -218 134 -218c32 0 63 10 84 26z" />
    <glyph glyph-name="afii10084" unicode="&#x442;" horiz-adv-x="409" 
d="M378 481h-129v-481h-88v481h-129v58h346v-58z" />
    <glyph glyph-name="afii10085" unicode="&#x443;" horiz-adv-x="509" 
d="M473 539c-26 -181 -78 -361 -152 -522l-106 -232h-97l112 229c-97 163 -165 337 -194 525h92c25 -155 71 -307 143 -447h2c51 132 93 289 114 447h86z" />
    <glyph glyph-name="afii10086" unicode="&#x444;" horiz-adv-x="710" 
d="M659 269c0 -162 -69 -279 -190 -279c-28 0 -53 8 -74 22v-227h-80v227c-21 -14 -46 -22 -74 -22c-121 0 -190 117 -190 279s69 279 190 279c28 0 53 -8 74 -22v259h80v-259c21 14 46 22 74 22c121 0 190 -117 190 -279zM576 270c0 125 -37 224 -118 224
c-23 0 -45 -5 -63 -17v-413c18 -12 40 -17 63 -17c81 0 118 98 118 223zM315 64v413c-18 12 -40 17 -63 17c-81 0 -118 -99 -118 -224s37 -223 118 -223c23 0 45 5 63 17z" />
    <glyph glyph-name="afii10087" unicode="&#x445;" horiz-adv-x="475" 
d="M450 0h-97l-117 220h-2l-119 -220h-90l167 279l-150 260h93l104 -198h2l107 198h84l-149 -254z" />
    <glyph glyph-name="afii10088" unicode="&#x446;" horiz-adv-x="544" 
d="M503 40l-11 -186h-61l-5 146h-355v539h88v-481h206v481h88v-481z" />
    <glyph glyph-name="afii10089" unicode="&#x447;" horiz-adv-x="518" 
d="M447 0h-88v227c-33 -20 -72 -33 -119 -33c-110 0 -175 56 -175 165v180h88v-180c0 -70 33 -106 102 -106c37 0 75 12 104 29v257h88v-539z" />
    <glyph glyph-name="afii10090" unicode="&#x448;" horiz-adv-x="777" 
d="M706 0h-635v539h86v-481h188v481h86v-481h189v481h86v-539z" />
    <glyph glyph-name="afii10091" unicode="&#x449;" horiz-adv-x="796" 
d="M755 40l-10 -186h-61l-6 146h-607v539h86v-481h188v481h86v-481h189v481h86v-481z" />
    <glyph glyph-name="afii10092" unicode="&#x44a;" horiz-adv-x="603" 
d="M557 155c0 -106 -95 -165 -226 -165c-61 0 -127 16 -171 38v453h-128v58h215v-230c27 7 56 12 87 12c127 0 223 -51 223 -166zM469 155c0 83 -55 116 -140 116c-29 0 -59 -4 -82 -11v-202c24 -11 55 -17 84 -17c87 0 138 41 138 114z" />
    <glyph glyph-name="afii10093" unicode="&#x44b;" horiz-adv-x="710" 
d="M639 0h-88v539h88v-539zM469 155c0 -106 -95 -165 -226 -165c-61 0 -127 16 -171 38v511h87v-230c27 7 56 12 87 12c127 0 223 -51 223 -166zM381 155c0 83 -55 116 -140 116c-29 0 -59 -4 -82 -11v-202c24 -11 55 -17 84 -17c87 0 138 41 138 114z" />
    <glyph glyph-name="afii10094" unicode="&#x44c;" horiz-adv-x="515" 
d="M469 155c0 -106 -95 -165 -226 -165c-61 0 -127 16 -171 38v511h87v-230c27 7 56 12 87 12c127 0 223 -51 223 -166zM381 155c0 83 -55 116 -140 116c-29 0 -59 -4 -82 -11v-202c24 -11 55 -17 84 -17c87 0 138 41 138 114z" />
    <glyph glyph-name="afii10095" unicode="&#x44d;" horiz-adv-x="464" 
d="M414 270c0 -156 -83 -280 -239 -280c-56 0 -106 15 -140 37l24 53c26 -16 65 -28 104 -28c105 0 160 87 165 199h-230v54h229c-9 107 -63 185 -164 185c-39 0 -78 -13 -104 -29l-24 51c34 22 84 37 140 37c155 0 239 -123 239 -279z" />
    <glyph glyph-name="afii10096" unicode="&#x44e;" horiz-adv-x="758" 
d="M708 270c0 -162 -67 -280 -211 -280c-138 0 -203 109 -209 261h-131v-251h-86v539h86v-234h132c9 143 75 244 208 244c144 0 211 -118 211 -279zM622 272c0 120 -31 221 -125 221s-125 -101 -125 -221s31 -223 125 -223s125 103 125 223z" />
    <glyph glyph-name="afii10097" unicode="&#x44f;" horiz-adv-x="509" 
d="M436 0h-86v247c-57 -9 -92 -32 -116 -72l-106 -175h-98l118 180c15 24 40 50 63 65v1c-91 12 -162 63 -162 145c0 107 91 158 219 158c62 0 122 -14 168 -37v-512zM350 280v206c-22 10 -51 14 -83 14c-80 0 -131 -36 -131 -113c0 -70 64 -112 144 -112c25 0 53 2 70 5z
" />
    <glyph glyph-name="uni0450" unicode="&#x450;" horiz-adv-x="524" 
d="M474 285l-339 -50c8 -111 64 -182 166 -182c49 0 101 14 131 32l23 -57c-38 -22 -100 -38 -163 -38c-154 0 -242 106 -242 281c0 169 81 278 218 278c129 0 206 -84 206 -254v-10zM389 323c-2 109 -39 171 -123 171c-89 0 -135 -84 -135 -206v-5zM344 599h-51l-113 131
c8 14 25 21 43 21c17 0 35 -5 48 -15z" />
    <glyph glyph-name="afii10071" unicode="&#x451;" horiz-adv-x="524" 
d="M474 285l-339 -50c8 -111 64 -182 166 -182c49 0 101 14 131 32l23 -57c-38 -22 -100 -38 -163 -38c-154 0 -242 106 -242 281c0 169 81 278 218 278c129 0 206 -84 206 -254v-10zM389 323c-2 109 -39 171 -123 171c-89 0 -135 -84 -135 -206v-5zM233 654
c0 -24 -20 -44 -44 -44s-44 20 -44 44s20 44 44 44s44 -20 44 -44zM393 654c0 -24 -20 -44 -44 -44s-44 20 -44 44s20 44 44 44s44 -20 44 -44z" />
    <glyph glyph-name="afii10099" unicode="&#x452;" horiz-adv-x="537" 
d="M487 205c0 -163 -81 -343 -238 -396l-27 60c119 38 176 190 176 328c0 141 -43 246 -148 246c-32 0 -62 -8 -91 -23v-420h-88v604h-81v52h81v129h88v-129h184v-52h-184v-132c32 17 68 26 105 26c157 0 223 -128 223 -293z" />
    <glyph glyph-name="afii10100" unicode="&#x453;" horiz-adv-x="393" 
d="M362 481h-200v-481h-88v539h288v-58zM330 730l-113 -131h-51l73 137c13 10 31 15 48 15c18 0 35 -7 43 -21z" />
    <glyph glyph-name="afii10101" unicode="&#x454;" horiz-adv-x="464" 
d="M429 27c-34 -22 -84 -37 -140 -37c-156 0 -239 124 -239 280s84 279 239 279c56 0 106 -15 140 -37l-24 -51c-26 16 -65 29 -104 29c-101 0 -155 -78 -164 -185h229v-54h-230c5 -112 60 -199 165 -199c39 0 78 12 104 28z" />
    <glyph glyph-name="afii10102" unicode="&#x455;" horiz-adv-x="418" 
d="M370 149c0 -87 -74 -159 -184 -159c-53 0 -111 14 -145 37l25 56c32 -20 73 -31 111 -31c63 0 104 40 104 93c0 132 -228 79 -228 257c0 83 67 147 166 147c52 0 99 -13 135 -37l-23 -52c-28 18 -65 31 -100 31c-62 0 -91 -38 -91 -85c0 -123 230 -73 230 -257z" />
    <glyph glyph-name="afii10103" unicode="&#x456;" horiz-adv-x="242" 
d="M174 691c0 -27 -24 -49 -53 -49s-53 22 -53 49s24 49 53 49s53 -22 53 -49zM165 0h-88v539h88v-539z" />
    <glyph glyph-name="afii10104" unicode="&#x457;" horiz-adv-x="242" 
d="M165 0h-88v539h88v-539zM85 654c0 -24 -20 -44 -44 -44s-44 20 -44 44s20 44 44 44s44 -20 44 -44zM245 654c0 -24 -20 -44 -44 -44s-44 20 -44 44s20 44 44 44s44 -20 44 -44z" />
    <glyph glyph-name="afii10105" unicode="&#x458;" horiz-adv-x="246" 
d="M169 539v-467c0 -155 -56 -253 -187 -293v60c73 44 99 106 99 223v477h88zM178 691c0 -27 -24 -49 -53 -49s-53 22 -53 49s24 49 53 49s53 -22 53 -49z" />
    <glyph glyph-name="afii10106" unicode="&#x459;" horiz-adv-x="844" 
d="M798 155c0 -106 -92 -165 -221 -165c-57 0 -118 14 -164 38l-41 456h-145l-17 -180c-13 -138 -35 -245 -176 -317l-23 69c89 54 104 148 113 248l22 235h306l22 -232c31 9 67 14 102 14c127 0 222 -48 222 -166zM710 155c0 83 -55 116 -140 116c-30 0 -65 -3 -92 -12
l19 -202c23 -10 52 -16 80 -16c83 0 133 41 133 114z" />
    <glyph glyph-name="afii10107" unicode="&#x45a;" horiz-adv-x="813" 
d="M767 155c0 -106 -95 -165 -226 -165c-61 0 -127 16 -171 38v222h-212v-250h-87v539h87v-234h212v234h87v-230c27 7 56 12 87 12c127 0 223 -51 223 -166zM679 155c0 83 -55 116 -140 116c-29 0 -59 -4 -82 -11v-202c24 -11 55 -17 84 -17c87 0 138 41 138 114z" />
    <glyph glyph-name="afii10108" unicode="&#x45b;" horiz-adv-x="534" 
d="M463 0h-88v321c0 76 -33 122 -109 122c-40 0 -76 -11 -107 -29v-414h-88v604h-81v52h81v129h88v-129h176v-52h-176v-139c33 20 77 33 123 33c116 0 181 -61 181 -177v-321z" />
    <glyph glyph-name="afii10109" unicode="&#x45c;" horiz-adv-x="507" 
d="M487 0h-100l-56 107c-41 77 -86 137 -171 169v-276h-87v539h87v-250h2l213 250h100l-227 -246c75 -35 125 -90 167 -165zM379 730l-113 -131h-51l73 137c13 10 31 15 48 15c18 0 35 -7 43 -21z" />
    <glyph glyph-name="uni045D" unicode="&#x45d;" horiz-adv-x="546" 
d="M475 0h-77v377c0 25 1 47 3 72h-2c-9 -22 -19 -43 -31 -65l-219 -384h-78v539h77v-359c0 -24 -1 -48 -3 -72h2c9 23 19 44 31 65l207 366h90v-539zM323 599h-51l-113 131c8 14 25 21 43 21c17 0 35 -5 48 -15z" />
    <glyph glyph-name="afii10110" unicode="&#x45e;" horiz-adv-x="509" 
d="M473 539c-26 -181 -78 -361 -152 -522l-106 -232h-97l112 229c-97 163 -165 337 -194 525h92c25 -155 71 -307 143 -447h2c51 132 93 289 114 447h86zM379 725c0 -81 -55 -126 -121 -126s-121 45 -121 126l42 7c6 -53 39 -79 79 -79s73 26 79 79z" />
    <glyph glyph-name="afii10193" unicode="&#x45f;" horiz-adv-x="524" 
d="M453 0h-153l-7 -146h-61l-7 146h-154v539h88v-481h206v481h88v-539z" />
    <glyph glyph-name="afii10050" unicode="&#x490;" horiz-adv-x="457" 
d="M427 626h-253v-626h-92v688h271l13 132h61v-194z" />
    <glyph glyph-name="afii10098" unicode="&#x491;" horiz-adv-x="402" 
d="M371 481h-209v-481h-88v539h227l12 125h58v-183z" />
    <glyph glyph-name="uni0492" unicode="&#x492;" horiz-adv-x="464" 
d="M434 626h-249v-238h138v-55h-138v-333h-92v333h-70v55h70v300h341v-62z" />
    <glyph glyph-name="uni0493" unicode="&#x493;" horiz-adv-x="403" 
d="M372 481h-200v-177h120v-50h-120v-254h-88v254h-61v50h61v235h288v-58z" />
    <glyph glyph-name="uni0496" unicode="&#x496;" horiz-adv-x="852" 
d="M827 42l-10 -204h-64l-5 162h-46l-62 137c-45 99 -89 175 -185 215v-352h-86v352c-96 -40 -140 -116 -185 -215l-62 -137h-100l81 164c47 96 96 165 179 209l-246 315h98l233 -321h2v321h86v-321h2l233 321h98l-246 -315c83 -44 132 -113 179 -209l50 -101z" />
    <glyph glyph-name="uni0497" unicode="&#x497;" horiz-adv-x="760" 
d="M736 40l-10 -186h-62l-5 146h-41l-50 107c-37 79 -75 138 -160 170v-277h-81v277c-85 -32 -121 -91 -159 -170l-51 -107h-95l67 128c40 77 82 132 156 166l-210 245h95l195 -250h2v250h81v-250h2l196 250h94l-209 -245c74 -34 115 -89 156 -166l36 -68z" />
    <glyph glyph-name="uni049A" unicode="&#x49a;" horiz-adv-x="586" 
d="M561 42l-10 -204h-64l-5 162h-51l-64 137c-46 99 -99 174 -197 215v-352h-90v688h90v-321h2l246 321h104l-259 -315c85 -44 142 -113 190 -209l51 -101z" />
    <glyph glyph-name="uni049B" unicode="&#x49b;" horiz-adv-x="531" 
d="M507 40l-10 -186h-62l-5 146h-43l-56 107c-40 77 -86 137 -171 169v-276h-87v539h87v-250h2l213 250h100l-227 -246c75 -35 125 -90 167 -165l38 -68z" />
    <glyph glyph-name="uni04A2" unicode="&#x4a2;" horiz-adv-x="618" 
d="M573 42l-11 -204h-64l-5 162h-65v325h-259v-325h-92v688h92v-302h259v302h92v-626z" />
    <glyph glyph-name="uni04A3" unicode="&#x4a3;" horiz-adv-x="552" 
d="M511 40l-10 -186h-61l-6 146h-60v250h-215v-250h-88v539h88v-234h215v234h88v-481z" />
    <glyph glyph-name="uni04AE" unicode="&#x4ae;" horiz-adv-x="501" 
d="M486 688l-189 -383v-305h-92v305l-188 383h99l138 -311h2l142 311h88z" />
    <glyph glyph-name="uni04AF" unicode="&#x4af;" horiz-adv-x="509" 
d="M481 539l-183 -539v-215h-88v215l-182 539h96l118 -400c6 -20 11 -44 14 -68h2c3 24 8 48 14 68l122 400h87z" />
    <glyph glyph-name="uni04B0" unicode="&#x4b0;" horiz-adv-x="501" 
d="M486 688l-189 -383h113v-56h-113v-249h-92v249h-113v56h113l-188 383h99l138 -311h2l142 311h88z" />
    <glyph glyph-name="uni04B1" unicode="&#x4b1;" horiz-adv-x="509" 
d="M481 539l-183 -539h111v-50h-111v-165h-87v165h-111v50h111l-183 539h96l118 -400c6 -20 11 -44 14 -68h2c3 24 8 48 14 68l122 400h87z" />
    <glyph glyph-name="uni04B2" unicode="&#x4b2;" horiz-adv-x="547" 
d="M523 42l-10 -204h-65l-5 162h-44l-137 291h-2l-142 -291h-94l191 355l-173 333h98l123 -262h2l129 262h89l-172 -324l159 -302z" />
    <glyph glyph-name="uni04B3" unicode="&#x4b3;" horiz-adv-x="492" 
d="M467 40l-10 -186h-61l-6 146h-37l-117 220h-2l-119 -220h-90l167 279l-150 260h93l104 -198h2l107 198h84l-149 -254l132 -226z" />
    <glyph glyph-name="uni04B6" unicode="&#x4b6;" horiz-adv-x="598" 
d="M553 42l-10 -204h-64l-5 162h-65v288c-36 -20 -91 -34 -138 -34c-122 0 -198 64 -198 186v248h92v-248c0 -78 44 -121 122 -121c39 0 91 11 122 29v340h92v-626z" />
    <glyph glyph-name="uni04B7" unicode="&#x4b7;" horiz-adv-x="538" 
d="M497 40l-10 -186h-62l-5 146h-61v227c-33 -20 -72 -33 -119 -33c-110 0 -175 56 -175 165v180h88v-180c0 -70 33 -106 102 -106c37 0 75 12 104 29v257h88v-481z" />
    <glyph glyph-name="uni04BA" unicode="&#x4ba;" horiz-adv-x="578" 
d="M505 0h-92v258c0 84 -43 136 -127 136c-37 0 -86 -12 -117 -30v-364h-92v688h92v-266c36 21 88 34 133 34c130 0 203 -68 203 -198v-258z" />
    <glyph glyph-name="uni04BB" unicode="&#x4bb;" horiz-adv-x="534" 
d="M463 0h-88v377c0 76 -34 114 -110 114c-38 0 -75 -11 -106 -29v-462h-88v785h88v-272c33 20 75 33 122 33c115 0 182 -53 182 -169v-377z" />
    <glyph glyph-name="uni04C0" unicode="&#x4c0;" horiz-adv-x="252" 
d="M172 0h-92v688h92v-688z" />
    <glyph glyph-name="uni04CF" unicode="&#x4cf;" horiz-adv-x="242" 
d="M165 0h-88v785h88v-785z" />
    <glyph glyph-name="uni04D8" unicode="&#x4d8;" horiz-adv-x="605" 
d="M551 343c0 -214 -85 -353 -254 -353c-162 0 -242 119 -243 353l403 64c-12 123 -68 225 -200 225c-57 0 -118 -18 -155 -40l-25 59c45 27 114 47 187 47c185 0 287 -131 287 -355zM462 352l-315 -52c0 -150 47 -243 152 -243c113 0 163 106 163 290v5z" />
    <glyph glyph-name="afii10846" unicode="&#x4d9;" horiz-adv-x="524" 
d="M474 268c0 -169 -76 -278 -216 -278c-139 0 -208 98 -208 280l338 51c-10 92 -60 168 -165 168c-49 0 -101 -17 -131 -35l-23 55c38 22 99 40 163 40c156 0 242 -106 242 -281zM393 273l-258 -40c2 -112 41 -186 125 -186c91 0 133 86 133 221v5z" />
    <glyph glyph-name="uni04E2" unicode="&#x4e2;" horiz-adv-x="614" 
d="M537 0h-81v503c0 28 1 57 3 85h-2c-10 -27 -23 -54 -36 -79l-262 -509h-82v688h81v-485c0 -25 0 -51 -3 -82h2c10 29 21 54 33 78l251 489h96v-688zM431 765h-250v53h250v-53z" />
    <glyph glyph-name="uni04E3" unicode="&#x4e3;" horiz-adv-x="546" 
d="M475 0h-77v377c0 25 1 47 3 72h-2c-9 -22 -19 -43 -31 -65l-219 -384h-78v539h77v-359c0 -24 -1 -48 -3 -72h2c9 23 19 44 31 65l207 366h90v-539zM397 616h-250v53h250v-53z" />
    <glyph glyph-name="uni04E8" unicode="&#x4e8;" horiz-adv-x="606" 
d="M552 344c0 -199 -76 -354 -249 -354s-249 155 -249 354s76 354 249 354s249 -155 249 -354zM462 385c-6 137 -47 252 -159 252s-153 -115 -159 -252h318zM463 326h-319c2 -145 41 -271 159 -271s158 126 160 271z" />
    <glyph glyph-name="uni04E9" unicode="&#x4e9;" horiz-adv-x="526" 
d="M476 270c0 -162 -67 -280 -213 -280s-213 118 -213 280c0 161 67 279 213 279s213 -118 213 -279zM391 304c-5 105 -40 191 -128 191s-123 -85 -128 -191h256zM392 253h-258c3 -111 37 -205 129 -205s126 94 129 205z" />
    <glyph glyph-name="uni04EE" unicode="&#x4ee;" 
d="M500 688c-28 -166 -87 -331 -166 -477l-113 -211h-105l121 210c-103 146 -177 307 -209 478h97c27 -141 79 -281 158 -408h2c56 120 104 264 127 408h88zM392 765h-250v53h250v-53z" />
    <glyph glyph-name="uni04EF" unicode="&#x4ef;" horiz-adv-x="509" 
d="M473 539c-26 -181 -78 -361 -152 -522l-106 -232h-97l112 229c-97 163 -165 337 -194 525h92c25 -155 71 -307 143 -447h2c51 132 93 289 114 447h86zM382 616h-250v53h250v-53z" />
    <glyph glyph-name="Wgrave" unicode="&#x1e80;" horiz-adv-x="818" 
d="M783 688l-161 -688h-81l-117 480c-7 30 -10 54 -13 79h-2c-3 -22 -7 -49 -14 -79l-116 -480h-82l-161 688h94l101 -497c5 -25 9 -55 12 -84h2c4 30 7 52 15 84l119 497h71l115 -497c5 -20 12 -65 14 -84h2c3 22 11 70 14 84l103 497h85zM446 747h-51l-113 131
c8 14 25 21 43 21c17 0 35 -5 48 -15z" />
    <glyph glyph-name="wgrave" unicode="&#x1e81;" horiz-adv-x="773" 
d="M740 539l-154 -539h-77l-109 387c-5 18 -9 38 -12 62h-2c-3 -26 -6 -44 -11 -62l-109 -387h-77l-154 539h91l94 -388c3 -11 8 -37 11 -66h2c3 25 10 56 13 66l109 388h75l106 -388c6 -22 9 -39 12 -66h2c4 29 7 45 12 66l96 388h82zM426 599h-51l-113 131
c8 14 25 21 43 21c17 0 35 -5 48 -15z" />
    <glyph glyph-name="Wacute" unicode="&#x1e82;" horiz-adv-x="818" 
d="M783 688l-161 -688h-81l-117 480c-7 30 -10 54 -13 79h-2c-3 -22 -7 -49 -14 -79l-116 -480h-82l-161 688h94l101 -497c5 -25 9 -55 12 -84h2c4 30 7 52 15 84l119 497h71l115 -497c5 -20 12 -65 14 -84h2c3 22 11 70 14 84l103 497h85zM547 878l-113 -131h-51l73 137
c13 10 31 15 48 15c18 0 35 -7 43 -21z" />
    <glyph glyph-name="wacute" unicode="&#x1e83;" horiz-adv-x="773" 
d="M740 539l-154 -539h-77l-109 387c-5 18 -9 38 -12 62h-2c-3 -26 -6 -44 -11 -62l-109 -387h-77l-154 539h91l94 -388c3 -11 8 -37 11 -66h2c3 25 10 56 13 66l109 388h75l106 -388c6 -22 9 -39 12 -66h2c4 29 7 45 12 66l96 388h82zM523 729l-113 -131h-51l73 137
c13 10 31 15 48 15c18 0 35 -7 43 -21z" />
    <glyph glyph-name="Wdieresis" unicode="&#x1e84;" horiz-adv-x="818" 
d="M783 688l-161 -688h-81l-117 480c-7 30 -10 54 -13 79h-2c-3 -22 -7 -49 -14 -79l-116 -480h-82l-161 688h94l101 -497c5 -25 9 -55 12 -84h2c4 30 7 52 15 84l119 497h71l115 -497c5 -20 12 -65 14 -84h2c3 22 11 70 14 84l103 497h85zM538 803c0 -24 -20 -44 -44 -44
s-44 20 -44 44s20 44 44 44s44 -20 44 -44zM378 803c0 -24 -20 -44 -44 -44s-44 20 -44 44s20 44 44 44s44 -20 44 -44z" />
    <glyph glyph-name="wdieresis" unicode="&#x1e85;" horiz-adv-x="773" 
d="M740 539l-154 -539h-77l-109 387c-5 18 -9 38 -12 62h-2c-3 -26 -6 -44 -11 -62l-109 -387h-77l-154 539h91l94 -388c3 -11 8 -37 11 -66h2c3 25 10 56 13 66l109 388h75l106 -388c6 -22 9 -39 12 -66h2c4 29 7 45 12 66l96 388h82zM517 654c0 -24 -20 -44 -44 -44
s-44 20 -44 44s20 44 44 44s44 -20 44 -44zM357 654c0 -24 -20 -44 -44 -44s-44 20 -44 44s20 44 44 44s44 -20 44 -44z" />
    <glyph glyph-name="uni1E8A" unicode="&#x1e8a;" horiz-adv-x="526" 
d="M502 0h-103l-137 291h-2l-142 -291h-94l191 355l-173 333h98l123 -262h2l129 262h89l-172 -324zM316 808c0 -27 -22 -49 -49 -49s-49 22 -49 49s22 49 49 49s49 -22 49 -49z" />
    <glyph glyph-name="uni1E8B" unicode="&#x1e8b;" horiz-adv-x="475" 
d="M450 0h-97l-117 220h-2l-119 -220h-90l167 279l-150 260h93l104 -198h2l107 198h84l-149 -254zM290 659c0 -27 -22 -49 -49 -49s-49 22 -49 49s22 49 49 49s49 -22 49 -49z" />
    <glyph glyph-name="Ygrave" unicode="&#x1ef2;" horiz-adv-x="501" 
d="M486 688l-189 -383v-305h-92v305l-188 383h99l138 -311h2l142 311h88zM304 747h-51l-113 131c8 14 25 21 43 21c17 0 35 -5 48 -15z" />
    <glyph glyph-name="ygrave" unicode="&#x1ef3;" horiz-adv-x="492" 
d="M465 539l-250 -754h-94l89 215l-181 539h94l113 -391c5 -17 11 -50 12 -67h2c2 17 10 51 15 67l117 391h83zM302 598h-51l-113 131c8 14 25 21 43 21c17 0 35 -5 48 -15z" />
    <glyph glyph-name="uni2007" unicode="&#x2007;" horiz-adv-x="536" 
 />
    <glyph glyph-name="uni2008" unicode="&#x2008;" horiz-adv-x="250" 
 />
    <glyph glyph-name="uni200B" unicode="&#x200b;" horiz-adv-x="0" 
 />
    <glyph glyph-name="endash" unicode="&#x2013;" horiz-adv-x="376" 
d="M376 301h-376v66h376v-66z" />
    <glyph glyph-name="emdash" unicode="&#x2014;" horiz-adv-x="752" 
d="M752 303h-752v62h752v-62z" />
    <glyph glyph-name="afii00208" unicode="&#x2015;" horiz-adv-x="752" 
d="M752 303h-752v62h752v-62z" />
    <glyph glyph-name="quoteleft" unicode="&#x2018;" horiz-adv-x="257" 
d="M213 785l-77 -227c-11 -17 -30 -27 -52 -27s-34 11 -38 27l117 227h50z" />
    <glyph glyph-name="quoteright" unicode="&#x2019;" horiz-adv-x="257" 
d="M211 765l-117 -227h-50l78 227c11 17 30 27 52 27s33 -11 37 -27z" />
    <glyph glyph-name="quotesinglbase" unicode="&#x201a;" horiz-adv-x="257" 
d="M211 82l-117 -227h-50l78 227c11 17 30 27 52 27s33 -11 37 -27z" />
    <glyph glyph-name="quotedblleft" unicode="&#x201c;" horiz-adv-x="432" 
d="M388 785l-78 -227c-11 -17 -30 -27 -52 -27s-33 11 -37 27l117 227h50zM213 785l-77 -227c-11 -17 -30 -27 -52 -27s-34 11 -38 27l117 227h50z" />
    <glyph glyph-name="quotedblright" unicode="&#x201d;" horiz-adv-x="432" 
d="M386 765l-117 -227h-50l77 227c11 17 30 27 52 27s34 -11 38 -27zM211 765l-117 -227h-50l78 227c11 17 30 27 52 27s33 -11 37 -27z" />
    <glyph glyph-name="quotedblbase" unicode="&#x201e;" horiz-adv-x="432" 
d="M386 82l-117 -227h-50l77 227c11 17 30 27 52 27s34 -11 38 -27zM211 82l-117 -227h-50l78 227c11 17 30 27 52 27s33 -11 37 -27z" />
    <glyph glyph-name="dagger" unicode="&#x2020;" horiz-adv-x="564" 
d="M510 457l-191 10l10 -682h-94l10 682l-191 -10v88l191 -10l-10 250h94l-10 -250l191 10v-88z" />
    <glyph glyph-name="daggerdbl" unicode="&#x2021;" horiz-adv-x="564" 
d="M510 167l-191 9l10 -391h-94l10 391l-191 -9v86l191 -10v225l-191 -10v87l191 -10l-10 250h94l-10 -250l191 10v-87l-191 10v-225l191 10v-86z" />
    <glyph glyph-name="bullet" unicode="&#x2022;" horiz-adv-x="324" 
d="M256 356c0 -52 -42 -94 -94 -94s-94 42 -94 94s42 94 94 94s94 -42 94 -94z" />
    <glyph glyph-name="ellipsis" unicode="&#x2026;" horiz-adv-x="750" 
d="M182 51c0 -31 -26 -57 -57 -57s-57 26 -57 57s26 57 57 57s57 -26 57 -57zM432 51c0 -31 -26 -57 -57 -57s-57 26 -57 57s26 57 57 57s57 -26 57 -57zM682 51c0 -31 -26 -57 -57 -57s-57 26 -57 57s26 57 57 57s57 -26 57 -57z" />
    <glyph glyph-name="perthousand" unicode="&#x2030;" horiz-adv-x="1148" 
d="M1090 186c0 -99 -43 -196 -135 -196s-135 97 -135 196s43 196 135 196s135 -97 135 -196zM747 186c0 -99 -43 -196 -135 -196s-135 97 -135 196s43 196 135 196s135 -97 135 -196zM545 680l-237 -688l-49 16l237 688zM328 502c0 -99 -43 -196 -135 -196s-135 97 -135 196
s43 196 135 196s135 -97 135 -196zM1027 188c0 76 -17 153 -72 153s-72 -77 -72 -153s17 -154 72 -154s72 78 72 154zM684 188c0 76 -17 153 -72 153s-72 -77 -72 -153s17 -154 72 -154s72 78 72 154zM265 504c0 76 -17 153 -72 153s-72 -77 -72 -153s17 -154 72 -154
s72 78 72 154z" />
    <glyph glyph-name="guilsinglleft" unicode="&#x2039;" horiz-adv-x="296" 
d="M234 139l-52 -31l-130 226l130 226l52 -31l-113 -195z" />
    <glyph glyph-name="guilsinglright" unicode="&#x203a;" horiz-adv-x="296" 
d="M244 334l-130 -226l-52 31l113 195l-113 195l52 31z" />
    <glyph glyph-name="fraction" unicode="&#x2044;" horiz-adv-x="131" 
d="M241 677l-315 -689l-49 23l315 689z" />
    <glyph glyph-name="uni2070" unicode="&#x2070;" horiz-adv-x="338" 
d="M303 682c0 -107 -35 -213 -134 -213s-134 106 -134 213s35 213 134 213s134 -106 134 -213zM238 683c0 84 -13 170 -69 170s-69 -86 -69 -170s13 -169 69 -169s69 85 69 169z" />
    <glyph glyph-name="uni2074" unicode="&#x2074;" horiz-adv-x="338" 
d="M302 567h-35v-91h-61v91h-172v40l170 281h63v-282h35v-39zM209 827h-2c-8 -19 -18 -39 -29 -58l-96 -163h125v159c0 23 1 41 2 62z" />
    <glyph glyph-name="uni2075" unicode="&#x2075;" horiz-adv-x="338" 
d="M288 595c0 -70 -59 -126 -146 -126c-41 0 -84 7 -112 21l19 45c21 -11 53 -18 83 -18c54 0 87 36 87 79c0 50 -30 86 -106 86c-19 0 -40 -2 -61 -5l24 211h199v-52h-152l-14 -117c8 1 18 2 30 2c97 0 149 -50 149 -126z" />
    <glyph glyph-name="uni2076" unicode="&#x2076;" horiz-adv-x="338" 
d="M304 599c0 -68 -42 -130 -132 -130c-88 0 -135 60 -135 157c0 146 99 239 221 269l14 -44c-74 -22 -128 -62 -158 -137c16 6 35 10 54 10c83 0 136 -45 136 -125zM241 599c0 60 -29 89 -86 89c-18 0 -35 -3 -51 -9c-4 -20 -4 -33 -4 -55c0 -70 23 -112 73 -112
c48 0 68 40 68 87z" />
    <glyph glyph-name="uni2077" unicode="&#x2077;" horiz-adv-x="338" 
d="M307 888l-56 -128c-47 -108 -89 -226 -104 -284h-81l161 359h-190v53h270z" />
    <glyph glyph-name="uni2078" unicode="&#x2078;" horiz-adv-x="338" 
d="M304 574c0 -63 -58 -105 -135 -105c-72 0 -135 37 -135 105c0 61 44 90 92 117c-43 25 -79 52 -79 105c0 60 54 99 122 99s122 -39 122 -99c0 -52 -35 -79 -78 -103c48 -27 91 -58 91 -119zM236 796c0 37 -28 61 -66 61s-65 -24 -65 -61c0 -39 27 -58 66 -81
c38 22 65 43 65 81zM242 575c0 47 -31 70 -74 94c-43 -24 -74 -47 -74 -93c0 -40 34 -65 74 -65c42 0 74 26 74 64z" />
    <glyph glyph-name="uni2079" unicode="&#x2079;" horiz-adv-x="338" 
d="M301 738c0 -146 -98 -239 -220 -269l-15 44c73 22 129 62 159 137c-16 -6 -35 -10 -54 -10c-83 0 -137 45 -137 125c0 72 48 130 133 130c88 0 134 -60 134 -157zM239 741c0 70 -23 113 -73 113c-48 0 -68 -42 -68 -88c0 -60 28 -89 85 -89c18 0 35 3 51 9
c4 20 5 33 5 55z" />
    <glyph glyph-name="uni207A" unicode="&#x207a;" horiz-adv-x="354" 
d="M301 661h-98v-99h-52v99h-98v48h98v98h52v-98h98v-48z" />
    <glyph glyph-name="uni207B" unicode="&#x207b;" horiz-adv-x="354" 
d="M301 661h-248v48h248v-48z" />
    <glyph glyph-name="uni207C" unicode="&#x207c;" horiz-adv-x="354" 
d="M301 720h-248v48h248v-48zM301 601h-248v49h248v-49z" />
    <glyph glyph-name="uni207D" unicode="&#x207d;" horiz-adv-x="216" 
d="M200 410l-34 -25c-82 81 -128 182 -128 297s46 216 128 297l34 -25c-61 -76 -95 -172 -95 -272s34 -196 95 -272z" />
    <glyph glyph-name="uni207E" unicode="&#x207e;" horiz-adv-x="216" 
d="M178 682c0 -115 -46 -216 -128 -297l-34 25c61 76 95 172 95 272s-34 196 -95 272l34 25c82 -81 128 -182 128 -297z" />
    <glyph glyph-name="uni207F" unicode="&#x207f;" horiz-adv-x="378" 
d="M323 476h-67v241c0 44 -20 72 -71 72c-25 0 -44 -3 -63 -11v-302h-67v330c34 15 84 25 130 25c98 0 138 -43 138 -112v-243z" />
    <glyph glyph-name="uni2080" unicode="&#x2080;" horiz-adv-x="338" 
d="M303 -9c0 -107 -35 -213 -134 -213s-134 106 -134 213s35 213 134 213s134 -106 134 -213zM238 -8c0 84 -13 170 -69 170s-69 -86 -69 -170s13 -169 69 -169s69 85 69 169z" />
    <glyph glyph-name="uni2081" unicode="&#x2081;" horiz-adv-x="338" 
d="M238 -215h-69v336c-24 -13 -70 -23 -104 -26l-9 39c60 8 111 29 134 63h48v-412z" />
    <glyph glyph-name="uni2082" unicode="&#x2082;" horiz-adv-x="338" 
d="M282 -215h-261l152 214c27 38 34 63 34 88c0 46 -27 69 -80 69c-26 0 -56 -7 -76 -17l-17 42c29 14 67 23 107 23c94 0 136 -45 136 -111c0 -31 -17 -68 -54 -117l-104 -138h163v-53z" />
    <glyph glyph-name="uni2083" unicode="&#x2083;" horiz-adv-x="338" 
d="M288 -95c0 -77 -62 -127 -146 -127c-41 0 -84 8 -112 22l18 44c21 -11 55 -18 83 -18c54 0 88 30 88 80c0 58 -48 80 -106 80h-12v37c62 5 104 33 104 77c0 41 -30 57 -69 57c-29 0 -56 -6 -79 -16l-17 41c30 14 68 22 106 22c71 0 125 -34 125 -95
c0 -50 -40 -79 -75 -92v-2c44 -12 92 -42 92 -110z" />
    <glyph glyph-name="uni2084" unicode="&#x2084;" horiz-adv-x="338" 
d="M302 -124h-35v-91h-61v91h-172v40l170 281h63v-282h35v-39zM209 136h-2c-8 -19 -18 -39 -29 -58l-96 -163h125v159c0 23 1 41 2 62z" />
    <glyph glyph-name="uni2085" unicode="&#x2085;" horiz-adv-x="338" 
d="M288 -96c0 -70 -59 -126 -146 -126c-41 0 -84 7 -112 21l19 45c21 -11 53 -18 83 -18c54 0 87 36 87 79c0 50 -30 86 -106 86c-19 0 -40 -2 -61 -5l24 211h199v-52h-152l-14 -117c8 1 14 2 30 2c97 0 149 -50 149 -126z" />
    <glyph glyph-name="uni2086" unicode="&#x2086;" horiz-adv-x="338" 
d="M304 -92c0 -68 -42 -130 -132 -130c-88 0 -135 60 -135 157c0 146 99 239 221 269l14 -44c-74 -22 -128 -62 -158 -137c16 6 35 10 54 10c83 0 136 -45 136 -125zM241 -92c0 60 -29 89 -86 89c-18 0 -35 -3 -51 -9c-4 -20 -4 -33 -4 -55c0 -70 23 -112 73 -112
c48 0 68 40 68 87z" />
    <glyph glyph-name="uni2087" unicode="&#x2087;" horiz-adv-x="338" 
d="M307 197l-56 -128c-47 -108 -89 -226 -104 -284h-81l161 359h-190v53h270z" />
    <glyph glyph-name="uni2088" unicode="&#x2088;" horiz-adv-x="338" 
d="M304 -117c0 -63 -58 -105 -135 -105c-72 0 -135 37 -135 105c0 61 44 90 92 117c-43 25 -79 52 -79 105c0 60 54 99 122 99s122 -39 122 -99c0 -52 -35 -79 -78 -103c48 -27 91 -58 91 -119zM236 105c0 37 -28 61 -66 61s-65 -24 -65 -61c0 -39 27 -58 66 -81
c38 22 65 43 65 81zM242 -116c0 47 -31 70 -74 94c-43 -24 -74 -47 -74 -93c0 -40 34 -65 74 -65c42 0 74 26 74 64z" />
    <glyph glyph-name="uni2089" unicode="&#x2089;" horiz-adv-x="338" 
d="M301 47c0 -146 -98 -239 -220 -269l-15 44c73 22 129 62 159 137c-16 -6 -35 -10 -54 -10c-83 0 -137 45 -137 125c0 68 43 130 133 130c88 0 134 -60 134 -157zM239 50c0 70 -23 113 -73 113c-48 0 -68 -41 -68 -88c0 -60 28 -89 85 -89c18 0 35 3 51 9c4 20 5 33 5 55z
" />
    <glyph glyph-name="uni208A" unicode="&#x208a;" horiz-adv-x="354" 
d="M301 -30h-98v-99h-52v99h-98v48h98v98h52v-98h98v-48z" />
    <glyph glyph-name="uni208B" unicode="&#x208b;" horiz-adv-x="354" 
d="M301 -30h-248v48h248v-48z" />
    <glyph glyph-name="uni208C" unicode="&#x208c;" horiz-adv-x="354" 
d="M301 29h-248v48h248v-48zM301 -90h-248v49h248v-49z" />
    <glyph glyph-name="uni208D" unicode="&#x208d;" horiz-adv-x="216" 
d="M200 -281l-34 -25c-82 81 -128 182 -128 297s46 216 128 297l34 -25c-61 -76 -95 -172 -95 -272s34 -196 95 -272z" />
    <glyph glyph-name="uni208E" unicode="&#x208e;" horiz-adv-x="216" 
d="M178 -9c0 -115 -46 -216 -128 -297l-34 25c61 76 95 172 95 272s-34 196 -95 272l34 25c82 -81 128 -182 128 -297z" />
    <glyph glyph-name="Euro" unicode="&#x20ac;" horiz-adv-x="638" 
d="M589 26c-29 -21 -85 -39 -145 -39c-169 0 -256 121 -281 264h-103v44h97c-1 16 -2 33 -2 49c0 22 1 44 4 66h-99v44h107c30 135 117 247 277 247c60 0 116 -18 145 -38l-23 -54c-25 15 -64 28 -109 28c-118 0 -177 -83 -200 -183h246v-44h-253c-3 -21 -4 -44 -4 -65
c0 -16 0 -33 2 -50h255v-44h-248c21 -104 80 -196 202 -196c44 0 83 12 108 27z" />
    <glyph glyph-name="uni20B4" unicode="&#x20b4;" 
d="M480 251h-275c-15 -22 -24 -49 -24 -84c0 -61 52 -111 116 -111c39 0 79 10 111 31l25 -59c-36 -25 -89 -38 -143 -38c-109 0 -193 72 -193 177c0 33 6 61 16 84h-65v44h91c40 50 101 78 147 115h-238v44h279c13 20 20 44 20 75c0 66 -46 106 -113 106
c-37 0 -79 -12 -108 -31l-24 56c36 23 86 38 138 38c111 0 188 -64 188 -168c0 -30 -4 -55 -12 -76h64v-44h-89c-38 -50 -98 -78 -144 -115h233v-44z" />
    <glyph glyph-name="afii61289" unicode="&#x2113;" horiz-adv-x="293" 
d="M260 4c-14 -6 -32 -9 -53 -9c-77 0 -130 47 -130 136v654h88v-654c0 -48 23 -75 67 -75c9 0 19 1 28 4v-56z" />
    <glyph glyph-name="afii61352" unicode="&#x2116;" horiz-adv-x="972" 
d="M920 328c0 -100 -45 -190 -147 -190s-147 90 -147 190s45 190 147 190s147 -90 147 -190zM910 0h-274v54h274v-54zM540 0h-80l-273 512c-14 26 -24 49 -34 75h-2c3 -28 3 -54 3 -85v-502h-77v688h96l259 -488c12 -22 22 -46 32 -73h2c-2 29 -3 54 -3 82v479h77v-688z
M854 329c0 73 -17 143 -81 143s-81 -70 -81 -143s17 -143 81 -143s81 70 81 143z" />
    <glyph glyph-name="uni2117" unicode="&#x2117;" horiz-adv-x="822" 
d="M767 344c0 -196 -160 -355 -356 -355s-356 159 -356 355s160 355 356 355s356 -159 356 -355zM707 345c0 167 -131 306 -296 306s-296 -139 -296 -306s131 -306 296 -306s296 139 296 306zM554 430c0 -65 -40 -121 -137 -121c-18 0 -35 1 -45 3v-167h-60v384
c26 14 67 22 103 22c97 0 139 -51 139 -121zM495 431c0 55 -24 84 -82 84c-16 0 -32 -4 -41 -7v-160c9 -1 21 -3 36 -3c64 0 87 35 87 86z" />
    <glyph glyph-name="trademark" unicode="&#x2122;" horiz-adv-x="768" 
d="M720 288h-62l-29 286c-1 7 -3 41 -3 46h-2c-3 -16 -6 -30 -11 -46l-86 -286h-42l-86 286c-4 12 -10 36 -12 46h-2c0 -11 -1 -38 -2 -46l-31 -286h-55l49 400h69l82 -273c4 -13 10 -42 11 -50h2c1 8 5 34 10 50l82 273h69zM274 643h-90v-355h-65v355h-89v45h244v-45z" />
    <glyph glyph-name="Omega" unicode="&#x2126;" horiz-adv-x="616" 
d="M563 0h-217v61c79 91 123 204 123 324c0 122 -49 250 -161 250s-161 -128 -161 -250c0 -120 44 -233 123 -324v-61h-217v62h139c-84 92 -138 204 -138 327c0 160 85 309 254 309s254 -149 254 -309c0 -123 -54 -235 -138 -327h139v-62z" />
    <glyph glyph-name="estimated" unicode="&#x212e;" horiz-adv-x="878" 
d="M838 330h-633c7 -213 132 -298 264 -298c114 0 235 62 288 163l36 -23c-59 -105 -177 -184 -354 -184c-266 0 -399 179 -399 356s133 356 399 356s399 -179 399 -356v-14zM672 371c-11 194 -122 291 -233 291s-222 -97 -233 -291h466z" />
    <glyph glyph-name="uni2150" unicode="&#x2150;" horiz-adv-x="806" 
d="M764 412l-56 -128c-47 -109 -89 -226 -104 -284h-80l160 359h-182v53h262zM556 677l-315 -689l-49 23l315 689zM238 276h-69v336c-24 -13 -70 -23 -104 -26l-9 39c60 8 111 29 134 63h48v-412z" />
    <glyph glyph-name="uni2151" unicode="&#x2151;" horiz-adv-x="806" 
d="M758 262c0 -146 -98 -239 -220 -269l-15 44c73 22 129 62 159 137c-16 -6 -35 -10 -54 -10c-83 0 -137 45 -137 125c0 72 48 130 133 130c88 0 134 -60 134 -157zM563 677l-315 -689l-49 23l315 689zM238 276h-69v336c-24 -13 -70 -23 -104 -26l-9 39c60 8 111 29 134 63
h48v-412zM696 265c0 70 -23 113 -73 113c-48 0 -68 -42 -68 -88c0 -60 28 -89 85 -89c18 0 35 3 51 9c4 20 5 33 5 55z" />
    <glyph glyph-name="uni2152" unicode="&#x2152;" horiz-adv-x="1090" 
d="M1042 206c0 -107 -35 -213 -134 -213s-134 106 -134 213s35 213 134 213s134 -106 134 -213zM675 0h-68v336c-24 -13 -71 -23 -105 -26l-9 39c60 8 111 29 134 63h48v-412zM564 677l-315 -689l-49 23l315 689zM238 276h-69v336c-24 -13 -70 -23 -104 -26l-9 39
c60 8 111 29 134 63h48v-412zM977 207c0 84 -13 170 -69 170s-69 -86 -69 -170s13 -169 69 -169s69 85 69 169z" />
    <glyph glyph-name="onethird" unicode="&#x2153;" horiz-adv-x="806" 
d="M756 120c0 -77 -63 -127 -147 -127c-41 0 -83 8 -111 22l17 44c21 -11 56 -18 84 -18c54 0 87 30 87 80c0 58 -47 80 -105 80h-12v37c62 5 103 33 103 77c0 41 -29 57 -68 57c-29 0 -56 -6 -79 -16l-17 41c30 14 68 22 106 22c71 0 124 -34 124 -95
c0 -50 -39 -79 -74 -92v-2c44 -12 92 -42 92 -110zM562 677l-315 -689l-49 23l315 689zM238 276h-69v336c-24 -13 -70 -23 -104 -26l-9 39c60 8 111 29 134 63h48v-412z" />
    <glyph glyph-name="twothirds" unicode="&#x2154;" horiz-adv-x="806" 
d="M756 120c0 -77 -63 -127 -147 -127c-41 0 -83 8 -111 22l17 44c21 -11 56 -18 84 -18c54 0 87 30 87 80c0 58 -47 80 -105 80h-12v37c62 5 103 33 103 77c0 41 -29 57 -68 57c-29 0 -55 -6 -78 -16l-17 41c30 14 67 22 105 22c71 0 124 -34 124 -95
c0 -50 -39 -79 -74 -92v-2c44 -12 92 -42 92 -110zM583 677l-315 -689l-49 23l315 689zM280 276h-260l151 214c27 38 34 63 34 88c0 46 -27 69 -80 69c-26 0 -56 -7 -76 -17l-17 42c29 14 67 23 107 23c94 0 136 -45 136 -111c0 -31 -16 -68 -53 -117l-105 -138h163v-53z
" />
    <glyph glyph-name="uni2155" unicode="&#x2155;" horiz-adv-x="806" 
d="M756 119c0 -70 -60 -126 -147 -126c-41 0 -83 7 -111 21l18 45c21 -11 54 -18 84 -18c54 0 86 36 86 79c0 50 -30 86 -106 86c-19 0 -39 -2 -60 -5l24 211h198v-52h-152l-13 -117c6 1 20 2 30 2c97 0 149 -50 149 -126zM572 677l-315 -689l-49 23l315 689zM238 276h-69
v336c-24 -13 -70 -23 -104 -26l-9 39c60 8 111 29 134 63h48v-412z" />
    <glyph glyph-name="uni2156" unicode="&#x2156;" horiz-adv-x="806" 
d="M756 119c0 -70 -60 -126 -147 -126c-41 0 -83 7 -111 21l18 45c21 -11 54 -18 84 -18c54 0 86 36 86 79c0 50 -30 86 -106 86c-19 0 -39 -2 -60 -5l24 211h198v-52h-152l-13 -117c6 1 20 2 30 2c97 0 149 -50 149 -126zM592 677l-314 -689l-49 23l314 689zM280 276h-260
l152 214c27 38 34 63 34 88c0 46 -27 69 -80 69c-26 0 -57 -7 -77 -17l-17 42c29 14 68 23 108 23c94 0 136 -45 136 -111c0 -31 -17 -68 -54 -117l-105 -138h163v-53z" />
    <glyph glyph-name="uni2157" unicode="&#x2157;" horiz-adv-x="806" 
d="M756 119c0 -70 -60 -126 -147 -126c-41 0 -83 7 -111 21l18 45c21 -11 54 -18 84 -18c54 0 86 36 86 79c0 50 -30 86 -106 86c-19 0 -39 -2 -60 -5l24 211h198v-52h-152l-13 -117c6 1 20 2 30 2c97 0 149 -50 149 -126zM578 677l-315 -689l-49 23l315 689zM288 396
c0 -77 -62 -127 -146 -127c-41 0 -84 8 -112 22l18 44c21 -11 55 -18 83 -18c54 0 88 30 88 80c0 58 -48 80 -106 80h-12v37c62 5 104 33 104 77c0 41 -30 57 -69 57c-29 0 -56 -6 -79 -16l-17 41c30 14 68 22 106 22c71 0 125 -34 125 -95c0 -50 -40 -79 -75 -92v-2
c44 -12 92 -42 92 -110z" />
    <glyph glyph-name="uni2158" unicode="&#x2158;" horiz-adv-x="806" 
d="M756 119c0 -70 -60 -126 -147 -126c-41 0 -83 7 -111 21l18 45c21 -11 54 -18 84 -18c54 0 86 36 86 79c0 50 -30 86 -106 86c-19 0 -39 -2 -60 -5l24 211h198v-52h-152l-13 -117c6 1 20 2 30 2c97 0 149 -50 149 -126zM588 677l-314 -689l-49 23l314 689zM302 367h-35
v-91h-61v91h-172v40l170 281h63v-282h35v-39zM209 627h-2c-3 -7 -16 -37 -29 -58l-96 -163h125v159c0 25 1 52 2 62z" />
    <glyph glyph-name="uni2159" unicode="&#x2159;" horiz-adv-x="806" 
d="M756 123c0 -68 -43 -130 -133 -130c-88 0 -135 60 -135 157c0 146 99 239 221 269l15 -44c-74 -22 -129 -62 -159 -137c16 6 35 10 54 10c83 0 137 -45 137 -125zM580 677l-314 -689l-49 23l314 689zM238 276h-69v336c-24 -13 -70 -23 -104 -26l-9 39c60 8 111 29 134 63
h48v-412zM692 123c0 60 -29 89 -86 89c-18 0 -34 -3 -50 -9c-4 -20 -5 -33 -5 -55c0 -70 23 -112 73 -112c48 0 68 40 68 87z" />
    <glyph glyph-name="uni215A" unicode="&#x215a;" horiz-adv-x="806" 
d="M756 123c0 -68 -43 -130 -133 -130c-88 0 -135 60 -135 157c0 146 99 239 221 269l15 -44c-74 -22 -129 -62 -159 -137c16 6 35 10 54 10c83 0 137 -45 137 -125zM592 677l-314 -689l-49 23l314 689zM289 395c0 -70 -60 -126 -147 -126c-41 0 -83 7 -111 21l18 45
c21 -11 53 -18 83 -18c54 0 87 36 87 79c0 50 -30 86 -106 86c-19 0 -39 -2 -60 -5l23 211h199v-52h-152l-13 -117c7 1 18 2 29 2c97 0 150 -50 150 -126zM692 123c0 60 -29 89 -86 89c-18 0 -34 -3 -50 -9c-4 -20 -5 -33 -5 -55c0 -70 23 -112 73 -112c48 0 68 40 68 87z
" />
    <glyph glyph-name="oneeighth" unicode="&#x215b;" horiz-adv-x="806" 
d="M757 98c0 -63 -57 -105 -134 -105c-72 0 -135 37 -135 105c0 61 44 90 92 117c-43 25 -79 52 -79 105c0 60 54 99 122 99s121 -39 121 -99c0 -52 -35 -79 -78 -103c48 -27 91 -58 91 -119zM566 677l-315 -689l-49 23l315 689zM238 276h-69v336c-24 -13 -70 -23 -104 -26
l-9 39c60 8 111 29 134 63h48v-412zM689 320c0 37 -27 61 -65 61s-65 -24 -65 -61c0 -39 27 -58 66 -81c38 22 64 43 64 81zM695 99c0 47 -30 70 -73 94c-43 -24 -74 -47 -74 -93c0 -40 34 -65 74 -65c42 0 73 26 73 64z" />
    <glyph glyph-name="threeeighths" unicode="&#x215c;" horiz-adv-x="806" 
d="M757 98c0 -63 -57 -105 -134 -105c-72 0 -135 37 -135 105c0 61 44 90 92 117c-43 25 -79 52 -79 105c0 60 54 99 122 99s121 -39 121 -99c0 -52 -35 -79 -78 -103c48 -27 91 -58 91 -119zM572 677l-314 -689l-49 23l314 689zM288 396c0 -77 -62 -127 -146 -127
c-41 0 -84 8 -112 22l18 44c21 -11 55 -18 83 -18c54 0 88 30 88 80c0 58 -48 80 -106 80h-12v37c62 5 104 33 104 77c0 41 -30 57 -69 57c-29 0 -56 -6 -79 -16l-17 41c30 14 68 22 106 22c71 0 125 -34 125 -95c0 -50 -40 -79 -75 -92v-2c44 -12 92 -42 92 -110zM689 320
c0 37 -27 61 -65 61s-65 -24 -65 -61c0 -39 27 -58 66 -81c38 22 64 43 64 81zM695 99c0 47 -30 70 -73 94c-43 -24 -74 -47 -74 -93c0 -40 34 -65 74 -65c42 0 73 26 73 64z" />
    <glyph glyph-name="fiveeighths" unicode="&#x215d;" horiz-adv-x="806" 
d="M757 98c0 -63 -57 -105 -134 -105c-72 0 -135 37 -135 105c0 61 44 90 92 117c-43 25 -79 52 -79 105c0 60 54 99 122 99s121 -39 121 -99c0 -52 -35 -79 -78 -103c48 -27 91 -58 91 -119zM575 677l-315 -689l-49 23l315 689zM289 395c0 -70 -60 -126 -147 -126
c-41 0 -83 7 -111 21l18 45c21 -11 53 -18 83 -18c54 0 87 36 87 79c0 50 -30 86 -106 86c-19 0 -39 -2 -60 -5l23 211h199v-52h-152l-13 -117c7 1 17 2 29 2c97 0 150 -50 150 -126zM689 320c0 37 -27 61 -65 61s-65 -24 -65 -61c0 -39 27 -58 66 -81c38 22 64 43 64 81z
M695 99c0 47 -30 70 -73 94c-43 -24 -74 -47 -74 -93c0 -40 34 -65 74 -65c42 0 73 26 73 64z" />
    <glyph glyph-name="seveneighths" unicode="&#x215e;" horiz-adv-x="806" 
d="M757 98c0 -63 -57 -105 -134 -105c-72 0 -135 37 -135 105c0 61 44 90 92 117c-43 25 -79 52 -79 105c0 60 54 99 122 99s121 -39 121 -99c0 -52 -35 -79 -78 -103c48 -27 91 -58 91 -119zM539 677l-314 -689l-49 23l314 689zM312 688l-55 -128
c-47 -109 -89 -226 -104 -284h-81l161 359h-191v53h270zM689 320c0 37 -27 61 -65 61s-65 -24 -65 -61c0 -39 27 -58 66 -81c38 22 64 43 64 81zM695 99c0 47 -30 70 -73 94c-43 -24 -74 -47 -74 -93c0 -40 34 -65 74 -65c42 0 73 26 73 64z" />
    <glyph glyph-name="uni215F" unicode="&#x215f;" horiz-adv-x="456" 
d="M566 677l-315 -689l-49 23l315 689zM238 276h-69v336c-24 -13 -70 -23 -104 -26l-9 39c60 8 111 29 134 63h48v-412z" />
    <glyph glyph-name="uni2189" unicode="&#x2189;" horiz-adv-x="806" 
d="M762 120c0 -77 -63 -127 -147 -127c-41 0 -83 8 -111 22l17 44c21 -11 56 -18 84 -18c54 0 87 30 87 80c0 58 -47 80 -105 80h-12v37c62 5 103 33 103 77c0 41 -29 57 -68 57c-28 0 -55 -6 -78 -16l-16 42c30 14 67 21 104 21c71 0 124 -34 124 -95
c0 -50 -39 -79 -74 -92v-2c44 -12 92 -42 92 -110zM584 677l-315 -689l-49 23l315 689zM312 482c0 -107 -35 -213 -134 -213s-134 106 -134 213s35 213 134 213s134 -106 134 -213zM247 483c0 84 -13 170 -69 170s-69 -86 -69 -170s13 -169 69 -169s69 85 69 169z" />
    <glyph glyph-name="arrowleft" unicode="&#x2190;" horiz-adv-x="940" 
d="M944 303h-753l196 -196l-45 -43l-270 270l270 270l45 -44l-196 -195h753v-62z" />
    <glyph glyph-name="arrowup" unicode="&#x2191;" horiz-adv-x="688" 
d="M616 523l-43 -44l-195 195v-674h-68v674l-195 -195l-43 44l272 272z" />
    <glyph glyph-name="arrowright" unicode="&#x2192;" horiz-adv-x="940" 
d="M868 334l-270 -270l-45 43l196 196h-753v62h753l-196 195l45 44z" />
    <glyph glyph-name="arrowdown" unicode="&#x2193;" horiz-adv-x="688" 
d="M616 262l-272 -272l-272 272l43 44l195 -195v674h68v-674l195 195z" />
    <glyph glyph-name="arrowboth" unicode="&#x2194;" horiz-adv-x="1200" 
d="M1128 334l-270 -270l-45 43l196 196h-818l196 -196l-45 -43l-270 270l270 270l45 -44l-196 -195h818l-196 195l45 44z" />
    <glyph glyph-name="uni2196" unicode="&#x2196;" horiz-adv-x="688" 
d="M648 168l-48 -48l-456 456v-275h-64v387h374v-59h-268z" />
    <glyph glyph-name="uni2197" unicode="&#x2197;" horiz-adv-x="688" 
d="M608 301h-64v275l-456 -456l-48 48l462 461h-268v59h374v-387z" />
    <glyph glyph-name="uni2198" unicode="&#x2198;" horiz-adv-x="688" 
d="M608 0h-374v59h268l-462 461l48 48l456 -456v275h64v-387z" />
    <glyph glyph-name="uni2199" unicode="&#x2199;" horiz-adv-x="688" 
d="M648 520l-462 -461h268v-59h-374v387h64v-275l456 456z" />
    <glyph glyph-name="carriagereturn" unicode="&#x21b5;" horiz-adv-x="940" 
d="M856 0h-673l182 -181l-45 -44l-256 256l256 256l45 -44l-182 -181h605v284h-205v62h273v-408z" />
    <glyph glyph-name="uni21E6" unicode="&#x21e6;" horiz-adv-x="890" 
d="M810 169l-408 39v-208h-32l-344 344l344 344h32v-208l408 39v-350zM752 232v224l-405 -38v165l-239 -239l239 -239v165z" />
    <glyph glyph-name="uni21E7" unicode="&#x21e7;" horiz-adv-x="786" 
d="M738 407h-208l42 -407h-358l42 407h-208v32l345 345l345 -345v-32zM635 459l-242 243l-242 -243h169l-37 -403h220l-37 403h169z" />
    <glyph glyph-name="uni21E8" unicode="&#x21e8;" horiz-adv-x="890" 
d="M864 344l-344 -344h-32v208l-408 -39v350l408 -39v208h32zM782 344l-239 239v-165l-405 38v-224l405 38v-165z" />
    <glyph glyph-name="uni21E9" unicode="&#x21e9;" horiz-adv-x="786" 
d="M738 249l-345 -345l-345 345v32h208l-42 407h358l-42 -407h208v-32zM635 229h-169l37 403h-220l37 -403h-169l242 -243z" />
    <glyph glyph-name="partialdiff" unicode="&#x2202;" 
d="M473 250c0 -162 -77 -260 -213 -260c-141 0 -207 104 -207 213c0 132 86 208 220 208c34 0 68 -7 96 -18c-50 134 -139 203 -266 245l20 59c199 -55 350 -208 350 -447zM389 248c0 37 -1 61 -8 96c-29 11 -60 18 -93 18c-99 0 -150 -54 -150 -158c0 -81 35 -155 120 -155
c89 0 131 76 131 199z" />
    <glyph glyph-name="Delta" unicode="&#x2206;" horiz-adv-x="590" 
d="M571 0h-552l232 688h87zM458 58l-145 465c-11 35 -16 67 -20 89h-2c-4 -22 -12 -60 -21 -89l-147 -465h335z" />
    <glyph glyph-name="product" unicode="&#x220f;" horiz-adv-x="742" 
d="M695 626h-103v-841h-92v841h-258v-841h-92v841h-103v62h648v-62z" />
    <glyph glyph-name="summation" unicode="&#x2211;" 
d="M473 -215h-427l238 471l-237 432h420v-69h-289l201 -363l-205 -399h299v-72z" />
    <glyph glyph-name="minus" unicode="&#x2212;" horiz-adv-x="518" 
d="M456 303h-394v62h394v-62z" />
    <glyph glyph-name="uni2219" unicode="&#x2219;" horiz-adv-x="518" 
d="M353 356c0 -52 -42 -94 -94 -94s-94 42 -94 94s42 94 94 94s94 -42 94 -94z" />
    <glyph glyph-name="radical" unicode="&#x221a;" 
d="M499 785l-176 -785h-80l-134 449h-83v53h151l102 -395h2l139 678h79z" />
    <glyph glyph-name="infinity" unicode="&#x221e;" horiz-adv-x="750" 
d="M695 339c0 -102 -62 -180 -156 -180c-80 0 -126 58 -166 126c-40 -69 -82 -126 -161 -126c-94 0 -157 77 -157 180c0 102 63 180 157 180c80 0 123 -59 164 -127c39 67 83 127 163 127c94 0 156 -78 156 -180zM638 339c0 70 -38 116 -99 116s-95 -50 -130 -112
c37 -65 71 -118 130 -118c61 0 99 44 99 114zM341 335c-36 64 -71 118 -130 118c-61 0 -100 -45 -100 -115c0 -69 39 -115 100 -115s95 51 130 112z" />
    <glyph glyph-name="integral" unicode="&#x222b;" horiz-adv-x="394" 
d="M358 779l-12 -57c-13 4 -27 6 -42 6c-64 0 -93 -42 -93 -117v-648c0 -112 -64 -182 -167 -182c-24 0 -50 4 -67 10l12 60c13 -4 27 -6 42 -6c64 0 93 42 93 117v645c0 112 64 182 167 182c24 0 50 -4 67 -10z" />
    <glyph glyph-name="approxequal" unicode="&#x2248;" horiz-adv-x="518" 
d="M456 407c-23 -27 -58 -46 -103 -46c-68 0 -120 65 -188 65c-45 0 -80 -19 -103 -46v64c22 27 58 45 103 45c68 0 120 -64 188 -64c45 0 80 19 103 47v-65zM456 224c-23 -27 -58 -46 -103 -46c-68 0 -120 65 -188 65c-45 0 -80 -20 -103 -47v65c22 27 58 45 103 45
c68 0 120 -64 188 -64c45 0 80 18 103 46v-64z" />
    <glyph glyph-name="notequal" unicode="&#x2260;" horiz-adv-x="518" 
d="M456 211h-223l-51 -123l-43 19l44 104h-121v62h146l51 121h-197v62h223l51 121l42 -19l-43 -102h121v-62h-147l-50 -121h197v-62z" />
    <glyph glyph-name="lessequal" unicode="&#x2264;" horiz-adv-x="518" 
d="M456 151l-394 169v55l394 169v-67l-317 -129v-2l317 -128v-67zM456 0h-394v59h394v-59z" />
    <glyph glyph-name="greaterequal" unicode="&#x2265;" horiz-adv-x="518" 
d="M456 320l-394 -169v67l317 128v2l-317 129v67l394 -169v-55zM456 0h-394v59h394v-59z" />
    <glyph glyph-name="dotmath" unicode="&#x22c5;" horiz-adv-x="518" 
d="M316 333c0 -31 -26 -57 -57 -57s-57 26 -57 57s26 57 57 57s57 -26 57 -57z" />
    <glyph glyph-name="uni2300" unicode="&#x2300;" horiz-adv-x="850" 
d="M804 678l-107 -105c53 -61 85 -142 85 -229c0 -196 -160 -354 -357 -354c-87 0 -167 31 -228 82l-106 -106l-45 45l106 105c-52 61 -84 141 -84 228c0 196 160 354 357 354c87 0 166 -32 227 -83l107 108zM607 571c-49 42 -112 67 -182 67c-161 0 -291 -132 -291 -294
c0 -69 24 -132 64 -181zM716 344c0 69 -24 132 -65 181l-409 -408c49 -42 113 -67 183 -67c161 0 291 132 291 294z" />
    <glyph glyph-name="uni2318" unicode="&#x2318;" horiz-adv-x="860" 
d="M798 121c0 -75 -62 -131 -141 -131c-94 0 -148 59 -148 153v71h-158v-71c0 -94 -54 -153 -148 -153c-79 0 -141 56 -141 131c0 81 61 137 165 137h65v172h-65c-104 0 -165 56 -165 137c0 75 62 131 141 131c94 0 148 -59 148 -153v-71h158v71c0 94 54 153 148 153
c79 0 141 -56 141 -131c0 -81 -61 -137 -165 -137h-65v-172h65c104 0 165 -56 165 -137zM739 567c0 50 -35 89 -82 89c-57 0 -89 -43 -89 -111v-71h67c68 0 104 37 104 93zM739 121c0 56 -36 93 -104 93h-67v-71c0 -68 32 -111 89 -111c47 0 82 39 82 89zM509 258v172h-158
v-172h158zM292 474v71c0 68 -32 111 -89 111c-47 0 -82 -39 -82 -89c0 -56 36 -93 104 -93h67zM292 143v71h-67c-68 0 -104 -37 -104 -93c0 -50 35 -89 82 -89c57 0 89 43 89 111z" />
    <glyph glyph-name="uni2324" unicode="&#x2324;" horiz-adv-x="800" 
d="M724 626h-648v62h648v-62zM669 356l-46 -46l-223 223l-223 -223l-46 46l269 269z" />
    <glyph glyph-name="uni2325" unicode="&#x2325;" horiz-adv-x="860" 
d="M794 346h-373v62h373v-62zM794 0h-404l-158 346h-166v62h215l158 -346h355v-62z" />
    <glyph glyph-name="uni2326" unicode="&#x2326;" horiz-adv-x="1180" 
d="M1124 344l-344 -344h-696v688h696zM1039 344l-288 287h-604v-574h604zM709 172l-42 -43l-174 175l-175 -175l-42 43l175 174l-175 174l42 42l175 -175l174 175l42 -42l-174 -174z" />
    <glyph glyph-name="uni232B" unicode="&#x232b;" horiz-adv-x="1180" 
d="M1096 0h-696l-344 344l344 344h696v-688zM1033 57v574h-604l-288 -287l288 -287h604zM904 172l-42 -43l-175 175l-174 -175l-42 43l174 174l-174 174l42 42l174 -175l175 175l42 -42l-175 -174z" />
    <glyph glyph-name="uni2460" unicode="&#x2460;" horiz-adv-x="920" 
d="M862 392c0 -222 -180 -402 -402 -402s-402 180 -402 402s180 402 402 402s402 -180 402 -402zM805 393c0 196 -155 355 -345 355s-344 -159 -344 -355s154 -355 344 -355s345 159 345 355zM512 192h-64v336c-23 -13 -69 -23 -103 -26l-8 39c59 8 109 29 131 63h44v-412z
" />
    <glyph glyph-name="uni2461" unicode="&#x2461;" horiz-adv-x="920" 
d="M862 392c0 -222 -180 -402 -402 -402s-402 180 -402 402s180 402 402 402s402 -180 402 -402zM805 393c0 196 -155 355 -345 355s-344 -159 -344 -355s154 -355 344 -355s345 159 345 355zM589 192h-255l150 214c26 38 34 64 34 89c0 45 -28 69 -80 69
c-26 0 -55 -8 -75 -18l-16 42c28 14 66 23 105 23c91 0 132 -46 132 -112c0 -31 -15 -67 -52 -116l-104 -138h161v-53z" />
    <glyph glyph-name="uni2462" unicode="&#x2462;" horiz-adv-x="920" 
d="M862 392c0 -222 -180 -402 -402 -402s-402 180 -402 402s180 402 402 402s402 -180 402 -402zM805 393c0 196 -155 355 -345 355s-344 -159 -344 -355s154 -355 344 -355s345 159 345 355zM602 312c0 -77 -61 -127 -143 -127c-40 0 -82 8 -109 22l17 44
c21 -11 54 -18 82 -18c53 0 86 30 86 80c0 58 -46 80 -103 80h-12v37c61 5 101 34 101 78c0 41 -29 57 -67 57c-28 0 -55 -7 -78 -17l-16 41c30 14 66 22 103 22c68 0 121 -34 121 -95c0 -50 -39 -79 -73 -92v-2c43 -12 91 -43 91 -110z" />
    <glyph glyph-name="uni2463" unicode="&#x2463;" horiz-adv-x="920" 
d="M862 392c0 -222 -180 -402 -402 -402s-402 180 -402 402s180 402 402 402s402 -180 402 -402zM805 393c0 196 -155 355 -345 355s-344 -159 -344 -355s154 -355 344 -355s345 159 345 355zM585 283h-48v-91h-58v91h-168v40l166 281h60v-283h48v-38zM482 543h-2
c-8 -19 -16 -37 -28 -58l-96 -164h124v160c0 21 1 44 2 62z" />
    <glyph glyph-name="uni2464" unicode="&#x2464;" horiz-adv-x="920" 
d="M862 392c0 -222 -180 -402 -402 -402s-402 180 -402 402s180 402 402 402s402 -180 402 -402zM805 393c0 196 -155 355 -345 355s-344 -159 -344 -355s154 -355 344 -355s345 159 345 355zM587 312c0 -70 -58 -127 -143 -127c-39 0 -81 8 -108 22l18 44
c20 -11 52 -18 81 -18c53 0 86 36 86 79c0 51 -30 87 -105 87c-18 0 -38 -2 -59 -5l24 210h193v-52h-149l-13 -117c7 1 18 2 29 2c94 0 146 -49 146 -125z" />
    <glyph glyph-name="uni2465" unicode="&#x2465;" horiz-adv-x="920" 
d="M862 392c0 -222 -180 -402 -402 -402s-402 180 -402 402s180 402 402 402s402 -180 402 -402zM805 393c0 196 -155 355 -345 355s-344 -159 -344 -355s154 -355 344 -355s345 159 345 355zM585 315c0 -68 -42 -130 -129 -130c-85 0 -131 60 -131 157
c0 146 97 238 215 268l14 -43c-73 -23 -127 -62 -156 -137c16 6 35 10 54 10c81 0 133 -45 133 -125zM525 315c0 59 -29 89 -85 89c-18 0 -35 -3 -51 -9c-4 -20 -4 -33 -4 -55c0 -70 23 -112 72 -112c47 0 68 40 68 87z" />
    <glyph glyph-name="uni2466" unicode="&#x2466;" horiz-adv-x="920" 
d="M862 392c0 -222 -180 -402 -402 -402s-402 180 -402 402s180 402 402 402s402 -180 402 -402zM805 393c0 196 -155 355 -345 355s-344 -159 -344 -355s154 -355 344 -355s345 159 345 355zM599 604l-55 -128c-46 -109 -88 -226 -102 -284h-78l158 360h-185v52h262z" />
    <glyph glyph-name="uni2467" unicode="&#x2467;" horiz-adv-x="920" 
d="M862 392c0 -222 -180 -402 -402 -402s-402 180 -402 402s180 402 402 402s402 -180 402 -402zM805 393c0 196 -155 355 -345 355s-344 -159 -344 -355s154 -355 344 -355s345 159 345 355zM591 291c0 -63 -56 -106 -131 -106c-70 0 -130 37 -130 105c0 61 43 90 90 117
c-42 25 -78 51 -78 104c0 59 52 100 118 100c67 0 119 -40 119 -99c0 -51 -35 -79 -77 -103c47 -27 89 -57 89 -118zM526 512c0 37 -28 60 -65 60c-38 0 -64 -23 -64 -60c0 -39 28 -58 66 -81c37 22 63 43 63 81zM532 291c0 47 -31 70 -73 94c-42 -24 -73 -47 -73 -93
c0 -40 35 -65 74 -65c42 0 72 26 72 64z" />
    <glyph glyph-name="uni2468" unicode="&#x2468;" horiz-adv-x="920" 
d="M862 392c0 -222 -180 -402 -402 -402s-402 180 -402 402s180 402 402 402s402 -180 402 -402zM805 393c0 196 -155 355 -345 355s-344 -159 -344 -355s154 -355 344 -355s345 159 345 355zM594 454c0 -146 -97 -238 -215 -268l-14 43c73 23 127 62 156 137
c-16 -6 -35 -10 -54 -10c-81 0 -133 45 -133 125c0 68 42 130 129 130c85 0 131 -60 131 -157zM535 457c0 70 -24 112 -73 112c-47 0 -68 -40 -68 -87c0 -59 29 -89 85 -89c18 0 35 3 51 9c4 20 5 33 5 55z" />
    <glyph glyph-name="uni2469" unicode="&#x2469;" horiz-adv-x="1166" 
d="M1108 392c0 -222 -180 -402 -402 -402h-246c-222 0 -402 180 -402 402s180 402 402 402h246c222 0 402 -180 402 -402zM1050 393c0 196 -154 355 -344 355h-246c-190 0 -344 -159 -344 -355s154 -355 344 -355h246c190 0 344 159 344 355zM852 398
c0 -107 -33 -213 -130 -213s-130 106 -130 213s33 213 130 213s130 -106 130 -213zM478 192h-64v336c-23 -13 -69 -23 -103 -26l-8 39c59 8 109 29 131 63h44v-412zM790 399c0 84 -12 170 -68 170s-69 -86 -69 -170s13 -169 69 -169s68 85 68 169z" />
    <glyph glyph-name="uni246A" unicode="&#x246a;" horiz-adv-x="1166" 
d="M1108 392c0 -222 -180 -402 -402 -402h-246c-222 0 -402 180 -402 402s180 402 402 402h246c222 0 402 -180 402 -402zM1050 393c0 196 -154 355 -344 355h-246c-190 0 -344 -159 -344 -355s154 -355 344 -355h246c190 0 344 159 344 355zM777 192h-64v336
c-23 -13 -69 -23 -103 -26l-8 39c59 8 109 29 131 63h44v-412zM501 192h-64v336c-23 -13 -69 -23 -103 -26l-8 39c59 8 109 29 131 63h44v-412z" />
    <glyph glyph-name="uni246B" unicode="&#x246b;" horiz-adv-x="1166" 
d="M1108 392c0 -222 -180 -402 -402 -402h-246c-222 0 -402 180 -402 402s180 402 402 402h246c222 0 402 -180 402 -402zM1050 393c0 196 -154 355 -344 355h-246c-190 0 -344 -159 -344 -355s154 -355 344 -355h246c190 0 344 159 344 355zM829 192h-255l149 214
c26 38 34 64 34 89c0 45 -27 69 -79 69c-26 0 -55 -8 -75 -18l-16 42c28 14 65 23 104 23c91 0 133 -46 133 -112c0 -31 -16 -67 -53 -116l-103 -138h161v-53zM483 192h-64v336c-23 -13 -70 -23 -104 -26l-8 39c59 8 109 29 131 63h45v-412z" />
    <glyph glyph-name="uni246C" unicode="&#x246c;" horiz-adv-x="1166" 
d="M1108 392c0 -222 -180 -402 -402 -402h-246c-222 0 -402 180 -402 402s180 402 402 402h246c222 0 402 -180 402 -402zM1050 393c0 196 -154 355 -344 355h-246c-190 0 -344 -159 -344 -355s154 -355 344 -355h246c190 0 344 159 344 355zM829 312
c0 -77 -61 -127 -143 -127c-40 0 -82 8 -109 22l17 44c21 -11 54 -18 82 -18c53 0 86 30 86 80c0 58 -46 80 -103 80h-12v37c61 5 101 34 101 78c0 41 -29 57 -67 57c-28 0 -55 -7 -78 -17l-16 41c30 14 66 22 103 22c68 0 121 -34 121 -95c0 -50 -39 -79 -73 -92v-2
c43 -12 91 -43 91 -110zM483 192h-64v336c-23 -13 -70 -23 -104 -26l-8 39c59 8 109 29 131 63h45v-412z" />
    <glyph glyph-name="uni246D" unicode="&#x246d;" horiz-adv-x="1166" 
d="M1108 392c0 -222 -180 -402 -402 -402h-246c-222 0 -402 180 -402 402s180 402 402 402h246c222 0 402 -180 402 -402zM1050 393c0 196 -154 355 -344 355h-246c-190 0 -344 -159 -344 -355s154 -355 344 -355h246c190 0 344 159 344 355zM847 283h-46v-91h-58v91h-168
v40l166 281h60v-283h46v-38zM479 192h-64v336c-23 -13 -69 -23 -103 -26l-8 39c59 8 109 29 131 63h44v-412zM746 543h-2c-9 -22 -19 -42 -28 -58l-96 -164h124v160c0 18 1 42 2 62z" />
    <glyph glyph-name="uni246E" unicode="&#x246e;" horiz-adv-x="1166" 
d="M1108 392c0 -222 -180 -402 -402 -402h-246c-222 0 -402 180 -402 402s180 402 402 402h246c222 0 402 -180 402 -402zM1050 393c0 196 -154 355 -344 355h-246c-190 0 -344 -159 -344 -355s154 -355 344 -355h246c190 0 344 159 344 355zM826 312
c0 -70 -57 -127 -142 -127c-39 0 -82 8 -109 22l18 44c20 -11 52 -18 81 -18c53 0 86 36 86 79c0 51 -29 87 -104 87c-18 0 -38 -2 -59 -5l23 210h193v-52h-149l-13 -117c7 1 18 2 30 2c94 0 145 -49 145 -125zM480 192h-64v336c-23 -13 -70 -23 -104 -26l-8 39
c59 8 109 29 131 63h45v-412z" />
    <glyph glyph-name="uni246F" unicode="&#x246f;" horiz-adv-x="1166" 
d="M1108 392c0 -222 -180 -402 -402 -402h-246c-222 0 -402 180 -402 402s180 402 402 402h246c222 0 402 -180 402 -402zM1050 393c0 196 -154 355 -344 355h-246c-190 0 -344 -159 -344 -355s154 -355 344 -355h246c190 0 344 159 344 355zM840 315
c0 -68 -42 -130 -129 -130c-85 0 -131 60 -131 157c0 146 97 238 215 268l14 -43c-73 -23 -127 -62 -156 -137c16 6 35 10 54 10c81 0 133 -45 133 -125zM475 192h-64v336c-23 -13 -69 -23 -103 -26l-8 39c59 8 109 29 131 63h44v-412zM780 315c0 59 -29 89 -85 89
c-18 0 -35 -3 -51 -9c-4 -20 -4 -33 -4 -55c0 -70 23 -112 72 -112c47 0 68 40 68 87z" />
    <glyph glyph-name="uni2470" unicode="&#x2470;" horiz-adv-x="1166" 
d="M1108 392c0 -222 -180 -402 -402 -402h-246c-222 0 -402 180 -402 402s180 402 402 402h246c222 0 402 -180 402 -402zM1050 393c0 196 -154 355 -344 355h-246c-190 0 -344 -159 -344 -355s154 -355 344 -355h246c190 0 344 159 344 355zM844 604l-55 -128
c-46 -109 -88 -226 -102 -284h-78l159 360h-187v52h263zM477 192h-65v336c-23 -13 -69 -23 -103 -26l-8 39c59 8 109 29 131 63h45v-412z" />
    <glyph glyph-name="uni2471" unicode="&#x2471;" horiz-adv-x="1166" 
d="M1108 392c0 -222 -180 -402 -402 -402h-246c-222 0 -402 180 -402 402s180 402 402 402h246c222 0 402 -180 402 -402zM1050 393c0 196 -154 355 -344 355h-246c-190 0 -344 -159 -344 -355s154 -355 344 -355h246c190 0 344 159 344 355zM841 291
c0 -63 -56 -106 -131 -106c-70 0 -131 37 -131 105c0 61 43 90 90 117c-42 25 -77 51 -77 104c0 59 52 100 118 100c67 0 118 -40 118 -99c0 -51 -35 -79 -77 -103c47 -27 90 -57 90 -118zM478 192h-64v336c-23 -13 -70 -23 -104 -26l-8 39c59 8 109 29 131 63h45v-412z
M776 512c0 37 -28 60 -65 60c-38 0 -65 -23 -65 -60c0 -39 28 -58 66 -81c37 22 64 43 64 81zM781 291c0 47 -30 70 -72 94c-42 -24 -73 -47 -73 -93c0 -40 34 -65 73 -65c42 0 72 26 72 64z" />
    <glyph glyph-name="uni2472" unicode="&#x2472;" horiz-adv-x="1166" 
d="M1108 392c0 -222 -180 -402 -402 -402h-246c-222 0 -402 180 -402 402s180 402 402 402h246c222 0 402 -180 402 -402zM1050 393c0 196 -154 355 -344 355h-246c-190 0 -344 -159 -344 -355s154 -355 344 -355h246c190 0 344 159 344 355zM844 454
c0 -146 -96 -238 -214 -268l-15 43c73 23 127 62 156 137c-16 -6 -34 -10 -53 -10c-81 0 -134 45 -134 125c0 68 42 130 129 130c85 0 131 -60 131 -157zM480 192h-65v336c-23 -13 -69 -23 -103 -26l-8 39c59 8 109 29 131 63h45v-412zM785 457c0 70 -24 112 -73 112
c-47 0 -67 -40 -67 -87c0 -59 28 -89 84 -89c18 0 35 3 51 9c4 20 5 33 5 55z" />
    <glyph glyph-name="uni2473" unicode="&#x2473;" horiz-adv-x="1166" 
d="M1108 392c0 -222 -180 -402 -402 -402h-246c-222 0 -402 180 -402 402s180 402 402 402h246c222 0 402 -180 402 -402zM1050 393c0 196 -154 355 -344 355h-246c-190 0 -344 -159 -344 -355s154 -355 344 -355h246c190 0 344 159 344 355zM879 398
c0 -107 -33 -213 -130 -213s-130 106 -130 213s33 213 130 213s130 -106 130 -213zM546 192h-249l144 214c26 38 34 64 34 89c0 45 -27 69 -79 69c-26 0 -55 -8 -75 -18l-16 42c28 14 65 23 104 23c91 0 133 -46 133 -112c0 -31 -17 -67 -53 -116l-100 -138h157v-53z
M818 399c0 84 -13 170 -69 170s-68 -86 -68 -170s12 -169 68 -169s69 85 69 169z" />
    <glyph glyph-name="uni24EA" unicode="&#x24ea;" horiz-adv-x="920" 
d="M862 392c0 -222 -180 -402 -402 -402s-402 180 -402 402s180 402 402 402s402 -180 402 -402zM805 393c0 196 -155 355 -345 355s-344 -159 -344 -355s154 -355 344 -355s345 159 345 355zM590 398c0 -107 -33 -213 -130 -213s-130 106 -130 213s33 213 130 213
s130 -106 130 -213zM529 399c0 84 -13 170 -69 170s-68 -86 -68 -170s12 -169 68 -169s69 85 69 169z" />
    <glyph glyph-name="lozenge" unicode="&#x25ca;" horiz-adv-x="636" 
d="M588 344l-270 -354l-270 354l270 354zM505 344l-187 246l-188 -246l188 -244z" />
    <glyph glyph-name="uni2713" unicode="&#x2713;" horiz-adv-x="740" 
d="M694 661l-361 -676l-287 367l64 52l214 -290l300 584z" />
    <glyph glyph-name="fi" unicode="&#xfb01;" horiz-adv-x="552" 
d="M484 691c0 -27 -24 -49 -53 -49s-53 22 -53 49s24 49 53 49s53 -22 53 -49zM475 0h-88v539h88v-539zM283 484h-94v-484h-88v484h-62v55h62v76c0 102 56 171 164 171c4 0 7 0 18 -1v-57h-6c-47 0 -88 -24 -88 -110v-79h94v-55z" />
    <glyph glyph-name="fl" unicode="&#xfb02;" horiz-adv-x="567" 
d="M490 0h-88v785h88v-785zM283 484h-94v-484h-88v484h-62v55h62v76c0 102 56 171 164 171c4 0 7 0 18 -1v-57h-6c-47 0 -88 -24 -88 -110v-79h94v-55z" />
    <glyph glyph-name="i.latn_TRK" horiz-adv-x="242" 
d="M174 691c0 -27 -24 -49 -53 -49s-53 22 -53 49s24 49 53 49s53 -22 53 -49zM165 0h-88v539h88v-539z" />
    <glyph glyph-name="Ldot.latn_CAT" horiz-adv-x="446" 
d="M379 0h-299v688h92v-626h207v-62zM398 375c0 -27 -22 -49 -49 -49s-49 22 -49 49s22 49 49 49s49 -22 49 -49z" />
    <glyph glyph-name="ldot.latn_CAT" horiz-adv-x="338" 
d="M165 0h-88v785h88v-785zM339 416c0 -27 -22 -49 -49 -49s-49 22 -49 49s22 49 49 49s49 -22 49 -49z" />
    <glyph glyph-name="n.subs" horiz-adv-x="378" 
d="M323 -215h-67v241c0 44 -20 72 -71 72c-25 0 -44 -3 -63 -11v-302h-67v330c34 15 84 25 130 25c98 0 138 -43 138 -112v-243z" />
    <glyph glyph-name="parenleft.numr" horiz-adv-x="216" 
d="M200 210l-34 -25c-82 81 -128 182 -128 297s46 216 128 297l34 -25c-61 -76 -95 -172 -95 -272s34 -196 95 -272z" />
    <glyph glyph-name="parenright.numr" horiz-adv-x="216" 
d="M178 482c0 -115 -46 -216 -128 -297l-34 25c61 76 95 172 95 272s-34 196 -95 272l34 25c82 -81 128 -182 128 -297z" />
    <glyph glyph-name="plus.numr" horiz-adv-x="354" 
d="M301 461h-98v-99h-52v99h-98v48h98v98h52v-98h98v-48z" />
    <glyph glyph-name="zero.numr" horiz-adv-x="338" 
d="M303 482c0 -107 -35 -213 -134 -213s-134 106 -134 213s35 213 134 213s134 -106 134 -213zM238 483c0 84 -13 170 -69 170s-69 -86 -69 -170s13 -169 69 -169s69 85 69 169z" />
    <glyph glyph-name="one.numr" horiz-adv-x="338" 
d="M238 276h-69v336c-24 -13 -70 -23 -104 -26l-9 39c60 8 111 29 134 63h48v-412z" />
    <glyph glyph-name="two.numr" horiz-adv-x="338" 
d="M282 276h-261l152 214c27 38 34 63 34 88c0 46 -27 69 -80 69c-26 0 -56 -7 -76 -17l-17 42c29 14 67 23 107 23c94 0 136 -45 136 -111c0 -31 -17 -68 -54 -117l-104 -138h163v-53z" />
    <glyph glyph-name="three.numr" horiz-adv-x="338" 
d="M288 396c0 -77 -62 -127 -146 -127c-41 0 -84 8 -112 22l18 44c21 -11 55 -18 83 -18c54 0 88 30 88 80c0 58 -48 80 -106 80h-12v37c62 5 104 33 104 77c0 41 -30 57 -69 57c-29 0 -56 -6 -79 -16l-17 41c30 14 68 22 106 22c71 0 125 -34 125 -95
c0 -50 -40 -79 -75 -92v-2c44 -12 92 -42 92 -110z" />
    <glyph glyph-name="four.numr" horiz-adv-x="338" 
d="M302 367h-35v-91h-61v91h-172v40l170 281h63v-282h35v-39zM209 627h-2c-8 -19 -18 -39 -29 -58l-96 -163h125v159c0 23 1 41 2 62z" />
    <glyph glyph-name="five.numr" horiz-adv-x="338" 
d="M288 395c0 -70 -59 -126 -146 -126c-41 0 -84 7 -112 21l19 45c21 -11 53 -18 83 -18c54 0 87 36 87 79c0 50 -30 86 -106 86c-19 0 -40 -2 -61 -5l24 211h199v-52h-152l-14 -117c8 1 14 2 30 2c97 0 149 -50 149 -126z" />
    <glyph glyph-name="six.numr" horiz-adv-x="338" 
d="M304 399c0 -68 -42 -130 -132 -130c-88 0 -135 60 -135 157c0 146 99 239 221 269l14 -44c-74 -22 -128 -62 -158 -137c16 6 35 10 54 10c83 0 136 -45 136 -125zM241 399c0 60 -29 89 -86 89c-18 0 -35 -3 -51 -9c-4 -20 -4 -33 -4 -55c0 -70 23 -112 73 -112
c48 0 68 40 68 87z" />
    <glyph glyph-name="seven.numr" horiz-adv-x="338" 
d="M307 688l-56 -128c-47 -108 -89 -226 -104 -284h-81l161 359h-190v53h270z" />
    <glyph glyph-name="eight.numr" horiz-adv-x="338" 
d="M304 374c0 -63 -58 -105 -135 -105c-72 0 -135 37 -135 105c0 61 44 90 92 117c-43 25 -79 52 -79 105c0 60 54 99 122 99s122 -39 122 -99c0 -52 -35 -79 -78 -103c48 -27 91 -58 91 -119zM236 596c0 37 -28 61 -66 61s-65 -24 -65 -61c0 -39 27 -58 66 -81
c38 22 65 43 65 81zM242 375c0 47 -31 70 -74 94c-43 -24 -74 -47 -74 -93c0 -40 34 -65 74 -65c42 0 74 26 74 64z" />
    <glyph glyph-name="nine.numr" horiz-adv-x="338" 
d="M301 538c0 -146 -98 -239 -220 -269l-15 44c73 22 129 62 159 137c-16 -6 -35 -10 -54 -10c-83 0 -137 45 -137 125c0 68 43 130 133 130c88 0 134 -60 134 -157zM239 541c0 70 -23 113 -73 113c-48 0 -68 -41 -68 -88c0 -60 28 -89 85 -89c18 0 35 3 51 9
c4 20 5 33 5 55z" />
    <glyph glyph-name="equal.numr" horiz-adv-x="354" 
d="M301 520h-248v48h248v-48zM301 401h-248v49h248v-49z" />
    <glyph glyph-name="n.numr" horiz-adv-x="378" 
d="M323 276h-67v241c0 44 -20 72 -71 72c-25 0 -44 -3 -63 -11v-302h-67v330c34 15 84 25 130 25c98 0 138 -43 138 -112v-243z" />
    <glyph glyph-name="minus.numr" horiz-adv-x="354" 
d="M301 461h-248v48h248v-48z" />
    <glyph glyph-name="parenleft.dnom" horiz-adv-x="216" 
d="M200 -66l-34 -25c-82 81 -128 182 -128 297s46 216 128 297l34 -25c-61 -76 -95 -172 -95 -272s34 -196 95 -272z" />
    <glyph glyph-name="parenright.dnom" horiz-adv-x="216" 
d="M178 206c0 -115 -46 -216 -128 -297l-34 25c61 76 95 172 95 272s-34 196 -95 272l34 25c82 -81 128 -182 128 -297z" />
    <glyph glyph-name="plus.dnom" horiz-adv-x="354" 
d="M301 185h-98v-99h-52v99h-98v48h98v98h52v-98h98v-48z" />
    <glyph glyph-name="zero.dnom" horiz-adv-x="338" 
d="M303 206c0 -107 -35 -213 -134 -213s-134 106 -134 213s35 213 134 213s134 -106 134 -213zM238 207c0 84 -13 170 -69 170s-69 -86 -69 -170s13 -169 69 -169s69 85 69 169z" />
    <glyph glyph-name="one.dnom" horiz-adv-x="338" 
d="M238 0h-69v336c-24 -13 -70 -23 -104 -26l-9 39c60 8 111 29 134 63h48v-412z" />
    <glyph glyph-name="two.dnom" horiz-adv-x="338" 
d="M282 0h-261l152 214c27 38 34 63 34 88c0 46 -27 69 -80 69c-26 0 -56 -7 -76 -17l-17 42c29 14 67 23 107 23c94 0 136 -45 136 -111c0 -31 -17 -68 -54 -117l-104 -138h163v-53z" />
    <glyph glyph-name="three.dnom" horiz-adv-x="338" 
d="M288 120c0 -77 -62 -127 -146 -127c-41 0 -84 8 -112 22l18 44c21 -11 55 -18 83 -18c54 0 88 30 88 80c0 58 -48 80 -106 80h-12v37c62 5 104 33 104 77c0 41 -30 57 -69 57c-29 0 -56 -6 -79 -16l-17 41c30 14 68 22 106 22c71 0 125 -34 125 -95
c0 -50 -40 -79 -75 -92v-2c44 -12 92 -42 92 -110z" />
    <glyph glyph-name="four.dnom" horiz-adv-x="338" 
d="M302 91h-35v-91h-61v91h-172v40l170 281h63v-282h35v-39zM209 351h-2c-8 -19 -18 -39 -29 -58l-96 -163h125v159c0 23 1 41 2 62z" />
    <glyph glyph-name="five.dnom" horiz-adv-x="338" 
d="M288 119c0 -70 -59 -126 -146 -126c-41 0 -84 7 -112 21l19 45c21 -11 53 -18 83 -18c54 0 87 36 87 79c0 50 -30 86 -106 86c-19 0 -40 -2 -61 -5l24 211h199v-52h-152l-14 -117c8 1 14 2 30 2c97 0 149 -50 149 -126z" />
    <glyph glyph-name="six.dnom" horiz-adv-x="338" 
d="M304 123c0 -68 -42 -130 -132 -130c-88 0 -135 60 -135 157c0 146 99 239 221 269l14 -44c-74 -22 -128 -62 -158 -137c16 6 35 10 54 10c83 0 136 -45 136 -125zM241 123c0 60 -29 89 -86 89c-18 0 -35 -3 -51 -9c-4 -20 -4 -33 -4 -55c0 -70 23 -112 73 -112
c48 0 68 40 68 87z" />
    <glyph glyph-name="seven.dnom" horiz-adv-x="338" 
d="M307 412l-56 -128c-47 -108 -89 -226 -104 -284h-81l161 359h-190v53h270z" />
    <glyph glyph-name="eight.dnom" horiz-adv-x="338" 
d="M304 98c0 -63 -58 -105 -135 -105c-72 0 -135 37 -135 105c0 61 44 90 92 117c-43 25 -79 52 -79 105c0 60 54 99 122 99s122 -39 122 -99c0 -52 -35 -79 -78 -103c48 -27 91 -58 91 -119zM236 320c0 37 -28 61 -66 61s-65 -24 -65 -61c0 -39 27 -58 66 -81
c38 22 65 43 65 81zM242 99c0 47 -31 70 -74 94c-43 -24 -74 -47 -74 -93c0 -40 34 -65 74 -65c42 0 74 26 74 64z" />
    <glyph glyph-name="nine.dnom" horiz-adv-x="338" 
d="M301 262c0 -146 -98 -239 -220 -269l-15 44c73 22 129 62 159 137c-16 -6 -35 -10 -54 -10c-83 0 -137 45 -137 125c0 68 43 130 133 130c88 0 134 -60 134 -157zM239 265c0 70 -23 113 -73 113c-48 0 -68 -41 -68 -88c0 -60 28 -89 85 -89c18 0 35 3 51 9
c4 20 5 33 5 55z" />
    <glyph glyph-name="equal.dnom" horiz-adv-x="354" 
d="M301 244h-248v48h248v-48zM301 125h-248v49h248v-49z" />
    <glyph glyph-name="n.dnom" horiz-adv-x="378" 
d="M323 0h-67v241c0 44 -20 72 -71 72c-25 0 -44 -3 -63 -11v-302h-67v330c34 15 84 25 130 25c98 0 138 -43 138 -112v-243z" />
    <glyph glyph-name="minus.dnom" horiz-adv-x="354" 
d="M301 185h-248v48h248v-48z" />
    <glyph glyph-name="space.frac" horiz-adv-x="55" 
 />
    <glyph glyph-name="numbersign.osf" horiz-adv-x="560" 
d="M502 338h-98l-17 -128h91v-46h-98l-22 -164h-51l22 164h-130l-22 -164h-51l22 164h-90v46h96l18 128h-90v47h96l21 154h51l-21 -154h130l21 154h51l-21 -154h92v-47zM353 339h-130l-18 -130h130z" />
    <glyph glyph-name="dollar.osf" horiz-adv-x="462" 
d="M400 149c0 -75 -58 -141 -150 -156v-120h-53v117c-53 2 -109 16 -143 37l26 56c32 -19 77 -31 118 -31c68 0 113 40 113 93c0 132 -244 80 -244 257c0 73 55 133 142 145v115h53v-113c47 -2 90 -15 123 -37l-26 -52c-27 17 -67 31 -105 31c-67 0 -101 -38 -101 -85
c0 -121 247 -75 247 -257z" />
    <glyph glyph-name="percent.osf" horiz-adv-x="822" 
d="M763 172c0 -100 -43 -182 -130 -182s-131 82 -131 182s44 182 131 182s130 -82 130 -182zM527 531l-186 -540l-47 16l186 540zM320 367c0 -100 -44 -182 -131 -182s-130 82 -130 182s43 182 130 182s131 -82 131 -182zM702 173c0 76 -19 140 -69 140s-70 -64 -70 -140
s20 -139 70 -139s69 63 69 139zM259 368c0 76 -20 140 -70 140s-69 -64 -69 -140s19 -139 69 -139s70 63 70 139z" />
    </font>
</defs>
</svg>
